<?xml version="1.0" encoding="UTF-8"?>
<!DOCTYPE svg PUBLIC "-//W3C//DTD SVG 1.1//EN" "http://www.w3.org/Graphics/SVG/1.1/DTD/svg11.dtd">
<svg xmlns="http://www.w3.org/2000/svg" version="1.1" width="1025px" height="575px" style="shape-rendering:geometricPrecision; text-rendering:geometricPrecision; image-rendering:optimizeQuality; fill-rule:evenodd; clip-rule:evenodd" xmlns:xlink="http://www.w3.org/1999/xlink">
<g><path style="opacity:1" fill="#629ad0" d="M 937.5,187.5 C 914.066,201.724 890.399,215.724 866.5,229.5C 865.379,225.526 863.546,221.86 861,218.5C 828.589,177.921 786.756,162.755 735.5,173C 693.719,185.445 665.553,212.278 651,253.5C 649.19,259.024 648.023,264.691 647.5,270.5C 646.096,275.599 645.429,280.932 645.5,286.5C 645.502,289.686 645.835,292.686 646.5,295.5C 647.523,314.526 652.856,332.192 662.5,348.5C 642.779,358.53 623.446,369.363 604.5,381C 599.89,383.474 595.223,385.641 590.5,387.5C 589.109,385.04 587.942,382.374 587,379.5C 586.333,318.5 586.333,257.5 587,196.5C 589.758,188.133 594.592,181.3 601.5,176C 651.532,147.319 701.532,118.653 751.5,90C 760.485,86.7199 769.485,86.7199 778.5,90C 828.068,118.947 877.734,147.613 927.5,176C 932.127,178.788 935.461,182.622 937.5,187.5 Z"/></g>
<g><path style="opacity:1" fill="#7593b4" d="M 276.5,96.5 C 274.418,96.528 272.584,95.8613 271,94.5C 270.667,94.8333 270.333,95.1667 270,95.5C 269.5,93.6667 268.333,92.5 266.5,92C 259.167,91.3333 251.833,91.3333 244.5,92C 237.746,94.8759 231.079,98.0426 224.5,101.5C 229.24,98.6145 233.906,95.4479 238.5,92C 252.192,86.2055 264.858,87.7055 276.5,96.5 Z"/></g>
<g><path style="opacity:1" fill="#6699d2" d="M 276.5,96.5 C 283.813,100.801 291.146,105.135 298.5,109.5C 298.628,111.09 299.295,112.423 300.5,113.5C 310.416,119.625 320.75,124.958 331.5,129.5C 337.969,132.902 344.303,136.569 350.5,140.5C 351.693,142.054 352.86,143.721 354,145.5C 354.333,145.167 354.667,144.833 355,144.5C 356.584,145.861 358.418,146.528 360.5,146.5C 360.751,148.17 361.418,149.67 362.5,151C 365.908,152.996 369.575,154.163 373.5,154.5C 375.974,156.822 378.474,159.155 381,161.5C 381.671,160.748 382.504,160.414 383.5,160.5C 383.721,161.735 384.388,162.735 385.5,163.5C 389.034,165.433 392.7,167.1 396.5,168.5C 400.023,173.769 405.023,176.769 411.5,177.5C 418.461,181.131 422.794,186.798 424.5,194.5C 423.416,192.681 422.082,191.015 420.5,189.5C 398.149,202.861 375.816,216.194 353.5,229.5C 325.989,184.915 285.989,165.748 233.5,172C 182.063,185.438 151.23,218.272 141,270.5C 137.582,298.229 142.415,324.229 155.5,348.5C 132.561,360.971 110.228,374.471 88.5,389C 89.0439,390.585 89.7106,392.085 90.5,393.5C 88.2243,391.669 86.391,389.336 85,386.5C 84.51,385.207 84.3433,383.873 84.5,382.5C 83.1779,319.825 83.1779,257.158 84.5,194.5C 84.5,194.167 84.5,193.833 84.5,193.5C 90.3763,182.964 99.0429,175.63 110.5,171.5C 111.193,170.482 111.859,169.482 112.5,168.5C 119.659,163.083 127.325,158.417 135.5,154.5C 142.715,150.584 150.049,146.75 157.5,143C 158.381,142.292 159.047,141.458 159.5,140.5C 165.366,137.489 171.366,134.655 177.5,132C 181.111,129.381 184.445,126.547 187.5,123.5C 199.628,115.932 211.961,108.598 224.5,101.5C 231.079,98.0426 237.746,94.8759 244.5,92C 251.833,91.3333 259.167,91.3333 266.5,92C 268.333,92.5 269.5,93.6667 270,95.5C 270.333,95.1667 270.667,94.8333 271,94.5C 272.584,95.8613 274.418,96.528 276.5,96.5 Z"/></g>
<g><path style="opacity:1" fill="#7088a2" d="M 298.5,109.5 C 309.735,115.943 320.735,122.61 331.5,129.5C 320.75,124.958 310.416,119.625 300.5,113.5C 299.295,112.423 298.628,111.09 298.5,109.5 Z"/></g>
<g><path style="opacity:1" fill="#7795b5" d="M 187.5,123.5 C 184.445,126.547 181.111,129.381 177.5,132C 171.366,134.655 165.366,137.489 159.5,140.5C 168.492,134.334 177.826,128.667 187.5,123.5 Z"/></g>
<g><path style="opacity:1" fill="#768ca2" d="M 159.5,140.5 C 159.047,141.458 158.381,142.292 157.5,143C 150.049,146.75 142.715,150.584 135.5,154.5C 140.284,151.558 144.95,148.391 149.5,145C 152.706,143.231 156.039,141.731 159.5,140.5 Z"/></g>
<g><path style="opacity:1" fill="#6f8499" d="M 350.5,140.5 C 354.118,142.137 357.451,144.137 360.5,146.5C 357.451,144.137 354.118,142.137 350.5,140.5 Z"/></g>
<g><path style="opacity:1" fill="#7693b2" d="M 360.5,146.5 C 365.037,148.93 369.37,151.597 373.5,154.5C 369.575,154.163 365.908,152.996 362.5,151C 361.418,149.67 360.751,148.17 360.5,146.5 Z"/></g>
<g><path style="opacity:1" fill="#6e8298" d="M 373.5,154.5 C 377.173,156 380.506,158 383.5,160.5C 382.504,160.414 381.671,160.748 381,161.5C 378.474,159.155 375.974,156.822 373.5,154.5 Z"/></g>
<g><path style="opacity:1" fill="#7a8fa4" d="M 383.5,160.5 C 388.343,162.418 392.677,165.084 396.5,168.5C 392.7,167.1 389.034,165.433 385.5,163.5C 384.388,162.735 383.721,161.735 383.5,160.5 Z"/></g>
<g><path style="opacity:1" fill="#fefefe" d="M 866.5,229.5 C 849.635,239.432 832.635,249.098 815.5,258.5C 805.376,240.932 790.043,231.099 769.5,229C 735.886,228.954 714.72,245.121 706,277.5C 705.143,287.269 705.81,296.936 708,306.5C 709.698,310.328 711.532,313.994 713.5,317.5C 729.444,342.769 752.11,351.936 781.5,345C 796.429,340.711 807.762,331.878 815.5,318.5C 832.839,328.167 850.172,337.834 867.5,347.5C 843.701,385.657 809.201,405.324 764,406.5C 719.75,405.132 685.917,385.799 662.5,348.5C 652.856,332.192 647.523,314.526 646.5,295.5C 646.482,287.149 646.815,278.816 647.5,270.5C 648.023,264.691 649.19,259.024 651,253.5C 665.553,212.278 693.719,185.445 735.5,173C 786.756,162.755 828.589,177.921 861,218.5C 863.546,221.86 865.379,225.526 866.5,229.5 Z"/></g>
<g><path style="opacity:1" fill="#fdfefe" d="M 353.5,229.5 C 337.5,239.167 321.5,248.833 305.5,258.5C 304.5,258.5 303.5,258.5 302.5,258.5C 298.155,249.983 291.822,243.149 283.5,238C 248.102,221.577 220.935,230.411 202,264.5C 195.207,283.152 196.374,301.152 205.5,318.5C 224.104,346.641 249.104,354.141 280.5,341C 289.997,335.335 297.664,327.835 303.5,318.5C 318.974,327.071 334.307,335.904 349.5,345C 351.439,345.908 352.439,347.408 352.5,349.5C 336.511,376.492 313.511,394.492 283.5,403.5C 271.636,405.96 259.636,406.96 247.5,406.5C 206.878,402.861 176.211,383.527 155.5,348.5C 142.415,324.229 137.582,298.229 141,270.5C 151.23,218.272 182.063,185.438 233.5,172C 285.989,165.748 325.989,184.915 353.5,229.5 Z"/></g>
<g><path style="opacity:1" fill="#718eae" d="M 396.5,168.5 C 402.079,170.779 407.079,173.779 411.5,177.5C 405.023,176.769 400.023,173.769 396.5,168.5 Z"/></g>
<g><path style="opacity:1" fill="#7891ab" d="M 112.5,168.5 C 111.859,169.482 111.193,170.482 110.5,171.5C 99.0429,175.63 90.3763,182.964 84.5,193.5C 90.0523,180.949 99.3856,172.615 112.5,168.5 Z"/></g>
<g><path style="opacity:1" fill="#025b9c" d="M 937.5,187.5 C 939.481,190.128 940.981,193.128 942,196.5C 942.667,257.833 942.667,319.167 942,380.5C 941.33,383.174 940.163,385.507 938.5,387.5C 914.774,374.465 891.107,361.132 867.5,347.5C 850.172,337.834 832.839,328.167 815.5,318.5C 815.047,317.542 814.381,316.708 813.5,316C 797.31,307.074 781.31,297.908 765.5,288.5C 781.905,278.102 798.571,268.102 815.5,258.5C 832.635,249.098 849.635,239.432 866.5,229.5C 890.399,215.724 914.066,201.724 937.5,187.5 Z"/></g>
<g><path style="opacity:1" fill="#01589c" d="M 424.5,194.5 C 425.652,255.478 425.818,316.478 425,377.5C 424.356,381.619 422.856,385.285 420.5,388.5C 398.897,375.359 377.23,362.192 355.5,349C 354.423,348.53 353.423,348.697 352.5,349.5C 352.439,347.408 351.439,345.908 349.5,345C 334.307,335.904 318.974,327.071 303.5,318.5C 287.544,308.76 271.378,299.093 255,289.5C 254.329,290.252 253.496,290.586 252.5,290.5C 269.701,279.066 287.368,268.399 305.5,258.5C 321.5,248.833 337.5,239.167 353.5,229.5C 375.816,216.194 398.149,202.861 420.5,189.5C 422.082,191.015 423.416,192.681 424.5,194.5 Z"/></g>
<g><path style="opacity:1" fill="#7790ac" d="M 84.5,194.5 C 83.1779,257.158 83.1779,319.825 84.5,382.5C 83.7321,381.737 83.2321,380.737 83,379.5C 82.3333,318.833 82.3333,258.167 83,197.5C 83.2321,196.263 83.7321,195.263 84.5,194.5 Z"/></g>
<g><path style="opacity:1" fill="#577a90" d="M 424.5,194.5 C 425.268,195.263 425.768,196.263 426,197.5C 426.667,258.5 426.667,319.5 426,380.5C 425.336,384.579 423.503,387.912 420.5,390.5C 420.5,389.833 420.5,389.167 420.5,388.5C 422.856,385.285 424.356,381.619 425,377.5C 425.818,316.478 425.652,255.478 424.5,194.5 Z"/></g>
<g><path style="opacity:1" fill="#639bd2" d="M 815.5,258.5 C 798.571,268.102 781.905,278.102 765.5,288.5C 747.871,297.648 730.538,307.314 713.5,317.5C 711.532,313.994 709.698,310.328 708,306.5C 705.81,296.936 705.143,287.269 706,277.5C 714.72,245.121 735.886,228.954 769.5,229C 790.043,231.099 805.376,240.932 815.5,258.5 Z"/></g>
<g><path style="opacity:1" fill="#669ad2" d="M 305.5,258.5 C 287.368,268.399 269.701,279.066 252.5,290.5C 236.66,299.585 220.993,308.918 205.5,318.5C 196.374,301.152 195.207,283.152 202,264.5C 220.935,230.411 248.102,221.577 283.5,238C 291.822,243.149 298.155,249.983 302.5,258.5C 303.5,258.5 304.5,258.5 305.5,258.5 Z"/></g>
<g><path style="opacity:1" fill="#fcfdfd" d="M 883.5,294.5 C 878.833,294.5 874.167,294.5 869.5,294.5C 869.5,298.833 869.5,303.167 869.5,307.5C 865.5,307.5 861.5,307.5 857.5,307.5C 857.5,303.167 857.5,298.833 857.5,294.5C 852.833,294.5 848.167,294.5 843.5,294.5C 843.5,290.167 843.5,285.833 843.5,281.5C 848.167,281.5 852.833,281.5 857.5,281.5C 857.5,277.167 857.5,272.833 857.5,268.5C 861.833,268.5 866.167,268.5 870.5,268.5C 870.5,272.833 870.5,277.167 870.5,281.5C 874.833,281.5 879.167,281.5 883.5,281.5C 883.5,285.833 883.5,290.167 883.5,294.5 Z"/></g>
<g><path style="opacity:1" fill="#fefffe" d="M 906.5,268.5 C 910.833,268.5 915.167,268.5 919.5,268.5C 919.5,272.833 919.5,277.167 919.5,281.5C 923.833,281.5 928.167,281.5 932.5,281.5C 932.5,285.833 932.5,290.167 932.5,294.5C 928.167,294.5 923.833,294.5 919.5,294.5C 919.5,298.833 919.5,303.167 919.5,307.5C 915.167,307.5 910.833,307.5 906.5,307.5C 906.5,303.167 906.5,298.833 906.5,294.5C 902.167,294.5 897.833,294.5 893.5,294.5C 893.5,290.167 893.5,285.833 893.5,281.5C 897.833,281.5 902.167,281.5 906.5,281.5C 906.5,277.167 906.5,272.833 906.5,268.5 Z"/></g>
<g><path style="opacity:1" fill="#acc9e7" d="M 647.5,270.5 C 646.815,278.816 646.482,287.149 646.5,295.5C 645.835,292.686 645.502,289.686 645.5,286.5C 645.429,280.932 646.096,275.599 647.5,270.5 Z"/></g>
<g><path style="opacity:1" fill="#024682" d="M 765.5,288.5 C 781.31,297.908 797.31,307.074 813.5,316C 814.381,316.708 815.047,317.542 815.5,318.5C 807.762,331.878 796.429,340.711 781.5,345C 752.11,351.936 729.444,342.769 713.5,317.5C 730.538,307.314 747.871,297.648 765.5,288.5 Z"/></g>
<g><path style="opacity:1" fill="#024480" d="M 303.5,318.5 C 297.664,327.835 289.997,335.335 280.5,341C 249.104,354.141 224.104,346.641 205.5,318.5C 220.993,308.918 236.66,299.585 252.5,290.5C 253.496,290.586 254.329,290.252 255,289.5C 271.378,299.093 287.544,308.76 303.5,318.5 Z"/></g>
<g><path style="opacity:1" fill="#70a3c7" d="M 843.5,294.5 C 848.167,294.5 852.833,294.5 857.5,294.5C 857.5,298.833 857.5,303.167 857.5,307.5C 856.517,303.702 856.183,299.702 856.5,295.5C 851.968,295.818 847.634,295.485 843.5,294.5 Z"/></g>
<g><path style="opacity:1" fill="#86b0cf" d="M 883.5,294.5 C 879.366,295.485 875.032,295.818 870.5,295.5C 870.5,299.833 870.5,304.167 870.5,308.5C 865.968,308.818 861.634,308.485 857.5,307.5C 861.5,307.5 865.5,307.5 869.5,307.5C 869.5,303.167 869.5,298.833 869.5,294.5C 874.167,294.5 878.833,294.5 883.5,294.5 Z"/></g>
<g><path style="opacity:1" fill="#014681" d="M 867.5,347.5 C 891.107,361.132 914.774,374.465 938.5,387.5C 934.29,395.54 927.957,401.373 919.5,405C 874.337,430.747 829.337,456.747 784.5,483C 772.852,489.478 760.852,490.144 748.5,485C 698.468,455.986 648.468,426.986 598.5,398C 595.46,394.74 592.794,391.24 590.5,387.5C 595.223,385.641 599.89,383.474 604.5,381C 623.446,369.363 642.779,358.53 662.5,348.5C 685.917,385.799 719.75,405.132 764,406.5C 809.201,405.324 843.701,385.657 867.5,347.5 Z"/></g>
<g><path style="opacity:1" fill="#014480" d="M 155.5,348.5 C 176.211,383.527 206.878,402.861 247.5,406.5C 254.19,407.218 261.023,407.885 268,408.5C 273.428,407.285 278.594,405.619 283.5,403.5C 313.511,394.492 336.511,376.492 352.5,349.5C 353.423,348.697 354.423,348.53 355.5,349C 377.23,362.192 398.897,375.359 420.5,388.5C 420.5,389.167 420.5,389.833 420.5,390.5C 420.532,392.619 419.532,393.952 417.5,394.5C 410.144,399.533 402.81,404.533 395.5,409.5C 393.326,409.75 391.659,410.75 390.5,412.5C 386.19,413.052 382.857,415.052 380.5,418.5C 377.506,421 374.173,423 370.5,424.5C 365.976,426.043 361.976,428.377 358.5,431.5C 352.995,433.749 347.995,436.749 343.5,440.5C 341.326,440.75 339.659,441.75 338.5,443.5C 336.326,443.75 334.659,444.75 333.5,446.5C 326.824,449.166 320.824,452.833 315.5,457.5C 308.711,460.394 302.378,464.06 296.5,468.5C 294.326,468.75 292.659,469.75 291.5,471.5C 281.392,477.214 271.392,482.88 261.5,488.5C 256.833,488.5 252.167,488.5 247.5,488.5C 242.031,485.264 236.364,482.264 230.5,479.5C 226.701,476.048 222.368,473.382 217.5,471.5C 203.838,462.666 189.838,454.333 175.5,446.5C 173.063,444.567 170.729,442.4 168.5,440C 165.624,439.562 162.957,438.562 160.5,437C 148.439,429.305 136.106,422.138 123.5,415.5C 122.341,413.75 120.674,412.75 118.5,412.5C 115.165,409.161 111.165,406.828 106.5,405.5C 100.908,401.916 95.5743,397.916 90.5,393.5C 89.7106,392.085 89.0439,390.585 88.5,389C 110.228,374.471 132.561,360.971 155.5,348.5 Z"/></g>
<g><path style="opacity:1" fill="#5b7083" d="M 90.5,393.5 C 95.5743,397.916 100.908,401.916 106.5,405.5C 99.6787,403.328 94.3453,399.328 90.5,393.5 Z"/></g>
<g><path style="opacity:1" fill="#5b6c7a" d="M 417.5,394.5 C 417.141,396.371 416.141,397.871 414.5,399C 408.391,403.051 402.058,406.551 395.5,409.5C 402.81,404.533 410.144,399.533 417.5,394.5 Z"/></g>
<g><path style="opacity:1" fill="#335985" d="M 283.5,403.5 C 278.594,405.619 273.428,407.285 268,408.5C 261.023,407.885 254.19,407.218 247.5,406.5C 259.636,406.96 271.636,405.96 283.5,403.5 Z"/></g>
<g><path style="opacity:1" fill="#576c7f" d="M 106.5,405.5 C 111.165,406.828 115.165,409.161 118.5,412.5C 113.879,411.191 109.879,408.858 106.5,405.5 Z"/></g>
<g><path style="opacity:1" fill="#617281" d="M 395.5,409.5 C 394.599,411.727 392.933,412.727 390.5,412.5C 391.659,410.75 393.326,409.75 395.5,409.5 Z"/></g>
<g><path style="opacity:1" fill="#5f768b" d="M 118.5,412.5 C 120.674,412.75 122.341,413.75 123.5,415.5C 121.067,415.727 119.401,414.727 118.5,412.5 Z"/></g>
<g><path style="opacity:1" fill="#546b85" d="M 390.5,412.5 C 388.236,414.314 385.903,416.147 383.5,418C 382.552,418.483 381.552,418.649 380.5,418.5C 382.857,415.052 386.19,413.052 390.5,412.5 Z"/></g>
<g><path style="opacity:1" fill="#576c81" d="M 123.5,415.5 C 136.106,422.138 148.439,429.305 160.5,437C 162.957,438.562 165.624,439.562 168.5,440C 170.729,442.4 173.063,444.567 175.5,446.5C 157.606,437.215 140.273,426.882 123.5,415.5 Z"/></g>
<g><path style="opacity:1" fill="#5c6e7e" d="M 370.5,424.5 C 367.121,427.858 363.121,430.191 358.5,431.5C 361.976,428.377 365.976,426.043 370.5,424.5 Z"/></g>
<g><path style="opacity:1" fill="#5e7080" d="M 358.5,431.5 C 354.264,435.728 349.264,438.728 343.5,440.5C 347.995,436.749 352.995,433.749 358.5,431.5 Z"/></g>
<g><path style="opacity:1" fill="#5d7283" d="M 343.5,440.5 C 342.599,442.727 340.933,443.727 338.5,443.5C 339.659,441.75 341.326,440.75 343.5,440.5 Z"/></g>
<g><path style="opacity:1" fill="#586a79" d="M 338.5,443.5 C 337.599,445.727 335.933,446.727 333.5,446.5C 334.659,444.75 336.326,443.75 338.5,443.5 Z"/></g>
<g><path style="opacity:1" fill="#5d6f7e" d="M 333.5,446.5 C 328.033,450.953 322.033,454.619 315.5,457.5C 320.824,452.833 326.824,449.166 333.5,446.5 Z"/></g>
<g><path style="opacity:1" fill="#5a6e7f" d="M 175.5,446.5 C 189.838,454.333 203.838,462.666 217.5,471.5C 216.448,471.649 215.448,471.483 214.5,471C 201.066,463.296 188.066,455.129 175.5,446.5 Z"/></g>
<g><path style="opacity:1" fill="#5c6d7a" d="M 315.5,457.5 C 311.072,460.891 306.406,464.058 301.5,467C 299.975,468.009 298.308,468.509 296.5,468.5C 302.378,464.06 308.711,460.394 315.5,457.5 Z"/></g>
<g><path style="opacity:1" fill="#667887" d="M 296.5,468.5 C 295.599,470.727 293.933,471.727 291.5,471.5C 292.659,469.75 294.326,468.75 296.5,468.5 Z"/></g>
<g><path style="opacity:1" fill="#5a7186" d="M 217.5,471.5 C 222.368,473.382 226.701,476.048 230.5,479.5C 226.577,478.205 222.91,476.372 219.5,474C 218.619,473.292 217.953,472.458 217.5,471.5 Z"/></g>
<g><path style="opacity:1" fill="#607281" d="M 291.5,471.5 C 282.45,478.696 272.45,484.362 261.5,488.5C 271.392,482.88 281.392,477.214 291.5,471.5 Z"/></g>
<g><path style="opacity:1" fill="#607486" d="M 230.5,479.5 C 236.364,482.264 242.031,485.264 247.5,488.5C 241.076,486.79 235.409,483.79 230.5,479.5 Z"/></g>
</svg>
