<?xml version="1.0" encoding="UTF-8"?>
<!DOCTYPE svg PUBLIC "-//W3C//DTD SVG 1.1//EN" "http://www.w3.org/Graphics/SVG/1.1/DTD/svg11.dtd">
<svg xmlns="http://www.w3.org/2000/svg" version="1.1" width="500px" height="500px" style="shape-rendering:geometricPrecision; text-rendering:geometricPrecision; image-rendering:optimizeQuality; fill-rule:evenodd; clip-rule:evenodd" xmlns:xlink="http://www.w3.org/1999/xlink">
<g><path style="opacity:1" fill="#2277ff" d="M 18.5,14.5 C 173.167,14.5 327.833,14.5 482.5,14.5C 482.5,16.8333 482.5,19.1667 482.5,21.5C 482.198,24.0593 482.532,26.3926 483.5,28.5C 483.5,29.8333 483.5,31.1667 483.5,32.5C 482.25,32.5774 481.417,33.244 481,34.5C 480.501,38.4862 480.334,42.4862 480.5,46.5C 478.685,53.4461 477.685,60.7794 477.5,68.5C 477.5,69.1667 477.5,69.8333 477.5,70.5C 476.535,76.6584 475.868,82.9918 475.5,89.5C 475.183,93.7016 475.517,97.7016 476.5,101.5C 476.5,102.167 476.5,102.833 476.5,103.5C 474.824,104.183 474.157,105.517 474.5,107.5C 473.167,110.833 473.167,114.167 474.5,117.5C 474.5,118.833 474.5,120.167 474.5,121.5C 472.955,122.23 472.122,123.563 472,125.5C 471.19,129.358 471.357,133.024 472.5,136.5C 473.338,136.842 473.672,137.508 473.5,138.5C 471.983,138.511 470.816,139.177 470,140.5C 469.654,146.857 469.154,153.19 468.5,159.5C 468.182,164.032 468.515,168.366 469.5,172.5C 469.5,173.833 469.5,175.167 469.5,176.5C 468.069,176.881 467.236,177.881 467,179.5C 466.192,183.027 466.359,186.36 467.5,189.5C 467.5,190.833 467.5,192.167 467.5,193.5C 466.25,193.577 465.417,194.244 465,195.5C 464.547,202.177 464.047,208.844 463.5,215.5C 463.5,215.833 463.5,216.167 463.5,216.5C 462.565,221.994 461.898,227.661 461.5,233.5C 461.183,237.702 461.517,241.702 462.5,245.5C 462.5,246.167 462.5,246.833 462.5,247.5C 461.25,247.577 460.417,248.244 460,249.5C 459.501,253.821 459.334,258.154 459.5,262.5C 458.883,262.611 458.383,262.944 458,263.5C 457.558,271.51 457.058,279.51 456.5,287.5C 456.5,287.833 456.5,288.167 456.5,288.5C 455.619,293.669 454.952,299.002 454.5,304.5C 454.183,308.702 454.517,312.702 455.5,316.5C 455.5,317.833 455.5,319.167 455.5,320.5C 454.504,320.414 453.671,320.748 453,321.5C 451.133,339.139 449.299,356.806 447.5,374.5C 447.181,379.363 447.514,384.03 448.5,388.5C 448.5,389.833 448.5,391.167 448.5,392.5C 446.824,393.183 446.157,394.517 446.5,396.5C 444.19,407.915 442.856,419.582 442.5,431.5C 442.5,434.167 442.5,436.833 442.5,439.5C 441.833,439.5 441.167,439.5 440.5,439.5C 438.199,440.06 435.866,440.56 433.5,441C 432.748,441.671 432.414,442.504 432.5,443.5C 431.833,443.5 431.167,443.5 430.5,443.5C 429.432,442.566 428.099,442.232 426.5,442.5C 426.5,443.5 426.5,444.5 426.5,445.5C 425.5,445.5 424.5,445.5 423.5,445.5C 422.053,444.115 421.053,444.448 420.5,446.5C 419.833,446.5 419.167,446.5 418.5,446.5C 417.791,445.596 416.791,445.263 415.5,445.5C 409.668,446.934 404.002,448.601 398.5,450.5C 397.5,450.833 396.833,451.5 396.5,452.5C 395.222,452.782 394.222,453.449 393.5,454.5C 393.5,453.833 393.5,453.167 393.5,452.5C 393.083,451.876 392.416,451.543 391.5,451.5C 387.103,453.015 382.77,454.348 378.5,455.5C 376.518,455.995 374.518,456.495 372.5,457C 371.748,457.671 371.414,458.504 371.5,459.5C 370.833,459.5 370.167,459.5 369.5,459.5C 366.348,458.761 363.015,458.761 359.5,459.5C 359.5,460.5 359.5,461.5 359.5,462.5C 358.833,462.5 358.167,462.5 357.5,462.5C 356.791,461.596 355.791,461.263 354.5,461.5C 351.904,462.265 349.237,462.599 346.5,462.5C 346.5,463.5 346.5,464.5 346.5,465.5C 346.167,465.5 345.833,465.5 345.5,465.5C 344.903,464.861 344.07,464.528 343,464.5C 340.5,465 338,465.5 335.5,466C 334.748,466.671 334.414,467.504 334.5,468.5C 333.833,469.167 333.167,469.833 332.5,470.5C 332.5,469.833 332.5,469.167 332.5,468.5C 330.643,467.235 328.976,467.568 327.5,469.5C 326.5,469.5 325.5,469.5 324.5,469.5C 323.167,469.5 322.5,470.167 322.5,471.5C 321.833,471.833 321.167,472.167 320.5,472.5C 320.5,472.167 320.5,471.833 320.5,471.5C 318.545,470.07 316.879,470.403 315.5,472.5C 314.5,472.5 313.5,472.5 312.5,472.5C 309.99,472.927 307.657,473.593 305.5,474.5C 303.236,475.219 300.903,475.552 298.5,475.5C 298.5,476.5 298.5,477.5 298.5,478.5C 297.833,478.5 297.167,478.5 296.5,478.5C 295.053,477.115 294.053,477.448 293.5,479.5C 292.222,479.782 291.222,480.449 290.5,481.5C 290.5,480.833 290.5,480.167 290.5,479.5C 288.32,478.206 286.32,478.539 284.5,480.5C 283.833,480.5 283.167,480.5 282.5,480.5C 279.834,480.933 277.168,481.433 274.5,482C 273.944,482.383 273.611,482.883 273.5,483.5C 270.715,482.916 269.048,483.916 268.5,486.5C 267.833,486.5 267.167,486.5 266.5,486.5C 265.791,485.596 264.791,485.263 263.5,485.5C 260.615,485.643 258.282,486.643 256.5,488.5C 253.5,488.5 250.5,488.5 247.5,488.5C 245.403,486.518 242.736,485.518 239.5,485.5C 236.591,483.713 233.591,483.379 230.5,484.5C 229.833,484.5 229.167,484.5 228.5,484.5C 228.5,483.5 228.5,482.5 228.5,481.5C 224.985,480.761 221.652,480.761 218.5,481.5C 217.833,481.5 217.167,481.5 216.5,481.5C 216.5,480.5 216.5,479.5 216.5,478.5C 203.799,475.392 191.132,472.392 178.5,469.5C 176.821,469.285 175.821,469.952 175.5,471.5C 174.609,470.89 173.609,470.557 172.5,470.5C 172.5,469.5 172.5,468.5 172.5,467.5C 170.097,467.552 167.764,467.219 165.5,466.5C 164.167,466.5 163.5,467.167 163.5,468.5C 162.609,467.89 161.609,467.557 160.5,467.5C 160.5,466.5 160.5,465.5 160.5,464.5C 155.721,463.444 150.888,462.444 146,461.5C 144.93,461.528 144.097,461.861 143.5,462.5C 142.833,462.5 142.167,462.5 141.5,462.5C 141.5,461.5 141.5,460.5 141.5,459.5C 137.985,458.761 134.652,458.761 131.5,459.5C 130.167,459.5 128.833,459.5 127.5,459.5C 127.5,458.5 127.5,457.5 127.5,456.5C 126.5,456.5 125.5,456.5 124.5,456.5C 124.389,455.883 124.056,455.383 123.5,455C 120.832,454.433 118.166,453.933 115.5,453.5C 114.5,453.5 113.5,453.5 112.5,453.5C 111.292,452.766 109.959,452.433 108.5,452.5C 106.698,451.542 104.698,450.875 102.5,450.5C 101.167,450.5 100.5,451.167 100.5,452.5C 99.609,451.89 98.609,451.557 97.5,451.5C 97.5,450.5 97.5,449.5 97.5,448.5C 95.0971,448.552 92.7638,448.219 90.5,447.5C 89.1667,447.5 88.5,448.167 88.5,449.5C 87.609,448.89 86.609,448.557 85.5,448.5C 85.5,447.5 85.5,446.5 85.5,445.5C 83.0971,445.552 80.7638,445.219 78.5,444.5C 77.209,444.263 76.209,444.596 75.5,445.5C 74.8333,445.5 74.1667,445.5 73.5,445.5C 73.5,444.5 73.5,443.5 73.5,442.5C 71.5853,442.216 69.9187,442.549 68.5,443.5C 67.8333,443.5 67.1667,443.5 66.5,443.5C 66.5,442.5 66.5,441.5 66.5,440.5C 64.0971,440.552 61.7638,440.219 59.5,439.5C 58.8333,439.5 58.1667,439.5 57.5,439.5C 56.7509,429.837 55.9175,420.17 55,410.5C 54.6174,409.944 54.1174,409.611 53.5,409.5C 53.5,405.167 53.5,400.833 53.5,396.5C 53.1575,389.323 52.4909,382.323 51.5,375.5C 51.0643,369 50.3976,362.666 49.5,356.5C 49.1583,355.662 48.4916,355.328 47.5,355.5C 47.5,354.167 47.5,352.833 47.5,351.5C 48.6484,347.019 48.8151,342.352 48,337.5C 47.7645,335.881 46.9311,334.881 45.5,334.5C 45.5,333.833 45.5,333.167 45.5,332.5C 46.4861,328.03 46.8195,323.363 46.5,318.5C 45.7526,305.12 44.586,291.786 43,278.5C 42.3292,277.748 41.4959,277.414 40.5,277.5C 40.5,276.833 40.5,276.167 40.5,275.5C 41.6497,270.684 41.8163,265.684 41,260.5C 40.5831,259.244 39.7498,258.577 38.5,258.5C 38.5,257.167 38.5,255.833 38.5,254.5C 39.4849,250.366 39.8182,246.032 39.5,241.5C 39.0004,234.506 38.5004,227.506 38,220.5C 37.5776,218.574 36.4109,217.574 34.5,217.5C 34.3284,216.508 34.6618,215.842 35.5,215.5C 36.1644,212.854 36.4978,210.021 36.5,207C 36.4033,203.567 35.7366,200.4 34.5,197.5C 34.6658,192.821 34.4992,188.155 34,183.5C 33.3292,182.748 32.4959,182.414 31.5,182.5C 31.5,180.833 31.5,179.167 31.5,177.5C 32.4816,174.038 32.815,170.371 32.5,166.5C 31.9479,153.102 30.7813,139.769 29,126.5C 28.6232,125.058 27.7899,124.058 26.5,123.5C 26.5,122.5 26.5,121.5 26.5,120.5C 27.4834,116.702 27.8168,112.702 27.5,108.5C 27.6641,105.813 27.4974,103.146 27,100.5C 26.7216,99.5842 26.2216,98.9175 25.5,98.5C 25.5,95.1667 25.5,91.8333 25.5,88.5C 25.2434,82.3124 24.5767,76.3124 23.5,70.5C 23.1558,64.3219 22.4891,58.3219 21.5,52.5C 21.5,51.5 21.5,50.5 21.5,49.5C 21.8432,47.5168 21.1765,46.1834 19.5,45.5C 19.5,44.5 19.5,43.5 19.5,42.5C 20.6484,38.0189 20.8151,33.3522 20,28.5C 19.3292,27.7476 18.4959,27.4142 17.5,27.5C 17.5,25.8333 17.5,24.1667 17.5,22.5C 18.4731,20.0521 18.8064,17.3854 18.5,14.5 Z"/></g>
<g><path style="opacity:1" fill="#7daeff" d="M 482.5,14.5 C 484.308,15.9179 484.975,17.9179 484.5,20.5C 483.833,20.8333 483.167,21.1667 482.5,21.5C 482.5,19.1667 482.5,16.8333 482.5,14.5 Z"/></g>
<g><path style="opacity:1" fill="#b1ceff" d="M 18.5,14.5 C 18.8064,17.3854 18.4731,20.0521 17.5,22.5C 15.8226,19.3846 16.1559,16.7179 18.5,14.5 Z"/></g>
<g><path style="opacity:1" fill="#bbd5ff" d="M 484.5,20.5 C 484.721,23.2788 484.388,25.9455 483.5,28.5C 482.532,26.3926 482.198,24.0593 482.5,21.5C 483.167,21.1667 483.833,20.8333 484.5,20.5 Z"/></g>
<g><path style="opacity:1" fill="#76aaff" d="M 17.5,27.5 C 18.4959,27.4142 19.3292,27.7476 20,28.5C 20.8151,33.3522 20.6484,38.0189 19.5,42.5C 20.0545,38.9878 19.3878,35.9878 17.5,33.5C 17.5,31.5 17.5,29.5 17.5,27.5 Z"/></g>
<g><path style="opacity:0.29" fill="#eff4ff" d="M 17.5,33.5 C 19.3878,35.9878 20.0545,38.9878 19.5,42.5C 17.6122,40.0122 16.9455,37.0122 17.5,33.5 Z"/></g>
<g><path style="opacity:1" fill="#7fafff" d="M 483.5,32.5 C 483.5,33.8333 483.5,35.1667 483.5,36.5C 481.612,38.9878 480.945,41.9878 481.5,45.5C 481.5,45.8333 481.5,46.1667 481.5,46.5C 481.167,46.5 480.833,46.5 480.5,46.5C 480.334,42.4862 480.501,38.4862 481,34.5C 481.417,33.244 482.25,32.5774 483.5,32.5 Z"/></g>
<g><path style="opacity:0.45" fill="#ebf2ff" d="M 483.5,36.5 C 484.055,40.0122 483.388,43.0122 481.5,45.5C 480.945,41.9878 481.612,38.9878 483.5,36.5 Z"/></g>
<g><path style="opacity:1" fill="#2482ff" d="M 252.5,48.5 C 284.332,47.8333 316.332,47.5 348.5,47.5C 380.84,47.5001 412.84,48.1668 444.5,49.5C 444.167,49.5 443.833,49.5 443.5,49.5C 380.002,48.5009 316.336,48.1675 252.5,48.5 Z"/></g>
<g><path style="opacity:1" fill="#468cff" d="M 480.5,46.5 C 480.833,46.5 481.167,46.5 481.5,46.5C 481.5,47.8333 481.5,49.1667 481.5,50.5C 479.692,51.9179 479.025,53.9179 479.5,56.5C 479.5,58.5 479.5,60.5 479.5,62.5C 480.301,64.0418 480.634,65.7085 480.5,67.5C 479.391,67.5569 478.391,67.8902 477.5,68.5C 477.685,60.7794 478.685,53.4461 480.5,46.5 Z"/></g>
<g><path style="opacity:1" fill="#659eff" d="M 19.5,45.5 C 21.1765,46.1834 21.8432,47.5168 21.5,49.5C 20.8333,49.5 20.1667,49.5 19.5,49.5C 19.5,48.1667 19.5,46.8333 19.5,45.5 Z"/></g>
<g><path style="opacity:1" fill="#3399ff" d="M 443.5,49.5 C 443.833,49.5 444.167,49.5 444.5,49.5C 444.5,51.1667 444.5,52.8333 444.5,54.5C 443.778,54.9175 443.278,55.5842 443,56.5C 442.961,63.3362 442.294,70.0029 441,76.5C 440.5,83.1583 440.334,89.825 440.5,96.5C 436.437,131.707 433.104,167.041 430.5,202.5C 429.112,208.35 427.945,214.35 427,220.5C 425.34,234.352 424.174,248.352 423.5,262.5C 423.676,267.88 423.342,273.213 422.5,278.5C 419.094,299.216 417.094,320.216 416.5,341.5C 414.6,363.177 412.6,384.844 410.5,406.5C 360.946,419.067 311.612,431.734 262.5,444.5C 259.904,445.265 257.237,445.599 254.5,445.5C 254.167,429.486 254.501,413.486 255.5,397.5C 259.24,396.926 262.573,395.593 265.5,393.5C 267.833,392.833 270.167,392.167 272.5,391.5C 277.136,391.705 281.136,390.371 284.5,387.5C 285.5,387.5 286.5,387.5 287.5,387.5C 290.68,387.339 293.347,386.339 295.5,384.5C 308.091,382.905 320.091,379.572 331.5,374.5C 333.764,373.781 336.097,373.448 338.5,373.5C 343.985,372.662 349.319,371.328 354.5,369.5C 356.03,369.36 357.03,368.693 357.5,367.5C 358.492,367.672 359.158,367.338 359.5,366.5C 362.539,365.99 365.539,365.323 368.5,364.5C 370.117,363.411 370.95,361.744 371,359.5C 371.499,354.845 371.666,350.179 371.5,345.5C 371.5,344.833 371.5,344.167 371.5,343.5C 372.222,343.082 372.722,342.416 373,341.5C 374.802,328.896 375.635,316.23 375.5,303.5C 375.5,302.833 375.5,302.167 375.5,301.5C 377.88,289.43 379.214,277.097 379.5,264.5C 379.5,261.5 379.5,258.5 379.5,255.5C 381.15,249.75 381.816,243.75 381.5,237.5C 382.897,231.316 384.064,224.983 385,218.5C 385.499,212.509 385.666,206.509 385.5,200.5C 344.167,200.5 302.833,200.5 261.5,200.5C 261.842,199.662 262.508,199.328 263.5,199.5C 265.898,199.741 267.898,199.074 269.5,197.5C 271.403,197.204 273.07,196.537 274.5,195.5C 278.504,194.196 282.671,193.196 287,192.5C 288.942,192.041 290.442,191.041 291.5,189.5C 292.209,188.596 293.209,188.263 294.5,188.5C 299.287,186.55 304.287,185.05 309.5,184C 311.758,183.124 313.758,181.957 315.5,180.5C 315.833,180.5 316.167,180.5 316.5,180.5C 323.55,177.984 330.716,175.65 338,173.5C 339.942,173.041 341.442,172.041 342.5,170.5C 343.209,169.596 344.209,169.263 345.5,169.5C 353.415,167.279 361.082,164.613 368.5,161.5C 368.5,161.167 368.5,160.833 368.5,160.5C 373.92,159.144 379.253,157.478 384.5,155.5C 388.814,155.045 392.481,153.379 395.5,150.5C 396.497,133.341 396.83,116.008 396.5,98.5C 348.5,98.5 300.5,98.5 252.5,98.5C 252.5,82.1667 252.5,65.8333 252.5,49.5C 316.167,49.5 379.833,49.5 443.5,49.5 Z"/></g>
<g><path style="opacity:1" fill="#98c2ff" d="M 19.5,49.5 C 20.1667,49.5 20.8333,49.5 21.5,49.5C 21.5,50.5 21.5,51.5 21.5,52.5C 21.5,52.8333 21.5,53.1667 21.5,53.5C 20.8333,53.5 20.1667,53.5 19.5,53.5C 19.5,52.1667 19.5,50.8333 19.5,49.5 Z"/></g>
<g><path style="opacity:1" fill="#98c0ff" d="M 481.5,50.5 C 481.5,52.1667 481.5,53.8333 481.5,55.5C 480.833,55.8333 480.167,56.1667 479.5,56.5C 479.025,53.9179 479.692,51.9179 481.5,50.5 Z"/></g>
<g><path style="opacity:1" fill="#e0ecff" d="M 19.5,53.5 C 20.1667,53.5 20.8333,53.5 21.5,53.5C 21.5,56.5 21.5,59.5 21.5,62.5C 19.6122,60.0122 18.9455,57.0122 19.5,53.5 Z"/></g>
<g><path style="opacity:1" fill="#deebff" d="M 481.5,55.5 C 482.01,58.3878 481.344,60.7211 479.5,62.5C 479.5,60.5 479.5,58.5 479.5,56.5C 480.167,56.1667 480.833,55.8333 481.5,55.5 Z"/></g>
<g><path style="opacity:0.667" fill="#63a0ff" d="M 21.5,52.5 C 22.4891,58.3219 23.1558,64.3219 23.5,70.5C 23.5,71.1667 23.5,71.8333 23.5,72.5C 22.7321,71.7375 22.2321,70.7375 22,69.5C 21.6174,70.056 21.1174,70.3893 20.5,70.5C 20.2786,67.7212 20.612,65.0545 21.5,62.5C 21.5,59.5 21.5,56.5 21.5,53.5C 21.5,53.1667 21.5,52.8333 21.5,52.5 Z"/></g>
<g><path style="opacity:1" fill="#2884ff" d="M 444.5,54.5 C 443.916,68.7336 442.582,82.7336 440.5,96.5C 440.334,89.825 440.5,83.1583 441,76.5C 442.294,70.0029 442.961,63.3362 443,56.5C 443.278,55.5842 443.778,54.9175 444.5,54.5 Z"/></g>
<g><path style="opacity:0.063" fill="#75abff" d="M 480.5,67.5 C 480.5,68.8333 480.5,70.1667 480.5,71.5C 479.391,71.5569 478.391,71.8902 477.5,72.5C 477.5,71.8333 477.5,71.1667 477.5,70.5C 477.5,69.8333 477.5,69.1667 477.5,68.5C 478.391,67.8902 479.391,67.5569 480.5,67.5 Z"/></g>
<g><path style="opacity:0.667" fill="#bdd6ff" d="M 23.5,72.5 C 23.8064,75.3854 23.4731,78.0521 22.5,80.5C 22.6633,78.1432 22.4966,75.8098 22,73.5C 21.7216,74.4158 21.2216,75.0825 20.5,75.5C 20.5,73.8333 20.5,72.1667 20.5,70.5C 21.1174,70.3893 21.6174,70.056 22,69.5C 22.2321,70.7375 22.7321,71.7375 23.5,72.5 Z"/></g>
<g><path style="opacity:1" fill="#478eff" d="M 23.5,70.5 C 24.5767,76.3124 25.2434,82.3124 25.5,88.5C 24.609,87.8902 23.609,87.5569 22.5,87.5C 22.5,85.1667 22.5,82.8333 22.5,80.5C 23.4731,78.0521 23.8064,75.3854 23.5,72.5C 23.5,71.8333 23.5,71.1667 23.5,70.5 Z"/></g>
<g><path style="opacity:0.388" fill="#f6faff" d="M 22.5,80.5 C 20.744,79.4479 20.0773,77.7812 20.5,75.5C 21.2216,75.0825 21.7216,74.4158 22,73.5C 22.4966,75.8098 22.6633,78.1432 22.5,80.5 Z"/></g>
<g><path style="opacity:0.063" fill="#c5dbff" d="M 480.5,71.5 C 480.5,73.8333 480.5,76.1667 480.5,78.5C 479.778,78.0825 479.278,77.4158 479,76.5C 478.506,78.1341 478.34,79.8008 478.5,81.5C 478.5,81.8333 478.5,82.1667 478.5,82.5C 477.521,79.3752 477.187,76.0419 477.5,72.5C 478.391,71.8902 479.391,71.5569 480.5,71.5 Z"/></g>
<g><path style="opacity:0.421" fill="#fafcff" d="M 480.5,78.5 C 480.715,80.1788 480.048,81.1788 478.5,81.5C 478.34,79.8008 478.506,78.1341 479,76.5C 479.278,77.4158 479.778,78.0825 480.5,78.5 Z"/></g>
<g><path style="opacity:0.818" fill="#448dff" d="M 477.5,70.5 C 477.5,71.1667 477.5,71.8333 477.5,72.5C 477.187,76.0419 477.521,79.3752 478.5,82.5C 478.5,83.8333 478.5,85.1667 478.5,86.5C 477.1,87.0998 476.1,88.0998 475.5,89.5C 475.868,82.9918 476.535,76.6584 477.5,70.5 Z"/></g>
<g><path style="opacity:1" fill="#8dbaff" d="M 22.5,87.5 C 23.609,87.5569 24.609,87.8902 25.5,88.5C 25.5,91.8333 25.5,95.1667 25.5,98.5C 25.5,99.1667 25.1667,99.5 24.5,99.5C 25.0356,96.3019 24.369,93.6353 22.5,91.5C 22.5,90.1667 22.5,88.8333 22.5,87.5 Z"/></g>
<g><path style="opacity:0.824" fill="#e9f1ff" d="M 22.5,91.5 C 24.369,93.6353 25.0356,96.3019 24.5,99.5C 22.631,97.3647 21.9644,94.6981 22.5,91.5 Z"/></g>
<g><path style="opacity:1" fill="#a4c6ff" d="M 478.5,86.5 C 478.5,89.1667 478.5,91.8333 478.5,94.5C 476.692,95.9179 476.025,97.9179 476.5,100.5C 476.5,100.833 476.5,101.167 476.5,101.5C 475.517,97.7016 475.183,93.7016 475.5,89.5C 476.1,88.0998 477.1,87.0998 478.5,86.5 Z"/></g>
<g><path style="opacity:0.578" fill="#f8fbff" d="M 478.5,94.5 C 478.975,97.0821 478.308,99.0821 476.5,100.5C 476.025,97.9179 476.692,95.9179 478.5,94.5 Z"/></g>
<g><path style="opacity:1" fill="#398dff" d="M 252.5,48.5 C 316.336,48.1675 380.002,48.5009 443.5,49.5C 379.833,49.5 316.167,49.5 252.5,49.5C 252.5,65.8333 252.5,82.1667 252.5,98.5C 201.833,98.5 151.167,98.5 100.5,98.5C 150.664,97.5011 200.997,97.1678 251.5,97.5C 251.17,80.9915 251.504,64.6581 252.5,48.5 Z"/></g>
<g><path style="opacity:1" fill="#9bccff" d="M 100.5,99.5 C 100.5,99.1667 100.5,98.8333 100.5,98.5C 151.167,98.5 201.833,98.5 252.5,98.5C 300.5,98.5 348.5,98.5 396.5,98.5C 396.83,116.008 396.497,133.341 395.5,150.5C 395.5,133.5 395.5,116.5 395.5,99.5C 297.167,99.5 198.833,99.5 100.5,99.5 Z"/></g>
<g><path style="opacity:1" fill="#e3f0ff" d="M 100.5,99.5 C 198.833,99.5 297.167,99.5 395.5,99.5C 395.5,116.5 395.5,133.5 395.5,150.5C 395.167,150.5 394.833,150.5 394.5,150.5C 394.5,133.833 394.5,117.167 394.5,100.5C 296.494,99.8356 198.828,100.502 101.5,102.5C 100.596,101.791 100.263,100.791 100.5,99.5 Z"/></g>
<g><path style="opacity:1" fill="#fefeff" d="M 394.5,150.5 C 391.167,151.833 387.833,153.167 384.5,154.5C 378.861,155.901 373.528,157.901 368.5,160.5C 368.5,160.833 368.5,161.167 368.5,161.5C 362.701,162.451 357.034,163.951 351.5,166C 349.242,166.876 347.242,168.043 345.5,169.5C 344.209,169.263 343.209,169.596 342.5,170.5C 335.421,172.19 328.421,174.357 321.5,177C 319.569,177.902 317.903,179.069 316.5,180.5C 316.167,180.5 315.833,180.5 315.5,180.5C 310.516,181.988 305.516,183.488 300.5,185C 298.242,185.876 296.242,187.043 294.5,188.5C 293.209,188.263 292.209,188.596 291.5,189.5C 285.491,190.745 279.825,192.745 274.5,195.5C 272.302,195.12 270.635,195.787 269.5,197.5C 267.102,197.259 265.102,197.926 263.5,199.5C 262.508,199.328 261.842,199.662 261.5,200.5C 302.33,201.499 343.33,201.832 384.5,201.5C 383.5,212.165 382.5,222.832 381.5,233.5C 380.462,240.653 379.796,247.986 379.5,255.5C 379.5,258.5 379.5,261.5 379.5,264.5C 378.71,265.609 378.21,266.942 378,268.5C 377.383,279.528 376.55,290.528 375.5,301.5C 375.5,302.167 375.5,302.833 375.5,303.5C 374.455,316.728 373.121,330.062 371.5,343.5C 371.5,344.167 371.5,344.833 371.5,345.5C 370.682,351.762 369.682,358.095 368.5,364.5C 365.539,365.323 362.539,365.99 359.5,366.5C 357.152,366.67 354.818,367.003 352.5,367.5C 350.97,367.64 349.97,368.307 349.5,369.5C 347.801,369.34 346.134,369.506 344.5,370C 342.111,370.739 340.111,371.905 338.5,373.5C 336.097,373.448 333.764,373.781 331.5,374.5C 319.431,377.711 307.431,381.045 295.5,384.5C 293.199,385.06 290.866,385.56 288.5,386C 287.944,386.383 287.611,386.883 287.5,387.5C 286.5,387.5 285.5,387.5 284.5,387.5C 280.257,388.403 276.257,389.736 272.5,391.5C 270.167,392.167 267.833,392.833 265.5,393.5C 259.739,395.434 253.739,396.434 247.5,396.5C 246.432,395.566 245.099,395.232 243.5,395.5C 243.389,394.883 243.056,394.383 242.5,394C 238.391,393.335 234.391,392.502 230.5,391.5C 228.565,390.85 226.565,390.517 224.5,390.5C 224.389,389.883 224.056,389.383 223.5,389C 220.793,388.605 218.127,388.105 215.5,387.5C 213.435,387.483 211.435,387.15 209.5,386.5C 208.791,385.596 207.791,385.263 206.5,385.5C 206.389,384.883 206.056,384.383 205.5,384C 202.854,383.503 200.187,383.336 197.5,383.5C 195.343,382.593 193.01,381.927 190.5,381.5C 188.565,380.85 186.565,380.517 184.5,380.5C 180.045,378.797 175.379,377.464 170.5,376.5C 167.306,375.242 163.973,374.576 160.5,374.5C 158.347,372.661 155.68,371.661 152.5,371.5C 150.435,371.483 148.435,371.15 146.5,370.5C 144.343,369.593 142.01,368.927 139.5,368.5C 139.167,368.5 138.833,368.5 138.5,368.5C 136.562,366.837 134.228,366.171 131.5,366.5C 130.25,366.423 129.417,365.756 129,364.5C 128.501,359.845 128.334,355.179 128.5,350.5C 127.864,343.185 127.364,335.852 127,328.5C 126.768,327.263 126.268,326.263 125.5,325.5C 125.5,324.833 125.5,324.167 125.5,323.5C 125.666,318.489 125.499,313.489 125,308.5C 124.768,307.263 124.268,306.263 123.5,305.5C 123.907,297.961 123.24,290.628 121.5,283.5C 140.833,283.5 160.167,283.5 179.5,283.5C 179.5,284.833 179.5,286.167 179.5,287.5C 179.911,292.338 180.578,297.005 181.5,301.5C 182.483,305.298 182.817,309.298 182.5,313.5C 182.753,317.04 183.419,320.373 184.5,323.5C 188.722,325.838 193.389,327.171 198.5,327.5C 199.833,327.5 201.167,327.5 202.5,327.5C 202.611,328.117 202.944,328.617 203.5,329C 205.473,329.495 207.473,329.662 209.5,329.5C 214.215,330.175 218.882,331.175 223.5,332.5C 223.611,333.117 223.944,333.617 224.5,334C 226.473,334.495 228.473,334.662 230.5,334.5C 232.764,335.219 235.097,335.552 237.5,335.5C 239.743,336.812 242.41,337.478 245.5,337.5C 248.355,337.497 251.022,337.164 253.5,336.5C 258.41,336.077 263.077,335.077 267.5,333.5C 268.5,333.5 269.5,333.5 270.5,333.5C 274.312,332.974 277.979,332.307 281.5,331.5C 290.539,329.057 299.873,327.724 309.5,327.5C 311.698,327.88 313.365,327.213 314.5,325.5C 315.563,321.361 316.23,317.028 316.5,312.5C 316.5,312.167 316.5,311.833 316.5,311.5C 318.519,302.996 320.019,294.33 321,285.5C 321.522,277.83 322.022,270.163 322.5,262.5C 322.5,259.833 322.5,257.167 322.5,254.5C 254.5,254.5 186.5,254.5 118.5,254.5C 117.523,251.713 117.19,248.713 117.5,245.5C 116.659,238.103 115.659,230.77 114.5,223.5C 114.88,221.302 114.213,219.635 112.5,218.5C 112.644,214.625 112.31,210.792 111.5,207C 111.822,204.673 113.156,203.506 115.5,203.5C 117.967,203.245 119.967,202.245 121.5,200.5C 124.849,199.488 128.183,198.488 131.5,197.5C 133.403,197.204 135.07,196.537 136.5,195.5C 141.36,193.239 146.36,191.239 151.5,189.5C 152.708,188.766 154.041,188.433 155.5,188.5C 158.947,187.917 161.947,186.584 164.5,184.5C 165.93,183.463 167.597,182.796 169.5,182.5C 173.755,182.528 177.421,181.195 180.5,178.5C 181.209,177.596 182.209,177.263 183.5,177.5C 186.947,176.917 189.947,175.584 192.5,173.5C 193.833,172.833 195.167,172.167 196.5,171.5C 199.716,171.655 202.383,170.655 204.5,168.5C 210.234,167.406 215.568,165.406 220.5,162.5C 223.578,162.38 226.245,161.38 228.5,159.5C 228.842,158.662 229.508,158.328 230.5,158.5C 231.873,158.657 233.207,158.49 234.5,158C 237.286,156.499 239.953,154.999 242.5,153.5C 243.167,153.5 243.833,153.5 244.5,153.5C 246.455,153.201 247.789,152.201 248.5,150.5C 202.332,149.833 155.998,149.167 109.5,148.5C 109.083,142.111 107.749,136.111 105.5,130.5C 105.116,125.99 104.449,121.657 103.5,117.5C 102.012,112.641 101.345,107.641 101.5,102.5C 198.828,100.502 296.494,99.8356 394.5,100.5C 394.5,117.167 394.5,133.833 394.5,150.5 Z"/></g>
<g><path style="opacity:1" fill="#448bff" d="M 25.5,98.5 C 26.2216,98.9175 26.7216,99.5842 27,100.5C 27.4974,103.146 27.6641,105.813 27.5,108.5C 26.7777,107.449 25.7777,106.782 24.5,106.5C 24.5,104.167 24.5,101.833 24.5,99.5C 25.1667,99.5 25.5,99.1667 25.5,98.5 Z"/></g>
<g><path style="opacity:0.353" fill="#76acff" d="M 476.5,103.5 C 476.5,104.833 476.5,106.167 476.5,107.5C 475.833,107.5 475.167,107.5 474.5,107.5C 474.157,105.517 474.824,104.183 476.5,103.5 Z"/></g>
<g><path style="opacity:0.353" fill="#aacbff" d="M 474.5,107.5 C 475.167,107.5 475.833,107.5 476.5,107.5C 476.5,109.167 476.5,110.833 476.5,112.5C 474.824,113.183 474.157,114.517 474.5,116.5C 474.5,116.833 474.5,117.167 474.5,117.5C 473.167,114.167 473.167,110.833 474.5,107.5 Z"/></g>
<g><path style="opacity:1" fill="#83b3ff" d="M 24.5,106.5 C 25.7777,106.782 26.7777,107.449 27.5,108.5C 27.8168,112.702 27.4834,116.702 26.5,120.5C 26.5,120.167 26.5,119.833 26.5,119.5C 27.0545,115.988 26.3878,112.988 24.5,110.5C 24.5,109.167 24.5,107.833 24.5,106.5 Z"/></g>
<g><path style="opacity:0.373" fill="#f8f9ff" d="M 476.5,112.5 C 476.843,114.483 476.176,115.817 474.5,116.5C 474.157,114.517 474.824,113.183 476.5,112.5 Z"/></g>
<g><path style="opacity:0.265" fill="#edf3ff" d="M 24.5,110.5 C 26.3878,112.988 27.0545,115.988 26.5,119.5C 24.6122,117.012 23.9455,114.012 24.5,110.5 Z"/></g>
<g><path style="opacity:1" fill="#88b4ff" d="M 103.5,117.5 C 104.449,121.657 105.116,125.99 105.5,130.5C 105.167,130.5 104.833,130.5 104.5,130.5C 103.627,126.232 103.294,121.898 103.5,117.5 Z"/></g>
<g><path style="opacity:1" fill="#abceff" d="M 26.5,127.5 C 28.3079,128.918 28.9746,130.918 28.5,133.5C 27.8333,132.833 27.1667,132.167 26.5,131.5C 26.5,130.167 26.5,128.833 26.5,127.5 Z"/></g>
<g><path style="opacity:1" fill="#d6e6ff" d="M 474.5,126.5 C 475.055,130.012 474.388,133.012 472.5,135.5C 472.336,132.813 472.503,130.146 473,127.5C 473.383,126.944 473.883,126.611 474.5,126.5 Z"/></g>
<g><path style="opacity:0.965" fill="#6da4ff" d="M 474.5,121.5 C 474.5,123.167 474.5,124.833 474.5,126.5C 473.883,126.611 473.383,126.944 473,127.5C 472.503,130.146 472.336,132.813 472.5,135.5C 472.5,135.833 472.5,136.167 472.5,136.5C 471.357,133.024 471.19,129.358 472,125.5C 472.122,123.563 472.955,122.23 474.5,121.5 Z"/></g>
<g><path style="opacity:0.435" fill="#f0f6ff" d="M 26.5,131.5 C 27.1667,132.167 27.8333,132.833 28.5,133.5C 28.5,135.167 28.5,136.833 28.5,138.5C 26.6565,136.721 25.9898,134.388 26.5,131.5 Z"/></g>
<g><path style="opacity:1" fill="#86b5ff" d="M 27.5,144.5 C 29.9689,145.607 30.9689,147.607 30.5,150.5C 29.7321,149.737 29.2321,148.737 29,147.5C 28.6174,148.056 28.1174,148.389 27.5,148.5C 27.5,147.167 27.5,145.833 27.5,144.5 Z"/></g>
<g><path style="opacity:1" fill="#5595ff" d="M 104.5,130.5 C 104.833,130.5 105.167,130.5 105.5,130.5C 106.466,136.781 107.133,143.115 107.5,149.5C 105.128,143.54 104.128,137.206 104.5,130.5 Z"/></g>
<g><path style="opacity:1" fill="#e2eeff" d="M 105.5,130.5 C 107.749,136.111 109.083,142.111 109.5,148.5C 155.998,149.167 202.332,149.833 248.5,150.5C 202.167,150.5 155.833,150.5 109.5,150.5C 108.833,150.167 108.167,149.833 107.5,149.5C 107.133,143.115 106.466,136.781 105.5,130.5 Z"/></g>
<g><path style="opacity:1" fill="#92c0ff" d="M 109.5,150.5 C 155.833,150.5 202.167,150.5 248.5,150.5C 247.789,152.201 246.455,153.201 244.5,153.5C 199.676,151.835 154.676,150.835 109.5,150.5 Z"/></g>
<g><path style="opacity:1" fill="#438dff" d="M 107.5,149.5 C 108.167,149.833 108.833,150.167 109.5,150.5C 154.676,150.835 199.676,151.835 244.5,153.5C 243.833,153.5 243.167,153.5 242.5,153.5C 198.002,152.667 153.335,152.167 108.5,152C 107.748,151.329 107.414,150.496 107.5,149.5 Z"/></g>
<g><path style="opacity:0.071" fill="#d0e2ff" d="M 30.5,150.5 C 30.7947,152.735 30.4614,154.735 29.5,156.5C 27.7982,154.2 27.1315,151.533 27.5,148.5C 28.1174,148.389 28.6174,148.056 29,147.5C 29.2321,148.737 29.7321,149.737 30.5,150.5 Z"/></g>
<g><path style="opacity:0.976" fill="#478eff" d="M 473.5,138.5 C 473.5,139.833 473.5,141.167 473.5,142.5C 472.504,142.414 471.671,142.748 471,143.5C 470.188,147.689 470.355,151.689 471.5,155.5C 471.5,156.833 471.5,158.167 471.5,159.5C 470.5,159.5 469.5,159.5 468.5,159.5C 469.154,153.19 469.654,146.857 470,140.5C 470.816,139.177 471.983,138.511 473.5,138.5 Z"/></g>
<g><path style="opacity:0.894" fill="#afcdff" d="M 473.5,142.5 C 473.5,143.833 473.5,145.167 473.5,146.5C 471.631,148.635 470.964,151.302 471.5,154.5C 471.5,154.833 471.5,155.167 471.5,155.5C 470.355,151.689 470.188,147.689 471,143.5C 471.671,142.748 472.504,142.414 473.5,142.5 Z"/></g>
<g><path style="opacity:0.063" fill="#edf3ff" d="M 473.5,146.5 C 474.036,149.698 473.369,152.365 471.5,154.5C 470.964,151.302 471.631,148.635 473.5,146.5 Z"/></g>
<g><path style="opacity:1" fill="#67b3ff" d="M 394.5,150.5 C 394.833,150.5 395.167,150.5 395.5,150.5C 392.481,153.379 388.814,155.045 384.5,155.5C 384.5,155.167 384.5,154.833 384.5,154.5C 387.833,153.167 391.167,151.833 394.5,150.5 Z"/></g>
<g><path style="opacity:1" fill="#b4cfff" d="M 242.5,153.5 C 239.953,154.999 237.286,156.499 234.5,158C 233.207,158.49 231.873,158.657 230.5,158.5C 234.062,155.977 238.062,154.31 242.5,153.5 Z"/></g>
<g><path style="opacity:1" fill="#8fc9ff" d="M 384.5,154.5 C 384.5,154.833 384.5,155.167 384.5,155.5C 379.253,157.478 373.92,159.144 368.5,160.5C 373.528,157.901 378.861,155.901 384.5,154.5 Z"/></g>
<g><path style="opacity:1" fill="#478dff" d="M 26.5,123.5 C 27.7899,124.058 28.6232,125.058 29,126.5C 30.7813,139.769 31.9479,153.102 32.5,166.5C 31.7777,165.449 30.7777,164.782 29.5,164.5C 29.5,161.833 29.5,159.167 29.5,156.5C 30.4614,154.735 30.7947,152.735 30.5,150.5C 30.9689,147.607 29.9689,145.607 27.5,144.5C 27.3253,142.379 27.6586,140.379 28.5,138.5C 28.5,136.833 28.5,135.167 28.5,133.5C 28.9746,130.918 28.3079,128.918 26.5,127.5C 26.5,126.167 26.5,124.833 26.5,123.5 Z"/></g>
<g><path style="opacity:1" fill="#c4daff" d="M 228.5,159.5 C 226.245,161.38 223.578,162.38 220.5,162.5C 222.755,160.62 225.422,159.62 228.5,159.5 Z"/></g>
<g><path style="opacity:1" fill="#77bdff" d="M 368.5,161.5 C 361.082,164.613 353.415,167.279 345.5,169.5C 347.242,168.043 349.242,166.876 351.5,166C 357.034,163.951 362.701,162.451 368.5,161.5 Z"/></g>
<g><path style="opacity:1" fill="#adcaff" d="M 220.5,162.5 C 215.568,165.406 210.234,167.406 204.5,168.5C 209.534,165.9 214.868,163.9 220.5,162.5 Z"/></g>
<g><path style="opacity:1" fill="#91bbff" d="M 468.5,159.5 C 469.5,159.5 470.5,159.5 471.5,159.5C 471.5,160.5 471.5,161.5 471.5,162.5C 469.612,164.988 468.945,167.988 469.5,171.5C 469.5,171.833 469.5,172.167 469.5,172.5C 468.515,168.366 468.182,164.032 468.5,159.5 Z"/></g>
<g><path style="opacity:0.224" fill="#e4efff" d="M 471.5,162.5 C 472.055,166.012 471.388,169.012 469.5,171.5C 468.945,167.988 469.612,164.988 471.5,162.5 Z"/></g>
<g><path style="opacity:1" fill="#abcbff" d="M 204.5,168.5 C 202.383,170.655 199.716,171.655 196.5,171.5C 198.936,170.129 201.603,169.129 204.5,168.5 Z"/></g>
<g><path style="opacity:0.827" fill="#e6eeff" d="M 29.5,168.5 C 31.369,170.635 32.0356,173.302 31.5,176.5C 29.631,174.365 28.9644,171.698 29.5,168.5 Z"/></g>
<g><path style="opacity:1" fill="#73b9ff" d="M 342.5,170.5 C 341.442,172.041 339.942,173.041 338,173.5C 330.716,175.65 323.55,177.984 316.5,180.5C 317.903,179.069 319.569,177.902 321.5,177C 328.421,174.357 335.421,172.19 342.5,170.5 Z"/></g>
<g><path style="opacity:1" fill="#97bfff" d="M 29.5,164.5 C 30.7777,164.782 31.7777,165.449 32.5,166.5C 32.815,170.371 32.4816,174.038 31.5,177.5C 31.5,177.167 31.5,176.833 31.5,176.5C 32.0356,173.302 31.369,170.635 29.5,168.5C 29.5,167.167 29.5,165.833 29.5,164.5 Z"/></g>
<g><path style="opacity:1" fill="#b6d1ff" d="M 192.5,173.5 C 189.947,175.584 186.947,176.917 183.5,177.5C 184.903,176.069 186.569,174.902 188.5,174C 189.793,173.51 191.127,173.343 192.5,173.5 Z"/></g>
<g><path style="opacity:1" fill="#d1e2ff" d="M 180.5,178.5 C 177.421,181.195 173.755,182.528 169.5,182.5C 172.924,180.733 176.591,179.4 180.5,178.5 Z"/></g>
<g><path style="opacity:1" fill="#6eb9ff" d="M 315.5,180.5 C 313.758,181.957 311.758,183.124 309.5,184C 304.287,185.05 299.287,186.55 294.5,188.5C 296.242,187.043 298.242,185.876 300.5,185C 305.516,183.488 310.516,181.988 315.5,180.5 Z"/></g>
<g><path style="opacity:0.278" fill="#ecf3ff" d="M 469.5,181.5 C 470.036,184.698 469.369,187.365 467.5,189.5C 466.964,186.302 467.631,183.635 469.5,181.5 Z"/></g>
<g><path style="opacity:1" fill="#66a0ff" d="M 155.5,187.5 C 155.5,187.833 155.5,188.167 155.5,188.5C 154.041,188.433 152.708,188.766 151.5,189.5C 152.183,187.824 153.517,187.157 155.5,187.5 Z"/></g>
<g><path style="opacity:1" fill="#b7d2ff" d="M 164.5,184.5 C 161.947,186.584 158.947,187.917 155.5,188.5C 155.5,188.167 155.5,187.833 155.5,187.5C 158.342,185.983 161.342,184.983 164.5,184.5 Z"/></g>
<g><path style="opacity:0.704" fill="#83b2ff" d="M 469.5,176.5 C 469.5,178.167 469.5,179.833 469.5,181.5C 467.631,183.635 466.964,186.302 467.5,189.5C 466.359,186.36 466.192,183.027 467,179.5C 467.236,177.881 468.069,176.881 469.5,176.5 Z"/></g>
<g><path style="opacity:1" fill="#80afff" d="M 31.5,182.5 C 32.4959,182.414 33.3292,182.748 34,183.5C 34.4992,188.155 34.6658,192.821 34.5,197.5C 34.1667,197.5 33.8333,197.5 33.5,197.5C 33.5,197.167 33.5,196.833 33.5,196.5C 34.0356,193.302 33.369,190.635 31.5,188.5C 31.5,186.5 31.5,184.5 31.5,182.5 Z"/></g>
<g><path style="opacity:1" fill="#65b2ff" d="M 291.5,189.5 C 290.442,191.041 288.942,192.041 287,192.5C 282.671,193.196 278.504,194.196 274.5,195.5C 279.825,192.745 285.491,190.745 291.5,189.5 Z"/></g>
<g><path style="opacity:0.414" fill="#f0f6ff" d="M 31.5,188.5 C 33.369,190.635 34.0356,193.302 33.5,196.5C 31.631,194.365 30.9644,191.698 31.5,188.5 Z"/></g>
<g><path style="opacity:1" fill="#9cc2ff" d="M 136.5,195.5 C 135.07,196.537 133.403,197.204 131.5,197.5C 132.635,195.787 134.302,195.12 136.5,195.5 Z"/></g>
<g><path style="opacity:1" fill="#99cfff" d="M 274.5,195.5 C 273.07,196.537 271.403,197.204 269.5,197.5C 270.635,195.787 272.302,195.12 274.5,195.5 Z"/></g>
<g><path style="opacity:1" fill="#7bbeff" d="M 269.5,197.5 C 267.898,199.074 265.898,199.741 263.5,199.5C 265.102,197.926 267.102,197.259 269.5,197.5 Z"/></g>
<g><path style="opacity:1" fill="#9ad1ff" d="M 261.5,200.5 C 302.833,200.5 344.167,200.5 385.5,200.5C 385.666,206.509 385.499,212.509 385,218.5C 384.064,224.983 382.897,231.316 381.5,237.5C 381.5,236.167 381.5,234.833 381.5,233.5C 382.5,222.832 383.5,212.165 384.5,201.5C 343.33,201.832 302.33,201.499 261.5,200.5 Z"/></g>
<g><path style="opacity:1" fill="#6ca2ff" d="M 121.5,200.5 C 119.967,202.245 117.967,203.245 115.5,203.5C 117.033,201.755 119.033,200.755 121.5,200.5 Z"/></g>
<g><path style="opacity:1" fill="#4b90ff" d="M 33.5,197.5 C 33.8333,197.5 34.1667,197.5 34.5,197.5C 35.7366,200.4 36.4033,203.567 36.5,207C 36.4978,210.021 36.1644,212.854 35.5,215.5C 35.5,215.167 35.5,214.833 35.5,214.5C 35.5,212.833 35.5,211.167 35.5,209.5C 35.6621,207.473 35.4955,205.473 35,203.5C 34.6174,202.944 34.1174,202.611 33.5,202.5C 33.5,200.833 33.5,199.167 33.5,197.5 Z"/></g>
<g><path style="opacity:1" fill="#d5e4ff" d="M 467.5,198.5 C 467.813,202.042 467.479,205.375 466.5,208.5C 465.362,205.696 465.195,202.696 466,199.5C 466.383,198.944 466.883,198.611 467.5,198.5 Z"/></g>
<g><path style="opacity:1" fill="#a1c5ff" d="M 33.5,202.5 C 34.1174,202.611 34.6174,202.944 35,203.5C 35.4955,205.473 35.6621,207.473 35.5,209.5C 34.8333,208.833 34.1667,208.167 33.5,207.5C 33.5,205.833 33.5,204.167 33.5,202.5 Z"/></g>
<g><path style="opacity:0.841" fill="#5897ff" d="M 467.5,193.5 C 467.5,195.167 467.5,196.833 467.5,198.5C 466.883,198.611 466.383,198.944 466,199.5C 465.195,202.696 465.362,205.696 466.5,208.5C 466.5,210.5 466.5,212.5 466.5,214.5C 465.391,214.557 464.391,214.89 463.5,215.5C 464.047,208.844 464.547,202.177 465,195.5C 465.417,194.244 466.25,193.577 467.5,193.5 Z"/></g>
<g><path style="opacity:0.898" fill="#e3eeff" d="M 33.5,207.5 C 34.1667,208.167 34.8333,208.833 35.5,209.5C 35.5,211.167 35.5,212.833 35.5,214.5C 33.6565,212.721 32.9898,210.388 33.5,207.5 Z"/></g>
<g><path style="opacity:0.078" fill="#88b9ff" d="M 466.5,214.5 C 466.5,215.5 466.5,216.5 466.5,217.5C 465.222,217.782 464.222,218.449 463.5,219.5C 463.5,218.5 463.5,217.5 463.5,216.5C 463.5,216.167 463.5,215.833 463.5,215.5C 464.391,214.89 465.391,214.557 466.5,214.5 Z"/></g>
<g><path style="opacity:1" fill="#9dc1ff" d="M 112.5,218.5 C 114.213,219.635 114.88,221.302 114.5,223.5C 114.167,223.5 113.833,223.5 113.5,223.5C 112.699,221.958 112.366,220.292 112.5,218.5 Z"/></g>
<g><path style="opacity:1" fill="#cfe1ff" d="M 466.5,217.5 C 466.665,220.518 466.498,223.518 466,226.5C 465.617,227.056 465.117,227.389 464.5,227.5C 463.527,225.052 463.194,222.385 463.5,219.5C 464.222,218.449 465.222,217.782 466.5,217.5 Z"/></g>
<g><path style="opacity:1" fill="#7badff" d="M 34.5,220.5 C 36.7409,221.3 37.7409,222.966 37.5,225.5C 36.5,225.5 35.5,225.5 34.5,225.5C 34.5,223.833 34.5,222.167 34.5,220.5 Z"/></g>
<g><path style="opacity:1" fill="#4089ff" d="M 34.5,217.5 C 36.4109,217.574 37.5776,218.574 38,220.5C 38.5004,227.506 39.0004,234.506 39.5,241.5C 38.5,241.5 37.5,241.5 36.5,241.5C 36.5,239.167 36.5,236.833 36.5,234.5C 37.4767,231.713 37.81,228.713 37.5,225.5C 37.7409,222.966 36.7409,221.3 34.5,220.5C 34.5,219.5 34.5,218.5 34.5,217.5 Z"/></g>
<g><path style="opacity:0.835" fill="#4f92ff" d="M 463.5,216.5 C 463.5,217.5 463.5,218.5 463.5,219.5C 463.194,222.385 463.527,225.052 464.5,227.5C 464.5,229.5 464.5,231.5 464.5,233.5C 463.5,233.5 462.5,233.5 461.5,233.5C 461.898,227.661 462.565,221.994 463.5,216.5 Z"/></g>
<g><path style="opacity:0.086" fill="#d2e4ff" d="M 34.5,225.5 C 35.5,225.5 36.5,225.5 37.5,225.5C 37.81,228.713 37.4767,231.713 36.5,234.5C 34.7581,231.855 34.0914,228.855 34.5,225.5 Z"/></g>
<g><path style="opacity:1" fill="#2a8aff" d="M 430.5,202.5 C 428.406,221.358 426.573,240.358 425,259.5C 424.768,260.737 424.268,261.737 423.5,262.5C 424.174,248.352 425.34,234.352 427,220.5C 427.945,214.35 429.112,208.35 430.5,202.5 Z"/></g>
<g><path style="opacity:1" fill="#9bc1ff" d="M 461.5,233.5 C 462.5,233.5 463.5,233.5 464.5,233.5C 464.5,234.833 464.5,236.167 464.5,237.5C 462.656,239.279 461.99,241.612 462.5,244.5C 462.5,244.833 462.5,245.167 462.5,245.5C 461.517,241.702 461.183,237.702 461.5,233.5 Z"/></g>
<g><path style="opacity:0.49" fill="#f2f7ff" d="M 464.5,237.5 C 465.01,240.388 464.344,242.721 462.5,244.5C 461.99,241.612 462.656,239.279 464.5,237.5 Z"/></g>
<g><path style="opacity:1" fill="#75a9ff" d="M 113.5,223.5 C 113.833,223.5 114.167,223.5 114.5,223.5C 115.659,230.77 116.659,238.103 117.5,245.5C 116.015,241.379 114.849,237.046 114,232.5C 113.502,229.518 113.335,226.518 113.5,223.5 Z"/></g>
<g><path style="opacity:1" fill="#c2e2ff" d="M 381.5,233.5 C 381.5,234.833 381.5,236.167 381.5,237.5C 381.816,243.75 381.15,249.75 379.5,255.5C 379.796,247.986 380.462,240.653 381.5,233.5 Z"/></g>
<g><path style="opacity:0.498" fill="#ebf2ff" d="M 36.5,244.5 C 38.3878,246.988 39.0545,249.988 38.5,253.5C 36.6122,251.012 35.9455,248.012 36.5,244.5 Z"/></g>
<g><path style="opacity:1" fill="#91bbff" d="M 36.5,241.5 C 37.5,241.5 38.5,241.5 39.5,241.5C 39.8182,246.032 39.4849,250.366 38.5,254.5C 38.5,254.167 38.5,253.833 38.5,253.5C 39.0545,249.988 38.3878,246.988 36.5,244.5C 36.5,243.5 36.5,242.5 36.5,241.5 Z"/></g>
<g><path style="opacity:1" fill="#86bcff" d="M 118.5,254.5 C 186.5,254.5 254.5,254.5 322.5,254.5C 322.5,257.167 322.5,259.833 322.5,262.5C 322.167,262.5 321.833,262.5 321.5,262.5C 321.5,260.167 321.5,257.833 321.5,255.5C 298.5,255.5 275.5,255.5 252.5,255.5C 207.664,255.832 162.997,255.499 118.5,254.5 Z"/></g>
<g><path style="opacity:1" fill="#71a8ff" d="M 462.5,247.5 C 462.5,249.167 462.5,250.833 462.5,252.5C 460.612,254.988 459.945,257.988 460.5,261.5C 460.5,261.833 460.5,262.167 460.5,262.5C 460.167,262.5 459.833,262.5 459.5,262.5C 459.334,258.154 459.501,253.821 460,249.5C 460.417,248.244 461.25,247.577 462.5,247.5 Z"/></g>
<g><path style="opacity:1" fill="#339fff" d="M 252.5,255.5 C 275.5,255.5 298.5,255.5 321.5,255.5C 321.5,257.833 321.5,260.167 321.5,262.5C 321.5,262.833 321.5,263.167 321.5,263.5C 320.833,263.833 320.167,264.167 319.5,264.5C 320.219,262.236 320.552,259.903 320.5,257.5C 298.5,257.5 276.5,257.5 254.5,257.5C 254.5,283.167 254.5,308.833 254.5,334.5C 253.662,334.842 253.328,335.508 253.5,336.5C 253.167,336.5 252.833,336.5 252.5,336.5C 252.5,309.5 252.5,282.5 252.5,255.5 Z"/></g>
<g><path style="opacity:1" fill="#3299ff" d="M 319.5,264.5 C 318.23,276.037 317.23,287.703 316.5,299.5C 316.5,303.5 316.5,307.5 316.5,311.5C 316.5,311.833 316.5,312.167 316.5,312.5C 315.732,313.263 315.232,314.263 315,315.5C 314.502,318.817 314.335,322.15 314.5,325.5C 312.219,325.077 310.552,325.744 309.5,327.5C 299.873,327.724 290.539,329.057 281.5,331.5C 278.15,331.335 274.817,331.502 271.5,332C 270.944,332.383 270.611,332.883 270.5,333.5C 269.5,333.5 268.5,333.5 267.5,333.5C 263.202,334.2 258.869,334.533 254.5,334.5C 254.5,308.833 254.5,283.167 254.5,257.5C 276.5,257.5 298.5,257.5 320.5,257.5C 320.552,259.903 320.219,262.236 319.5,264.5 Z"/></g>
<g><path style="opacity:0.345" fill="#e5edff" d="M 462.5,252.5 C 463.055,256.012 462.388,259.012 460.5,261.5C 459.945,257.988 460.612,254.988 462.5,252.5 Z"/></g>
<g><path style="opacity:0.384" fill="#f1f6ff" d="M 38.5,265.5 C 40.3878,267.988 41.0545,270.988 40.5,274.5C 38.6122,272.012 37.9455,269.012 38.5,265.5 Z"/></g>
<g><path style="opacity:0.978" fill="#7eafff" d="M 38.5,258.5 C 39.7498,258.577 40.5831,259.244 41,260.5C 41.8163,265.684 41.6497,270.684 40.5,275.5C 40.5,275.167 40.5,274.833 40.5,274.5C 41.0545,270.988 40.3878,267.988 38.5,265.5C 38.5,263.167 38.5,260.833 38.5,258.5 Z"/></g>
<g><path style="opacity:1" fill="#4f92ff" d="M 459.5,262.5 C 459.833,262.5 460.167,262.5 460.5,262.5C 460.5,264.5 460.5,266.5 460.5,268.5C 458.787,269.635 458.12,271.302 458.5,273.5C 458.205,275.735 458.539,277.735 459.5,279.5C 459.5,281.833 459.5,284.167 459.5,286.5C 458.391,286.557 457.391,286.89 456.5,287.5C 457.058,279.51 457.558,271.51 458,263.5C 458.383,262.944 458.883,262.611 459.5,262.5 Z"/></g>
<g><path style="opacity:1" fill="#a0c5ff" d="M 460.5,268.5 C 460.5,269.833 460.5,271.167 460.5,272.5C 459.833,272.833 459.167,273.167 458.5,273.5C 458.12,271.302 458.787,269.635 460.5,268.5 Z"/></g>
<g><path style="opacity:1" fill="#dae9ff" d="M 460.5,272.5 C 460.802,275.059 460.468,277.393 459.5,279.5C 458.539,277.735 458.205,275.735 458.5,273.5C 459.167,273.167 459.833,272.833 460.5,272.5 Z"/></g>
<g><path style="opacity:1" fill="#97ceff" d="M 379.5,264.5 C 379.214,277.097 377.88,289.43 375.5,301.5C 376.55,290.528 377.383,279.528 378,268.5C 378.21,266.942 378.71,265.609 379.5,264.5 Z"/></g>
<g><path style="opacity:1" fill="#c0d7ff" d="M 40.5,280.5 C 41.1174,280.611 41.6174,280.944 42,281.5C 42.8099,285.358 42.6433,289.024 41.5,292.5C 40.5701,288.6 40.2367,284.6 40.5,280.5 Z"/></g>
<g><path style="opacity:1" fill="#57afff" d="M 321.5,263.5 C 320.041,275.131 318.874,286.798 318,298.5C 317.617,299.056 317.117,299.389 316.5,299.5C 317.23,287.703 318.23,276.037 319.5,264.5C 320.167,264.167 320.833,263.833 321.5,263.5 Z"/></g>
<g><path style="opacity:0.082" fill="#8bb8ff" d="M 459.5,286.5 C 459.5,287.833 459.5,289.167 459.5,290.5C 458.222,290.782 457.222,291.449 456.5,292.5C 456.5,291.167 456.5,289.833 456.5,288.5C 456.5,288.167 456.5,287.833 456.5,287.5C 457.391,286.89 458.391,286.557 459.5,286.5 Z"/></g>
<g><path style="opacity:1" fill="#2a89ff" d="M 422.5,278.5 C 421.432,299.766 419.432,320.766 416.5,341.5C 417.094,320.216 419.094,299.216 422.5,278.5 Z"/></g>
<g><path style="opacity:1" fill="#69a3ff" d="M 179.5,287.5 C 180.268,288.263 180.768,289.263 181,290.5C 181.499,294.152 181.665,297.818 181.5,301.5C 180.578,297.005 179.911,292.338 179.5,287.5 Z"/></g>
<g><path style="opacity:1" fill="#6fa4ff" d="M 121.5,283.5 C 123.24,290.628 123.907,297.961 123.5,305.5C 123.5,306.5 123.5,307.5 123.5,308.5C 122.695,301.78 121.695,294.946 120.5,288C 120.508,286.293 120.842,284.793 121.5,283.5 Z"/></g>
<g><path style="opacity:0.082" fill="#ddeaff" d="M 459.5,290.5 C 459.94,294.179 459.273,297.512 457.5,300.5C 456.527,298.052 456.194,295.385 456.5,292.5C 457.222,291.449 458.222,290.782 459.5,290.5 Z"/></g>
<g><path style="opacity:1" fill="#cbe5ff" d="M 321.5,262.5 C 321.833,262.5 322.167,262.5 322.5,262.5C 322.022,270.163 321.522,277.83 321,285.5C 320.019,294.33 318.519,302.996 316.5,311.5C 316.5,307.5 316.5,303.5 316.5,299.5C 317.117,299.389 317.617,299.056 318,298.5C 318.874,286.798 320.041,275.131 321.5,263.5C 321.5,263.167 321.5,262.833 321.5,262.5 Z"/></g>
<g><path style="opacity:1" fill="#448bff" d="M 40.5,277.5 C 41.4959,277.414 42.3292,277.748 43,278.5C 44.586,291.786 45.7526,305.12 46.5,318.5C 45.609,317.89 44.609,317.557 43.5,317.5C 43.5,315.5 43.5,313.5 43.5,311.5C 44.6408,308.36 44.8075,305.027 44,301.5C 43.7645,299.881 42.9311,298.881 41.5,298.5C 41.5,296.5 41.5,294.5 41.5,292.5C 42.6433,289.024 42.8099,285.358 42,281.5C 41.6174,280.944 41.1174,280.611 40.5,280.5C 40.5,279.5 40.5,278.5 40.5,277.5 Z"/></g>
<g><path style="opacity:1" fill="#4a90ff" d="M 456.5,288.5 C 456.5,289.833 456.5,291.167 456.5,292.5C 456.194,295.385 456.527,298.052 457.5,300.5C 457.5,301.833 457.5,303.167 457.5,304.5C 456.5,304.5 455.5,304.5 454.5,304.5C 454.952,299.002 455.619,293.669 456.5,288.5 Z"/></g>
<g><path style="opacity:1" fill="#a7c9ff" d="M 41.5,298.5 C 42.9311,298.881 43.7645,299.881 44,301.5C 44.8075,305.027 44.6408,308.36 43.5,311.5C 43.5,311.167 43.5,310.833 43.5,310.5C 43.6621,308.473 43.4955,306.473 43,304.5C 42.7216,305.416 42.2216,306.082 41.5,306.5C 41.5,303.833 41.5,301.167 41.5,298.5 Z"/></g>
<g><path style="opacity:0.714" fill="#edf5ff" d="M 43.5,310.5 C 41.8235,309.817 41.1568,308.483 41.5,306.5C 42.2216,306.082 42.7216,305.416 43,304.5C 43.4955,306.473 43.6621,308.473 43.5,310.5 Z"/></g>
<g><path style="opacity:1" fill="#c2d9ff" d="M 123.5,305.5 C 124.268,306.263 124.768,307.263 125,308.5C 125.499,313.489 125.666,318.489 125.5,323.5C 125.167,323.5 124.833,323.5 124.5,323.5C 124.779,318.405 124.445,313.405 123.5,308.5C 123.5,307.5 123.5,306.5 123.5,305.5 Z"/></g>
<g><path style="opacity:0.973" fill="#99c0ff" d="M 454.5,304.5 C 455.5,304.5 456.5,304.5 457.5,304.5C 457.5,306.5 457.5,308.5 457.5,310.5C 455.744,311.552 455.077,313.219 455.5,315.5C 455.5,315.833 455.5,316.167 455.5,316.5C 454.517,312.702 454.183,308.702 454.5,304.5 Z"/></g>
<g><path style="opacity:0.334" fill="#f3f8ff" d="M 457.5,310.5 C 457.923,312.781 457.256,314.448 455.5,315.5C 455.077,313.219 455.744,311.552 457.5,310.5 Z"/></g>
<g><path style="opacity:1" fill="#66b5ff" d="M 375.5,303.5 C 375.635,316.23 374.802,328.896 373,341.5C 372.722,342.416 372.222,343.082 371.5,343.5C 373.121,330.062 374.455,316.728 375.5,303.5 Z"/></g>
<g><path style="opacity:1" fill="#83b3ff" d="M 182.5,313.5 C 183.222,313.918 183.722,314.584 184,315.5C 184.497,318.146 184.664,320.813 184.5,323.5C 183.419,320.373 182.753,317.04 182.5,313.5 Z"/></g>
<g><path style="opacity:1" fill="#87c7ff" d="M 316.5,312.5 C 316.23,317.028 315.563,321.361 314.5,325.5C 314.335,322.15 314.502,318.817 315,315.5C 315.232,314.263 315.732,313.263 316.5,312.5 Z"/></g>
<g><path style="opacity:1" fill="#8fb8ff" d="M 43.5,317.5 C 44.609,317.557 45.609,317.89 46.5,318.5C 46.8195,323.363 46.4861,328.03 45.5,332.5C 45.5,332.167 45.5,331.833 45.5,331.5C 46.0356,328.302 45.369,325.635 43.5,323.5C 43.5,321.5 43.5,319.5 43.5,317.5 Z"/></g>
<g><path style="opacity:1" fill="#a8c7ff" d="M 184.5,323.5 C 188.838,324.19 193.171,325.023 197.5,326C 198.056,326.383 198.389,326.883 198.5,327.5C 193.389,327.171 188.722,325.838 184.5,323.5 Z"/></g>
<g><path style="opacity:0.843" fill="#edf3ff" d="M 43.5,323.5 C 45.369,325.635 46.0356,328.302 45.5,331.5C 43.631,329.365 42.9644,326.698 43.5,323.5 Z"/></g>
<g><path style="opacity:1" fill="#beddff" d="M 314.5,325.5 C 313.365,327.213 311.698,327.88 309.5,327.5C 310.552,325.744 312.219,325.077 314.5,325.5 Z"/></g>
<g><path style="opacity:0.376" fill="#c4d9ff" d="M 455.5,323.5 C 456.055,327.012 455.388,330.012 453.5,332.5C 452.945,328.988 453.612,325.988 455.5,323.5 Z"/></g>
<g><path style="opacity:1" fill="#aeceff" d="M 202.5,327.5 C 205.01,327.927 207.343,328.593 209.5,329.5C 207.473,329.662 205.473,329.495 203.5,329C 202.944,328.617 202.611,328.117 202.5,327.5 Z"/></g>
<g><path style="opacity:1" fill="#c4d9ff" d="M 125.5,325.5 C 126.268,326.263 126.768,327.263 127,328.5C 127.364,335.852 127.864,343.185 128.5,350.5C 128.167,350.5 127.833,350.5 127.5,350.5C 126.705,346.215 126.372,341.881 126.5,337.5C 126.495,333.466 126.162,329.466 125.5,325.5 Z"/></g>
<g><path style="opacity:1" fill="#5290ff" d="M 225.5,332.5 C 229.917,332.271 233.917,333.271 237.5,335.5C 235.097,335.552 232.764,335.219 230.5,334.5C 228.833,333.833 227.167,333.167 225.5,332.5 Z"/></g>
<g><path style="opacity:1" fill="#70bbff" d="M 281.5,331.5 C 277.979,332.307 274.312,332.974 270.5,333.5C 270.611,332.883 270.944,332.383 271.5,332C 274.817,331.502 278.15,331.335 281.5,331.5 Z"/></g>
<g><path style="opacity:1" fill="#c5dbff" d="M 223.5,332.5 C 224.167,332.5 224.833,332.5 225.5,332.5C 227.167,333.167 228.833,333.833 230.5,334.5C 228.473,334.662 226.473,334.495 224.5,334C 223.944,333.617 223.611,333.117 223.5,332.5 Z"/></g>
<g><path style="opacity:1" fill="#80c3ff" d="M 267.5,333.5 C 263.077,335.077 258.41,336.077 253.5,336.5C 253.328,335.508 253.662,334.842 254.5,334.5C 258.869,334.533 263.202,334.2 267.5,333.5 Z"/></g>
<g><path style="opacity:1" fill="#629eff" d="M 124.5,323.5 C 124.833,323.5 125.167,323.5 125.5,323.5C 125.5,324.167 125.5,324.833 125.5,325.5C 126.162,329.466 126.495,333.466 126.5,337.5C 125.028,333.081 124.362,328.414 124.5,323.5 Z"/></g>
<g><path style="opacity:1" fill="#afceff" d="M 237.5,335.5 C 242.438,336.392 247.438,336.726 252.5,336.5C 252.833,336.5 253.167,336.5 253.5,336.5C 251.022,337.164 248.355,337.497 245.5,337.5C 242.41,337.478 239.743,336.812 237.5,335.5 Z"/></g>
<g><path style="opacity:0.976" fill="#aecfff" d="M 45.5,339.5 C 47.1765,340.183 47.8432,341.517 47.5,343.5C 46.8333,343.5 46.1667,343.5 45.5,343.5C 45.5,342.167 45.5,340.833 45.5,339.5 Z"/></g>
<g><path style="opacity:1" fill="#6da5ff" d="M 45.5,334.5 C 46.9311,334.881 47.7645,335.881 48,337.5C 48.8151,342.352 48.6484,347.019 47.5,351.5C 47.5,351.167 47.5,350.833 47.5,350.5C 47.5,348.167 47.5,345.833 47.5,343.5C 47.8432,341.517 47.1765,340.183 45.5,339.5C 45.5,337.833 45.5,336.167 45.5,334.5 Z"/></g>
<g><path style="opacity:1" fill="#95beff" d="M 453.5,340.5 C 453.5,341.833 453.5,343.167 453.5,344.5C 452.833,344.833 452.167,345.167 451.5,345.5C 451.077,343.219 451.744,341.552 453.5,340.5 Z"/></g>
<g><path style="opacity:0.976" fill="#ecf2ff" d="M 45.5,343.5 C 46.1667,343.5 46.8333,343.5 47.5,343.5C 47.5,345.833 47.5,348.167 47.5,350.5C 45.6565,348.721 44.9898,346.388 45.5,343.5 Z"/></g>
<g><path style="opacity:0.44" fill="#e8f1ff" d="M 453.5,344.5 C 454.055,348.012 453.388,351.012 451.5,353.5C 451.5,350.833 451.5,348.167 451.5,345.5C 452.167,345.167 452.833,344.833 453.5,344.5 Z"/></g>
<g><path style="opacity:1" fill="#87c6ff" d="M 371.5,345.5 C 371.666,350.179 371.499,354.845 371,359.5C 370.95,361.744 370.117,363.411 368.5,364.5C 369.682,358.095 370.682,351.762 371.5,345.5 Z"/></g>
<g><path style="opacity:1" fill="#458bff" d="M 455.5,320.5 C 455.5,321.5 455.5,322.5 455.5,323.5C 453.612,325.988 452.945,328.988 453.5,332.5C 453.5,335.167 453.5,337.833 453.5,340.5C 451.744,341.552 451.077,343.219 451.5,345.5C 451.5,348.167 451.5,350.833 451.5,353.5C 452.301,355.042 452.634,356.708 452.5,358.5C 449.916,359.048 448.916,360.715 449.5,363.5C 449.194,366.385 449.527,369.052 450.5,371.5C 450.5,372.167 450.5,372.833 450.5,373.5C 449.391,373.557 448.391,373.89 447.5,374.5C 449.299,356.806 451.133,339.139 453,321.5C 453.671,320.748 454.504,320.414 455.5,320.5 Z"/></g>
<g><path style="opacity:0.09" fill="#7fb0ff" d="M 452.5,358.5 C 452.5,359.167 452.5,359.833 452.5,360.5C 451.1,361.1 450.1,362.1 449.5,363.5C 448.916,360.715 449.916,359.048 452.5,358.5 Z"/></g>
<g><path style="opacity:1" fill="#8db8ff" d="M 47.5,355.5 C 48.4916,355.328 49.1583,355.662 49.5,356.5C 49.5,358.167 49.5,359.833 49.5,361.5C 48.8333,361.167 48.1667,360.833 47.5,360.5C 47.5,358.833 47.5,357.167 47.5,355.5 Z"/></g>
<g><path style="opacity:0.706" fill="#bad4ff" d="M 452.5,360.5 C 452.5,362.167 452.5,363.833 452.5,365.5C 451.883,365.389 451.383,365.056 451,364.5C 450.505,366.473 450.338,368.473 450.5,370.5C 450.5,370.833 450.5,371.167 450.5,371.5C 449.527,369.052 449.194,366.385 449.5,363.5C 450.1,362.1 451.1,361.1 452.5,360.5 Z"/></g>
<g><path style="opacity:1" fill="#d7e6ff" d="M 47.5,360.5 C 48.1667,360.833 48.8333,361.167 49.5,361.5C 49.8064,364.385 49.4731,367.052 48.5,369.5C 47.5233,366.713 47.19,363.713 47.5,360.5 Z"/></g>
<g><path style="opacity:1" fill="#5794ff" d="M 127.5,350.5 C 127.833,350.5 128.167,350.5 128.5,350.5C 128.334,355.179 128.501,359.845 129,364.5C 129.417,365.756 130.25,366.423 131.5,366.5C 131.5,366.833 131.5,367.167 131.5,367.5C 130.178,367.33 129.011,367.663 128,368.5C 127.501,362.509 127.334,356.509 127.5,350.5 Z"/></g>
<g><path style="opacity:1" fill="#b4d0ff" d="M 131.5,367.5 C 131.5,367.167 131.5,366.833 131.5,366.5C 134.228,366.171 136.562,366.837 138.5,368.5C 136.139,368.326 133.806,367.993 131.5,367.5 Z"/></g>
<g><path style="opacity:1" fill="#c1e2ff" d="M 359.5,366.5 C 359.158,367.338 358.492,367.672 357.5,367.5C 354.833,368.167 352.167,368.833 349.5,369.5C 349.97,368.307 350.97,367.64 352.5,367.5C 354.818,367.003 357.152,366.67 359.5,366.5 Z"/></g>
<g><path style="opacity:0.472" fill="#f5f8ff" d="M 452.5,365.5 C 452.923,367.781 452.256,369.448 450.5,370.5C 450.338,368.473 450.505,366.473 451,364.5C 451.383,365.056 451.883,365.389 452.5,365.5 Z"/></g>
<g><path style="opacity:1" fill="#8ab6ff" d="M 139.5,368.5 C 142.01,368.927 144.343,369.593 146.5,370.5C 144.473,370.662 142.473,370.495 140.5,370C 139.944,369.617 139.611,369.117 139.5,368.5 Z"/></g>
<g><path style="opacity:1" fill="#69b5ff" d="M 357.5,367.5 C 357.03,368.693 356.03,369.36 354.5,369.5C 349.319,371.328 343.985,372.662 338.5,373.5C 340.111,371.905 342.111,370.739 344.5,370C 346.134,369.506 347.801,369.34 349.5,369.5C 352.167,368.833 354.833,368.167 357.5,367.5 Z"/></g>
<g><path style="opacity:1" fill="#95bcff" d="M 152.5,371.5 C 155.68,371.661 158.347,372.661 160.5,374.5C 158.199,373.94 155.866,373.44 153.5,373C 152.944,372.617 152.611,372.117 152.5,371.5 Z"/></g>
<g><path style="opacity:0.543" fill="#71a6ff" d="M 450.5,373.5 C 450.5,375.167 450.5,376.833 450.5,378.5C 448.824,379.183 448.157,380.517 448.5,382.5C 448.5,384.5 448.5,386.5 448.5,388.5C 447.514,384.03 447.181,379.363 447.5,374.5C 448.391,373.89 449.391,373.557 450.5,373.5 Z"/></g>
<g><path style="opacity:1" fill="#5b9aff" d="M 49.5,356.5 C 50.3976,362.666 51.0643,369 51.5,375.5C 51.5,376.5 51.5,377.5 51.5,378.5C 50.391,378.557 49.391,378.89 48.5,379.5C 48.5,376.167 48.5,372.833 48.5,369.5C 49.4731,367.052 49.8064,364.385 49.5,361.5C 49.5,359.833 49.5,358.167 49.5,356.5 Z"/></g>
<g><path style="opacity:1" fill="#5291ff" d="M 170.5,376.5 C 175.379,377.464 180.045,378.797 184.5,380.5C 180.086,380.169 175.752,379.335 171.5,378C 170.944,377.617 170.611,377.117 170.5,376.5 Z"/></g>
<g><path style="opacity:1" fill="#76baff" d="M 331.5,374.5 C 320.091,379.572 308.091,382.905 295.5,384.5C 307.431,381.045 319.431,377.711 331.5,374.5 Z"/></g>
<g><path style="opacity:1" fill="#3f88ff" d="M 51.5,375.5 C 52.4909,382.323 53.1575,389.323 53.5,396.5C 52.7777,395.449 51.7777,394.782 50.5,394.5C 50.5,392.5 50.5,390.5 50.5,388.5C 51.4794,385.375 51.8128,382.042 51.5,378.5C 51.5,377.5 51.5,376.5 51.5,375.5 Z"/></g>
<g><path style="opacity:0.235" fill="#b7d4ff" d="M 450.5,378.5 C 450.5,379.833 450.5,381.167 450.5,382.5C 449.833,382.5 449.167,382.5 448.5,382.5C 448.157,380.517 448.824,379.183 450.5,378.5 Z"/></g>
<g><path style="opacity:1" fill="#639dff" d="M 190.5,381.5 C 193.01,381.927 195.343,382.593 197.5,383.5C 195.473,383.662 193.473,383.495 191.5,383C 190.944,382.617 190.611,382.117 190.5,381.5 Z"/></g>
<g><path style="opacity:1" fill="#c2d9ff" d="M 197.5,383.5 C 200.187,383.336 202.854,383.503 205.5,384C 206.056,384.383 206.389,384.883 206.5,385.5C 205.167,385.167 203.833,384.833 202.5,384.5C 200.585,384.784 198.919,384.451 197.5,383.5 Z"/></g>
<g><path style="opacity:0.349" fill="#f9fbff" d="M 50.5,388.5 C 48.9519,388.179 48.2852,387.179 48.5,385.5C 49.2216,385.082 49.7216,384.416 50,383.5C 50.4935,385.134 50.6602,386.801 50.5,388.5 Z"/></g>
<g><path style="opacity:1" fill="#bad4ff" d="M 51.5,378.5 C 51.8128,382.042 51.4794,385.375 50.5,388.5C 50.6602,386.801 50.4935,385.134 50,383.5C 49.7216,384.416 49.2216,385.082 48.5,385.5C 48.5,383.5 48.5,381.5 48.5,379.5C 49.391,378.89 50.391,378.557 51.5,378.5 Z"/></g>
<g><path style="opacity:1" fill="#639eff" d="M 202.5,384.5 C 203.833,384.833 205.167,385.167 206.5,385.5C 207.791,385.263 208.791,385.596 209.5,386.5C 207.473,386.662 205.473,386.495 203.5,386C 202.944,385.617 202.611,385.117 202.5,384.5 Z"/></g>
<g><path style="opacity:0.375" fill="#f3f7ff" d="M 448.5,382.5 C 449.167,382.5 449.833,382.5 450.5,382.5C 450.975,385.082 450.308,387.082 448.5,388.5C 448.5,386.5 448.5,384.5 448.5,382.5 Z"/></g>
<g><path style="opacity:1" fill="#7cbfff" d="M 295.5,384.5 C 293.347,386.339 290.68,387.339 287.5,387.5C 287.611,386.883 287.944,386.383 288.5,386C 290.866,385.56 293.199,385.06 295.5,384.5 Z"/></g>
<g><path style="opacity:1" fill="#8cb7ff" d="M 215.5,387.5 C 218.127,388.105 220.793,388.605 223.5,389C 224.056,389.383 224.389,389.883 224.5,390.5C 221.873,389.895 219.207,389.395 216.5,389C 215.944,388.617 215.611,388.117 215.5,387.5 Z"/></g>
<g><path style="opacity:1" fill="#61b2ff" d="M 284.5,387.5 C 281.136,390.371 277.136,391.705 272.5,391.5C 276.257,389.736 280.257,388.403 284.5,387.5 Z"/></g>
<g><path style="opacity:1" fill="#7aabff" d="M 230.5,391.5 C 234.391,392.502 238.391,393.335 242.5,394C 243.056,394.383 243.389,394.883 243.5,395.5C 238.724,395.112 234.391,393.779 230.5,391.5 Z"/></g>
<g><path style="opacity:0.388" fill="#70aaff" d="M 448.5,392.5 C 448.5,393.833 448.5,395.167 448.5,396.5C 447.833,396.5 447.167,396.5 446.5,396.5C 446.157,394.517 446.824,393.183 448.5,392.5 Z"/></g>
<g><path style="opacity:0.851" fill="#8db8ff" d="M 50.5,394.5 C 51.7777,394.782 52.7777,395.449 53.5,396.5C 53.5,400.833 53.5,405.167 53.5,409.5C 53.1667,409.5 52.8333,409.5 52.5,409.5C 52.5,409.167 52.5,408.833 52.5,408.5C 53.0545,404.988 52.3878,401.988 50.5,399.5C 50.5,397.833 50.5,396.167 50.5,394.5 Z"/></g>
<g><path style="opacity:1" fill="#2887ff" d="M 251.5,397.5 C 252.167,413.672 252.833,430.005 253.5,446.5C 254.107,446.376 254.44,446.043 254.5,445.5C 257.237,445.599 259.904,445.265 262.5,444.5C 262.389,445.117 262.056,445.617 261.5,446C 258.173,446.61 254.839,447.11 251.5,447.5C 251.5,430.833 251.5,414.167 251.5,397.5 Z"/></g>
<g><path style="opacity:1" fill="#3ba2ff" d="M 265.5,393.5 C 262.573,395.593 259.24,396.926 255.5,397.5C 254.501,413.486 254.167,429.486 254.5,445.5C 254.44,446.043 254.107,446.376 253.5,446.5C 252.833,430.005 252.167,413.672 251.5,397.5C 249.901,397.768 248.568,397.434 247.5,396.5C 253.739,396.434 259.739,395.434 265.5,393.5 Z"/></g>
<g><path style="opacity:0.98" fill="#d8e6ff" d="M 446.5,396.5 C 447.167,396.5 447.833,396.5 448.5,396.5C 449.055,400.012 448.388,403.012 446.5,405.5C 446.5,402.5 446.5,399.5 446.5,396.5 Z"/></g>
<g><path style="opacity:0.235" fill="#e6f0ff" d="M 50.5,399.5 C 52.3878,401.988 53.0545,404.988 52.5,408.5C 50.6122,406.012 49.9455,403.012 50.5,399.5 Z"/></g>
<g><path style="opacity:1" fill="#81b2ff" d="M 446.5,411.5 C 446.5,412.833 446.5,414.167 446.5,415.5C 445.833,415.833 445.167,416.167 444.5,416.5C 444.12,414.302 444.787,412.635 446.5,411.5 Z"/></g>
<g><path style="opacity:0.98" fill="#81b4ff" d="M 52.5,413.5 C 54.1765,414.183 54.8432,415.517 54.5,417.5C 53.8333,417.5 53.1667,417.5 52.5,417.5C 52.5,416.167 52.5,414.833 52.5,413.5 Z"/></g>
<g><path style="opacity:1" fill="#d1e3ff" d="M 446.5,415.5 C 447.055,419.012 446.388,422.012 444.5,424.5C 444.5,421.833 444.5,419.167 444.5,416.5C 445.167,416.167 445.833,415.833 446.5,415.5 Z"/></g>
<g><path style="opacity:0.98" fill="#bcd5ff" d="M 52.5,417.5 C 53.1667,417.5 53.8333,417.5 54.5,417.5C 54.5,418.833 54.5,420.167 54.5,421.5C 53.8333,421.5 53.1667,421.5 52.5,421.5C 52.5,420.167 52.5,418.833 52.5,417.5 Z"/></g>
<g><path style="opacity:0.328" fill="#f3f8ff" d="M 52.5,421.5 C 53.1667,421.5 53.8333,421.5 54.5,421.5C 54.5,423.167 54.5,424.833 54.5,426.5C 52.744,425.448 52.0773,423.781 52.5,421.5 Z"/></g>
<g><path style="opacity:0.718" fill="#4b90ff" d="M 446.5,396.5 C 446.5,399.5 446.5,402.5 446.5,405.5C 446.5,407.5 446.5,409.5 446.5,411.5C 444.787,412.635 444.12,414.302 444.5,416.5C 444.5,419.167 444.5,421.833 444.5,424.5C 445.301,426.042 445.634,427.708 445.5,429.5C 444.222,429.782 443.222,430.449 442.5,431.5C 442.856,419.582 444.19,407.915 446.5,396.5 Z"/></g>
<g><path style="opacity:1" fill="#4088ff" d="M 52.5,409.5 C 52.8333,409.5 53.1667,409.5 53.5,409.5C 54.1174,409.611 54.6174,409.944 55,410.5C 55.9175,420.17 56.7509,429.837 57.5,439.5C 56.6618,439.158 56.3284,438.492 56.5,437.5C 57.0102,434.612 56.3435,432.279 54.5,430.5C 54.5,429.167 54.5,427.833 54.5,426.5C 54.5,424.833 54.5,423.167 54.5,421.5C 54.5,420.167 54.5,418.833 54.5,417.5C 54.8432,415.517 54.1765,414.183 52.5,413.5C 52.5,412.167 52.5,410.833 52.5,409.5 Z"/></g>
<g><path style="opacity:1" fill="#8ab6ff" d="M 445.5,429.5 C 445.5,431.833 445.5,434.167 445.5,436.5C 444.883,436.389 444.383,436.056 444,435.5C 443.79,437.058 443.29,438.391 442.5,439.5C 442.5,436.833 442.5,434.167 442.5,431.5C 443.222,430.449 444.222,429.782 445.5,429.5 Z"/></g>
<g><path style="opacity:1" fill="#6ca4ff" d="M 54.5,430.5 C 56.3435,432.279 57.0102,434.612 56.5,437.5C 55.8333,437.5 55.1667,437.5 54.5,437.5C 54.5,435.167 54.5,432.833 54.5,430.5 Z"/></g>
<g><path style="opacity:0.263" fill="#bcd5ff" d="M 54.5,437.5 C 55.1667,437.5 55.8333,437.5 56.5,437.5C 56.3284,438.492 56.6618,439.158 57.5,439.5C 58.1667,439.5 58.8333,439.5 59.5,439.5C 59.5,440.167 59.5,440.833 59.5,441.5C 56.4124,441.803 54.7458,440.47 54.5,437.5 Z"/></g>
<g><path style="opacity:0.016" fill="#dfebff" d="M 445.5,436.5 C 445.56,440.485 443.56,442.152 439.5,441.5C 439.833,440.833 440.167,440.167 440.5,439.5C 441.167,439.5 441.833,439.5 442.5,439.5C 443.29,438.391 443.79,437.058 444,435.5C 444.383,436.056 444.883,436.389 445.5,436.5 Z"/></g>
<g><path style="opacity:0.569" fill="#6da6ff" d="M 59.5,439.5 C 61.7638,440.219 64.0971,440.552 66.5,440.5C 66.5,441.5 66.5,442.5 66.5,443.5C 65.8333,443.5 65.1667,443.5 64.5,443.5C 64.1788,441.952 63.1788,441.285 61.5,441.5C 60.8333,441.5 60.1667,441.5 59.5,441.5C 59.5,440.833 59.5,440.167 59.5,439.5 Z"/></g>
<g><path style="opacity:0.61" fill="#e4efff" d="M 61.5,441.5 C 63.1788,441.285 64.1788,441.952 64.5,443.5C 62.8212,443.715 61.8212,443.048 61.5,441.5 Z"/></g>
<g><path style="opacity:0.61" fill="#eaf3ff" d="M 437.5,442.5 C 436.791,443.404 435.791,443.737 434.5,443.5C 435.053,441.448 436.053,441.115 437.5,442.5 Z"/></g>
<g><path style="opacity:0.059" fill="#77acff" d="M 440.5,439.5 C 440.167,440.167 439.833,440.833 439.5,441.5C 438.833,441.833 438.167,442.167 437.5,442.5C 436.053,441.115 435.053,441.448 434.5,443.5C 433.833,443.5 433.167,443.5 432.5,443.5C 432.414,442.504 432.748,441.671 433.5,441C 435.866,440.56 438.199,440.06 440.5,439.5 Z"/></g>
<g><path style="opacity:0.024" fill="#7eadff" d="M 73.5,445.5 C 72.8333,445.5 72.1667,445.5 71.5,445.5C 70.8333,442.833 70.1667,442.833 69.5,445.5C 68.6618,445.158 68.3284,444.492 68.5,443.5C 69.9187,442.549 71.5853,442.216 73.5,442.5C 73.5,443.5 73.5,444.5 73.5,445.5 Z"/></g>
<g><path style="opacity:0.024" fill="#d4e4ff" d="M 71.5,445.5 C 70.8333,445.5 70.1667,445.5 69.5,445.5C 70.1667,442.833 70.8333,442.833 71.5,445.5 Z"/></g>
<g><path style="opacity:0.016" fill="#a8c9ff" d="M 430.5,443.5 C 430.611,444.117 430.944,444.617 431.5,445C 429.866,445.494 428.199,445.66 426.5,445.5C 426.5,444.5 426.5,443.5 426.5,442.5C 428.099,442.232 429.432,442.566 430.5,443.5 Z"/></g>
<g><path style="opacity:0.388" fill="#b7d6ff" d="M 78.5,444.5 C 78.5,445.167 78.5,445.833 78.5,446.5C 77.209,446.737 76.209,446.404 75.5,445.5C 76.209,444.596 77.209,444.263 78.5,444.5 Z"/></g>
<g><path style="opacity:1" fill="#70a6ff" d="M 78.5,444.5 C 80.7638,445.219 83.0971,445.552 85.5,445.5C 85.5,446.5 85.5,447.5 85.5,448.5C 84.8333,448.5 84.1667,448.5 83.5,448.5C 82.8333,445.833 82.1667,445.833 81.5,448.5C 80.7777,447.449 79.7777,446.782 78.5,446.5C 78.5,445.833 78.5,445.167 78.5,444.5 Z"/></g>
<g><path style="opacity:0.388" fill="#aed1ff" d="M 423.5,445.5 C 422.791,446.404 421.791,446.737 420.5,446.5C 421.053,444.448 422.053,444.115 423.5,445.5 Z"/></g>
<g><path style="opacity:0.788" fill="#eaf4ff" d="M 83.5,448.5 C 82.8333,448.5 82.1667,448.5 81.5,448.5C 82.1667,445.833 82.8333,445.833 83.5,448.5 Z"/></g>
<g><path style="opacity:0.063" fill="#b0ccff" d="M 415.5,445.5 C 416.791,445.263 417.791,445.596 418.5,446.5C 418.179,448.048 417.179,448.715 415.5,448.5C 415.5,447.5 415.5,446.5 415.5,445.5 Z"/></g>
<g><path style="opacity:0.502" fill="#c8dcff" d="M 90.5,447.5 C 90.5,448.167 90.5,448.833 90.5,449.5C 89.8333,449.5 89.1667,449.5 88.5,449.5C 88.5,448.167 89.1667,447.5 90.5,447.5 Z"/></g>
<g><path style="opacity:1" fill="#75aaff" d="M 90.5,447.5 C 92.7638,448.219 95.0971,448.552 97.5,448.5C 97.5,449.5 97.5,450.5 97.5,451.5C 96.8333,451.5 96.1667,451.5 95.5,451.5C 94.8333,448.833 94.1667,448.833 93.5,451.5C 92.7777,450.449 91.7777,449.782 90.5,449.5C 90.5,448.833 90.5,448.167 90.5,447.5 Z"/></g>
<g><path style="opacity:0.212" fill="#f5f8ff" d="M 95.5,451.5 C 94.8333,451.5 94.1667,451.5 93.5,451.5C 94.1667,448.833 94.8333,448.833 95.5,451.5 Z"/></g>
<g><path style="opacity:0.212" fill="#69a0ff" d="M 415.5,445.5 C 415.5,446.5 415.5,447.5 415.5,448.5C 414.391,448.557 413.391,448.89 412.5,449.5C 411.833,446.833 411.167,446.833 410.5,449.5C 408.446,449.365 406.779,450.032 405.5,451.5C 404.833,448.833 404.167,448.833 403.5,451.5C 402.391,451.557 401.391,451.89 400.5,452.5C 400.5,451.167 399.833,450.5 398.5,450.5C 404.002,448.601 409.668,446.934 415.5,445.5 Z"/></g>
<g><path style="opacity:0.502" fill="#f1f6ff" d="M 412.5,449.5 C 411.833,449.5 411.167,449.5 410.5,449.5C 411.167,446.833 411.833,446.833 412.5,449.5 Z"/></g>
<g><path style="opacity:0.212" fill="#dfeaff" d="M 405.5,451.5 C 404.833,451.5 404.167,451.5 403.5,451.5C 404.167,448.833 404.833,448.833 405.5,451.5 Z"/></g>
<g><path style="opacity:0.582" fill="#d2e3ff" d="M 102.5,450.5 C 102.5,451.167 102.5,451.833 102.5,452.5C 101.833,452.5 101.167,452.5 100.5,452.5C 100.5,451.167 101.167,450.5 102.5,450.5 Z"/></g>
<g><path style="opacity:0.616" fill="#c6dcff" d="M 398.5,450.5 C 399.833,450.5 400.5,451.167 400.5,452.5C 399.167,452.5 397.833,452.5 396.5,452.5C 396.833,451.5 397.5,450.833 398.5,450.5 Z"/></g>
<g><path style="opacity:0.069" fill="#68a1ff" d="M 102.5,450.5 C 104.698,450.875 106.698,451.542 108.5,452.5C 106.821,452.285 105.821,452.952 105.5,454.5C 104.778,453.449 103.778,452.782 102.5,452.5C 102.5,451.833 102.5,451.167 102.5,450.5 Z"/></g>
<g><path style="opacity:0.318" fill="#deebff" d="M 108.5,452.5 C 108.5,453.167 108.5,453.833 108.5,454.5C 107.5,454.5 106.5,454.5 105.5,454.5C 105.821,452.952 106.821,452.285 108.5,452.5 Z"/></g>
<g><path style="opacity:0.382" fill="#67a1ff" d="M 393.5,452.5 C 392.167,452.5 391.5,453.167 391.5,454.5C 390.222,454.782 389.222,455.449 388.5,456.5C 387.5,453.833 386.5,453.833 385.5,456.5C 384.041,456.433 382.708,456.766 381.5,457.5C 381.179,455.952 380.179,455.285 378.5,455.5C 382.77,454.348 387.103,453.015 391.5,451.5C 392.416,451.543 393.083,451.876 393.5,452.5 Z"/></g>
<g><path style="opacity:0.302" fill="#d7e8ff" d="M 393.5,452.5 C 393.5,453.167 393.5,453.833 393.5,454.5C 392.833,454.5 392.167,454.5 391.5,454.5C 391.5,453.167 392.167,452.5 393.5,452.5 Z"/></g>
<g><path style="opacity:0.008" fill="#5f9cff" d="M 108.5,452.5 C 109.959,452.433 111.292,452.766 112.5,453.5C 112.5,454.5 112.5,455.5 112.5,456.5C 111.533,455.194 110.199,454.527 108.5,454.5C 108.5,453.833 108.5,453.167 108.5,452.5 Z"/></g>
<g><path style="opacity:0.055" fill="#bbd5ff" d="M 112.5,453.5 C 113.5,453.5 114.5,453.5 115.5,453.5C 115.5,454.5 115.5,455.5 115.5,456.5C 114.5,456.5 113.5,456.5 112.5,456.5C 112.5,455.5 112.5,454.5 112.5,453.5 Z"/></g>
<g><path style="opacity:0.055" fill="#e5efff" d="M 388.5,456.5 C 387.5,456.5 386.5,456.5 385.5,456.5C 386.5,453.833 387.5,453.833 388.5,456.5 Z"/></g>
<g><path style="opacity:0.463" fill="#448bff" d="M 115.5,453.5 C 118.166,453.933 120.832,454.433 123.5,455C 124.056,455.383 124.389,455.883 124.5,456.5C 124.5,456.833 124.5,457.167 124.5,457.5C 123.833,457.5 123.167,457.5 122.5,457.5C 121.5,454.833 120.5,454.833 119.5,457.5C 118.292,456.766 116.959,456.433 115.5,456.5C 115.5,455.5 115.5,454.5 115.5,453.5 Z"/></g>
<g><path style="opacity:0.322" fill="#b3ceff" d="M 122.5,457.5 C 121.5,457.5 120.5,457.5 119.5,457.5C 120.5,454.833 121.5,454.833 122.5,457.5 Z"/></g>
<g><path style="opacity:0.431" fill="#c6ddff" d="M 378.5,455.5 C 380.179,455.285 381.179,455.952 381.5,457.5C 380.5,457.5 379.5,457.5 378.5,457.5C 378.5,456.833 378.5,456.167 378.5,455.5 Z"/></g>
<g><path style="opacity:0.149" fill="#c8ddff" d="M 124.5,456.5 C 125.5,456.5 126.5,456.5 127.5,456.5C 127.5,457.5 127.5,458.5 127.5,459.5C 125.821,459.715 124.821,459.048 124.5,457.5C 124.5,457.167 124.5,456.833 124.5,456.5 Z"/></g>
<g><path style="opacity:0.149" fill="#7eb0ff" d="M 378.5,455.5 C 378.5,456.167 378.5,456.833 378.5,457.5C 377.833,457.5 377.167,457.5 376.5,457.5C 374.821,457.285 373.821,457.952 373.5,459.5C 372.833,459.5 372.167,459.5 371.5,459.5C 371.414,458.504 371.748,457.671 372.5,457C 374.518,456.495 376.518,455.995 378.5,455.5 Z"/></g>
<g><path style="opacity:0.149" fill="#e1ebff" d="M 376.5,457.5 C 376.179,459.048 375.179,459.715 373.5,459.5C 373.821,457.952 374.821,457.285 376.5,457.5 Z"/></g>
<g><path style="opacity:0.545" fill="#80aeff" d="M 141.5,462.5 C 140.833,462.5 140.167,462.5 139.5,462.5C 138.833,459.833 138.167,459.833 137.5,462.5C 135.639,461.158 133.639,460.158 131.5,459.5C 134.652,458.761 137.985,458.761 141.5,459.5C 141.5,460.5 141.5,461.5 141.5,462.5 Z"/></g>
<g><path style="opacity:0.251" fill="#eff2ff" d="M 139.5,462.5 C 138.833,462.5 138.167,462.5 137.5,462.5C 138.167,459.833 138.833,459.833 139.5,462.5 Z"/></g>
<g><path style="opacity:0.251" fill="#85b1ff" d="M 369.5,459.5 C 367.361,460.158 365.361,461.158 363.5,462.5C 362.833,459.833 362.167,459.833 361.5,462.5C 360.833,462.5 360.167,462.5 359.5,462.5C 359.5,461.5 359.5,460.5 359.5,459.5C 363.015,458.761 366.348,458.761 369.5,459.5 Z"/></g>
<g><path style="opacity:0.251" fill="#f3f6ff" d="M 363.5,462.5 C 362.833,462.5 362.167,462.5 361.5,462.5C 362.167,459.833 362.833,459.833 363.5,462.5 Z"/></g>
<g><path style="opacity:0.655" fill="#669eff" d="M 354.5,461.5 C 354.5,462.5 354.5,463.5 354.5,464.5C 353.391,464.557 352.391,464.89 351.5,465.5C 350.833,462.833 350.167,462.833 349.5,465.5C 348.5,465.5 347.5,465.5 346.5,465.5C 346.5,464.5 346.5,463.5 346.5,462.5C 349.237,462.599 351.904,462.265 354.5,461.5 Z"/></g>
<g><path style="opacity:0.008" fill="#aecbff" d="M 354.5,461.5 C 355.791,461.263 356.791,461.596 357.5,462.5C 357.179,464.048 356.179,464.715 354.5,464.5C 354.5,463.5 354.5,462.5 354.5,461.5 Z"/></g>
<g><path style="opacity:1" fill="#72a6ff" d="M 160.5,467.5 C 159.833,467.5 159.167,467.5 158.5,467.5C 157.833,464.833 157.167,464.833 156.5,467.5C 155.221,466.032 153.554,465.365 151.5,465.5C 150.833,462.833 150.167,462.833 149.5,465.5C 148.609,464.89 147.609,464.557 146.5,464.5C 145.833,461.833 145.167,461.833 144.5,464.5C 143.662,464.158 143.328,463.492 143.5,462.5C 144.097,461.861 144.93,461.528 146,461.5C 150.888,462.444 155.721,463.444 160.5,464.5C 160.5,465.5 160.5,466.5 160.5,467.5 Z"/></g>
<g><path style="opacity:0.361" fill="#f3f8ff" d="M 151.5,465.5 C 150.833,465.5 150.167,465.5 149.5,465.5C 150.167,462.833 150.833,462.833 151.5,465.5 Z"/></g>
<g><path style="opacity:0.008" fill="#d2e5ff" d="M 146.5,464.5 C 145.833,464.5 145.167,464.5 144.5,464.5C 145.167,461.833 145.833,461.833 146.5,464.5 Z"/></g>
<g><path style="opacity:0.341" fill="#eaf2ff" d="M 351.5,465.5 C 350.833,465.5 350.167,465.5 349.5,465.5C 350.167,462.833 350.833,462.833 351.5,465.5 Z"/></g>
<g><path style="opacity:0.765" fill="#609eff" d="M 345.5,465.5 C 345.672,466.492 345.338,467.158 344.5,467.5C 343.833,464.833 343.167,464.833 342.5,467.5C 341.391,467.557 340.391,467.89 339.5,468.5C 338.5,465.833 337.5,465.833 336.5,468.5C 335.833,468.5 335.167,468.5 334.5,468.5C 334.414,467.504 334.748,466.671 335.5,466C 338,465.5 340.5,465 343,464.5C 344.07,464.528 344.903,464.861 345.5,465.5 Z"/></g>
<g><path style="opacity:0.09" fill="#dfedff" d="M 158.5,467.5 C 157.833,467.5 157.167,467.5 156.5,467.5C 157.167,464.833 157.833,464.833 158.5,467.5 Z"/></g>
<g><path style="opacity:0.086" fill="#cde1ff" d="M 344.5,467.5 C 343.833,467.5 343.167,467.5 342.5,467.5C 343.167,464.833 343.833,464.833 344.5,467.5 Z"/></g>
<g><path style="opacity:0.475" fill="#c0d9ff" d="M 165.5,466.5 C 165.5,467.167 165.5,467.833 165.5,468.5C 164.833,468.5 164.167,468.5 163.5,468.5C 163.5,467.167 164.167,466.5 165.5,466.5 Z"/></g>
<g><path style="opacity:1" fill="#71a5ff" d="M 165.5,466.5 C 167.764,467.219 170.097,467.552 172.5,467.5C 172.5,468.5 172.5,469.5 172.5,470.5C 171.833,470.5 171.167,470.5 170.5,470.5C 169.833,467.833 169.167,467.833 168.5,470.5C 167.778,469.449 166.778,468.782 165.5,468.5C 165.5,467.833 165.5,467.167 165.5,466.5 Z"/></g>
<g><path style="opacity:0.475" fill="#c6dcff" d="M 339.5,468.5 C 338.5,468.5 337.5,468.5 336.5,468.5C 337.5,465.833 338.5,465.833 339.5,468.5 Z"/></g>
<g><path style="opacity:0.188" fill="#ecf2ff" d="M 170.5,470.5 C 169.833,470.5 169.167,470.5 168.5,470.5C 169.167,467.833 169.833,467.833 170.5,470.5 Z"/></g>
<g><path style="opacity:0.231" fill="#5e9dff" d="M 332.5,468.5 C 331.167,468.5 330.5,469.167 330.5,470.5C 329.5,470.5 328.5,470.5 327.5,470.5C 327.5,470.167 327.5,469.833 327.5,469.5C 328.976,467.568 330.643,467.235 332.5,468.5 Z"/></g>
<g><path style="opacity:0.188" fill="#c7dfff" d="M 332.5,468.5 C 332.5,469.167 332.5,469.833 332.5,470.5C 331.833,470.5 331.167,470.5 330.5,470.5C 330.5,469.167 331.167,468.5 332.5,468.5 Z"/></g>
<g><path style="opacity:0.588" fill="#aacbff" d="M 178.5,469.5 C 178.5,470.167 178.5,470.833 178.5,471.5C 177.5,471.5 176.5,471.5 175.5,471.5C 175.821,469.952 176.821,469.285 178.5,469.5 Z"/></g>
<g><path style="opacity:0.588" fill="#69a0ff" d="M 324.5,469.5 C 324.5,470.167 324.5,470.833 324.5,471.5C 323.833,471.5 323.167,471.5 322.5,471.5C 322.5,470.167 323.167,469.5 324.5,469.5 Z"/></g>
<g><path style="opacity:0.588" fill="#c0d6ff" d="M 324.5,469.5 C 325.5,469.5 326.5,469.5 327.5,469.5C 327.5,469.833 327.5,470.167 327.5,470.5C 326.791,471.404 325.791,471.737 324.5,471.5C 324.5,470.833 324.5,470.167 324.5,469.5 Z"/></g>
<g><path style="opacity:0.625" fill="#cee1ff" d="M 184.5,473.5 C 182.901,473.768 181.568,473.434 180.5,472.5C 180.917,471.876 181.584,471.543 182.5,471.5C 183.713,471.747 184.38,472.414 184.5,473.5 Z"/></g>
<g><path style="opacity:0.294" fill="#5c98ff" d="M 320.5,471.5 C 319.167,471.5 318.5,472.167 318.5,473.5C 317.5,473.5 316.5,473.5 315.5,473.5C 315.5,473.167 315.5,472.833 315.5,472.5C 316.879,470.403 318.545,470.07 320.5,471.5 Z"/></g>
<g><path style="opacity:0.294" fill="#c7daff" d="M 320.5,471.5 C 320.5,471.833 320.5,472.167 320.5,472.5C 320.158,473.338 319.492,473.672 318.5,473.5C 318.5,472.167 319.167,471.5 320.5,471.5 Z"/></g>
<g><path style="opacity:0.698" fill="#6ca3ff" d="M 312.5,472.5 C 312.5,473.5 312.5,474.5 312.5,475.5C 311.391,475.557 310.391,475.89 309.5,476.5C 308.817,474.824 307.483,474.157 305.5,474.5C 307.657,473.593 309.99,472.927 312.5,472.5 Z"/></g>
<g><path style="opacity:0.035" fill="#b4ceff" d="M 190.5,475.5 C 189.127,475.657 187.793,475.49 186.5,475C 187.056,474.617 187.389,474.117 187.5,473.5C 188.209,472.596 189.209,472.263 190.5,472.5C 190.5,473.5 190.5,474.5 190.5,475.5 Z"/></g>
<g><path style="opacity:0.02" fill="#b8d1ff" d="M 312.5,472.5 C 313.5,472.5 314.5,472.5 315.5,472.5C 315.5,472.833 315.5,473.167 315.5,473.5C 315.179,475.048 314.179,475.715 312.5,475.5C 312.5,474.5 312.5,473.5 312.5,472.5 Z"/></g>
<g><path style="opacity:0.404" fill="#e2edff" d="M 195.5,474.5 C 195.5,475.167 195.5,475.833 195.5,476.5C 194.209,476.737 193.209,476.404 192.5,475.5C 193.209,474.596 194.209,474.263 195.5,474.5 Z"/></g>
<g><path style="opacity:0.404" fill="#93bbff" d="M 195.5,474.5 C 196.833,474.5 197.5,475.167 197.5,476.5C 196.833,476.5 196.167,476.5 195.5,476.5C 195.5,475.833 195.5,475.167 195.5,474.5 Z"/></g>
<g><path style="opacity:0.404" fill="#e0ebff" d="M 305.5,474.5 C 307.483,474.157 308.817,474.824 309.5,476.5C 308.167,476.5 306.833,476.5 305.5,476.5C 305.5,475.833 305.5,475.167 305.5,474.5 Z"/></g>
<g><path style="opacity:0.131" fill="#5894ff" d="M 178.5,469.5 C 191.132,472.392 203.799,475.392 216.5,478.5C 216.5,479.5 216.5,480.5 216.5,481.5C 215.833,481.5 215.167,481.5 214.5,481.5C 213.833,478.833 213.167,478.833 212.5,481.5C 211.778,480.449 210.778,479.782 209.5,479.5C 208.947,477.448 207.947,477.115 206.5,478.5C 205.167,478.5 203.833,478.5 202.5,478.5C 201.833,475.833 201.167,475.833 200.5,478.5C 199.778,477.449 198.778,476.782 197.5,476.5C 197.5,475.167 196.833,474.5 195.5,474.5C 194.209,474.263 193.209,474.596 192.5,475.5C 191.833,475.5 191.167,475.5 190.5,475.5C 190.5,474.5 190.5,473.5 190.5,472.5C 189.209,472.263 188.209,472.596 187.5,473.5C 186.5,473.5 185.5,473.5 184.5,473.5C 184.38,472.414 183.713,471.747 182.5,471.5C 181.584,471.543 180.917,471.876 180.5,472.5C 179.833,472.167 179.167,471.833 178.5,471.5C 178.5,470.833 178.5,470.167 178.5,469.5 Z"/></g>
<g><path style="opacity:0.125" fill="#d7e3ff" d="M 202.5,478.5 C 201.833,478.5 201.167,478.5 200.5,478.5C 201.167,475.833 201.833,475.833 202.5,478.5 Z"/></g>
<g><path style="opacity:1" fill="#a3c8ff" d="M 296.5,478.5 C 295.791,479.404 294.791,479.737 293.5,479.5C 294.053,477.448 295.053,477.115 296.5,478.5 Z"/></g>
<g><path style="opacity:0.125" fill="#6fa6ff" d="M 305.5,474.5 C 305.5,475.167 305.5,475.833 305.5,476.5C 304.222,476.782 303.222,477.449 302.5,478.5C 301.833,475.833 301.167,475.833 300.5,478.5C 299.833,478.5 299.167,478.5 298.5,478.5C 298.5,477.5 298.5,476.5 298.5,475.5C 300.903,475.552 303.236,475.219 305.5,474.5 Z"/></g>
<g><path style="opacity:0.125" fill="#e3eeff" d="M 302.5,478.5 C 301.833,478.5 301.167,478.5 300.5,478.5C 301.167,475.833 301.833,475.833 302.5,478.5 Z"/></g>
<g><path style="opacity:0.518" fill="#b9d6ff" d="M 209.5,479.5 C 208.209,479.737 207.209,479.404 206.5,478.5C 207.947,477.115 208.947,477.448 209.5,479.5 Z"/></g>
<g><path style="opacity:0.227" fill="#e9f1ff" d="M 214.5,481.5 C 213.833,481.5 213.167,481.5 212.5,481.5C 213.167,478.833 213.833,478.833 214.5,481.5 Z"/></g>
<g><path style="opacity:0.227" fill="#5f9eff" d="M 290.5,479.5 C 288.821,479.285 287.821,479.952 287.5,481.5C 286.833,481.5 286.167,481.5 285.5,481.5C 285.5,480.833 285.167,480.5 284.5,480.5C 286.32,478.539 288.32,478.206 290.5,479.5 Z"/></g>
<g><path style="opacity:0.227" fill="#d0e2ff" d="M 290.5,479.5 C 290.5,480.167 290.5,480.833 290.5,481.5C 289.5,481.5 288.5,481.5 287.5,481.5C 287.821,479.952 288.821,479.285 290.5,479.5 Z"/></g>
<g><path style="opacity:0.631" fill="#7bacff" d="M 228.5,484.5 C 227.833,484.5 227.167,484.5 226.5,484.5C 225.833,481.833 225.167,481.833 224.5,484.5C 222.639,483.158 220.639,482.158 218.5,481.5C 221.652,480.761 224.985,480.761 228.5,481.5C 228.5,482.5 228.5,483.5 228.5,484.5 Z"/></g>
<g><path style="opacity:0.631" fill="#cbe1ff" d="M 282.5,480.5 C 283.167,480.5 283.833,480.5 284.5,480.5C 285.167,480.5 285.5,480.833 285.5,481.5C 284.432,482.434 283.099,482.768 281.5,482.5C 281.833,481.833 282.167,481.167 282.5,480.5 Z"/></g>
<g><path style="opacity:0.988" fill="#eef4ff" d="M 226.5,484.5 C 225.833,484.5 225.167,484.5 224.5,484.5C 225.167,481.833 225.833,481.833 226.5,484.5 Z"/></g>
<g><path style="opacity:1" fill="#6aa1ff" d="M 239.5,485.5 C 237.821,485.285 236.821,485.952 236.5,487.5C 235.609,486.89 234.609,486.557 233.5,486.5C 232.833,483.833 232.167,483.833 231.5,486.5C 230.662,486.158 230.328,485.492 230.5,484.5C 233.591,483.379 236.591,483.713 239.5,485.5 Z"/></g>
<g><path style="opacity:0.333" fill="#5a99ff" d="M 282.5,480.5 C 282.167,481.167 281.833,481.833 281.5,482.5C 280.391,482.557 279.391,482.89 278.5,483.5C 277.053,482.115 276.053,482.448 275.5,484.5C 274.833,484.5 274.167,484.5 273.5,484.5C 273.5,484.167 273.5,483.833 273.5,483.5C 273.611,482.883 273.944,482.383 274.5,482C 277.168,481.433 279.834,480.933 282.5,480.5 Z"/></g>
<g><path style="opacity:0.333" fill="#cfdfff" d="M 278.5,483.5 C 277.791,484.404 276.791,484.737 275.5,484.5C 276.053,482.448 277.053,482.115 278.5,483.5 Z"/></g>
<g><path style="opacity:0.071" fill="#dbe7ff" d="M 233.5,486.5 C 232.833,486.5 232.167,486.5 231.5,486.5C 232.167,483.833 232.833,483.833 233.5,486.5 Z"/></g>
<g><path style="opacity:0.071" fill="#9bc0ff" d="M 273.5,483.5 C 273.5,483.833 273.5,484.167 273.5,484.5C 273.672,485.492 273.338,486.158 272.5,486.5C 271.833,483.833 271.167,483.833 270.5,486.5C 269.833,486.5 269.167,486.5 268.5,486.5C 269.048,483.916 270.715,482.916 273.5,483.5 Z"/></g>
<g><path style="opacity:0.071" fill="#e9f1ff" d="M 272.5,486.5 C 271.833,486.5 271.167,486.5 270.5,486.5C 271.167,483.833 271.833,483.833 272.5,486.5 Z"/></g>
<g><path style="opacity:0.447" fill="#e5efff" d="M 239.5,485.5 C 239.5,486.167 239.5,486.833 239.5,487.5C 238.5,487.5 237.5,487.5 236.5,487.5C 236.821,485.952 237.821,485.285 239.5,485.5 Z"/></g>
<g><path style="opacity:0.506" fill="#72a5ff" d="M 239.5,485.5 C 242.736,485.518 245.403,486.518 247.5,488.5C 244.794,488.425 242.127,488.092 239.5,487.5C 239.5,486.833 239.5,486.167 239.5,485.5 Z"/></g>
<g><path style="opacity:0.447" fill="#87b3ff" d="M 263.5,485.5 C 263.5,486.167 263.5,486.833 263.5,487.5C 261.236,488.219 258.903,488.552 256.5,488.5C 258.282,486.643 260.615,485.643 263.5,485.5 Z"/></g>
<g><path style="opacity:0.447" fill="#ccdeff" d="M 263.5,485.5 C 264.791,485.263 265.791,485.596 266.5,486.5C 265.791,487.404 264.791,487.737 263.5,487.5C 263.5,486.833 263.5,486.167 263.5,485.5 Z"/></g>
</svg>
