<?xml version="1.0" encoding="UTF-8"?>
<!DOCTYPE svg PUBLIC "-//W3C//DTD SVG 1.1//EN" "http://www.w3.org/Graphics/SVG/1.1/DTD/svg11.dtd">
<svg xmlns="http://www.w3.org/2000/svg" version="1.1" width="232px" height="253px" style="shape-rendering:geometricPrecision; text-rendering:geometricPrecision; image-rendering:optimizeQuality; fill-rule:evenodd; clip-rule:evenodd" xmlns:xlink="http://www.w3.org/1999/xlink">
<g><path style="opacity:0.987" fill="#353434" d="M 95.5,4.5 C 132.229,-0.595226 163.562,9.07144 189.5,33.5C 199.654,43.6421 207.987,54.6421 214.5,66.5C 216.554,72.2755 218.887,77.9421 221.5,83.5C 222.649,89.2028 223.982,94.8695 225.5,100.5C 233.848,151.634 218.848,193.634 180.5,226.5C 151.404,248.311 118.737,253.978 82.5,243.5C 46.8155,229.812 22.4821,204.812 9.5,168.5C 8.35134,162.797 7.01801,157.131 5.5,151.5C -2.84758,100.366 12.1524,58.3663 50.5,25.5C 63.6454,15.7754 78.6454,8.77541 95.5,4.5 Z"/></g>
<g><path style="opacity:1" fill="#323d56" d="M 179.5,104.5 C 179.5,107.167 179.5,109.833 179.5,112.5C 178.252,111.666 177.585,110.333 177.5,108.5C 177.585,106.667 178.252,105.334 179.5,104.5 Z"/></g>
<g><path style="opacity:1" fill="#9ea1a3" d="M 35.5,113.5 C 32.4299,113.368 29.4299,113.701 26.5,114.5C 26.6107,113.883 26.944,113.383 27.5,113C 30.367,112.199 33.0336,112.366 35.5,113.5 Z"/></g>
<g><path style="opacity:1" fill="#978f85" d="M 77.5,113.5 C 78.4486,112.848 79.6153,112.514 81,112.5C 83.2206,112.393 85.0539,113.06 86.5,114.5C 83.5448,113.841 80.5448,113.508 77.5,113.5 Z"/></g>
<g><path style="opacity:1" fill="#929496" d="M 170.5,113.5 C 166.434,113.307 162.434,113.64 158.5,114.5C 158.611,113.883 158.944,113.383 159.5,113C 163.358,112.19 167.024,112.357 170.5,113.5 Z"/></g>
<g><path style="opacity:1" fill="#ac9e8e" d="M 43.5,114.5 C 45.9664,113.366 48.633,113.199 51.5,114C 52.9733,114.71 53.6399,115.876 53.5,117.5C 53.1667,117.5 52.8333,117.5 52.5,117.5C 52.0472,116.542 51.3805,115.708 50.5,115C 48.1902,114.503 45.8568,114.337 43.5,114.5 Z"/></g>
<g><path style="opacity:1" fill="#8d9ba3" d="M 123.5,113.5 C 120.098,113.342 116.764,113.676 113.5,114.5C 113.611,113.883 113.944,113.383 114.5,113C 117.696,112.195 120.696,112.362 123.5,113.5 Z"/></g>
<g><path style="opacity:1" fill="#f4f5f5" d="M 146.5,113.5 C 147.391,114.11 148.391,114.443 149.5,114.5C 150.933,116.558 151.6,118.892 151.5,121.5C 149.05,121.702 146.717,121.369 144.5,120.5C 142.58,119.06 140.913,119.393 139.5,121.5C 140.325,122.386 141.325,122.719 142.5,122.5C 144.438,124.163 146.772,124.829 149.5,124.5C 150.5,124.833 151.167,125.5 151.5,126.5C 151.5,129.5 151.5,132.5 151.5,135.5C 150.833,136.833 150.167,138.167 149.5,139.5C 144.367,141.066 139.367,140.733 134.5,138.5C 134.137,137.817 133.804,137.15 133.5,136.5C 133.5,134.5 133.5,132.5 133.5,130.5C 135.858,130.253 137.858,130.919 139.5,132.5C 141.042,133.301 142.708,133.634 144.5,133.5C 147.167,132.833 147.167,132.167 144.5,131.5C 143.508,131.672 142.842,131.338 142.5,130.5C 140.626,129.715 138.626,129.048 136.5,128.5C 135.306,127.728 134.306,126.728 133.5,125.5C 133.264,122.391 133.597,119.391 134.5,116.5C 138.058,114.032 142.058,113.032 146.5,113.5 Z"/></g>
<g><path style="opacity:1" fill="#f8f8f5" d="M 170.5,113.5 C 172.139,114.473 173.473,115.806 174.5,117.5C 174.5,118.833 174.5,120.167 174.5,121.5C 172.05,121.702 169.717,121.369 167.5,120.5C 165.449,118.962 163.782,119.296 162.5,121.5C 163.325,122.386 164.325,122.719 165.5,122.5C 166.99,124.28 168.99,124.946 171.5,124.5C 175.314,127.152 176.481,130.819 175,135.5C 174.302,136.691 173.469,137.691 172.5,138.5C 166.582,139.011 160.915,138.344 155.5,136.5C 155.5,134.5 155.5,132.5 155.5,130.5C 158.188,130.166 160.521,130.832 162.5,132.5C 162.5,133.167 162.833,133.5 163.5,133.5C 165.265,134.461 167.265,134.795 169.5,134.5C 168.91,130.684 166.577,129.017 162.5,129.5C 160.833,128.833 159.167,128.167 157.5,127.5C 156.167,123.5 156.167,119.5 157.5,115.5C 157.5,114.833 157.833,114.5 158.5,114.5C 162.434,113.64 166.434,113.307 170.5,113.5 Z"/></g>
<g><path style="opacity:1" fill="#6b6d6d" d="M 179.5,104.5 C 181.833,104.5 184.167,104.5 186.5,104.5C 186.5,107.833 186.5,111.167 186.5,114.5C 186.167,114.5 185.833,114.5 185.5,114.5C 183.5,114.5 181.5,114.5 179.5,114.5C 179.5,113.833 179.5,113.167 179.5,112.5C 179.5,109.833 179.5,107.167 179.5,104.5 Z"/></g>
<g><path style="opacity:1" fill="#b1b2ae" d="M 180.5,105.5 C 182.167,105.5 183.833,105.5 185.5,105.5C 185.5,107.5 185.5,109.5 185.5,111.5C 183.833,111.5 182.167,111.5 180.5,111.5C 180.5,109.5 180.5,107.5 180.5,105.5 Z"/></g>
<g><path style="opacity:1" fill="#f6f6f4" d="M 35.5,113.5 C 36.5,114.167 37.5,114.833 38.5,115.5C 40.8791,119.45 41.8791,123.784 41.5,128.5C 36.9677,128.182 32.6344,128.515 28.5,129.5C 27.6679,131.725 28.6679,133.058 31.5,133.5C 32.4916,133.672 33.1583,133.338 33.5,132.5C 36.0545,131.612 38.7212,131.279 41.5,131.5C 41.3713,133.216 41.038,134.883 40.5,136.5C 35.2162,141.439 29.5495,141.772 23.5,137.5C 23.4431,136.391 23.1098,135.391 22.5,134.5C 22.5,129.833 22.5,125.167 22.5,120.5C 23.203,118.127 24.5363,116.127 26.5,114.5C 29.4299,113.701 32.4299,113.368 35.5,113.5 Z"/></g>
<g><path style="opacity:1" fill="#c3ccd4" d="M 64.5,113.5 C 64.5,113.833 64.5,114.167 64.5,114.5C 62.2537,115.21 59.9204,115.71 57.5,116C 56.6634,117.011 56.33,118.178 56.5,119.5C 54.5168,119.843 53.1834,119.176 52.5,117.5C 52.8333,117.5 53.1667,117.5 53.5,117.5C 53.4346,117.938 53.6012,118.272 54,118.5C 56.061,114.019 59.561,112.352 64.5,113.5 Z"/></g>
<g><path style="opacity:1" fill="#b4a09b" d="M 68.5,114.5 C 68.5,114.167 68.5,113.833 68.5,113.5C 71.0593,113.198 73.3926,113.532 75.5,114.5C 73.412,114.865 71.0787,114.865 68.5,114.5 Z"/></g>
<g><path style="opacity:1" fill="#f5f5f2" d="M 77.5,113.5 C 80.5448,113.508 83.5448,113.841 86.5,114.5C 88.8743,120.525 89.8743,126.859 89.5,133.5C 89.5,133.833 89.5,134.167 89.5,134.5C 88.0937,134.973 87.427,135.973 87.5,137.5C 83.3577,138.04 79.3577,138.706 75.5,139.5C 75.5,142.5 75.5,145.5 75.5,148.5C 73.1667,148.5 70.8333,148.5 68.5,148.5C 68.5,137.167 68.5,125.833 68.5,114.5C 71.0787,114.865 73.412,114.865 75.5,114.5C 76.4916,114.672 77.1583,114.338 77.5,113.5 Z"/></g>
<g><path style="opacity:1" fill="#a7b4c2" d="M 106.5,112.5 C 106.5,112.833 106.5,113.167 106.5,113.5C 102.435,115.278 98.1014,115.945 93.5,115.5C 93.5,123.5 93.5,131.5 93.5,139.5C 92.8333,139.5 92.5,139.167 92.5,138.5C 92.5,130.833 92.5,123.167 92.5,115.5C 93.1522,114.275 94.3189,113.608 96,113.5C 97.707,113.648 99.3736,113.982 101,114.5C 102.597,113.115 104.43,112.449 106.5,112.5 Z"/></g>
<g><path style="opacity:1" fill="#f8fbfa" d="M 106.5,113.5 C 106.5,115.833 106.5,118.167 106.5,120.5C 104.447,120.402 102.78,121.069 101.5,122.5C 99.55,127.735 98.8833,133.402 99.5,139.5C 97.5,139.5 95.5,139.5 93.5,139.5C 93.5,131.5 93.5,123.5 93.5,115.5C 98.1014,115.945 102.435,115.278 106.5,113.5 Z"/></g>
<g><path style="opacity:1" fill="#9a6345" d="M 106.5,112.5 C 108.308,113.918 108.975,115.918 108.5,118.5C 108.5,119.167 108.5,119.833 108.5,120.5C 107.833,120.5 107.167,120.5 106.5,120.5C 106.5,118.167 106.5,115.833 106.5,113.5C 106.5,113.167 106.5,112.833 106.5,112.5 Z"/></g>
<g><path style="opacity:1" fill="#f6f6f5" d="M 123.5,113.5 C 123.842,114.338 124.508,114.672 125.5,114.5C 126.5,116.167 127.833,117.5 129.5,118.5C 129.5,118.833 129.5,119.167 129.5,119.5C 129.5,122.5 129.5,125.5 129.5,128.5C 124.637,128.181 119.97,128.514 115.5,129.5C 115.967,132.297 117.633,133.631 120.5,133.5C 123.215,131.877 126.215,131.21 129.5,131.5C 129.5,131.833 129.5,132.167 129.5,132.5C 127.745,133.962 126.412,135.795 125.5,138C 120.25,138.981 115.25,138.481 110.5,136.5C 110.5,136.167 110.5,135.833 110.5,135.5C 109.167,129.5 109.167,123.5 110.5,117.5C 111.167,116.167 112.167,115.167 113.5,114.5C 116.764,113.676 120.098,113.342 123.5,113.5 Z"/></g>
<g><path style="opacity:1" fill="#906b41" d="M 125.5,114.5 C 127.833,114.833 129.167,116.167 129.5,118.5C 127.833,117.5 126.5,116.167 125.5,114.5 Z"/></g>
<g><path style="opacity:1" fill="#adb9c2" d="M 146.5,113.5 C 142.058,113.032 138.058,114.032 134.5,116.5C 134.574,114.589 135.574,113.422 137.5,113C 140.696,112.195 143.696,112.362 146.5,113.5 Z"/></g>
<g><path style="opacity:1" fill="#f9f9f8" d="M 43.5,114.5 C 45.8568,114.337 48.1902,114.503 50.5,115C 51.3805,115.708 52.0472,116.542 52.5,117.5C 53.1834,119.176 54.5168,119.843 56.5,119.5C 56.33,118.178 56.6634,117.011 57.5,116C 59.9204,115.71 62.2537,115.21 64.5,114.5C 63.5,116.5 62.5,118.5 61.5,120.5C 61.5,120.833 61.5,121.167 61.5,121.5C 60.8826,121.611 60.3826,121.944 60,122.5C 58.5189,127.181 59.6856,130.848 63.5,133.5C 63.3284,134.492 63.6618,135.158 64.5,135.5C 64.5,136.5 64.5,137.5 64.5,138.5C 62.076,138.808 59.7427,138.474 57.5,137.5C 56.8118,136.145 55.8118,135.145 54.5,134.5C 53.3774,133.243 52.7107,133.576 52.5,135.5C 51.2092,137.315 49.3759,138.315 47,138.5C 45.3189,138.392 44.1522,137.725 43.5,136.5C 45.8971,134.338 47.5638,131.671 48.5,128.5C 49.4124,127.262 49.5791,125.928 49,124.5C 47.3909,121.593 45.5576,118.927 43.5,116.5C 43.5,115.833 43.5,115.167 43.5,114.5 Z"/></g>
<g><path style="opacity:1" fill="#c69d77" d="M 149.5,114.5 C 151.167,115.5 152.5,116.833 153.5,118.5C 153.5,119.833 153.5,121.167 153.5,122.5C 152.833,122.5 152.167,122.5 151.5,122.5C 151.5,122.167 151.5,121.833 151.5,121.5C 151.6,118.892 150.933,116.558 149.5,114.5 Z"/></g>
<g><path style="opacity:1" fill="#e5cea8" d="M 38.5,115.5 C 39.8333,116.5 41.1667,117.5 42.5,118.5C 42.5,121.833 42.5,125.167 42.5,128.5C 42.1667,128.5 41.8333,128.5 41.5,128.5C 41.8791,123.784 40.8791,119.45 38.5,115.5 Z"/></g>
<g><path style="opacity:1" fill="#7b8691" d="M 203.5,113.5 C 201.473,113.338 199.473,113.505 197.5,114C 195.354,115.602 193.02,116.768 190.5,117.5C 190.5,120.167 190.5,122.833 190.5,125.5C 188.569,120.384 189.902,116.217 194.5,113C 197.696,112.195 200.696,112.362 203.5,113.5 Z"/></g>
<g><path style="opacity:1" fill="#a7a7a6" d="M 203.5,113.5 C 205.153,113.66 206.486,114.326 207.5,115.5C 208.341,117.379 208.675,119.379 208.5,121.5C 205.38,121.844 202.547,121.177 200,119.5C 198.72,119.613 197.887,120.28 197.5,121.5C 200.018,123.873 203.018,124.873 206.5,124.5C 210.314,127.152 211.481,130.819 210,135.5C 205.089,140.601 199.256,141.768 192.5,139C 191.177,138.184 190.511,137.017 190.5,135.5C 190.5,133.833 190.5,132.167 190.5,130.5C 192.199,130.34 193.866,130.506 195.5,131C 197.41,133.482 199.743,133.982 202.5,132.5C 199.122,130.811 195.789,129.145 192.5,127.5C 191.5,127.167 190.833,126.5 190.5,125.5C 190.5,122.833 190.5,120.167 190.5,117.5C 193.02,116.768 195.354,115.602 197.5,114C 199.473,113.505 201.473,113.338 203.5,113.5 Z"/></g>
<g><path style="opacity:1" fill="#808e9b" d="M 179.5,114.5 C 181.5,114.5 183.5,114.5 185.5,114.5C 184.081,115.451 182.415,115.784 180.5,115.5C 180.5,124.833 180.5,134.167 180.5,143.5C 179.5,143.5 178.5,143.5 177.5,143.5C 177.5,145.167 177.5,146.833 177.5,148.5C 176.167,146.5 176.167,144.5 177.5,142.5C 179.472,133.56 180.139,124.227 179.5,114.5 Z"/></g>
<g><path style="opacity:1" fill="#aaa9a4" d="M 185.5,114.5 C 185.833,114.5 186.167,114.5 186.5,114.5C 187.071,126.017 186.405,137.35 184.5,148.5C 182.167,149.833 179.833,149.833 177.5,148.5C 177.5,146.833 177.5,145.167 177.5,143.5C 178.5,143.5 179.5,143.5 180.5,143.5C 180.5,134.167 180.5,124.833 180.5,115.5C 182.415,115.784 184.081,115.451 185.5,114.5 Z"/></g>
<g><path style="opacity:1" fill="#d3b38c" d="M 64.5,113.5 C 66.0563,116.688 65.0563,119.021 61.5,120.5C 62.5,118.5 63.5,116.5 64.5,114.5C 64.5,114.167 64.5,113.833 64.5,113.5 Z"/></g>
<g><path style="opacity:1" fill="#4f7299" d="M 68.5,113.5 C 68.5,113.833 68.5,114.167 68.5,114.5C 68.5,125.833 68.5,137.167 68.5,148.5C 70.8333,148.5 73.1667,148.5 75.5,148.5C 72.7131,149.477 69.7131,149.81 66.5,149.5C 66.5,146.167 66.5,142.833 66.5,139.5C 66.5,138.833 66.5,138.167 66.5,137.5C 66.1688,129.14 66.5021,120.807 67.5,112.5C 68.1067,112.624 68.44,112.957 68.5,113.5 Z"/></g>
<g><path style="opacity:1" fill="#39407d" d="M 21.5,118.5 C 21.5,119.167 21.5,119.833 21.5,120.5C 21.1667,120.5 20.8333,120.5 20.5,120.5C 20.1667,120.5 19.8333,120.5 19.5,120.5C 19.5,119.167 20.1667,118.5 21.5,118.5 Z"/></g>
<g><path style="opacity:1" fill="#93aecd" d="M 26.5,114.5 C 24.5363,116.127 23.203,118.127 22.5,120.5C 22.1667,120.5 21.8333,120.5 21.5,120.5C 21.5,119.833 21.5,119.167 21.5,118.5C 22.5387,116.469 24.2054,115.136 26.5,114.5 Z"/></g>
<g><path style="opacity:1" fill="#aaa8ae" d="M 33.5,120.5 C 35.1042,121.287 35.7709,122.62 35.5,124.5C 33.1667,124.5 30.8333,124.5 28.5,124.5C 28.5,122.833 28.5,121.167 28.5,119.5C 30.4147,119.216 32.0813,119.549 33.5,120.5 Z"/></g>
<g><path style="opacity:1" fill="#404d71" d="M 43.5,116.5 C 45.5576,118.927 47.3909,121.593 49,124.5C 49.5791,125.928 49.4124,127.262 48.5,128.5C 48.1667,128.5 47.8333,128.5 47.5,128.5C 47.4012,125.361 46.0679,123.027 43.5,121.5C 43.7373,120.209 43.404,119.209 42.5,118.5C 42.3284,117.508 42.6618,116.842 43.5,116.5 Z"/></g>
<g><path style="opacity:1" fill="#312f53" d="M 92.5,115.5 C 92.5,123.167 92.5,130.833 92.5,138.5C 90.744,137.448 90.0773,135.781 90.5,133.5C 91.4849,129.366 91.8182,125.032 91.5,120.5C 91.2155,118.585 91.5489,116.919 92.5,115.5 Z"/></g>
<g><path style="opacity:1" fill="#615755" d="M 144.5,120.5 C 144.5,121.833 143.833,122.5 142.5,122.5C 141.325,122.719 140.325,122.386 139.5,121.5C 140.913,119.393 142.58,119.06 144.5,120.5 Z"/></g>
<g><path style="opacity:1" fill="#5b514f" d="M 167.5,120.5 C 167.5,121.833 166.833,122.5 165.5,122.5C 164.325,122.719 163.325,122.386 162.5,121.5C 163.782,119.296 165.449,118.962 167.5,120.5 Z"/></g>
<g><path style="opacity:1" fill="#9a6c40" d="M 174.5,117.5 C 175.649,117.791 176.316,118.624 176.5,120C 176.316,121.376 175.649,122.209 174.5,122.5C 174.5,122.167 174.5,121.833 174.5,121.5C 174.5,120.167 174.5,118.833 174.5,117.5 Z"/></g>
<g><path style="opacity:1" fill="#4c4140" d="M 33.5,120.5 C 33.5,121.5 33.5,122.5 33.5,123.5C 32.1667,123.5 30.8333,123.5 29.5,123.5C 29.5,122.5 29.5,121.5 29.5,120.5C 30.8333,120.5 32.1667,120.5 33.5,120.5 Z"/></g>
<g><path style="opacity:1" fill="#eacfab" d="M 86.5,114.5 C 88.2624,115.262 89.2624,116.596 89.5,118.5C 90.254,123.463 90.5874,128.463 90.5,133.5C 90.1667,133.5 89.8333,133.5 89.5,133.5C 89.8743,126.859 88.8743,120.525 86.5,114.5 Z"/></g>
<g><path style="opacity:1" fill="#7f7a6f" d="M 106.5,120.5 C 106.5,121.167 106.5,121.833 106.5,122.5C 104.833,122.5 103.167,122.5 101.5,122.5C 102.78,121.069 104.447,120.402 106.5,120.5 Z"/></g>
<g><path style="opacity:1" fill="#93b2d5" d="M 134.5,116.5 C 133.597,119.391 133.264,122.391 133.5,125.5C 133.167,125.5 132.833,125.5 132.5,125.5C 132.5,123.167 132.5,120.833 132.5,118.5C 132.5,117.167 133.167,116.5 134.5,116.5 Z"/></g>
<g><path style="opacity:1" fill="#445384" d="M 155.5,117.5 C 155.5,120.5 155.5,123.5 155.5,126.5C 153.896,125.713 153.229,124.38 153.5,122.5C 153.5,121.167 153.5,119.833 153.5,118.5C 154.167,118.167 154.833,117.833 155.5,117.5 Z"/></g>
<g><path style="opacity:1" fill="#bad6e9" d="M 157.5,115.5 C 156.167,119.5 156.167,123.5 157.5,127.5C 156.833,127.167 156.167,126.833 155.5,126.5C 155.5,123.5 155.5,120.5 155.5,117.5C 155.833,116.5 156.5,115.833 157.5,115.5 Z"/></g>
<g><path style="opacity:1" fill="#b3b2ae" d="M 167.5,120.5 C 169.717,121.369 172.05,121.702 174.5,121.5C 174.5,121.833 174.5,122.167 174.5,122.5C 172.452,122.16 171.452,122.493 171.5,123.5C 171.5,123.833 171.5,124.167 171.5,124.5C 168.99,124.946 166.99,124.28 165.5,122.5C 166.833,122.5 167.5,121.833 167.5,120.5 Z"/></g>
<g><path style="opacity:1" fill="#736d68" d="M 207.5,115.5 C 209.344,117.279 210.01,119.612 209.5,122.5C 208.127,122.343 206.793,122.51 205.5,123C 206.056,123.383 206.389,123.883 206.5,124.5C 203.018,124.873 200.018,123.873 197.5,121.5C 197.887,120.28 198.72,119.613 200,119.5C 202.547,121.177 205.38,121.844 208.5,121.5C 208.675,119.379 208.341,117.379 207.5,115.5 Z"/></g>
<g><path style="opacity:1" fill="#3f3a3c" d="M 82.5,125.5 C 82.5,127.167 82.5,128.833 82.5,130.5C 81.5944,132.914 79.9278,133.747 77.5,133C 75.9546,131.178 75.288,129.011 75.5,126.5C 75.3528,120.832 77.5194,119.498 82,122.5C 82.4828,123.448 82.6495,124.448 82.5,125.5 Z"/></g>
<g><path style="opacity:1" fill="#6e6d72" d="M 116.5,119.5 C 119.969,118.887 121.969,120.221 122.5,123.5C 120.5,123.5 118.5,123.5 116.5,123.5C 116.5,122.167 116.5,120.833 116.5,119.5 Z"/></g>
<g><path style="opacity:1" fill="#a8a39e" d="M 144.5,120.5 C 146.717,121.369 149.05,121.702 151.5,121.5C 151.5,121.833 151.5,122.167 151.5,122.5C 149.007,122.131 148.34,122.797 149.5,124.5C 146.772,124.829 144.438,124.163 142.5,122.5C 143.833,122.5 144.5,121.833 144.5,120.5 Z"/></g>
<g><path style="opacity:1" fill="#a37a5e" d="M 89.5,118.5 C 90.1667,119.167 90.8333,119.833 91.5,120.5C 91.8182,125.032 91.4849,129.366 90.5,133.5C 90.5874,128.463 90.254,123.463 89.5,118.5 Z"/></g>
<g><path style="opacity:1" fill="#805c47" d="M 171.5,124.5 C 171.5,124.167 171.5,123.833 171.5,123.5C 173.371,123.859 174.871,124.859 176,126.5C 176.499,130.486 176.666,134.486 176.5,138.5C 175.041,138.433 173.708,138.766 172.5,139.5C 172.5,139.167 172.5,138.833 172.5,138.5C 173.469,137.691 174.302,136.691 175,135.5C 176.481,130.819 175.314,127.152 171.5,124.5 Z"/></g>
<g><path style="opacity:1" fill="#36477e" d="M 106.5,120.5 C 107.167,120.5 107.833,120.5 108.5,120.5C 108.5,124.833 108.5,129.167 108.5,133.5C 106.586,130.316 105.92,126.649 106.5,122.5C 106.5,121.833 106.5,121.167 106.5,120.5 Z"/></g>
<g><path style="opacity:1" fill="#b3cfe6" d="M 110.5,117.5 C 109.167,123.5 109.167,129.5 110.5,135.5C 109.5,135.167 108.833,134.5 108.5,133.5C 108.5,129.167 108.5,124.833 108.5,120.5C 108.5,119.833 108.5,119.167 108.5,118.5C 109.167,118.167 109.833,117.833 110.5,117.5 Z"/></g>
<g><path style="opacity:1" fill="#374383" d="M 132.5,118.5 C 132.5,120.833 132.5,123.167 132.5,125.5C 132.167,125.5 131.833,125.5 131.5,125.5C 131.675,123.379 131.341,121.379 130.5,119.5C 130.842,118.662 131.508,118.328 132.5,118.5 Z"/></g>
<g><path style="opacity:1" fill="#483936" d="M 151.5,122.5 C 152.167,122.5 152.833,122.5 153.5,122.5C 153.229,124.38 153.896,125.713 155.5,126.5C 156.167,126.833 156.833,127.167 157.5,127.5C 158.66,129.203 157.993,129.869 155.5,129.5C 154.833,129.5 154.167,129.5 153.5,129.5C 153.573,127.973 152.906,126.973 151.5,126.5C 151.167,125.5 150.5,124.833 149.5,124.5C 148.34,122.797 149.007,122.131 151.5,122.5 Z"/></g>
<g><path style="opacity:1" fill="#4f6883" d="M 19.5,120.5 C 19.8333,120.5 20.1667,120.5 20.5,120.5C 20.3345,124.514 20.5012,128.514 21,132.5C 21.2784,133.416 21.7784,134.082 22.5,134.5C 23.1098,135.391 23.4431,136.391 23.5,137.5C 22.5178,136.859 21.5178,136.193 20.5,135.5C 19.5059,130.544 19.1725,125.544 19.5,120.5 Z"/></g>
<g><path style="opacity:1" fill="#c2e4f8" d="M 20.5,120.5 C 20.8333,120.5 21.1667,120.5 21.5,120.5C 21.8333,120.5 22.1667,120.5 22.5,120.5C 22.5,125.167 22.5,129.833 22.5,134.5C 21.7784,134.082 21.2784,133.416 21,132.5C 20.5012,128.514 20.3345,124.514 20.5,120.5 Z"/></g>
<g><path style="opacity:1" fill="#362d30" d="M 43.5,121.5 C 46.0679,123.027 47.4012,125.361 47.5,128.5C 46.3434,130.678 45.0101,132.678 43.5,134.5C 43.5,130.167 43.5,125.833 43.5,121.5 Z"/></g>
<g><path style="opacity:1" fill="#c18f6b" d="M 101.5,122.5 C 102.117,128.598 101.45,134.265 99.5,139.5C 98.8833,133.402 99.55,127.735 101.5,122.5 Z"/></g>
<g><path style="opacity:1" fill="#967052" d="M 129.5,119.5 C 129.833,119.5 130.167,119.5 130.5,119.5C 131.341,121.379 131.675,123.379 131.5,125.5C 131.046,127.741 131.046,129.741 131.5,131.5C 131.5,132.167 131.5,132.833 131.5,133.5C 130.833,133.833 130.167,134.167 129.5,134.5C 129.5,133.833 129.5,133.167 129.5,132.5C 129.5,132.167 129.5,131.833 129.5,131.5C 129.5,130.5 129.5,129.5 129.5,128.5C 129.5,125.5 129.5,122.5 129.5,119.5 Z"/></g>
<g><path style="opacity:1" fill="#3c434d" d="M 131.5,125.5 C 131.833,125.5 132.167,125.5 132.5,125.5C 132.833,125.5 133.167,125.5 133.5,125.5C 134.306,126.728 135.306,127.728 136.5,128.5C 135.167,129.167 133.833,129.833 132.5,130.5C 131.833,130.5 131.5,130.833 131.5,131.5C 131.046,129.741 131.046,127.741 131.5,125.5 Z"/></g>
<g><path style="opacity:1" fill="#2a3658" d="M 179.5,114.5 C 180.139,124.227 179.472,133.56 177.5,142.5C 176.861,132.773 177.528,123.44 179.5,114.5 Z"/></g>
<g><path style="opacity:1" fill="#88898b" d="M 28.5,129.5 C 32.6344,128.515 36.9677,128.182 41.5,128.5C 41.8333,128.5 42.1667,128.5 42.5,128.5C 41.8902,129.391 41.5569,130.391 41.5,131.5C 38.7212,131.279 36.0545,131.612 33.5,132.5C 32.8166,130.824 31.4832,130.157 29.5,130.5C 29.5,129.833 29.1667,129.5 28.5,129.5 Z"/></g>
<g><path style="opacity:1" fill="#7eadd0" d="M 82.5,125.5 C 84.8507,126.916 84.8507,128.583 82.5,130.5C 82.5,128.833 82.5,127.167 82.5,125.5 Z"/></g>
<g><path style="opacity:1" fill="#9d9a94" d="M 157.5,127.5 C 159.167,128.167 160.833,128.833 162.5,129.5C 162.5,129.833 162.5,130.167 162.5,130.5C 162.5,131.167 162.5,131.833 162.5,132.5C 160.521,130.832 158.188,130.166 155.5,130.5C 155.5,130.167 155.5,129.833 155.5,129.5C 157.993,129.869 158.66,129.203 157.5,127.5 Z"/></g>
<g><path style="opacity:1" fill="#5d6064" d="M 192.5,127.5 C 195.789,129.145 199.122,130.811 202.5,132.5C 199.743,133.982 197.41,133.482 195.5,131C 193.866,130.506 192.199,130.34 190.5,130.5C 190.5,132.167 190.5,133.833 190.5,135.5C 188.692,134.082 188.025,132.082 188.5,129.5C 190.199,129.66 191.866,129.494 193.5,129C 192.944,128.617 192.611,128.117 192.5,127.5 Z"/></g>
<g><path style="opacity:1" fill="#957a59" d="M 28.5,129.5 C 29.1667,129.5 29.5,129.833 29.5,130.5C 30.1667,131.5 30.8333,132.5 31.5,133.5C 28.6679,133.058 27.6679,131.725 28.5,129.5 Z"/></g>
<g><path style="opacity:1" fill="#282a34" d="M 29.5,130.5 C 31.4832,130.157 32.8166,130.824 33.5,132.5C 33.1583,133.338 32.4916,133.672 31.5,133.5C 30.8333,132.5 30.1667,131.5 29.5,130.5 Z"/></g>
<g><path style="opacity:1" fill="#6c4740" d="M 115.5,129.5 C 116.492,129.328 117.158,129.662 117.5,130.5C 117.973,131.906 118.973,132.573 120.5,132.5C 120.5,132.833 120.5,133.167 120.5,133.5C 117.633,133.631 115.967,132.297 115.5,129.5 Z"/></g>
<g><path style="opacity:1" fill="#919193" d="M 115.5,129.5 C 119.97,128.514 124.637,128.181 129.5,128.5C 129.5,129.5 129.5,130.5 129.5,131.5C 126.215,131.21 123.215,131.877 120.5,133.5C 120.5,133.167 120.5,132.833 120.5,132.5C 121.289,132.217 121.956,131.717 122.5,131C 120.866,130.506 119.199,130.34 117.5,130.5C 117.158,129.662 116.492,129.328 115.5,129.5 Z"/></g>
<g><path style="opacity:1" fill="#aca395" d="M 136.5,128.5 C 138.626,129.048 140.626,129.715 142.5,130.5C 140.821,130.285 139.821,130.952 139.5,132.5C 137.858,130.919 135.858,130.253 133.5,130.5C 133.167,130.5 132.833,130.5 132.5,130.5C 133.833,129.833 135.167,129.167 136.5,128.5 Z"/></g>
<g><path style="opacity:1" fill="#222326" d="M 117.5,130.5 C 119.199,130.34 120.866,130.506 122.5,131C 121.956,131.717 121.289,132.217 120.5,132.5C 118.973,132.573 117.973,131.906 117.5,130.5 Z"/></g>
<g><path style="opacity:1" fill="#473a37" d="M 142.5,130.5 C 142.842,131.338 143.508,131.672 144.5,131.5C 144.5,132.167 144.5,132.833 144.5,133.5C 142.708,133.634 141.042,133.301 139.5,132.5C 139.821,130.952 140.821,130.285 142.5,130.5 Z"/></g>
<g><path style="opacity:1" fill="#e7cca0" d="M 151.5,126.5 C 152.906,126.973 153.573,127.973 153.5,129.5C 153.5,131.5 153.5,133.5 153.5,135.5C 153.167,135.5 152.833,135.5 152.5,135.5C 152.167,135.5 151.833,135.5 151.5,135.5C 151.5,132.5 151.5,129.5 151.5,126.5 Z"/></g>
<g><path style="opacity:1" fill="#806650" d="M 42.5,118.5 C 43.404,119.209 43.7373,120.209 43.5,121.5C 43.5,125.833 43.5,130.167 43.5,134.5C 43.5,134.833 43.5,135.167 43.5,135.5C 42.391,135.557 41.391,135.89 40.5,136.5C 41.038,134.883 41.3713,133.216 41.5,131.5C 41.5569,130.391 41.8902,129.391 42.5,128.5C 42.5,125.167 42.5,121.833 42.5,118.5 Z"/></g>
<g><path style="opacity:1" fill="#ab845f" d="M 61.5,121.5 C 60.5651,124.113 60.3985,126.779 61,129.5C 62.4813,130.471 63.3146,131.804 63.5,133.5C 59.6856,130.848 58.5189,127.181 60,122.5C 60.3826,121.944 60.8826,121.611 61.5,121.5 Z"/></g>
<g><path style="opacity:1" fill="#97c1e3" d="M 132.5,130.5 C 132.833,130.5 133.167,130.5 133.5,130.5C 133.5,132.5 133.5,134.5 133.5,136.5C 132.094,136.027 131.427,135.027 131.5,133.5C 131.5,132.833 131.5,132.167 131.5,131.5C 131.5,130.833 131.833,130.5 132.5,130.5 Z"/></g>
<g><path style="opacity:1" fill="#7aaed6" d="M 144.5,131.5 C 147.167,132.167 147.167,132.833 144.5,133.5C 144.5,132.833 144.5,132.167 144.5,131.5 Z"/></g>
<g><path style="opacity:1" fill="#6d99b9" d="M 153.5,129.5 C 154.167,129.5 154.833,129.5 155.5,129.5C 155.5,129.833 155.5,130.167 155.5,130.5C 155.5,132.5 155.5,134.5 155.5,136.5C 154.833,136.167 154.167,135.833 153.5,135.5C 153.5,133.5 153.5,131.5 153.5,129.5 Z"/></g>
<g><path style="opacity:1" fill="#473d3b" d="M 162.5,130.5 C 168.11,131.576 168.443,132.576 163.5,133.5C 162.833,133.5 162.5,133.167 162.5,132.5C 162.5,131.833 162.5,131.167 162.5,130.5 Z"/></g>
<g><path style="opacity:1" fill="#b5c6d5" d="M 162.5,130.5 C 162.5,130.167 162.5,129.833 162.5,129.5C 166.577,129.017 168.91,130.684 169.5,134.5C 167.265,134.795 165.265,134.461 163.5,133.5C 168.443,132.576 168.11,131.576 162.5,130.5 Z"/></g>
<g><path style="opacity:1" fill="#77a0c2" d="M 47.5,128.5 C 47.8333,128.5 48.1667,128.5 48.5,128.5C 47.5638,131.671 45.8971,134.338 43.5,136.5C 43.5,136.167 43.5,135.833 43.5,135.5C 43.5,135.167 43.5,134.833 43.5,134.5C 45.0101,132.678 46.3434,130.678 47.5,128.5 Z"/></g>
<g><path style="opacity:1" fill="#bc905b" d="M 89.5,134.5 C 89.573,136.027 88.9063,137.027 87.5,137.5C 87.427,135.973 88.0937,134.973 89.5,134.5 Z"/></g>
<g><path style="opacity:1" fill="#5f4d45" d="M 186.5,114.5 C 187.659,125.659 187.826,136.992 187,148.5C 186.23,147.402 185.397,147.402 184.5,148.5C 186.405,137.35 187.071,126.017 186.5,114.5 Z"/></g>
<g><path style="opacity:1" fill="#bfbab3" d="M 52.5,135.5 C 52.4606,136.583 52.1272,137.583 51.5,138.5C 48.5719,139.484 45.5719,139.817 42.5,139.5C 42.2627,138.209 42.596,137.209 43.5,136.5C 44.1522,137.725 45.3189,138.392 47,138.5C 49.3759,138.315 51.2092,137.315 52.5,135.5 Z"/></g>
<g><path style="opacity:1" fill="#b0acaa" d="M 54.5,134.5 C 55.8118,135.145 56.8118,136.145 57.5,137.5C 59.7427,138.474 62.076,138.808 64.5,138.5C 64.5,137.5 64.5,136.5 64.5,135.5C 65.1667,136.167 65.8333,136.833 66.5,137.5C 66.5,138.167 66.5,138.833 66.5,139.5C 63.1016,139.82 59.7683,139.487 56.5,138.5C 55.3698,137.378 54.7031,136.044 54.5,134.5 Z"/></g>
<g><path style="opacity:1" fill="#c5c1b9" d="M 87.5,137.5 C 84.0131,140.526 80.0131,141.193 75.5,139.5C 79.3577,138.706 83.3577,138.04 87.5,137.5 Z"/></g>
<g><path style="opacity:1" fill="#cac7c2" d="M 129.5,132.5 C 129.5,133.167 129.5,133.833 129.5,134.5C 128.833,137.167 127.167,138.833 124.5,139.5C 121.57,140.299 118.57,140.632 115.5,140.5C 113.338,139.872 111.672,138.539 110.5,136.5C 115.25,138.481 120.25,138.981 125.5,138C 126.412,135.795 127.745,133.962 129.5,132.5 Z"/></g>
<g><path style="opacity:1" fill="#785947" d="M 151.5,135.5 C 151.833,135.5 152.167,135.5 152.5,135.5C 152.5,136.833 152.5,138.167 152.5,139.5C 151.5,139.5 150.5,139.5 149.5,139.5C 150.167,138.167 150.833,136.833 151.5,135.5 Z"/></g>
<g><path style="opacity:1" fill="#c7cccf" d="M 155.5,136.5 C 160.915,138.344 166.582,139.011 172.5,138.5C 172.5,138.833 172.5,139.167 172.5,139.5C 168.524,140.331 164.524,140.497 160.5,140C 158.119,139.777 156.453,138.61 155.5,136.5 Z"/></g>
<g><path style="opacity:1" fill="#716e6a" d="M 124.5,139.5 C 124.389,140.117 124.056,140.617 123.5,141C 120.633,141.801 117.966,141.634 115.5,140.5C 118.57,140.632 121.57,140.299 124.5,139.5 Z"/></g>
</svg>
