<?xml version="1.0" encoding="UTF-8"?>
<!DOCTYPE svg PUBLIC "-//W3C//DTD SVG 1.1//EN" "http://www.w3.org/Graphics/SVG/1.1/DTD/svg11.dtd">
<svg xmlns="http://www.w3.org/2000/svg" version="1.1" width="381px" height="380px" style="shape-rendering:geometricPrecision; text-rendering:geometricPrecision; image-rendering:optimizeQuality; fill-rule:evenodd; clip-rule:evenodd" xmlns:xlink="http://www.w3.org/1999/xlink">
<g><path style="opacity:0.988" fill="#ef5033" d="M 182.5,-0.5 C 186.833,-0.5 191.167,-0.5 195.5,-0.5C 198.9,1.03697 202.233,2.8703 205.5,5C 261.667,61.1667 317.833,117.333 374,173.5C 380.929,183.924 381.262,194.591 375,205.5C 318.5,262 262,318.5 205.5,375C 202.901,376.795 200.234,378.295 197.5,379.5C 192.5,379.5 187.5,379.5 182.5,379.5C 180.259,378.379 177.925,377.213 175.5,376C 118,318.5 60.5,261 3,203.5C 1.78739,201.075 0.620727,198.741 -0.5,196.5C -0.5,191.5 -0.5,186.5 -0.5,181.5C 1.22576,179.058 2.72576,176.391 4,173.5C 42.5,135 81,96.5 119.5,58C 120.167,57.3333 120.833,57.3333 121.5,58C 135.333,71.8333 149.167,85.6667 163,99.5C 159.846,110.601 161.513,120.934 168,130.5C 170.871,134.016 174.371,136.683 178.5,138.5C 179.667,173.829 179.833,209.162 179,244.5C 161.468,254.954 157.468,269.287 167,287.5C 179.911,301.469 194.078,302.969 209.5,292C 219.239,281.428 221.072,269.595 215,256.5C 211.977,251.977 208.144,248.31 203.5,245.5C 202.333,210.505 202.167,175.505 203,140.5C 216,153.5 229,166.5 242,179.5C 237.604,196.663 243.104,209.496 258.5,218C 277.353,223.324 290.186,216.824 297,198.5C 299.534,181.398 292.701,169.898 276.5,164C 270.462,163.529 264.462,163.529 258.5,164C 245,150.5 231.5,137 218,123.5C 221.777,104.881 214.943,92.0478 197.5,85C 191.462,84.5292 185.462,84.5292 179.5,85C 165.333,70.8333 151.167,56.6667 137,42.5C 136.333,41.8333 136.333,41.1667 137,40.5C 148.833,28.6667 160.667,16.8333 172.5,5C 175.767,2.8703 179.1,1.03697 182.5,-0.5 Z"/></g>
</svg>
