<?xml version="1.0" encoding="UTF-8"?>
<!DOCTYPE svg PUBLIC "-//W3C//DTD SVG 1.1//EN" "http://www.w3.org/Graphics/SVG/1.1/DTD/svg11.dtd">
<svg xmlns="http://www.w3.org/2000/svg" version="1.1" width="250px" height="250px" style="shape-rendering:geometricPrecision; text-rendering:geometricPrecision; image-rendering:optimizeQuality; fill-rule:evenodd; clip-rule:evenodd" xmlns:xlink="http://www.w3.org/1999/xlink">
<g><path style="opacity:0.924" fill="#3c3d3c" d="M 109.5,27.5 C 122.309,25.6999 133.642,28.8666 143.5,37C 158.557,36.5736 168.557,43.4069 173.5,57.5C 184.867,64.2305 190.534,74.2305 190.5,87.5C 186.167,87.5 181.833,87.5 177.5,87.5C 177.343,76.0118 171.676,69.0118 160.5,66.5C 161.14,57.3061 156.974,51.6394 148,49.5C 145.3,50.3444 142.633,51.3444 140,52.5C 126.899,36.8676 112.899,35.8676 98,49.5C 94.4799,54.235 92.4799,59.5684 92,65.5C 80.3786,68.2883 73.8786,75.6217 72.5,87.5C 68.5,87.5 64.5,87.5 60.5,87.5C 60.5423,72.402 67.3756,61.7353 81,55.5C 85.7862,41.2124 95.2862,31.8791 109.5,27.5 Z"/></g>
<g><path style="opacity:0.944" fill="#3c3d3c" d="M 53.5,93.5 C 102.251,93.0096 150.918,93.5096 199.5,95C 201.768,96.5577 202.934,98.7244 203,101.5C 203.5,133.498 203.667,165.498 203.5,197.5C 151.5,197.5 99.5,197.5 47.5,197.5C 47.3334,164.832 47.5,132.165 48,99.5C 49.3597,96.9774 51.193,94.9774 53.5,93.5 Z"/></g>
<g><path style="opacity:1" fill="#c8dbe6" d="M 190.5,105.5 C 190.5,131.833 190.5,158.167 190.5,184.5C 146.833,184.5 103.167,184.5 59.5,184.5C 59.5,158.167 59.5,131.833 59.5,105.5C 103.167,105.5 146.833,105.5 190.5,105.5 Z"/></g>
<g><path style="opacity:1" fill="#10a8dc" d="M 99.5,111.5 C 101.822,113.586 103.822,116.086 105.5,119C 108.23,119.728 110.897,119.562 113.5,118.5C 115,116.167 116.5,113.833 118,111.5C 121.212,112.855 124.378,114.355 127.5,116C 128.022,116.561 128.355,117.228 128.5,118C 126.886,120.695 126.052,123.528 126,126.5C 127.529,127.729 128.696,129.229 129.5,131C 133.093,130.967 136.593,131.133 140,131.5C 141.283,135.414 142.116,139.414 142.5,143.5C 134.115,142.716 130.949,146.383 133,154.5C 134.925,155.88 136.759,157.38 138.5,159C 136.708,163.124 133.875,166.29 130,168.5C 127.896,166.721 125.562,165.388 123,164.5C 116.008,165.461 113.508,169.461 115.5,176.5C 111.167,176.5 106.833,176.5 102.5,176.5C 104.492,169.461 101.992,165.461 95,164.5C 92.4376,165.388 90.1042,166.721 88,168.5C 84.1356,166.282 81.3023,163.116 79.5,159C 81.2415,157.38 83.0748,155.88 85,154.5C 87.2329,146.901 84.3996,143.234 76.5,143.5C 76.188,139.325 76.8547,135.325 78.5,131.5C 81.7168,131.342 85.0501,131.175 88.5,131C 90.2095,129.084 91.5428,126.918 92.5,124.5C 90.7486,122.028 89.9153,119.361 90,116.5C 93.1806,114.662 96.3473,112.995 99.5,111.5 Z"/></g>
<g><path style="opacity:1" fill="#c7dbe6" d="M 104.5,130.5 C 119.031,129.857 124.531,136.523 121,150.5C 116.47,156.171 110.637,158.004 103.5,156C 94.969,150.274 93.469,143.107 99,134.5C 100.812,133.023 102.645,131.69 104.5,130.5 Z"/></g>
<g><path style="opacity:1" fill="#4389c7" d="M 152.5,141.5 C 155.167,141.5 157.833,141.5 160.5,141.5C 160.587,145.762 162.754,148.429 167,149.5C 168.393,148.385 169.893,147.885 171.5,148C 175.189,151.364 175.022,154.197 171,156.5C 169.582,160.837 170.748,164.171 174.5,166.5C 173.649,168.882 172.316,170.882 170.5,172.5C 164.601,169.791 161.267,171.791 160.5,178.5C 157.833,178.5 155.167,178.5 152.5,178.5C 153.117,173.696 150.95,171.029 146,170.5C 144.715,170.95 143.548,171.617 142.5,172.5C 138.163,169.344 137.997,166.344 142,163.5C 143.418,159.163 142.252,155.829 138.5,153.5C 139.351,151.118 140.684,149.118 142.5,147.5C 148.492,150.166 151.826,148.166 152.5,141.5 Z"/></g>
<g><path style="opacity:1" fill="#c5d9e6" d="M 153.5,152.5 C 161.543,152.04 164.71,155.706 163,163.5C 158.632,168.711 154.299,168.711 150,163.5C 148.662,158.96 149.829,155.293 153.5,152.5 Z"/></g>
<g><path style="opacity:1" fill="#a5b3bb" d="M 190.5,105.5 C 191.498,131.995 191.831,158.661 191.5,185.5C 147.33,185.832 103.33,185.499 59.5,184.5C 103.167,184.5 146.833,184.5 190.5,184.5C 190.5,158.167 190.5,131.833 190.5,105.5 Z"/></g>
<g><path style="opacity:0.918" fill="#3c3d3c" d="M 27.5,203.5 C 51.8425,203.167 76.1758,203.5 100.5,204.5C 101.234,206.815 102.568,208.648 104.5,210C 118.5,210.667 132.5,210.667 146.5,210C 148.919,208.491 149.919,206.325 149.5,203.5C 174.167,203.5 198.833,203.5 223.5,203.5C 224.501,212.342 220.834,218.175 212.5,221C 154.5,221.667 96.5,221.667 38.5,221C 29.7293,218.393 26.0626,212.559 27.5,203.5 Z"/></g>
</svg>
