<?xml version="1.0" encoding="UTF-8"?>
<!DOCTYPE svg PUBLIC "-//W3C//DTD SVG 1.1//EN" "http://www.w3.org/Graphics/SVG/1.1/DTD/svg11.dtd">
<svg xmlns="http://www.w3.org/2000/svg" version="1.1" width="569px" height="546px" style="shape-rendering:geometricPrecision; text-rendering:geometricPrecision; image-rendering:optimizeQuality; fill-rule:evenodd; clip-rule:evenodd" xmlns:xlink="http://www.w3.org/1999/xlink">
<g><path style="opacity:0.97" fill="#63a814" d="M 59.5,17.5 C 209.833,17.5 360.167,17.5 510.5,17.5C 510.667,28.1719 510.5,38.8385 510,49.5C 506.339,85.1054 502.839,120.939 499.5,157C 499.565,159.225 499.898,161.392 500.5,163.5C 500.154,164.696 499.654,164.696 499,163.5C 493.293,236.103 486.46,310.603 478.5,387C 477.92,394.859 477.92,402.692 478.5,410.5C 478.518,412.373 478.018,412.706 477,411.5C 475.529,433.477 473.362,456.144 470.5,479.5C 448.615,484.512 427.281,490.678 406.5,498C 384.433,502.284 363.599,508.117 344,515.5C 343.586,515.043 343.086,514.709 342.5,514.5C 326.998,518.471 311.665,522.971 296.5,528C 289.167,528.667 281.833,528.667 274.5,528C 234.957,516.277 194.957,505.277 154.5,495C 136.414,489.663 118.247,484.163 100,478.5C 92.1177,390.658 84.4511,303.658 77,217.5C 76.237,220.063 75.737,220.063 75.5,217.5C 75.5875,214.194 75.9208,210.861 76.5,207.5C 71.4146,154.766 66.2479,102.099 61,49.5C 60.4333,38.833 59.9333,28.1663 59.5,17.5 Z"/></g>
<g><path style="opacity:1" fill="#71b615" d="M 285.5,55.5 C 346.664,54.5009 407.998,54.1676 469.5,54.5C 468.529,80.4423 466.195,106.109 462.5,131.5C 464.107,109.158 465.774,86.8251 467.5,64.5C 468.477,61.7131 468.81,58.7131 468.5,55.5C 407.5,55.5 346.5,55.5 285.5,55.5 Z"/></g>
<g><path style="opacity:1" fill="#82c716" d="M 285.5,55.5 C 346.5,55.5 407.5,55.5 468.5,55.5C 468.81,58.7131 468.477,61.7131 467.5,64.5C 467.5,61.8333 467.5,59.1667 467.5,56.5C 407.167,56.5 346.833,56.5 286.5,56.5C 286.5,74.5 286.5,92.5 286.5,110.5C 286.167,110.5 285.833,110.5 285.5,110.5C 285.5,92.1667 285.5,73.8333 285.5,55.5 Z"/></g>
<g><path style="opacity:1" fill="#89ce17" d="M 467.5,64.5 C 465.774,86.8251 464.107,109.158 462.5,131.5C 460.551,141.262 459.551,151.262 459.5,161.5C 459.058,165.154 458.724,168.821 458.5,172.5C 457.001,191.812 455.334,211.145 453.5,230.5C 449.332,276.536 445.332,322.536 441.5,368.5C 439.712,377.608 438.546,386.941 438,396.5C 436.541,410.132 435.707,423.799 435.5,437.5C 434.866,441.337 434.199,445.17 433.5,449C 406.846,455.246 380.513,462.58 354.5,471C 340.301,473.511 326.301,476.844 312.5,481C 304.843,483.288 297.176,485.788 289.5,488.5C 288.167,488.5 286.833,488.5 285.5,488.5C 285.5,469.833 285.5,451.167 285.5,432.5C 286.167,432.5 286.5,432.167 286.5,431.5C 287.167,431.5 287.5,431.167 287.5,430.5C 289.905,429.232 292.572,428.565 295.5,428.5C 297.898,428.741 299.898,428.074 301.5,426.5C 303.117,425.962 304.784,425.629 306.5,425.5C 309.461,424.677 312.461,424.01 315.5,423.5C 320.917,422.805 325.917,421.139 330.5,418.5C 333.829,418.785 336.829,418.118 339.5,416.5C 343.162,416.277 346.495,415.277 349.5,413.5C 352.855,413.31 355.855,412.31 358.5,410.5C 358.833,410.5 359.167,410.5 359.5,410.5C 362.428,410.435 365.095,409.768 367.5,408.5C 372.264,408.231 376.597,406.898 380.5,404.5C 381.167,404.5 381.833,404.5 382.5,404.5C 385.152,404.59 387.485,403.924 389.5,402.5C 391.403,402.204 393.07,401.537 394.5,400.5C 396.435,399.85 398.435,399.517 400.5,399.5C 400.179,394.305 400.513,389.305 401.5,384.5C 403.582,376.436 404.582,368.103 404.5,359.5C 404.5,356.833 404.5,354.167 404.5,351.5C 406.078,346.417 406.745,341.084 406.5,335.5C 406.5,332.833 406.5,330.167 406.5,327.5C 406.5,326.5 406.5,325.5 406.5,324.5C 407.581,321.373 408.247,318.04 408.5,314.5C 410.932,300.75 412.265,286.75 412.5,272.5C 412.5,269.5 412.5,266.5 412.5,263.5C 413.167,254.833 413.833,246.167 414.5,237.5C 415.222,237.082 415.722,236.416 416,235.5C 416.498,232.518 416.665,229.518 416.5,226.5C 417.782,211.833 419.115,197.166 420.5,182.5C 421.08,178.19 421.414,173.857 421.5,169.5C 421.8,160.803 422.466,152.136 423.5,143.5C 424.598,137.021 425.265,130.354 425.5,123.5C 425.5,123.167 425.5,122.833 425.5,122.5C 426.343,119.674 427.009,116.674 427.5,113.5C 427.392,112.558 427.059,111.725 426.5,111C 379.835,110.5 333.168,110.333 286.5,110.5C 286.5,92.5 286.5,74.5 286.5,56.5C 346.833,56.5 407.167,56.5 467.5,56.5C 467.5,59.1667 467.5,61.8333 467.5,64.5 Z"/></g>
<g><path style="opacity:1" fill="#58a204" d="M 144.5,108.5 C 191.171,108.167 237.838,108.5 284.5,109.5C 261.167,109.833 237.833,110.167 214.5,110.5C 190.824,110.5 167.49,109.833 144.5,108.5 Z"/></g>
<g><path style="opacity:1" fill="#9fd741" d="M 285.5,111.5 C 285.5,111.167 285.5,110.833 285.5,110.5C 285.833,110.5 286.167,110.5 286.5,110.5C 333.168,110.333 379.835,110.5 426.5,111C 427.059,111.725 427.392,112.558 427.5,113.5C 427.009,116.674 426.343,119.674 425.5,122.5C 425.5,119.167 425.5,115.833 425.5,112.5C 379.003,111.501 332.336,111.168 285.5,111.5 Z"/></g>
<g><path style="opacity:1" fill="#b6d58d" d="M 285.5,111.5 C 332.336,111.168 379.003,111.501 425.5,112.5C 378.5,112.5 331.5,112.5 284.5,112.5C 237.833,112.5 191.167,112.5 144.5,112.5C 144.5,113.5 144.5,114.5 144.5,115.5C 143.566,114.432 143.232,113.099 143.5,111.5C 190.833,111.5 238.167,111.5 285.5,111.5 Z"/></g>
<g><path style="opacity:1" fill="#dae2d1" d="M 284.5,112.5 C 284.5,112.833 284.5,113.167 284.5,113.5C 238.167,113.5 191.833,113.5 145.5,113.5C 145.5,115.833 145.5,118.167 145.5,120.5C 145.5,122.167 145.5,123.833 145.5,125.5C 144.521,122.375 144.187,119.042 144.5,115.5C 144.5,114.5 144.5,113.5 144.5,112.5C 191.167,112.5 237.833,112.5 284.5,112.5 Z"/></g>
<g><path style="opacity:1" fill="#eff8de" d="M 284.5,113.5 C 284.5,113.167 284.5,112.833 284.5,112.5C 331.5,112.5 378.5,112.5 425.5,112.5C 425.5,115.833 425.5,119.167 425.5,122.5C 425.5,122.833 425.5,123.167 425.5,123.5C 425.167,123.5 424.833,123.5 424.5,123.5C 424.5,120.167 424.5,116.833 424.5,113.5C 377.833,113.5 331.167,113.5 284.5,113.5 Z"/></g>
<g><path style="opacity:1" fill="#fefefe" d="M 284.5,113.5 C 331.167,113.5 377.833,113.5 424.5,113.5C 424.5,116.833 424.5,120.167 424.5,123.5C 423.693,129.464 423.36,135.464 423.5,141.5C 421.491,150.586 420.491,159.919 420.5,169.5C 419.8,173.798 419.467,178.131 419.5,182.5C 417.694,197.107 416.361,211.774 415.5,226.5C 414.886,230.135 414.552,233.802 414.5,237.5C 413.833,246.167 413.167,254.833 412.5,263.5C 411.194,268.616 410.527,273.949 410.5,279.5C 410.5,281.833 410.5,284.167 410.5,286.5C 409.116,291.944 408.45,297.611 408.5,303.5C 408.5,305.5 408.5,307.5 408.5,309.5C 406.855,314.234 406.189,319.234 406.5,324.5C 406.5,325.5 406.5,326.5 406.5,327.5C 404.922,332.583 404.255,337.916 404.5,343.5C 404.5,343.833 404.5,344.167 404.5,344.5C 402.957,352.616 402.29,360.95 402.5,369.5C 401.836,374.473 401.503,379.473 401.5,384.5C 400.513,389.305 400.179,394.305 400.5,399.5C 398.435,399.517 396.435,399.85 394.5,400.5C 392.302,400.12 390.635,400.787 389.5,402.5C 386.848,402.41 384.515,403.076 382.5,404.5C 381.833,404.5 381.167,404.5 380.5,404.5C 375.917,405.34 371.584,406.674 367.5,408.5C 364.505,408.294 361.838,408.96 359.5,410.5C 359.167,410.5 358.833,410.5 358.5,410.5C 355.084,410.528 352.084,411.528 349.5,413.5C 346.123,413.959 342.789,414.626 339.5,415.5C 336.772,415.171 334.438,415.837 332.5,417.5C 331.508,417.328 330.842,417.662 330.5,418.5C 325.497,419.834 320.497,421.168 315.5,422.5C 312.008,422.446 309.008,423.446 306.5,425.5C 304.784,425.629 303.117,425.962 301.5,426.5C 299.102,426.259 297.102,426.926 295.5,428.5C 292.572,428.565 289.905,429.232 287.5,430.5C 286.5,430.5 285.5,430.5 284.5,430.5C 285.135,410.932 284.468,391.599 282.5,372.5C 286.16,372.841 289.493,372.175 292.5,370.5C 293.167,370.5 293.833,370.5 294.5,370.5C 296.898,370.741 298.898,370.074 300.5,368.5C 302.898,368.741 304.898,368.074 306.5,366.5C 310.547,364.74 314.88,363.74 319.5,363.5C 321.898,363.741 323.898,363.074 325.5,361.5C 331.822,360.577 337.822,358.911 343.5,356.5C 345.483,356.843 346.817,356.176 347.5,354.5C 348.473,352.052 348.806,349.385 348.5,346.5C 349.268,345.737 349.768,344.737 350,343.5C 350.5,336.842 350.666,330.175 350.5,323.5C 350.791,315.418 351.458,307.418 352.5,299.5C 353.468,297.393 353.802,295.059 353.5,292.5C 354.29,291.391 354.79,290.058 355,288.5C 355.499,283.177 355.666,277.844 355.5,272.5C 355.5,271.167 355.5,269.833 355.5,268.5C 357.871,261.829 358.871,254.829 358.5,247.5C 359.162,243.534 359.495,239.534 359.5,235.5C 360.032,229.848 360.365,224.181 360.5,218.5C 360.727,210.79 361.394,203.123 362.5,195.5C 364.054,191.433 364.72,187.1 364.5,182.5C 365.499,177.672 365.499,173.005 364.5,168.5C 364.5,168.167 364.5,167.833 364.5,167.5C 337.672,166.502 310.672,166.169 283.5,166.5C 284.506,165.604 284.506,164.938 283.5,164.5C 283.5,148.167 283.5,131.833 283.5,115.5C 284.338,115.158 284.672,114.492 284.5,113.5 Z"/></g>
<g><path style="opacity:1" fill="#f5eff9" d="M 284.5,113.5 C 284.672,114.492 284.338,115.158 283.5,115.5C 238.167,115.5 192.833,115.5 147.5,115.5C 147.663,117.857 147.497,120.19 147,122.5C 146.722,121.584 146.222,120.918 145.5,120.5C 145.5,118.167 145.5,115.833 145.5,113.5C 191.833,113.5 238.167,113.5 284.5,113.5 Z"/></g>
<g><path style="opacity:1" fill="#eaeaea" d="M 283.5,115.5 C 283.5,131.833 283.5,148.167 283.5,164.5C 239.5,164.5 195.5,164.5 151.5,164.5C 151.05,152.994 149.883,141.661 148,130.5C 147.501,135.155 147.334,139.821 147.5,144.5C 147.167,144.5 146.833,144.5 146.5,144.5C 146.233,138.162 145.9,131.829 145.5,125.5C 145.5,123.833 145.5,122.167 145.5,120.5C 146.222,120.918 146.722,121.584 147,122.5C 147.497,120.19 147.663,117.857 147.5,115.5C 192.833,115.5 238.167,115.5 283.5,115.5 Z"/></g>
<g><path style="opacity:1" fill="#c9e893" d="M 424.5,123.5 C 424.833,123.5 425.167,123.5 425.5,123.5C 425.265,130.354 424.598,137.021 423.5,143.5C 423.5,142.833 423.5,142.167 423.5,141.5C 423.36,135.464 423.693,129.464 424.5,123.5 Z"/></g>
<g><path style="opacity:1" fill="#76bb15" d="M 462.5,131.5 C 462.324,141.735 461.324,151.735 459.5,161.5C 459.551,151.262 460.551,141.262 462.5,131.5 Z"/></g>
<g><path style="opacity:1" fill="#d9efb4" d="M 423.5,141.5 C 423.5,142.167 423.5,142.833 423.5,143.5C 422.466,152.136 421.8,160.803 421.5,169.5C 421.167,169.5 420.833,169.5 420.5,169.5C 420.491,159.919 421.491,150.586 423.5,141.5 Z"/></g>
<g><path style="opacity:1" fill="#efedf2" d="M 283.5,164.5 C 284.506,164.938 284.506,165.604 283.5,166.5C 238.833,166.5 194.167,166.5 149.5,166.5C 149.72,161.9 149.054,157.567 147.5,153.5C 147.5,150.5 147.5,147.5 147.5,144.5C 147.334,139.821 147.501,135.155 148,130.5C 149.883,141.661 151.05,152.994 151.5,164.5C 195.5,164.5 239.5,164.5 283.5,164.5 Z"/></g>
<g><path style="opacity:1" fill="#e2e9d9" d="M 147.5,153.5 C 149.054,157.567 149.72,161.9 149.5,166.5C 194.167,166.5 238.833,166.5 283.5,166.5C 310.672,166.169 337.672,166.502 364.5,167.5C 292.5,167.5 220.5,167.5 148.5,167.5C 148.331,162.819 147.998,158.152 147.5,153.5 Z"/></g>
<g><path style="opacity:1" fill="#b0d285" d="M 146.5,144.5 C 146.833,144.5 147.167,144.5 147.5,144.5C 147.5,147.5 147.5,150.5 147.5,153.5C 147.998,158.152 148.331,162.819 148.5,167.5C 220.5,167.5 292.5,167.5 364.5,167.5C 364.5,167.833 364.5,168.167 364.5,168.5C 337.833,168.5 311.167,168.5 284.5,168.5C 238.833,168.5 193.167,168.5 147.5,168.5C 146.724,160.525 146.39,152.525 146.5,144.5 Z"/></g>
<g><path style="opacity:1" fill="#99d434" d="M 284.5,169.5 C 284.5,169.167 284.5,168.833 284.5,168.5C 311.167,168.5 337.833,168.5 364.5,168.5C 364.768,170.099 364.434,171.432 363.5,172.5C 363.5,171.5 363.5,170.5 363.5,169.5C 337.833,169.5 312.167,169.5 286.5,169.5C 286.167,169.5 285.833,169.5 285.5,169.5C 285.167,169.5 284.833,169.5 284.5,169.5 Z"/></g>
<g><path style="opacity:1" fill="#81c617" d="M 285.5,169.5 C 285.833,169.5 286.167,169.5 286.5,169.5C 285.837,236.842 286.503,303.842 288.5,370.5C 287.791,371.404 286.791,371.737 285.5,371.5C 285.5,304.167 285.5,236.833 285.5,169.5 Z"/></g>
<g><path style="opacity:1" fill="#8acf17" d="M 286.5,169.5 C 312.167,169.5 337.833,169.5 363.5,169.5C 363.5,170.5 363.5,171.5 363.5,172.5C 363.5,175.833 363.5,179.167 363.5,182.5C 362.92,186.81 362.586,191.143 362.5,195.5C 361.394,203.123 360.727,210.79 360.5,218.5C 358.988,223.929 358.321,229.596 358.5,235.5C 357.838,239.466 357.505,243.466 357.5,247.5C 356.348,254.309 355.681,261.309 355.5,268.5C 355.5,269.833 355.5,271.167 355.5,272.5C 354.662,272.842 354.328,273.508 354.5,274.5C 353.038,282.623 352.371,290.956 352.5,299.5C 351.458,307.418 350.791,315.418 350.5,323.5C 349.527,325.948 349.194,328.615 349.5,331.5C 347.803,338.93 347.136,346.597 347.5,354.5C 346.005,354.989 344.671,355.655 343.5,356.5C 337.19,357.421 331.19,359.088 325.5,361.5C 323.102,361.259 321.102,361.926 319.5,363.5C 314.88,363.74 310.547,364.74 306.5,366.5C 304.102,366.259 302.102,366.926 300.5,368.5C 298.102,368.259 296.102,368.926 294.5,370.5C 293.833,370.5 293.167,370.5 292.5,370.5C 291.167,370.5 289.833,370.5 288.5,370.5C 286.503,303.842 285.837,236.842 286.5,169.5 Z"/></g>
<g><path style="opacity:1" fill="#70b516" d="M 284.5,169.5 C 284.833,169.5 285.167,169.5 285.5,169.5C 285.5,236.833 285.5,304.167 285.5,371.5C 284.508,371.672 283.842,371.338 283.5,370.5C 284.499,303.669 284.832,236.669 284.5,169.5 Z"/></g>
<g><path style="opacity:1" fill="#c4e78b" d="M 364.5,168.5 C 365.499,173.005 365.499,177.672 364.5,182.5C 364.167,182.5 363.833,182.5 363.5,182.5C 363.5,179.167 363.5,175.833 363.5,172.5C 364.434,171.432 364.768,170.099 364.5,168.5 Z"/></g>
<g><path style="opacity:1" fill="#c8e891" d="M 420.5,169.5 C 420.833,169.5 421.167,169.5 421.5,169.5C 421.414,173.857 421.08,178.19 420.5,182.5C 420.167,182.5 419.833,182.5 419.5,182.5C 419.467,178.131 419.8,173.798 420.5,169.5 Z"/></g>
<g><path style="opacity:1" fill="#d7efaf" d="M 363.5,182.5 C 363.833,182.5 364.167,182.5 364.5,182.5C 364.72,187.1 364.054,191.433 362.5,195.5C 362.586,191.143 362.92,186.81 363.5,182.5 Z"/></g>
<g><path style="opacity:1" fill="#c3e687" d="M 419.5,182.5 C 419.833,182.5 420.167,182.5 420.5,182.5C 419.115,197.166 417.782,211.833 416.5,226.5C 416.167,226.5 415.833,226.5 415.5,226.5C 416.361,211.774 417.694,197.107 419.5,182.5 Z"/></g>
<g><path style="opacity:0.004" fill="#62a813" d="M 73.5,197.5 C 74.525,197.897 74.6917,198.563 74,199.5C 73.5357,198.906 73.369,198.239 73.5,197.5 Z"/></g>
<g><path style="opacity:1" fill="#70b514" d="M 458.5,172.5 C 458.623,192.15 456.957,211.483 453.5,230.5C 455.334,211.145 457.001,191.812 458.5,172.5 Z"/></g>
<g><path style="opacity:1" fill="#c6e78e" d="M 360.5,218.5 C 360.365,224.181 360.032,229.848 359.5,235.5C 359.167,235.5 358.833,235.5 358.5,235.5C 358.321,229.596 358.988,223.929 360.5,218.5 Z"/></g>
<g><path style="opacity:1" fill="#bbe378" d="M 415.5,226.5 C 415.833,226.5 416.167,226.5 416.5,226.5C 416.665,229.518 416.498,232.518 416,235.5C 415.722,236.416 415.222,237.082 414.5,237.5C 414.552,233.802 414.886,230.135 415.5,226.5 Z"/></g>
<g><path style="opacity:1" fill="#cfeba1" d="M 358.5,235.5 C 358.833,235.5 359.167,235.5 359.5,235.5C 359.495,239.534 359.162,243.534 358.5,247.5C 358.167,247.5 357.833,247.5 357.5,247.5C 357.505,243.466 357.838,239.466 358.5,235.5 Z"/></g>
<g><path style="opacity:1" fill="#dff1bf" d="M 357.5,247.5 C 357.833,247.5 358.167,247.5 358.5,247.5C 358.871,254.829 357.871,261.829 355.5,268.5C 355.681,261.309 356.348,254.309 357.5,247.5 Z"/></g>
<g><path style="opacity:1" fill="#b2df66" d="M 354.5,274.5 C 354.498,280.523 354.165,286.523 353.5,292.5C 353.802,295.059 353.468,297.393 352.5,299.5C 352.371,290.956 353.038,282.623 354.5,274.5 Z"/></g>
<g><path style="opacity:1" fill="#d4edaa" d="M 412.5,263.5 C 412.5,266.5 412.5,269.5 412.5,272.5C 411.833,274.833 411.167,277.167 410.5,279.5C 410.527,273.949 411.194,268.616 412.5,263.5 Z"/></g>
<g><path style="opacity:1" fill="#def1be" d="M 355.5,272.5 C 355.666,277.844 355.499,283.177 355,288.5C 354.79,290.058 354.29,291.391 353.5,292.5C 354.165,286.523 354.498,280.523 354.5,274.5C 354.328,273.508 354.662,272.842 355.5,272.5 Z"/></g>
<g><path style="opacity:1" fill="#a0d846" d="M 412.5,272.5 C 412.265,286.75 410.932,300.75 408.5,314.5C 408.5,312.833 408.5,311.167 408.5,309.5C 408.5,307.5 408.5,305.5 408.5,303.5C 410.012,298.071 410.679,292.404 410.5,286.5C 410.5,284.167 410.5,281.833 410.5,279.5C 411.167,277.167 411.833,274.833 412.5,272.5 Z"/></g>
<g><path style="opacity:1" fill="#cae998" d="M 410.5,286.5 C 410.679,292.404 410.012,298.071 408.5,303.5C 408.45,297.611 409.116,291.944 410.5,286.5 Z"/></g>
<g><path style="opacity:1" fill="#88bb4f" d="M 217.5,310.5 C 198.992,310.17 180.659,310.503 162.5,311.5C 162.5,314.167 162.5,316.833 162.5,319.5C 161.521,316.375 161.187,313.042 161.5,309.5C 180.341,309.17 199.007,309.503 217.5,310.5 Z"/></g>
<g><path style="opacity:1" fill="#bcd4a0" d="M 162.5,311.5 C 180.659,310.503 198.992,310.17 217.5,310.5C 218.167,310.5 218.5,310.833 218.5,311.5C 218.5,313.5 218.5,315.5 218.5,317.5C 217.833,315.833 217.167,314.167 216.5,312.5C 198.674,311.503 180.674,311.17 162.5,311.5 Z"/></g>
<g><path style="opacity:1" fill="#dde4d4" d="M 162.5,311.5 C 180.674,311.17 198.674,311.503 216.5,312.5C 198.833,312.5 181.167,312.5 163.5,312.5C 163.5,316.5 163.5,320.5 163.5,324.5C 162.549,323.081 162.216,321.415 162.5,319.5C 162.5,316.833 162.5,314.167 162.5,311.5 Z"/></g>
<g><path style="opacity:1" fill="#f1eef4" d="M 216.5,312.5 C 216.662,314.527 216.495,316.527 216,318.5C 215.51,317.207 215.343,315.873 215.5,314.5C 199.167,314.5 182.833,314.5 166.5,314.5C 167.948,330.946 168.948,347.446 169.5,364C 169.333,368.5 169.167,373 169,377.5C 168.819,374.305 168.319,371.305 167.5,368.5C 166.693,358.171 165.859,347.838 165,337.5C 164.79,335.942 164.29,334.609 163.5,333.5C 163.5,330.5 163.5,327.5 163.5,324.5C 163.5,320.5 163.5,316.5 163.5,312.5C 181.167,312.5 198.833,312.5 216.5,312.5 Z"/></g>
<g><path style="opacity:1" fill="#ebebeb" d="M 216.5,312.5 C 217.167,314.167 217.833,315.833 218.5,317.5C 218.507,330.876 219.174,344.209 220.5,357.5C 225.219,357.888 229.886,358.555 234.5,359.5C 239.12,359.74 243.453,360.74 247.5,362.5C 251.681,363.66 256.015,364.66 260.5,365.5C 266.404,367.161 272.404,368.827 278.5,370.5C 278.833,370.5 279.167,370.5 279.5,370.5C 280.5,371.167 281.5,371.833 282.5,372.5C 284.468,391.599 285.135,410.932 284.5,430.5C 285.5,430.5 286.5,430.5 287.5,430.5C 287.5,431.167 287.167,431.5 286.5,431.5C 284.901,431.768 283.568,431.434 282.5,430.5C 279.916,428.528 276.916,427.528 273.5,427.5C 271.379,427.675 269.379,427.341 267.5,426.5C 264.495,424.723 261.162,423.723 257.5,423.5C 255.901,423.768 254.568,423.434 253.5,422.5C 252.4,421.442 251.066,420.608 249.5,420C 245.406,419.443 241.406,418.61 237.5,417.5C 235.565,416.85 233.565,416.517 231.5,416.5C 229.485,415.076 227.152,414.41 224.5,414.5C 222.485,413.076 220.152,412.41 217.5,412.5C 217.167,412.5 216.833,412.5 216.5,412.5C 214.898,410.926 212.898,410.259 210.5,410.5C 208.485,409.076 206.152,408.41 203.5,408.5C 201.485,407.076 199.152,406.41 196.5,406.5C 191.697,406.006 187.03,405.006 182.5,403.5C 181.329,402.655 179.995,401.989 178.5,401.5C 175.727,400.343 172.727,399.676 169.5,399.5C 169.666,394.489 169.499,389.489 169,384.5C 168.768,383.263 168.268,382.263 167.5,381.5C 167.5,377.167 167.5,372.833 167.5,368.5C 168.319,371.305 168.819,374.305 169,377.5C 169.167,373 169.333,368.5 169.5,364C 168.948,347.446 167.948,330.946 166.5,314.5C 182.833,314.5 199.167,314.5 215.5,314.5C 215.343,315.873 215.51,317.207 216,318.5C 216.495,316.527 216.662,314.527 216.5,312.5 Z"/></g>
<g><path style="opacity:1" fill="#7ab33b" d="M 218.5,311.5 C 220.809,321.895 221.809,332.562 221.5,343.5C 220.595,334.824 219.595,326.158 218.5,317.5C 218.5,315.5 218.5,313.5 218.5,311.5 Z"/></g>
<g><path style="opacity:1" fill="#d0eba2" d="M 408.5,309.5 C 408.5,311.167 408.5,312.833 408.5,314.5C 408.247,318.04 407.581,321.373 406.5,324.5C 406.189,319.234 406.855,314.234 408.5,309.5 Z"/></g>
<g><path style="opacity:1" fill="#e6f4ce" d="M 350.5,323.5 C 350.666,330.175 350.5,336.842 350,343.5C 349.768,344.737 349.268,345.737 348.5,346.5C 348.916,341.507 349.249,336.507 349.5,331.5C 349.194,328.615 349.527,325.948 350.5,323.5 Z"/></g>
<g><path style="opacity:1" fill="#bce37c" d="M 349.5,331.5 C 349.249,336.507 348.916,341.507 348.5,346.5C 348.806,349.385 348.473,352.052 347.5,354.5C 347.136,346.597 347.803,338.93 349.5,331.5 Z"/></g>
<g><path style="opacity:1" fill="#def1bd" d="M 406.5,327.5 C 406.5,330.167 406.5,332.833 406.5,335.5C 405.833,338.167 405.167,340.833 404.5,343.5C 404.255,337.916 404.922,332.583 406.5,327.5 Z"/></g>
<g><path style="opacity:1" fill="#b4cf93" d="M 163.5,333.5 C 164.29,334.609 164.79,335.942 165,337.5C 165.859,347.838 166.693,358.171 167.5,368.5C 167.5,372.833 167.5,377.167 167.5,381.5C 165.797,365.679 164.463,349.679 163.5,333.5 Z"/></g>
<g><path style="opacity:1" fill="#b8e174" d="M 406.5,335.5 C 406.745,341.084 406.078,346.417 404.5,351.5C 404.5,349.167 404.5,346.833 404.5,344.5C 404.5,344.167 404.5,343.833 404.5,343.5C 405.167,340.833 405.833,338.167 406.5,335.5 Z"/></g>
<g><path style="opacity:1" fill="#dbefb5" d="M 347.5,354.5 C 346.817,356.176 345.483,356.843 343.5,356.5C 344.671,355.655 346.005,354.989 347.5,354.5 Z"/></g>
<g><path style="opacity:1" fill="#ccdbb9" d="M 218.5,317.5 C 219.595,326.158 220.595,334.824 221.5,343.5C 221.5,347.5 221.5,351.5 221.5,355.5C 225.391,356.502 229.391,357.335 233.5,358C 234.056,358.383 234.389,358.883 234.5,359.5C 229.886,358.555 225.219,357.888 220.5,357.5C 219.174,344.209 218.507,330.876 218.5,317.5 Z"/></g>
<g><path style="opacity:1" fill="#d6eead" d="M 343.5,356.5 C 337.822,358.911 331.822,360.577 325.5,361.5C 331.19,359.088 337.19,357.421 343.5,356.5 Z"/></g>
<g><path style="opacity:1" fill="#e3f3c6" d="M 325.5,361.5 C 323.898,363.074 321.898,363.741 319.5,363.5C 321.102,361.926 323.102,361.259 325.5,361.5 Z"/></g>
<g><path style="opacity:1" fill="#96c065" d="M 247.5,362.5 C 252.312,361.965 256.645,362.965 260.5,365.5C 256.015,364.66 251.681,363.66 247.5,362.5 Z"/></g>
<g><path style="opacity:1" fill="#dff2c0" d="M 404.5,344.5 C 404.5,346.833 404.5,349.167 404.5,351.5C 404.5,354.167 404.5,356.833 404.5,359.5C 403.833,362.833 403.167,366.167 402.5,369.5C 402.29,360.95 402.957,352.616 404.5,344.5 Z"/></g>
<g><path style="opacity:1" fill="#8cbc57" d="M 260.5,365.5 C 267.079,365.52 273.079,367.187 278.5,370.5C 272.404,368.827 266.404,367.161 260.5,365.5 Z"/></g>
<g><path style="opacity:1" fill="#ddf1bb" d="M 306.5,366.5 C 304.898,368.074 302.898,368.741 300.5,368.5C 302.102,366.926 304.102,366.259 306.5,366.5 Z"/></g>
<g><path style="opacity:1" fill="#ebf7d6" d="M 300.5,368.5 C 298.898,370.074 296.898,370.741 294.5,370.5C 296.102,368.926 298.102,368.259 300.5,368.5 Z"/></g>
<g><path style="opacity:1" fill="#bbdb91" d="M 279.5,370.5 C 280.833,370.5 282.167,370.5 283.5,370.5C 283.842,371.338 284.508,371.672 285.5,371.5C 286.791,371.737 287.791,371.404 288.5,370.5C 289.833,370.5 291.167,370.5 292.5,370.5C 289.493,372.175 286.16,372.841 282.5,372.5C 281.5,371.833 280.5,371.167 279.5,370.5 Z"/></g>
<g><path style="opacity:1" fill="#b0de65" d="M 404.5,359.5 C 404.582,368.103 403.582,376.436 401.5,384.5C 401.503,379.473 401.836,374.473 402.5,369.5C 403.167,366.167 403.833,362.833 404.5,359.5 Z"/></g>
<g><path style="opacity:0.004" fill="#62a813" d="M 479.5,389.5 C 480.833,390.167 480.833,390.167 479.5,389.5 Z"/></g>
<g><path style="opacity:1" fill="#c2d6aa" d="M 167.5,381.5 C 168.268,382.263 168.768,383.263 169,384.5C 169.499,389.489 169.666,394.489 169.5,399.5C 168.318,393.699 167.652,387.699 167.5,381.5 Z"/></g>
<g><path style="opacity:0.004" fill="#62a813" d="M 479.5,392.5 C 480.833,393.167 480.833,393.167 479.5,392.5 Z"/></g>
<g><path style="opacity:1" fill="#cbdbb7" d="M 169.5,399.5 C 172.727,399.676 175.727,400.343 178.5,401.5C 177.5,401.5 176.5,401.5 175.5,401.5C 173.214,401.405 171.214,400.738 169.5,399.5 Z"/></g>
<g><path style="opacity:1" fill="#ddf1be" d="M 394.5,400.5 C 393.07,401.537 391.403,402.204 389.5,402.5C 390.635,400.787 392.302,400.12 394.5,400.5 Z"/></g>
<g><path style="opacity:1" fill="#a8c97f" d="M 175.5,401.5 C 176.5,401.5 177.5,401.5 178.5,401.5C 179.995,401.989 181.329,402.655 182.5,403.5C 179.848,403.59 177.515,402.924 175.5,401.5 Z"/></g>
<g><path style="opacity:1" fill="#bee47f" d="M 389.5,402.5 C 387.485,403.924 385.152,404.59 382.5,404.5C 384.515,403.076 386.848,402.41 389.5,402.5 Z"/></g>
<g><path style="opacity:1" fill="#c9dab6" d="M 196.5,406.5 C 199.152,406.41 201.485,407.076 203.5,408.5C 200.848,408.59 198.515,407.924 196.5,406.5 Z"/></g>
<g><path style="opacity:1" fill="#cae996" d="M 380.5,404.5 C 376.597,406.898 372.264,408.231 367.5,408.5C 371.584,406.674 375.917,405.34 380.5,404.5 Z"/></g>
<g><path style="opacity:1" fill="#c4d7ac" d="M 203.5,408.5 C 206.152,408.41 208.485,409.076 210.5,410.5C 207.848,410.59 205.515,409.924 203.5,408.5 Z"/></g>
<g><path style="opacity:1" fill="#cce99a" d="M 367.5,408.5 C 365.095,409.768 362.428,410.435 359.5,410.5C 361.838,408.96 364.505,408.294 367.5,408.5 Z"/></g>
<g><path style="opacity:1" fill="#b6d096" d="M 210.5,410.5 C 212.898,410.259 214.898,410.926 216.5,412.5C 214.102,412.741 212.102,412.074 210.5,410.5 Z"/></g>
<g><path style="opacity:1" fill="#d1eba4" d="M 358.5,410.5 C 355.855,412.31 352.855,413.31 349.5,413.5C 352.084,411.528 355.084,410.528 358.5,410.5 Z"/></g>
<g><path style="opacity:1" fill="#bdd3a2" d="M 217.5,412.5 C 220.152,412.41 222.485,413.076 224.5,414.5C 221.848,414.59 219.515,413.924 217.5,412.5 Z"/></g>
<g><path style="opacity:0.004" fill="#62a813" d="M 477.5,413.5 C 478.833,414.167 478.833,414.167 477.5,413.5 Z"/></g>
<g><path style="opacity:1" fill="#b5d095" d="M 224.5,414.5 C 227.152,414.41 229.485,415.076 231.5,416.5C 228.848,416.59 226.515,415.924 224.5,414.5 Z"/></g>
<g><path style="opacity:1" fill="#b8e273" d="M 349.5,413.5 C 346.495,415.277 343.162,416.277 339.5,416.5C 339.5,416.167 339.5,415.833 339.5,415.5C 342.789,414.626 346.123,413.959 349.5,413.5 Z"/></g>
<g><path style="opacity:1" fill="#eaf6d6" d="M 339.5,415.5 C 339.5,415.833 339.5,416.167 339.5,416.5C 337.139,416.674 334.806,417.007 332.5,417.5C 334.438,415.837 336.772,415.171 339.5,415.5 Z"/></g>
<g><path style="opacity:1" fill="#a8c980" d="M 231.5,416.5 C 233.565,416.517 235.565,416.85 237.5,417.5C 237.5,417.833 237.5,418.167 237.5,418.5C 235.102,418.741 233.102,418.074 231.5,416.5 Z"/></g>
<g><path style="opacity:1" fill="#b6e06f" d="M 339.5,416.5 C 336.829,418.118 333.829,418.785 330.5,418.5C 330.842,417.662 331.508,417.328 332.5,417.5C 334.806,417.007 337.139,416.674 339.5,416.5 Z"/></g>
<g><path style="opacity:1" fill="#ccdbb7" d="M 237.5,418.5 C 237.5,418.167 237.5,417.833 237.5,417.5C 241.406,418.61 245.406,419.443 249.5,420C 251.066,420.608 252.4,421.442 253.5,422.5C 248.112,421.38 242.779,420.047 237.5,418.5 Z"/></g>
<g><path style="opacity:1" fill="#b9e276" d="M 330.5,418.5 C 325.917,421.139 320.917,422.805 315.5,423.5C 315.5,423.167 315.5,422.833 315.5,422.5C 320.497,421.168 325.497,419.834 330.5,418.5 Z"/></g>
<g><path style="opacity:1" fill="#75ba15" d="M 441.5,368.5 C 440.461,391.733 438.461,414.733 435.5,437.5C 435.707,423.799 436.541,410.132 438,396.5C 438.546,386.941 439.712,377.608 441.5,368.5 Z"/></g>
<g><path style="opacity:1" fill="#bad29c" d="M 257.5,423.5 C 261.162,423.723 264.495,424.723 267.5,426.5C 263.838,426.277 260.505,425.277 257.5,423.5 Z"/></g>
<g><path style="opacity:1" fill="#d2eca5" d="M 315.5,422.5 C 315.5,422.833 315.5,423.167 315.5,423.5C 312.461,424.01 309.461,424.677 306.5,425.5C 309.008,423.446 312.008,422.446 315.5,422.5 Z"/></g>
<g><path style="opacity:1" fill="#ceddbb" d="M 273.5,427.5 C 276.916,427.528 279.916,428.528 282.5,430.5C 279.215,430.072 276.215,429.072 273.5,427.5 Z"/></g>
<g><path style="opacity:1" fill="#c1e586" d="M 301.5,426.5 C 299.898,428.074 297.898,428.741 295.5,428.5C 297.102,426.926 299.102,426.259 301.5,426.5 Z"/></g>
<g><path style="opacity:1" fill="#70b615" d="M 285.5,432.5 C 285.5,451.167 285.5,469.833 285.5,488.5C 286.833,488.5 288.167,488.5 289.5,488.5C 288.081,489.451 286.415,489.784 284.5,489.5C 284.17,470.326 284.503,451.326 285.5,432.5 Z"/></g>
</svg>
