<?xml version="1.0" encoding="UTF-8"?>
<!DOCTYPE svg PUBLIC "-//W3C//DTD SVG 1.1//EN" "http://www.w3.org/Graphics/SVG/1.1/DTD/svg11.dtd">
<svg xmlns="http://www.w3.org/2000/svg" version="1.1" width="350px" height="350px" style="shape-rendering:geometricPrecision; text-rendering:geometricPrecision; image-rendering:optimizeQuality; fill-rule:evenodd; clip-rule:evenodd" xmlns:xlink="http://www.w3.org/1999/xlink">
<g><path style="opacity:0.972" fill="#002b4f" d="M 247.5,142.5 C 246.833,141.833 246.167,141.167 245.5,140.5C 246.114,135.931 245.114,131.931 242.5,128.5C 242.167,127.167 241.833,125.833 241.5,124.5C 240.607,119.483 238.94,114.817 236.5,110.5C 234.568,105.088 231.901,100.088 228.5,95.5C 227.532,92.8997 226.199,90.5664 224.5,88.5C 214.385,71.7119 201.718,57.0453 186.5,44.5C 185.92,42.2512 184.587,40.5846 182.5,39.5C 179.785,36.7861 177.451,33.7861 175.5,30.5C 175.307,27.6915 174.64,25.0248 173.5,22.5C 172.5,22.5 171.5,22.5 170.5,22.5C 170.5,25.5 170.5,28.5 170.5,31.5C 169.094,34.4135 167.094,36.9135 164.5,39C 154.382,45.9526 145.382,54.1193 137.5,63.5C 135.086,64.9108 133.419,66.9108 132.5,69.5C 130.413,70.5846 129.08,72.2512 128.5,74.5C 123.241,80.014 119.241,86.3474 116.5,93.5C 112.244,99.1332 109.244,105.467 107.5,112.5C 106.596,113.209 106.263,114.209 106.5,115.5C 104.787,116.635 104.12,118.302 104.5,120.5C 102.949,122.913 102.283,125.579 102.5,128.5C 101.883,128.611 101.383,128.944 101,129.5C 100.708,133.882 100.208,138.215 99.5,142.5C 99.1667,142.5 98.8333,142.5 98.5,142.5C 77.2993,138.9 57.466,133.233 39,125.5C 31.1297,120.925 24.2964,115.925 18.5,110.5C 17.0871,108.632 15.9204,106.632 15,104.5C 14.186,85.9686 14.3526,67.4686 15.5,49C 20.921,41.9157 27.5877,36.2491 35.5,32C 47.4015,26.4071 59.7349,21.9071 72.5,18.5C 106.069,10.435 140.235,7.10166 175,8.5C 222.269,6.43306 267.769,13.5997 311.5,30C 311.167,30.3333 310.833,30.6667 310.5,31C 319.779,34.7874 327.446,40.6208 333.5,48.5C 334.298,50.0777 334.798,51.7444 335,53.5C 335.667,69.5 335.667,85.5 335,101.5C 332.257,109.918 326.924,116.251 319,120.5C 296.465,131.901 272.631,139.234 247.5,142.5 Z"/></g>
<g><path style="opacity:1" fill="#074b4f" d="M 175.5,30.5 C 174.521,29.2347 173.521,27.9014 172.5,26.5C 171.614,27.325 171.281,28.325 171.5,29.5C 171.672,30.4916 171.338,31.1583 170.5,31.5C 170.5,28.5 170.5,25.5 170.5,22.5C 171.5,22.5 172.5,22.5 173.5,22.5C 174.64,25.0248 175.307,27.6915 175.5,30.5 Z"/></g>
<g><path style="opacity:0.994" fill="#12914f" d="M 175.5,30.5 C 177.451,33.7861 179.785,36.7861 182.5,39.5C 183.08,41.7488 184.413,43.4154 186.5,44.5C 201.718,57.0453 214.385,71.7119 224.5,88.5C 224.725,91.5458 226.058,93.8791 228.5,95.5C 231.901,100.088 234.568,105.088 236.5,110.5C 236.338,112.527 236.505,114.527 237,116.5C 237.916,119.557 239.416,122.224 241.5,124.5C 241.833,125.833 242.167,127.167 242.5,128.5C 242.597,132.847 243.597,136.847 245.5,140.5C 246.167,141.167 246.833,141.833 247.5,142.5C 248.012,147.023 248.679,151.523 249.5,156C 249.375,158.551 249.042,161.051 248.5,163.5C 247.833,163.5 247.5,163.833 247.5,164.5C 246.566,165.568 246.232,166.901 246.5,168.5C 244.018,181.4 240.684,194.066 236.5,206.5C 234.992,208.181 233.992,210.181 233.5,212.5C 230.737,215.689 228.737,219.356 227.5,223.5C 227.167,223.5 226.833,223.5 226.5,223.5C 224.808,225.205 223.475,227.205 222.5,229.5C 219.474,232.218 217.474,235.551 216.5,239.5C 209.093,247.578 201.093,254.911 192.5,261.5C 191.833,261.5 191.5,261.833 191.5,262.5C 189.421,262.971 187.421,263.637 185.5,264.5C 182.572,263.409 180.406,261.409 179,258.5C 177.326,254.979 176.16,251.313 175.5,247.5C 175.819,245.25 175.319,243.25 174,241.5C 173.51,242.793 173.343,244.127 173.5,245.5C 173.167,245.5 172.833,245.5 172.5,245.5C 172.173,174.144 172.506,102.811 173.5,31.5C 173.253,30.2867 172.586,29.62 171.5,29.5C 171.281,28.325 171.614,27.325 172.5,26.5C 173.521,27.9014 174.521,29.2347 175.5,30.5 Z"/></g>
<g><path style="opacity:0.994" fill="#10a950" d="M 171.5,29.5 C 172.586,29.62 173.253,30.2867 173.5,31.5C 172.506,102.811 172.173,174.144 172.5,245.5C 172.5,246.833 172.5,248.167 172.5,249.5C 170.852,253.683 169.518,258.017 168.5,262.5C 168.34,264.153 167.674,265.486 166.5,266.5C 164.177,264.509 161.511,263.176 158.5,262.5C 158.5,261.833 158.167,261.5 157.5,261.5C 152.31,256.476 146.977,251.642 141.5,247C 141.833,246.667 142.167,246.333 142.5,246C 139.67,244.272 137.337,242.105 135.5,239.5C 136.489,236.751 135.489,234.751 132.5,233.5C 127.104,225.789 121.771,218.122 116.5,210.5C 116.657,209.127 116.49,207.793 116,206.5C 112.23,199.992 109.063,193.325 106.5,186.5C 106.279,183.933 105.612,181.599 104.5,179.5C 103.949,176.193 103.616,172.86 103.5,169.5C 103.741,167.102 103.074,165.102 101.5,163.5C 101.5,162.833 101.167,162.5 100.5,162.5C 98.756,156.001 98.0893,149.334 98.5,142.5C 98.8333,142.5 99.1667,142.5 99.5,142.5C 100.117,142.389 100.617,142.056 101,141.5C 101.495,139.527 101.662,137.527 101.5,135.5C 103.076,130.628 104.409,125.628 105.5,120.5C 105.629,118.784 105.962,117.117 106.5,115.5C 106.263,114.209 106.596,113.209 107.5,112.5C 110.781,106.476 113.781,100.143 116.5,93.5C 120.734,87.3766 124.734,81.0432 128.5,74.5C 130.587,73.4154 131.92,71.7488 132.5,69.5C 134.86,68.135 136.527,66.135 137.5,63.5C 145.382,54.1193 154.382,45.9526 164.5,39C 167.094,36.9135 169.094,34.4135 170.5,31.5C 171.338,31.1583 171.672,30.4916 171.5,29.5 Z"/></g>
<g><path style="opacity:1" fill="#0c5e4f" d="M 182.5,39.5 C 184.587,40.5846 185.92,42.2512 186.5,44.5C 184.413,43.4154 183.08,41.7488 182.5,39.5 Z"/></g>
<g><path style="opacity:1" fill="#0e7d50" d="M 137.5,63.5 C 136.527,66.135 134.86,68.135 132.5,69.5C 133.419,66.9108 135.086,64.9108 137.5,63.5 Z"/></g>
<g><path style="opacity:1" fill="#0d7450" d="M 132.5,69.5 C 131.92,71.7488 130.587,73.4154 128.5,74.5C 129.08,72.2512 130.413,70.5846 132.5,69.5 Z"/></g>
<g><path style="opacity:1" fill="#0c6f50" d="M 128.5,74.5 C 124.734,81.0432 120.734,87.3766 116.5,93.5C 119.241,86.3474 123.241,80.014 128.5,74.5 Z"/></g>
<g><path style="opacity:1" fill="#0e6f4f" d="M 224.5,88.5 C 226.199,90.5664 227.532,92.8997 228.5,95.5C 226.058,93.8791 224.725,91.5458 224.5,88.5 Z"/></g>
<g><path style="opacity:1" fill="#0c7850" d="M 116.5,93.5 C 113.781,100.143 110.781,106.476 107.5,112.5C 109.244,105.467 112.244,99.1332 116.5,93.5 Z"/></g>
<g><path style="opacity:1" fill="#0f6f4f" d="M 236.5,110.5 C 238.94,114.817 240.607,119.483 241.5,124.5C 239.416,122.224 237.916,119.557 237,116.5C 236.505,114.527 236.338,112.527 236.5,110.5 Z"/></g>
<g><path style="opacity:1" fill="#07524f" d="M 106.5,115.5 C 105.962,117.117 105.629,118.784 105.5,120.5C 105.167,120.5 104.833,120.5 104.5,120.5C 104.12,118.302 104.787,116.635 106.5,115.5 Z"/></g>
<g><path style="opacity:0.952" fill="#002b4f" d="M 100.5,163.5 C 101.204,169.116 102.537,174.449 104.5,179.5C 105.612,181.599 106.279,183.933 106.5,186.5C 107.814,195.457 111.148,203.457 116.5,210.5C 121.771,218.122 127.104,225.789 132.5,233.5C 133.63,235.315 134.296,237.315 134.5,239.5C 112.315,237.333 89.6487,233.666 66.5,228.5C 53.4241,224.444 40.9241,219.111 29,212.5C 22.8897,208.727 18.2231,203.727 15,197.5C 14.5,172.836 14.3334,148.169 14.5,123.5C 15.5,123.5 16.5,123.5 17.5,123.5C 18.7786,126.986 20.4453,130.319 22.5,133.5C 27.3138,138.072 32.6472,141.905 38.5,145C 58.3337,153.649 78.3337,159.316 98.5,162C 99.0442,162.717 99.7109,163.217 100.5,163.5 Z"/></g>
<g><path style="opacity:0.943" fill="#002b4f" d="M 216.5,239.5 C 217.474,235.551 219.474,232.218 222.5,229.5C 224.982,228.337 226.316,226.337 226.5,223.5C 226.833,223.5 227.167,223.5 227.5,223.5C 230.735,220.576 232.735,216.909 233.5,212.5C 233.992,210.181 234.992,208.181 236.5,206.5C 241.009,197.316 244.009,187.649 245.5,177.5C 247.43,173.627 248.097,169.294 247.5,164.5C 247.5,163.833 247.833,163.5 248.5,163.5C 251.944,162.012 255.611,161.179 259.5,161C 259.167,160.667 258.833,160.333 258.5,160C 277.295,157.543 294.628,152.543 310.5,145C 318.242,140.921 324.742,135.421 330,128.5C 330.494,126.866 330.66,125.199 330.5,123.5C 332.451,123.227 333.951,123.893 335,125.5C 335.667,148.5 335.667,171.5 335,194.5C 334.571,197.488 333.405,200.155 331.5,202.5C 327.255,207.579 322.255,211.745 316.5,215C 298.068,223.958 278.734,230.291 258.5,234C 244.592,236.366 230.592,238.199 216.5,239.5 Z"/></g>
<g><path style="opacity:1" fill="#094e4f" d="M 102.5,128.5 C 102.007,130.806 101.674,133.139 101.5,135.5C 101.662,137.527 101.495,139.527 101,141.5C 100.617,142.056 100.117,142.389 99.5,142.5C 100.208,138.215 100.708,133.882 101,129.5C 101.383,128.944 101.883,128.611 102.5,128.5 Z"/></g>
<g><path style="opacity:1" fill="#0d7e50" d="M 104.5,120.5 C 104.833,120.5 105.167,120.5 105.5,120.5C 104.409,125.628 103.076,130.628 101.5,135.5C 101.674,133.139 102.007,130.806 102.5,128.5C 102.283,125.579 102.949,122.913 104.5,120.5 Z"/></g>
<g><path style="opacity:1" fill="#0c634f" d="M 242.5,128.5 C 245.114,131.931 246.114,135.931 245.5,140.5C 243.597,136.847 242.597,132.847 242.5,128.5 Z"/></g>
<g><path style="opacity:1" fill="#0b7d4f" d="M 101.5,163.5 C 103.074,165.102 103.741,167.102 103.5,169.5C 101.926,167.898 101.259,165.898 101.5,163.5 Z"/></g>
<g><path style="opacity:1" fill="#05434f" d="M 247.5,164.5 C 248.097,169.294 247.43,173.627 245.5,177.5C 246.159,174.545 246.492,171.545 246.5,168.5C 246.232,166.901 246.566,165.568 247.5,164.5 Z"/></g>
<g><path style="opacity:1" fill="#06494f" d="M 100.5,162.5 C 101.167,162.5 101.5,162.833 101.5,163.5C 101.259,165.898 101.926,167.898 103.5,169.5C 103.616,172.86 103.949,176.193 104.5,179.5C 102.537,174.449 101.204,169.116 100.5,163.5C 100.5,163.167 100.5,162.833 100.5,162.5 Z"/></g>
<g><path style="opacity:1" fill="#083f4f" d="M 106.5,186.5 C 109.063,193.325 112.23,199.992 116,206.5C 116.49,207.793 116.657,209.127 116.5,210.5C 111.148,203.457 107.814,195.457 106.5,186.5 Z"/></g>
<g><path style="opacity:1" fill="#0d664f" d="M 246.5,168.5 C 246.492,171.545 246.159,174.545 245.5,177.5C 244.009,187.649 241.009,197.316 236.5,206.5C 240.684,194.066 244.018,181.4 246.5,168.5 Z"/></g>
<g><path style="opacity:0.96" fill="#002b4f" d="M 157.5,261.5 C 158.167,261.5 158.5,261.833 158.5,262.5C 161.511,263.176 164.177,264.509 166.5,266.5C 167.363,268.421 168.029,270.421 168.5,272.5C 169.588,277.603 170.588,282.603 171.5,287.5C 172.479,290.625 172.813,293.958 172.5,297.5C 174.5,297.833 176.5,298.167 178.5,298.5C 179.224,290.297 179.89,281.964 180.5,273.5C 181.374,270.087 183.041,267.087 185.5,264.5C 187.421,263.637 189.421,262.971 191.5,262.5C 192.167,262.5 192.5,262.167 192.5,261.5C 215.722,260.721 238.722,258.554 261.5,255C 277.545,251.16 293.211,246.16 308.5,240C 316.681,236.144 323.681,230.81 329.5,224C 329.167,223.667 328.833,223.333 328.5,223C 329.645,220.582 331.145,218.415 333,216.5C 334.044,217.623 334.71,218.956 335,220.5C 335.667,243.167 335.667,265.833 335,288.5C 334.335,292.332 332.668,295.665 330,298.5C 322.384,305.39 313.884,310.89 304.5,315C 276.333,324.98 247.333,330.98 217.5,333C 182.305,334.006 147.138,333.506 112,331.5C 86.8602,328.146 62.5268,321.813 39,312.5C 32.055,308.246 25.8883,303.913 20.5,299.5C 18.5425,297.564 16.8758,295.398 15.5,293C 14.514,267.866 14.1806,242.699 14.5,217.5C 15.5,217.5 16.5,217.5 17.5,217.5C 18.1786,220.358 19.5119,222.858 21.5,225C 21.1667,225.333 20.8333,225.667 20.5,226C 31.3435,235.485 43.6768,242.485 57.5,247C 90.1031,256.517 123.436,261.35 157.5,261.5 Z"/></g>
<g><path style="opacity:1" fill="#08464f" d="M 233.5,212.5 C 232.735,216.909 230.735,220.576 227.5,223.5C 228.737,219.356 230.737,215.689 233.5,212.5 Z"/></g>
<g><path style="opacity:1" fill="#094d4f" d="M 226.5,223.5 C 226.316,226.337 224.982,228.337 222.5,229.5C 223.475,227.205 224.808,225.205 226.5,223.5 Z"/></g>
<g><path style="opacity:1" fill="#0a534f" d="M 132.5,233.5 C 135.489,234.751 136.489,236.751 135.5,239.5C 135.167,239.5 134.833,239.5 134.5,239.5C 134.296,237.315 133.63,235.315 132.5,233.5 Z"/></g>
<g><path style="opacity:1" fill="#5da782" d="M 175.5,247.5 C 174.833,246.833 174.167,246.167 173.5,245.5C 173.343,244.127 173.51,242.793 174,241.5C 175.319,243.25 175.819,245.25 175.5,247.5 Z"/></g>
<g><path style="opacity:1" fill="#b3c1be" d="M 172.5,245.5 C 172.833,245.5 173.167,245.5 173.5,245.5C 174.167,246.167 174.833,246.833 175.5,247.5C 176.16,251.313 177.326,254.979 179,258.5C 180.406,261.409 182.572,263.409 185.5,264.5C 183.041,267.087 181.374,270.087 180.5,273.5C 178.532,281.433 177.865,289.766 178.5,298.5C 176.5,298.167 174.5,297.833 172.5,297.5C 172.813,293.958 172.479,290.625 171.5,287.5C 172.133,282.032 171.133,277.032 168.5,272.5C 168.029,270.421 167.363,268.421 166.5,266.5C 167.674,265.486 168.34,264.153 168.5,262.5C 170.99,258.677 172.323,254.343 172.5,249.5C 172.5,248.167 172.5,246.833 172.5,245.5 Z"/></g>
<g><path style="opacity:1" fill="#44b171" d="M 172.5,249.5 C 172.323,254.343 170.99,258.677 168.5,262.5C 169.518,258.017 170.852,253.683 172.5,249.5 Z"/></g>
<g><path style="opacity:1" fill="#49677c" d="M 168.5,272.5 C 171.133,277.032 172.133,282.032 171.5,287.5C 170.588,282.603 169.588,277.603 168.5,272.5 Z"/></g>
<g><path style="opacity:1" fill="#5f7a8a" d="M 180.5,273.5 C 179.89,281.964 179.224,290.297 178.5,298.5C 177.865,289.766 178.532,281.433 180.5,273.5 Z"/></g>
</svg>
