<?xml version="1.0" encoding="UTF-8"?>
<!DOCTYPE svg PUBLIC "-//W3C//DTD SVG 1.1//EN" "http://www.w3.org/Graphics/SVG/1.1/DTD/svg11.dtd">
<svg xmlns="http://www.w3.org/2000/svg" version="1.1" width="744px" height="1052px" style="shape-rendering:geometricPrecision; text-rendering:geometricPrecision; image-rendering:optimizeQuality; fill-rule:evenodd; clip-rule:evenodd" xmlns:xlink="http://www.w3.org/1999/xlink">
<g><path style="opacity:0.985" fill="#4f7bb0" d="M 347.5,129.5 C 346.791,130.404 345.791,130.737 344.5,130.5C 344.5,135.833 344.5,141.167 344.5,146.5C 317.35,147.235 290.35,149.568 263.5,153.5C 263.5,147.833 263.5,142.167 263.5,136.5C 291.205,132.406 319.205,130.073 347.5,129.5 Z"/></g>
<g><path style="opacity:0.982" fill="#436ea6" d="M 347.5,129.5 C 378.588,129.634 409.588,131.301 440.5,134.5C 439.791,135.404 438.791,135.737 437.5,135.5C 437.5,140.833 437.5,146.167 437.5,151.5C 406.598,148.172 375.598,146.505 344.5,146.5C 344.5,141.167 344.5,135.833 344.5,130.5C 345.791,130.737 346.791,130.404 347.5,129.5 Z"/></g>
<g><path style="opacity:0.983" fill="#37629c" d="M 440.5,134.5 C 468.933,138.12 496.933,143.787 524.5,151.5C 525.129,157.78 525.796,164.114 526.5,170.5C 528.026,170.994 529.359,171.661 530.5,172.5C 525.633,171.784 520.967,170.451 516.5,168.5C 508.437,165.49 500.104,162.99 491.5,161C 473.465,157.209 455.465,154.042 437.5,151.5C 437.5,146.167 437.5,140.833 437.5,135.5C 438.791,135.737 439.791,135.404 440.5,134.5 Z"/></g>
<g><path style="opacity:1" fill="#4377b7" d="M 344.5,146.5 C 375.598,146.505 406.598,148.172 437.5,151.5C 455.465,154.042 473.465,157.209 491.5,161C 500.104,162.99 508.437,165.49 516.5,168.5C 430.248,148.849 343.248,145.016 255.5,157C 230.524,161.245 205.857,166.745 181.5,173.5C 208.027,164.036 235.36,157.369 263.5,153.5C 290.35,149.568 317.35,147.235 344.5,146.5 Z"/></g>
<g><path style="opacity:0.984" fill="#5d89bd" d="M 263.5,136.5 C 263.5,142.167 263.5,147.833 263.5,153.5C 235.36,157.369 208.027,164.036 181.5,173.5C 173.919,176.139 166.252,178.806 158.5,181.5C 157.509,175.021 157.176,168.354 157.5,161.5C 191.855,149.095 227.188,140.762 263.5,136.5 Z"/></g>
<g><path style="opacity:1" fill="#719ece" d="M 516.5,168.5 C 520.967,170.451 525.633,171.784 530.5,172.5C 544.295,176.879 557.962,181.879 571.5,187.5C 594.818,196.992 615.318,210.659 633,228.5C 641.305,238.274 647.138,249.274 650.5,261.5C 650.5,264.167 650.5,266.833 650.5,269.5C 649.539,267.735 649.205,265.735 649.5,263.5C 642.313,263.175 635.313,263.509 628.5,264.5C 623.595,250.068 614.928,238.235 602.5,229C 584.611,216.388 565.278,206.388 544.5,199C 482.678,178.667 419.178,169.167 354,170.5C 297.441,170.398 241.941,177.898 187.5,193C 158.323,201.588 131.656,214.922 107.5,233C 99.7735,240.209 93.4401,248.376 88.5,257.5C 81.1667,257.5 73.8333,257.5 66.5,257.5C 71.6538,240.065 81.6538,225.899 96.5,215C 115.281,200.441 135.948,189.274 158.5,181.5C 166.252,178.806 173.919,176.139 181.5,173.5C 205.857,166.745 230.524,161.245 255.5,157C 343.248,145.016 430.248,148.849 516.5,168.5 Z"/></g>
<g><path style="opacity:0.981" fill="#305a95" d="M 524.5,151.5 C 540.847,155.838 556.847,161.171 572.5,167.5C 570.195,173.965 569.862,180.632 571.5,187.5C 557.962,181.879 544.295,176.879 530.5,172.5C 529.359,171.661 528.026,170.994 526.5,170.5C 525.796,164.114 525.129,157.78 524.5,151.5 Z"/></g>
<g><path style="opacity:1" fill="#3465a4" d="M 628.5,264.5 C 628.587,269.537 628.254,274.537 627.5,279.5C 626.5,282.167 625.5,284.833 624.5,287.5C 622.561,291.434 620.228,295.101 617.5,298.5C 613.14,303.527 608.473,308.194 603.5,312.5C 590.138,322.187 575.805,330.353 560.5,337C 524.79,351.477 487.79,361.144 449.5,366C 385.47,373.54 321.47,373.206 257.5,365C 214.039,359.137 172.706,346.47 133.5,327C 125.967,322.405 118.633,317.571 111.5,312.5C 108.192,309.529 104.859,306.529 101.5,303.5C 97.0525,298.716 93.3858,293.383 90.5,287.5C 89.304,284.579 88.304,281.579 87.5,278.5C 86.0445,271.42 86.3778,264.42 88.5,257.5C 93.4401,248.376 99.7735,240.209 107.5,233C 131.656,214.922 158.323,201.588 187.5,193C 241.941,177.898 297.441,170.398 354,170.5C 419.178,169.167 482.678,178.667 544.5,199C 565.278,206.388 584.611,216.388 602.5,229C 614.928,238.235 623.595,250.068 628.5,264.5 Z"/></g>
<g><path style="opacity:0.996" fill="#6b97c9" d="M 157.5,161.5 C 157.176,168.354 157.509,175.021 158.5,181.5C 135.948,189.274 115.281,200.441 96.5,215C 81.6538,225.899 71.6538,240.065 66.5,257.5C 64.4292,264.529 64.0959,271.529 65.5,278.5C 65.5,279.167 65.5,279.833 65.5,280.5C 64.1543,372.004 64.321,463.671 66,555.5C 66.3333,552.5 66.6667,549.5 67,546.5C 69.4119,543.638 70.0786,540.305 69,536.5C 68.586,536.957 68.086,537.291 67.5,537.5C 66.5159,534.572 66.1826,531.572 66.5,528.5C 69.2646,528.202 71.7646,527.202 74,525.5C 74.7805,524.056 74.6139,522.723 73.5,521.5C 72.914,521.709 72.414,522.043 72,522.5C 70.6654,513.956 71.8321,505.956 75.5,498.5C 76.7481,497.96 77.9148,497.293 79,496.5C 77.6661,493.394 77.3327,489.394 78,484.5C 80.2354,482.798 82.7354,481.798 85.5,481.5C 85.8333,572.836 85.5,664.169 84.5,755.5C 79.7654,757.718 78.4321,761.385 80.5,766.5C 82.4134,765.627 84.2467,764.627 86,763.5C 86.7203,765.112 86.5536,766.612 85.5,768C 83.8333,768.833 82.1667,769.667 80.5,770.5C 79.8333,775.167 79.1667,779.833 78.5,784.5C 77.8333,784.833 77.1667,785.167 76.5,785.5C 70.7777,777.855 67.2777,769.189 66,759.5C 65.2282,764.904 65.5615,770.238 67,775.5C 72.8574,791.522 82.6907,804.522 96.5,814.5C 110.988,827.257 127.321,837.257 145.5,844.5C 150.658,846.656 155.658,848.989 160.5,851.5C 159.833,858.5 159.167,865.5 158.5,872.5C 127.319,862.082 99.319,846.249 74.5,825C 69.2901,819.294 64.2901,813.461 59.5,807.5C 60.8333,710.836 61.5,613.836 61.5,516.5C 61.8355,418.862 61.8355,321.529 61.5,224.5C 72.8387,209.658 86.5054,197.491 102.5,188C 120.066,177.55 138.4,168.717 157.5,161.5 Z"/></g>
<g><path style="opacity:0.999" fill="#224c89" d="M 572.5,167.5 C 603.297,179.304 630.131,196.971 653,220.5C 661.945,231.055 668.279,243.055 672,256.5C 673.491,379.798 673.991,503.131 673.5,626.5C 673.667,674.834 673.5,723.168 673,771.5C 671.024,783.427 666.691,794.427 660,804.5C 643.41,826.602 622.577,843.269 597.5,854.5C 597.199,846.414 597.533,838.414 598.5,830.5C 604.97,826.427 611.303,822.093 617.5,817.5C 630.746,808.089 640.913,796.089 648,781.5C 649.925,776.989 651.258,772.323 652,767.5C 652.667,600.833 652.667,434.167 652,267.5C 651.809,265.292 651.309,263.292 650.5,261.5C 647.138,249.274 641.305,238.274 633,228.5C 615.318,210.659 594.818,196.992 571.5,187.5C 569.862,180.632 570.195,173.965 572.5,167.5 Z"/></g>
<g><path style="opacity:0.999" fill="#709dcc" d="M 61.5,224.5 C 61.8355,321.529 61.8355,418.862 61.5,516.5C 61.5,613.836 60.8333,710.836 59.5,807.5C 50.4995,795.338 45.3329,781.672 44,766.5C 43.5,720.835 43.3333,675.168 43.5,629.5C 43.3333,508.833 43.5,388.166 44,267.5C 45.4593,251.266 51.2926,236.933 61.5,224.5 Z"/></g>
<g><path style="opacity:1" fill="#8bb0d7" d="M 66.5,257.5 C 73.8333,257.5 81.1667,257.5 88.5,257.5C 86.3778,264.42 86.0445,271.42 87.5,278.5C 80.068,277.189 72.7347,277.189 65.5,278.5C 64.0959,271.529 64.4292,264.529 66.5,257.5 Z"/></g>
<g><path style="opacity:1" fill="#96b7da" d="M 650.5,269.5 C 650.81,272.713 650.477,275.713 649.5,278.5C 646.183,277.835 642.683,277.501 639,277.5C 634.908,277.576 631.075,278.243 627.5,279.5C 628.254,274.537 628.587,269.537 628.5,264.5C 635.313,263.509 642.313,263.175 649.5,263.5C 649.205,265.735 649.539,267.735 650.5,269.5 Z"/></g>
<g><path style="opacity:1" fill="#aac5e1" d="M 87.5,278.5 C 88.304,281.579 89.304,284.579 90.5,287.5C 82.8333,287.5 75.1667,287.5 67.5,287.5C 67.1667,286.833 66.8333,286.167 66.5,285.5C 66.3713,283.784 66.038,282.117 65.5,280.5C 65.5,279.833 65.5,279.167 65.5,278.5C 72.7347,277.189 80.068,277.189 87.5,278.5 Z"/></g>
<g><path style="opacity:1" fill="#aac5e1" d="M 649.5,278.5 C 649.793,281.754 649.126,284.754 647.5,287.5C 639.833,287.5 632.167,287.5 624.5,287.5C 625.5,284.833 626.5,282.167 627.5,279.5C 631.075,278.243 634.908,277.576 639,277.5C 642.683,277.501 646.183,277.835 649.5,278.5 Z"/></g>
<g><path style="opacity:1" fill="#c2d5e9" d="M 624.5,287.5 C 632.167,287.5 639.833,287.5 647.5,287.5C 646.594,291.901 644.928,295.901 642.5,299.5C 634.35,298.507 626.017,298.174 617.5,298.5C 620.228,295.101 622.561,291.434 624.5,287.5 Z"/></g>
<g><path style="opacity:1" fill="#cbdced" d="M 67.5,287.5 C 75.1667,287.5 82.8333,287.5 90.5,287.5C 93.3858,293.383 97.0525,298.716 101.5,303.5C 92.6506,303.174 83.9839,303.507 75.5,304.5C 71.5151,299.527 68.8485,293.86 67.5,287.5 Z"/></g>
<g><path style="opacity:1" fill="#e4ecf5" d="M 101.5,303.5 C 104.859,306.529 108.192,309.529 111.5,312.5C 101.652,312.173 91.9856,312.506 82.5,313.5C 79.8154,310.81 77.4821,307.81 75.5,304.5C 83.9839,303.507 92.6506,303.174 101.5,303.5 Z"/></g>
<g><path style="opacity:1" fill="#dfe9f3" d="M 617.5,298.5 C 626.017,298.174 634.35,298.507 642.5,299.5C 640.136,304.909 636.802,309.576 632.5,313.5C 623.014,312.506 613.348,312.173 603.5,312.5C 608.473,308.194 613.14,303.527 617.5,298.5 Z"/></g>
<g><path style="opacity:1" fill="#4574b0" d="M 650.5,261.5 C 651.309,263.292 651.809,265.292 652,267.5C 652.667,434.167 652.667,600.833 652,767.5C 651.258,772.323 649.925,776.989 648,781.5C 640.913,796.089 630.746,808.089 617.5,817.5C 617.338,815.473 617.505,813.473 618,811.5C 622.054,808.947 625.221,805.614 627.5,801.5C 627.333,800.833 627.167,800.167 627,799.5C 624.667,800.833 622.333,802.167 620,803.5C 619.148,800.967 619.814,798.967 622,797.5C 622.512,792.944 623.346,788.444 624.5,784C 624.815,779.226 623.315,778.393 620,781.5C 619.601,781.272 619.435,780.938 619.5,780.5C 624.939,772.952 628.773,764.618 631,755.5C 631.5,608.834 631.667,462.167 631.5,315.5C 631.833,314.833 632.167,314.167 632.5,313.5C 636.802,309.576 640.136,304.909 642.5,299.5C 644.928,295.901 646.594,291.901 647.5,287.5C 649.126,284.754 649.793,281.754 649.5,278.5C 650.477,275.713 650.81,272.713 650.5,269.5C 650.5,266.833 650.5,264.167 650.5,261.5 Z"/></g>
<g><path style="opacity:1" fill="#5a8dc7" d="M 66.5,285.5 C 66.8333,286.167 67.1667,286.833 67.5,287.5C 68.8485,293.86 71.5151,299.527 75.5,304.5C 77.4821,307.81 79.8154,310.81 82.5,313.5C 82.8333,314.167 83.1667,314.833 83.5,315.5C 81.1386,314.565 78.9719,313.232 77,311.5C 76.8333,311.833 76.6667,312.167 76.5,312.5C 79.7663,316.717 82.7663,321.05 85.5,325.5C 85.5,348.167 85.5,370.833 85.5,393.5C 81.037,394.297 78.7036,396.963 78.5,401.5C 75.0019,402.186 73.8353,404.186 75,407.5C 75.414,407.043 75.914,406.709 76.5,406.5C 78.8916,412.809 76.8916,416.809 70.5,418.5C 69.912,420.911 68.7454,422.911 67,424.5C 66.3333,427.5 66.3333,430.5 67,433.5C 72.7918,429.153 74.7918,430.82 73,438.5C 71.2467,439.627 69.4134,440.627 67.5,441.5C 66.6764,444.785 66.1764,448.118 66,451.5C 65.1682,395.998 65.3348,340.665 66.5,285.5 Z"/></g>
<g><path style="opacity:1" fill="#426ea5" d="M 631.5,315.5 C 631.667,462.167 631.5,608.834 631,755.5C 628.773,764.618 624.939,772.952 619.5,780.5C 618.549,782.118 617.216,783.451 615.5,784.5C 614.5,633.168 614.167,481.835 614.5,330.5C 620.438,325.901 626.105,320.901 631.5,315.5 Z"/></g>
<g><path style="opacity:1" fill="#fcfdfd" d="M 111.5,312.5 C 118.633,317.571 125.967,322.405 133.5,327C 172.706,346.47 214.039,359.137 257.5,365C 321.47,373.206 385.47,373.54 449.5,366C 487.79,361.144 524.79,351.477 560.5,337C 575.805,330.353 590.138,322.187 603.5,312.5C 613.348,312.173 623.014,312.506 632.5,313.5C 632.167,314.167 631.833,314.833 631.5,315.5C 626.105,320.901 620.438,325.901 614.5,330.5C 609.5,333.833 604.5,337.167 599.5,340.5C 594.659,343.421 589.659,346.088 584.5,348.5C 575.618,352.775 566.618,356.775 557.5,360.5C 550.597,362.466 543.93,364.799 537.5,367.5C 531.569,369.419 525.569,371.086 519.5,372.5C 511.55,374.706 503.55,376.706 495.5,378.5C 490.111,379.245 484.778,380.245 479.5,381.5C 473.843,382.594 468.177,383.594 462.5,384.5C 454.863,385.719 447.196,386.719 439.5,387.5C 432.167,388.167 424.833,388.833 417.5,389.5C 410.842,390.227 404.175,390.893 397.5,391.5C 394.833,391.5 392.167,391.5 389.5,391.5C 379.5,391.833 369.5,392.167 359.5,392.5C 355.5,392.5 351.5,392.5 347.5,392.5C 299.203,391.838 251.536,386.171 204.5,375.5C 194.392,372.135 184.059,369.135 173.5,366.5C 148.236,358.201 124.57,346.701 102.5,332C 95.7037,327.037 89.3704,321.537 83.5,315.5C 83.1667,314.833 82.8333,314.167 82.5,313.5C 91.9856,312.506 101.652,312.173 111.5,312.5 Z"/></g>
<g><path style="opacity:1" fill="#82a5c8" d="M 86.5,326.5 C 91.8054,332.14 97.1388,337.807 102.5,343.5C 102.5,490.833 102.5,638.167 102.5,785.5C 94.2308,777.636 89.0641,767.969 87,756.5C 86.5,613.167 86.3333,469.834 86.5,326.5 Z"/></g>
<g><path style="opacity:1" fill="#4872a6" d="M 614.5,330.5 C 614.167,481.835 614.5,633.168 615.5,784.5C 617.216,783.451 618.549,782.118 619.5,780.5C 619.435,780.938 619.601,781.272 620,781.5C 623.315,778.393 624.815,779.226 624.5,784C 623.346,788.444 622.512,792.944 622,797.5C 619.814,798.967 619.148,800.967 620,803.5C 622.333,802.167 624.667,800.833 627,799.5C 627.167,800.167 627.333,800.833 627.5,801.5C 625.221,805.614 622.054,808.947 618,811.5C 617.505,813.473 617.338,815.473 617.5,817.5C 611.303,822.093 604.97,826.427 598.5,830.5C 593.86,832.82 589.193,835.153 584.5,837.5C 584.238,836.022 584.571,834.689 585.5,833.5C 589.129,831.7 592.629,829.7 596,827.5C 596.179,824.447 596.679,821.447 597.5,818.5C 598.748,817.96 599.915,817.293 601,816.5C 599.748,778.197 599.248,739.863 599.5,701.5C 600.482,698.038 600.815,694.371 600.5,690.5C 599.518,676.579 599.185,662.579 599.5,648.5C 600.043,648.44 600.376,648.107 600.5,647.5C 599.82,646.14 599.153,644.807 598.5,643.5C 599.499,542.668 599.833,441.668 599.5,340.5C 604.5,337.167 609.5,333.833 614.5,330.5 Z"/></g>
<g><path style="opacity:1" fill="#4c75a6" d="M 599.5,340.5 C 599.833,441.668 599.499,542.668 598.5,643.5C 590.865,634.707 581.865,627.54 571.5,622C 570.257,620.846 569.257,619.512 568.5,618C 576.948,615.551 585.448,613.384 594,611.5C 593.956,609.721 593.289,608.055 592,606.5C 589.271,603.601 586.438,600.934 583.5,598.5C 584.499,515.335 584.833,432.002 584.5,348.5C 589.659,346.088 594.659,343.421 599.5,340.5 Z"/></g>
<g><path style="opacity:1" fill="#87a7c6" d="M 102.5,343.5 C 106.192,346.862 109.859,350.195 113.5,353.5C 113.167,446.335 113.501,539.001 114.5,631.5C 113.511,654.425 113.178,677.425 113.5,700.5C 118.833,700.5 124.167,700.5 129.5,700.5C 129.333,679.831 129.5,659.164 130,638.5C 130.717,639.044 131.217,639.711 131.5,640.5C 130.833,660.833 130.167,681.167 129.5,701.5C 124.167,701.5 118.833,701.5 113.5,701.5C 113.5,733.167 113.5,764.833 113.5,796.5C 109.5,793.167 105.833,789.5 102.5,785.5C 102.5,638.167 102.5,490.833 102.5,343.5 Z"/></g>
<g><path style="opacity:1" fill="#8ca9c5" d="M 113.5,353.5 C 118.856,357.199 124.19,360.866 129.5,364.5C 129.5,451.167 129.5,537.833 129.5,624.5C 131.099,624.232 132.432,624.566 133.5,625.5C 127.928,624.99 122.595,625.823 117.5,628C 116.364,629.145 115.364,630.312 114.5,631.5C 113.501,539.001 113.167,446.335 113.5,353.5 Z"/></g>
<g><path style="opacity:1" fill="#5379a7" d="M 584.5,348.5 C 584.833,432.002 584.499,515.335 583.5,598.5C 574.764,591.801 565.431,586.134 555.5,581.5C 557.497,508.174 558.164,434.508 557.5,360.5C 566.618,356.775 575.618,352.775 584.5,348.5 Z"/></g>
<g><path style="opacity:1" fill="#c9d5de" d="M 83.5,315.5 C 89.3704,321.537 95.7037,327.037 102.5,332C 124.57,346.701 148.236,358.201 173.5,366.5C 173.5,385.167 173.5,403.833 173.5,422.5C 176.167,423.833 178.833,425.167 181.5,426.5C 181.162,430.151 182.828,431.817 186.5,431.5C 186.5,432.833 186.5,434.167 186.5,435.5C 187.5,435.5 188.5,435.5 189.5,435.5C 189.5,437.833 189.5,440.167 189.5,442.5C 186.833,442.5 184.167,442.5 181.5,442.5C 181.5,443.5 181.5,444.5 181.5,445.5C 178.833,445.5 176.167,445.5 173.5,445.5C 173.5,446.5 173.5,447.5 173.5,448.5C 172.167,448.5 170.833,448.5 169.5,448.5C 168.167,448.5 166.833,448.5 165.5,448.5C 165.5,449.833 165.5,451.167 165.5,452.5C 162.833,452.5 160.167,452.5 157.5,452.5C 157.5,454.167 157.5,455.833 157.5,457.5C 153.33,457.667 149.33,457 145.5,455.5C 145.623,451.96 143.957,449.96 140.5,449.5C 139.818,422.831 138.985,396.164 138,369.5C 135.386,367.444 132.553,365.777 129.5,364.5C 124.19,360.866 118.856,357.199 113.5,353.5C 109.859,350.195 106.192,346.862 102.5,343.5C 97.1388,337.807 91.8054,332.14 86.5,326.5C 86.5,325.833 86.1667,325.5 85.5,325.5C 82.7663,321.05 79.7663,316.717 76.5,312.5C 76.6667,312.167 76.8333,311.833 77,311.5C 78.9719,313.232 81.1386,314.565 83.5,315.5 Z"/></g>
<g><path style="opacity:1" fill="#5a7ea8" d="M 557.5,360.5 C 558.164,434.508 557.497,508.174 555.5,581.5C 552.012,580.857 549.512,578.857 548,575.5C 544.153,567.141 540.319,558.807 536.5,550.5C 537.499,489.669 537.832,428.669 537.5,367.5C 543.93,364.799 550.597,362.466 557.5,360.5 Z"/></g>
<g><path style="opacity:1" fill="#6091c8" d="M 65.5,280.5 C 66.038,282.117 66.3713,283.784 66.5,285.5C 65.3348,340.665 65.1682,395.998 66,451.5C 66.1764,448.118 66.6764,444.785 67.5,441.5C 69.4134,440.627 71.2467,439.627 73,438.5C 74.7918,430.82 72.7918,429.153 67,433.5C 66.3333,430.5 66.3333,427.5 67,424.5C 68.7454,422.911 69.912,420.911 70.5,418.5C 76.8916,416.809 78.8916,412.809 76.5,406.5C 75.914,406.709 75.414,407.043 75,407.5C 73.8353,404.186 75.0019,402.186 78.5,401.5C 78.7036,396.963 81.037,394.297 85.5,393.5C 85.5,422.833 85.5,452.167 85.5,481.5C 82.7354,481.798 80.2354,482.798 78,484.5C 77.3327,489.394 77.6661,493.394 79,496.5C 77.9148,497.293 76.7481,497.96 75.5,498.5C 71.8321,505.956 70.6654,513.956 72,522.5C 72.414,522.043 72.914,521.709 73.5,521.5C 74.6139,522.723 74.7805,524.056 74,525.5C 71.7646,527.202 69.2646,528.202 66.5,528.5C 66.1826,531.572 66.5159,534.572 67.5,537.5C 68.086,537.291 68.586,536.957 69,536.5C 70.0786,540.305 69.4119,543.638 67,546.5C 66.6667,549.5 66.3333,552.5 66,555.5C 64.321,463.671 64.1543,372.004 65.5,280.5 Z"/></g>
<g><path style="opacity:1" fill="#92acc3" d="M 129.5,364.5 C 132.553,365.777 135.386,367.444 138,369.5C 138.985,396.164 139.818,422.831 140.5,449.5C 140.5,454.833 140.5,460.167 140.5,465.5C 141.283,481.821 141.617,498.154 141.5,514.5C 142.011,531.829 142.344,549.162 142.5,566.5C 142.57,588.195 143.237,609.861 144.5,631.5C 141.576,628.203 137.909,626.203 133.5,625.5C 132.432,624.566 131.099,624.232 129.5,624.5C 129.5,537.833 129.5,451.167 129.5,364.5 Z"/></g>
<g><path style="opacity:1" fill="#cfd7db" d="M 173.5,366.5 C 184.059,369.135 194.392,372.135 204.5,375.5C 204.167,391.181 204.501,406.848 205.5,422.5C 207.773,423.375 208.773,425.042 208.5,427.5C 210.433,427.729 212.1,428.562 213.5,430C 210.518,430.498 207.518,430.665 204.5,430.5C 204.5,431.833 204.5,433.167 204.5,434.5C 201.881,434.768 199.381,434.435 197,433.5C 196.51,434.793 196.343,436.127 196.5,437.5C 195.167,437.5 193.833,437.5 192.5,437.5C 193.449,439.737 194.116,442.071 194.5,444.5C 196.5,445.167 198.5,445.833 200.5,446.5C 200.5,447.5 200.5,448.5 200.5,449.5C 201.5,449.5 202.5,449.5 203.5,449.5C 203.5,450.833 203.5,452.167 203.5,453.5C 204.5,453.5 205.5,453.5 206.5,453.5C 206.833,456.5 208.5,458.167 211.5,458.5C 211.884,460.929 212.551,463.263 213.5,465.5C 213.5,467.167 213.5,468.833 213.5,470.5C 210.5,470.5 207.5,470.5 204.5,470.5C 204.5,471.833 204.5,473.167 204.5,474.5C 201.833,474.167 199.167,473.833 196.5,473.5C 196.923,475.781 196.256,477.448 194.5,478.5C 194.167,475.5 192.5,473.833 189.5,473.5C 189.5,472.5 189.5,471.5 189.5,470.5C 188.5,470.5 187.5,470.5 186.5,470.5C 186.5,469.167 186.5,467.833 186.5,466.5C 185.5,466.5 184.5,466.5 183.5,466.5C 183.167,463.5 181.5,461.833 178.5,461.5C 178.116,459.071 177.449,456.737 176.5,454.5C 174.263,453.551 171.929,452.884 169.5,452.5C 169.5,451.167 169.5,449.833 169.5,448.5C 170.833,448.5 172.167,448.5 173.5,448.5C 173.5,447.5 173.5,446.5 173.5,445.5C 176.167,445.5 178.833,445.5 181.5,445.5C 181.5,444.5 181.5,443.5 181.5,442.5C 184.167,442.5 186.833,442.5 189.5,442.5C 189.5,440.167 189.5,437.833 189.5,435.5C 188.5,435.5 187.5,435.5 186.5,435.5C 186.5,434.167 186.5,432.833 186.5,431.5C 182.828,431.817 181.162,430.151 181.5,426.5C 178.833,425.167 176.167,423.833 173.5,422.5C 173.5,403.833 173.5,385.167 173.5,366.5 Z"/></g>
<g><path style="opacity:1" fill="#6081a9" d="M 537.5,367.5 C 537.832,428.669 537.499,489.669 536.5,550.5C 532.048,538.926 526.048,528.259 518.5,518.5C 519.499,470.003 519.832,421.336 519.5,372.5C 525.569,371.086 531.569,369.419 537.5,367.5 Z"/></g>
<g><path style="opacity:1" fill="#6686aa" d="M 519.5,372.5 C 519.832,421.336 519.499,470.003 518.5,518.5C 511.466,510.465 503.799,503.132 495.5,496.5C 495.5,457.167 495.5,417.833 495.5,378.5C 503.55,376.706 511.55,374.706 519.5,372.5 Z"/></g>
<g><path style="opacity:1" fill="#6d8aab" d="M 495.5,378.5 C 495.5,417.833 495.5,457.167 495.5,496.5C 488.963,493.069 482.63,489.402 476.5,485.5C 476.847,450.782 477.847,416.116 479.5,381.5C 484.778,380.245 490.111,379.245 495.5,378.5 Z"/></g>
<g><path style="opacity:1" fill="#738eac" d="M 479.5,381.5 C 477.847,416.116 476.847,450.782 476.5,485.5C 470.974,483.862 465.307,482.862 459.5,482.5C 459.5,450.167 459.5,417.833 459.5,385.5C 460.791,385.737 461.791,385.404 462.5,384.5C 468.177,383.594 473.843,382.594 479.5,381.5 Z"/></g>
<g><path style="opacity:1" fill="#d6d9d9" d="M 204.5,375.5 C 251.536,386.171 299.203,391.838 347.5,392.5C 347.389,393.117 347.056,393.617 346.5,394C 343.518,394.498 340.518,394.665 337.5,394.5C 331.196,395.26 324.863,395.593 318.5,395.5C 311.847,396.054 305.18,396.388 298.5,396.5C 291.852,397.139 285.186,397.473 278.5,397.5C 271.5,397.5 264.5,397.5 257.5,397.5C 251.5,397.5 245.5,397.5 239.5,397.5C 239.5,416.833 239.5,436.167 239.5,455.5C 238.5,455.5 237.5,455.5 236.5,455.5C 236.5,456.833 236.5,458.167 236.5,459.5C 233.833,459.5 231.167,459.5 228.5,459.5C 228.5,460.5 228.5,461.5 228.5,462.5C 225.833,462.5 223.167,462.5 220.5,462.5C 220.5,463.5 220.5,464.5 220.5,465.5C 218.167,465.5 215.833,465.5 213.5,465.5C 212.551,463.263 211.884,460.929 211.5,458.5C 208.5,458.167 206.833,456.5 206.5,453.5C 205.5,453.5 204.5,453.5 203.5,453.5C 203.5,452.167 203.5,450.833 203.5,449.5C 202.5,449.5 201.5,449.5 200.5,449.5C 200.5,448.5 200.5,447.5 200.5,446.5C 198.5,445.833 196.5,445.167 194.5,444.5C 194.116,442.071 193.449,439.737 192.5,437.5C 193.833,437.5 195.167,437.5 196.5,437.5C 196.343,436.127 196.51,434.793 197,433.5C 199.381,434.435 201.881,434.768 204.5,434.5C 204.5,433.167 204.5,431.833 204.5,430.5C 207.518,430.665 210.518,430.498 213.5,430C 212.1,428.562 210.433,427.729 208.5,427.5C 208.773,425.042 207.773,423.375 205.5,422.5C 204.501,406.848 204.167,391.181 204.5,375.5 Z"/></g>
<g><path style="opacity:1" fill="#7992ad" d="M 462.5,384.5 C 461.791,385.404 460.791,385.737 459.5,385.5C 459.5,417.833 459.5,450.167 459.5,482.5C 458.127,482.657 456.793,482.49 455.5,482C 449.897,477.703 443.897,474.203 437.5,471.5C 439.492,443.853 440.158,415.853 439.5,387.5C 447.196,386.719 454.863,385.719 462.5,384.5 Z"/></g>
<g><path style="opacity:1" fill="#7e95ad" d="M 439.5,387.5 C 440.158,415.853 439.492,443.853 437.5,471.5C 425.117,467.575 419.284,471.908 420,484.5C 424.244,491.751 428.911,498.751 434,505.5C 436.976,518.614 442.476,530.447 450.5,541C 445.722,553.016 444.222,565.516 446,578.5C 447.104,585.486 449.937,591.653 454.5,597C 456.078,598.094 457.745,598.928 459.5,599.5C 460.209,600.404 461.209,600.737 462.5,600.5C 462.5,609.167 462.5,617.833 462.5,626.5C 451.495,626.333 440.495,626.5 429.5,627C 425.645,627.711 421.979,628.878 418.5,630.5C 417.501,550.335 417.167,470.002 417.5,389.5C 424.833,388.833 432.167,388.167 439.5,387.5 Z"/></g>
<g><path style="opacity:1" fill="#869bae" d="M 417.5,389.5 C 417.167,470.002 417.501,550.335 418.5,630.5C 415.142,632.7 412.642,635.7 411,639.5C 410.333,655.5 410.333,671.5 411,687.5C 412.213,691.869 414.713,695.203 418.5,697.5C 417.501,750.664 417.168,803.997 417.5,857.5C 410.891,858.659 404.224,859.326 397.5,859.5C 397.5,803.833 397.5,748.167 397.5,692.5C 398.801,691.118 399.634,689.452 400,687.5C 400.499,681.843 400.666,676.176 400.5,670.5C 400.5,659.5 400.5,648.5 400.5,637.5C 400.5,633.833 400.5,630.167 400.5,626.5C 399.5,626.5 398.5,626.5 397.5,626.5C 397.5,548.167 397.5,469.833 397.5,391.5C 404.175,390.893 410.842,390.227 417.5,389.5 Z"/></g>
<g><path style="opacity:1" fill="#8c9eaf" d="M 389.5,391.5 C 392.167,391.5 394.833,391.5 397.5,391.5C 397.5,469.833 397.5,548.167 397.5,626.5C 391.5,626.5 385.5,626.5 379.5,626.5C 379.5,548.5 379.5,470.5 379.5,392.5C 383.042,392.813 386.375,392.479 389.5,391.5 Z"/></g>
<g><path style="opacity:1" fill="#98a7b1" d="M 347.5,392.5 C 351.5,392.5 355.5,392.5 359.5,392.5C 359.5,470.5 359.5,548.5 359.5,626.5C 352.713,626.201 346.046,626.868 339.5,628.5C 337.503,550.84 336.836,472.84 337.5,394.5C 340.518,394.665 343.518,394.498 346.5,394C 347.056,393.617 347.389,393.117 347.5,392.5 Z"/></g>
<g><path style="opacity:1" fill="#91a2b0" d="M 389.5,391.5 C 386.375,392.479 383.042,392.813 379.5,392.5C 379.5,470.5 379.5,548.5 379.5,626.5C 372.833,626.5 366.167,626.5 359.5,626.5C 359.5,548.5 359.5,470.5 359.5,392.5C 369.5,392.167 379.5,391.833 389.5,391.5 Z"/></g>
<g><path style="opacity:1" fill="#9fabb1" d="M 337.5,394.5 C 336.836,472.84 337.503,550.84 339.5,628.5C 335.861,630.575 332.695,633.241 330,636.5C 324.226,651.76 328.726,662.093 343.5,667.5C 342.508,674.648 342.175,681.981 342.5,689.5C 354.167,689.5 365.833,689.5 377.5,689.5C 361.342,690.496 345.009,690.83 328.5,690.5C 328.5,694.167 328.5,697.833 328.5,701.5C 331.5,701.5 334.5,701.5 337.5,701.5C 337.5,754.5 337.5,807.5 337.5,860.5C 330.826,860.287 324.159,859.954 317.5,859.5C 317.168,704.763 317.502,550.097 318.5,395.5C 324.863,395.593 331.196,395.26 337.5,394.5 Z"/></g>
<g><path style="opacity:1" fill="#abb3b3" d="M 298.5,396.5 C 298.5,494.5 298.5,592.5 298.5,690.5C 291.833,690.5 285.167,690.5 278.5,690.5C 278.5,592.833 278.5,495.167 278.5,397.5C 285.186,397.473 291.852,397.139 298.5,396.5 Z"/></g>
<g><path style="opacity:1" fill="#b2b7b4" d="M 257.5,397.5 C 264.5,397.5 271.5,397.5 278.5,397.5C 278.5,495.167 278.5,592.833 278.5,690.5C 272.158,690.666 265.825,690.5 259.5,690C 258.058,689.623 257.058,688.79 256.5,687.5C 257.499,591.335 257.833,495.001 257.5,398.5C 257.5,398.167 257.5,397.833 257.5,397.5 Z"/></g>
<g><path style="opacity:1" fill="#b5bab5" d="M 257.5,398.5 C 257.833,495.001 257.499,591.335 256.5,687.5C 255.505,675.011 255.171,662.344 255.5,649.5C 250.167,649.5 244.833,649.5 239.5,649.5C 239.333,662.837 239.5,676.171 240,689.5C 244.064,695.123 249.564,698.623 256.5,700C 270.829,700.5 285.163,700.667 299.5,700.5C 299.665,703.518 299.498,706.518 299,709.5C 297.581,710.46 296.081,711.293 294.5,712C 276.17,712.5 257.836,712.667 239.5,712.5C 239.5,716.167 239.5,719.833 239.5,723.5C 248.833,723.5 258.167,723.5 267.5,723.5C 270.962,724.482 274.629,724.815 278.5,724.5C 278.5,768.167 278.5,811.833 278.5,855.5C 263.955,854.353 249.621,852.02 235.5,848.5C 234.833,848.5 234.167,848.5 233.5,848.5C 233.5,779.167 233.5,709.833 233.5,640.5C 232.5,640.5 231.5,640.5 230.5,640.5C 230.5,638.167 230.5,635.833 230.5,633.5C 229.5,633.5 228.5,633.5 227.5,633.5C 227.063,628.905 225.396,624.905 222.5,621.5C 224.5,621.5 226.5,621.5 228.5,621.5C 228.5,619.833 228.5,618.167 228.5,616.5C 231.833,616.5 235.167,616.5 238.5,616.5C 238.5,618.167 238.5,619.833 238.5,621.5C 239.5,621.5 240.5,621.5 241.5,621.5C 241.832,584.996 241.498,548.663 240.5,512.5C 240.5,474.5 240.5,436.5 240.5,398.5C 246.167,398.5 251.833,398.5 257.5,398.5 Z"/></g>
<g><path style="opacity:1" fill="#234c88" d="M 437.5,471.5 C 443.897,474.203 449.897,477.703 455.5,482C 456.793,482.49 458.127,482.657 459.5,482.5C 465.307,482.862 470.974,483.862 476.5,485.5C 482.63,489.402 488.963,493.069 495.5,496.5C 503.799,503.132 511.466,510.465 518.5,518.5C 526.048,528.259 532.048,538.926 536.5,550.5C 540.319,558.807 544.153,567.141 548,575.5C 549.512,578.857 552.012,580.857 555.5,581.5C 565.431,586.134 574.764,591.801 583.5,598.5C 586.438,600.934 589.271,603.601 592,606.5C 593.289,608.055 593.956,609.721 594,611.5C 585.448,613.384 576.948,615.551 568.5,618C 569.257,619.512 570.257,620.846 571.5,622C 581.865,627.54 590.865,634.707 598.5,643.5C 599.153,644.807 599.82,646.14 600.5,647.5C 600.376,648.107 600.043,648.44 599.5,648.5C 592.69,642.257 585.024,637.257 576.5,633.5C 568.049,629.55 561.716,623.383 557.5,615C 560.761,612.574 564.427,610.907 568.5,610C 574.485,609.201 580.485,608.535 586.5,608C 576.741,598.738 565.408,592.238 552.5,588.5C 547.714,587.55 544.214,584.884 542,580.5C 535.784,568.07 530.118,555.403 525,542.5C 523.391,539.593 521.558,536.927 519.5,534.5C 518.872,531.91 517.705,529.577 516,527.5C 510.333,519.333 503.499,512.333 495.5,506.5C 490.225,501.521 484.225,497.521 477.5,494.5C 469.329,490.567 460.662,488.4 451.5,488C 446.113,483.638 440.113,480.305 433.5,478C 430.773,477.182 428.106,477.348 425.5,478.5C 425.069,479.293 424.735,480.127 424.5,481C 428.592,488.094 433.092,494.927 438,501.5C 441.06,508.68 443.727,516.014 446,523.5C 448.003,528.846 451.003,533.513 455,537.5C 455.667,539.5 455.667,541.5 455,543.5C 448.501,559.842 449.168,575.842 457,591.5C 458.356,592.38 459.856,592.714 461.5,592.5C 460.396,582.729 463.063,574.229 469.5,567C 470.483,566.409 471.15,566.743 471.5,568C 472.769,572.034 474.435,575.868 476.5,579.5C 481.106,590.401 487.439,600.067 495.5,608.5C 495.5,609.167 495.5,609.833 495.5,610.5C 484.66,602.993 476.326,593.326 470.5,581.5C 469.195,586.464 468.029,591.464 467,596.5C 465.152,599.041 462.652,600.041 459.5,599.5C 457.745,598.928 456.078,598.094 454.5,597C 449.937,591.653 447.104,585.486 446,578.5C 444.222,565.516 445.722,553.016 450.5,541C 442.476,530.447 436.976,518.614 434,505.5C 428.911,498.751 424.244,491.751 420,484.5C 419.284,471.908 425.117,467.575 437.5,471.5 Z"/></g>
<g><path style="opacity:1" fill="#bfcad1" d="M 169.5,448.5 C 169.5,449.833 169.5,451.167 169.5,452.5C 171.929,452.884 174.263,453.551 176.5,454.5C 177.449,456.737 178.116,459.071 178.5,461.5C 181.5,461.833 183.167,463.5 183.5,466.5C 184.5,466.5 185.5,466.5 186.5,466.5C 186.5,467.833 186.5,469.167 186.5,470.5C 187.5,470.5 188.5,470.5 189.5,470.5C 189.5,471.5 189.5,472.5 189.5,473.5C 192.5,473.833 194.167,475.5 194.5,478.5C 192.833,478.5 191.167,478.5 189.5,478.5C 189.5,480.167 189.5,481.833 189.5,483.5C 186.833,483.5 184.167,483.5 181.5,483.5C 181.5,484.5 181.5,485.5 181.5,486.5C 180.5,486.5 179.5,486.5 178.5,486.5C 178.5,487.5 178.5,488.5 178.5,489.5C 179.5,489.5 180.5,489.5 181.5,489.5C 182.714,493.464 184.38,497.13 186.5,500.5C 187.5,500.5 188.5,500.5 189.5,500.5C 189.5,501.833 189.5,503.167 189.5,504.5C 190.5,504.5 191.5,504.5 192.5,504.5C 193.449,506.737 194.116,509.071 194.5,511.5C 195.5,511.5 196.5,511.5 197.5,511.5C 197.5,512.5 197.5,513.5 197.5,514.5C 198.5,514.5 199.5,514.5 200.5,514.5C 200.5,515.833 200.5,517.167 200.5,518.5C 201.5,518.5 202.5,518.5 203.5,518.5C 203.5,519.5 203.5,520.5 203.5,521.5C 204.5,521.5 205.5,521.5 206.5,521.5C 207.406,524.436 208.072,527.436 208.5,530.5C 209.5,530.5 210.5,530.5 211.5,530.5C 212.167,533.833 212.833,537.167 213.5,540.5C 214.5,540.5 215.5,540.5 216.5,540.5C 216.5,541.5 216.5,542.5 216.5,543.5C 217.5,543.5 218.5,543.5 219.5,543.5C 219.205,545.735 219.539,547.735 220.5,549.5C 218.393,550.468 216.059,550.802 213.5,550.5C 213.5,552.167 213.5,553.833 213.5,555.5C 211.167,555.5 208.833,555.5 206.5,555.5C 204.744,556.552 204.077,558.219 204.5,560.5C 201.833,560.5 199.167,560.5 196.5,560.5C 196.5,562.167 196.5,563.833 196.5,565.5C 194.833,565.5 193.167,565.5 191.5,565.5C 190.498,563.989 189.831,562.322 189.5,560.5C 188.5,560.5 187.5,560.5 186.5,560.5C 186.5,558.833 186.5,557.167 186.5,555.5C 185.5,555.5 184.5,555.5 183.5,555.5C 183.116,553.071 182.449,550.737 181.5,548.5C 180.5,548.5 179.5,548.5 178.5,548.5C 177.393,544.486 175.727,540.819 173.5,537.5C 172.167,537.5 170.833,537.5 169.5,537.5C 169.5,536.167 169.5,534.833 169.5,533.5C 170.833,533.5 172.167,533.5 173.5,533.5C 173.5,531.5 173.5,529.5 173.5,527.5C 176.127,528.092 178.794,528.425 181.5,528.5C 181.5,526.167 181.5,523.833 181.5,521.5C 180.5,521.5 179.5,521.5 178.5,521.5C 178.442,518.336 177.776,515.336 176.5,512.5C 175.5,512.5 174.5,512.5 173.5,512.5C 173.5,511.167 173.5,509.833 173.5,508.5C 172.167,508.5 170.833,508.5 169.5,508.5C 168.551,506.263 167.884,503.929 167.5,501.5C 166.5,501.5 165.5,501.5 164.5,501.5C 164.167,498.5 162.5,496.833 159.5,496.5C 159.5,495.167 159.5,493.833 159.5,492.5C 158.5,492.5 157.5,492.5 156.5,492.5C 156.5,491.5 156.5,490.5 156.5,489.5C 153.043,489.04 151.377,487.04 151.5,483.5C 150.5,483.5 149.5,483.5 148.5,483.5C 148.5,482.5 148.5,481.5 148.5,480.5C 146.857,480.52 145.524,479.853 144.5,478.5C 142.456,474.256 141.122,469.922 140.5,465.5C 140.5,460.167 140.5,454.833 140.5,449.5C 143.957,449.96 145.623,451.96 145.5,455.5C 149.33,457 153.33,457.667 157.5,457.5C 157.5,455.833 157.5,454.167 157.5,452.5C 160.167,452.5 162.833,452.5 165.5,452.5C 165.5,451.167 165.5,449.833 165.5,448.5C 166.833,448.5 168.167,448.5 169.5,448.5 Z"/></g>
<g><path style="opacity:1" fill="#748fab" d="M 477.5,494.5 C 477.831,523.005 477.498,551.338 476.5,579.5C 474.435,575.868 472.769,572.034 471.5,568C 471.15,566.743 470.483,566.409 469.5,567C 463.063,574.229 460.396,582.729 461.5,592.5C 459.856,592.714 458.356,592.38 457,591.5C 449.168,575.842 448.501,559.842 455,543.5C 455.667,541.5 455.667,539.5 455,537.5C 451.003,533.513 448.003,528.846 446,523.5C 443.727,516.014 441.06,508.68 438,501.5C 433.092,494.927 428.592,488.094 424.5,481C 424.735,480.127 425.069,479.293 425.5,478.5C 428.106,477.348 430.773,477.182 433.5,478C 440.113,480.305 446.113,483.638 451.5,488C 460.662,488.4 469.329,490.567 477.5,494.5 Z"/></g>
<g><path style="opacity:1" fill="#6d8aab" d="M 477.5,494.5 C 484.225,497.521 490.225,501.521 495.5,506.5C 495.5,540.5 495.5,574.5 495.5,608.5C 487.439,600.067 481.106,590.401 476.5,579.5C 477.498,551.338 477.831,523.005 477.5,494.5 Z"/></g>
<g><path style="opacity:1" fill="#b5c4d0" d="M 140.5,465.5 C 141.122,469.922 142.456,474.256 144.5,478.5C 145.524,479.853 146.857,480.52 148.5,480.5C 148.5,481.5 148.5,482.5 148.5,483.5C 149.5,483.5 150.5,483.5 151.5,483.5C 151.377,487.04 153.043,489.04 156.5,489.5C 156.5,490.5 156.5,491.5 156.5,492.5C 157.5,492.5 158.5,492.5 159.5,492.5C 159.5,493.833 159.5,495.167 159.5,496.5C 162.5,496.833 164.167,498.5 164.5,501.5C 165.5,501.5 166.5,501.5 167.5,501.5C 167.884,503.929 168.551,506.263 169.5,508.5C 170.833,508.5 172.167,508.5 173.5,508.5C 173.5,509.833 173.5,511.167 173.5,512.5C 174.5,512.5 175.5,512.5 176.5,512.5C 177.776,515.336 178.442,518.336 178.5,521.5C 179.5,521.5 180.5,521.5 181.5,521.5C 181.5,523.833 181.5,526.167 181.5,528.5C 178.794,528.425 176.127,528.092 173.5,527.5C 173.5,529.5 173.5,531.5 173.5,533.5C 172.167,533.5 170.833,533.5 169.5,533.5C 169.5,534.833 169.5,536.167 169.5,537.5C 170.833,537.5 172.167,537.5 173.5,537.5C 175.727,540.819 177.393,544.486 178.5,548.5C 179.5,548.5 180.5,548.5 181.5,548.5C 182.449,550.737 183.116,553.071 183.5,555.5C 184.5,555.5 185.5,555.5 186.5,555.5C 186.5,557.167 186.5,558.833 186.5,560.5C 187.5,560.5 188.5,560.5 189.5,560.5C 189.831,562.322 190.498,563.989 191.5,565.5C 189.744,566.552 189.077,568.219 189.5,570.5C 186.833,570.5 184.167,570.5 181.5,570.5C 181.5,572.167 181.5,573.833 181.5,575.5C 179.833,575.5 178.167,575.5 176.5,575.5C 176.179,573.952 175.179,573.285 173.5,573.5C 173.5,571.833 173.5,570.167 173.5,568.5C 172.167,568.5 170.833,568.5 169.5,568.5C 168.551,566.263 167.884,563.929 167.5,561.5C 166.5,561.5 165.5,561.5 164.5,561.5C 163.551,559.263 162.884,556.929 162.5,554.5C 161.5,554.5 160.5,554.5 159.5,554.5C 159.5,553.167 159.5,551.833 159.5,550.5C 158.5,550.5 157.5,550.5 156.5,550.5C 156.5,549.5 156.5,548.5 156.5,547.5C 155.5,547.5 154.5,547.5 153.5,547.5C 153.116,545.071 152.449,542.737 151.5,540.5C 150.5,540.5 149.5,540.5 148.5,540.5C 148.5,539.167 148.5,537.833 148.5,536.5C 147.5,536.5 146.5,536.5 145.5,536.5C 145.5,533.833 145.5,531.167 145.5,528.5C 144.5,528.5 143.5,528.5 142.5,528.5C 142.819,523.637 142.486,518.97 141.5,514.5C 141.617,498.154 141.283,481.821 140.5,465.5 Z"/></g>
<g><path style="opacity:1" fill="#0b586f" d="M 455.5,502.5 C 460.613,500.389 463.946,502.056 465.5,507.5C 465.196,509.441 464.363,511.107 463,512.5C 461.021,508.7 458.521,505.366 455.5,502.5 Z"/></g>
<g><path style="opacity:1" fill="#c9cece" d="M 257.5,397.5 C 257.5,397.833 257.5,398.167 257.5,398.5C 251.833,398.5 246.167,398.5 240.5,398.5C 240.5,436.5 240.5,474.5 240.5,512.5C 240.5,520.167 240.5,527.833 240.5,535.5C 239.167,535.5 237.833,535.5 236.5,535.5C 236.5,537.167 236.5,538.833 236.5,540.5C 233.833,540.5 231.167,540.5 228.5,540.5C 228.5,542.167 228.5,543.833 228.5,545.5C 225.833,545.5 223.167,545.5 220.5,545.5C 220.5,546.833 220.5,548.167 220.5,549.5C 219.539,547.735 219.205,545.735 219.5,543.5C 218.5,543.5 217.5,543.5 216.5,543.5C 216.5,542.5 216.5,541.5 216.5,540.5C 215.5,540.5 214.5,540.5 213.5,540.5C 212.833,537.167 212.167,533.833 211.5,530.5C 210.5,530.5 209.5,530.5 208.5,530.5C 208.072,527.436 207.406,524.436 206.5,521.5C 205.5,521.5 204.5,521.5 203.5,521.5C 203.5,520.5 203.5,519.5 203.5,518.5C 202.5,518.5 201.5,518.5 200.5,518.5C 200.5,517.167 200.5,515.833 200.5,514.5C 199.5,514.5 198.5,514.5 197.5,514.5C 197.5,513.5 197.5,512.5 197.5,511.5C 196.5,511.5 195.5,511.5 194.5,511.5C 194.116,509.071 193.449,506.737 192.5,504.5C 191.5,504.5 190.5,504.5 189.5,504.5C 189.5,503.167 189.5,501.833 189.5,500.5C 188.5,500.5 187.5,500.5 186.5,500.5C 184.38,497.13 182.714,493.464 181.5,489.5C 180.5,489.5 179.5,489.5 178.5,489.5C 178.5,488.5 178.5,487.5 178.5,486.5C 179.5,486.5 180.5,486.5 181.5,486.5C 181.5,485.5 181.5,484.5 181.5,483.5C 184.167,483.5 186.833,483.5 189.5,483.5C 189.5,481.833 189.5,480.167 189.5,478.5C 191.167,478.5 192.833,478.5 194.5,478.5C 196.256,477.448 196.923,475.781 196.5,473.5C 199.167,473.833 201.833,474.167 204.5,474.5C 204.5,473.167 204.5,471.833 204.5,470.5C 207.5,470.5 210.5,470.5 213.5,470.5C 213.5,468.833 213.5,467.167 213.5,465.5C 215.833,465.5 218.167,465.5 220.5,465.5C 220.5,464.5 220.5,463.5 220.5,462.5C 223.167,462.5 225.833,462.5 228.5,462.5C 228.5,461.5 228.5,460.5 228.5,459.5C 231.167,459.5 233.833,459.5 236.5,459.5C 236.5,458.167 236.5,456.833 236.5,455.5C 237.5,455.5 238.5,455.5 239.5,455.5C 239.5,436.167 239.5,416.833 239.5,397.5C 245.5,397.5 251.5,397.5 257.5,397.5 Z"/></g>
<g><path style="opacity:1" fill="#6787ab" d="M 495.5,506.5 C 503.499,512.333 510.333,519.333 516,527.5C 517.705,529.577 518.872,531.91 519.5,534.5C 519.5,585.5 519.5,636.5 519.5,687.5C 518.883,687.389 518.383,687.056 518,686.5C 517.5,666.503 517.333,646.503 517.5,626.5C 511.833,626.5 506.167,626.5 500.5,626.5C 500.047,647.22 500.547,667.887 502,688.5C 505.767,695.421 511.6,699.421 519.5,700.5C 519.5,746.5 519.5,792.5 519.5,838.5C 517.173,838.665 515.007,839.331 513,840.5C 512.667,844.167 512.333,847.833 512,851.5C 509.947,852.267 508.447,853.6 507.5,855.5C 507.833,856.167 508.167,856.833 508.5,857.5C 510.5,856.5 512.5,855.5 514.5,854.5C 515.614,855.723 515.781,857.056 515,858.5C 513.5,859.333 512.333,860.5 511.5,862C 505.589,863.978 499.589,865.645 493.5,867C 492.619,867.708 491.953,868.542 491.5,869.5C 486.464,870.343 481.464,871.343 476.5,872.5C 477.602,870.908 476.935,870.075 474.5,870C 475.416,869.626 476.25,869.126 477,868.5C 477.83,862.804 477.663,857.137 476.5,851.5C 475.252,852.04 474.085,852.707 473,853.5C 472.691,852.234 472.191,851.067 471.5,850C 473.586,849.685 475.586,849.185 477.5,848.5C 484.251,847.449 490.918,845.949 497.5,844C 495.508,800.385 494.842,756.552 495.5,712.5C 496.506,712.062 496.506,711.396 495.5,710.5C 495.5,677.167 495.5,643.833 495.5,610.5C 495.5,609.833 495.5,609.167 495.5,608.5C 495.5,574.5 495.5,540.5 495.5,506.5 Z"/></g>
<g><path style="opacity:1" fill="#bec4c2" d="M 240.5,512.5 C 241.498,548.663 241.832,584.996 241.5,621.5C 240.5,621.5 239.5,621.5 238.5,621.5C 238.5,619.833 238.5,618.167 238.5,616.5C 235.167,616.5 231.833,616.5 228.5,616.5C 228.5,618.167 228.5,619.833 228.5,621.5C 226.5,621.5 224.5,621.5 222.5,621.5C 222.5,620.167 222.5,618.833 222.5,617.5C 221.5,617.5 220.5,617.5 219.5,617.5C 219.5,615.833 219.5,614.167 219.5,612.5C 218.5,612.5 217.5,612.5 216.5,612.5C 216.5,610.833 216.5,609.167 216.5,607.5C 215.5,607.5 214.5,607.5 213.5,607.5C 213.039,603.788 212.373,600.121 211.5,596.5C 210.325,596.719 209.325,596.386 208.5,595.5C 210.045,594.548 211.712,594.215 213.5,594.5C 213.5,592.833 213.5,591.167 213.5,589.5C 215.833,589.5 218.167,589.5 220.5,589.5C 220.261,585.158 219.927,580.824 219.5,576.5C 218.5,576.5 217.5,576.5 216.5,576.5C 216.5,575.5 216.5,574.5 216.5,573.5C 215.5,573.5 214.5,573.5 213.5,573.5C 212.627,569.879 211.961,566.212 211.5,562.5C 210.5,562.5 209.5,562.5 208.5,562.5C 207.551,560.263 206.884,557.929 206.5,555.5C 208.833,555.5 211.167,555.5 213.5,555.5C 213.5,553.833 213.5,552.167 213.5,550.5C 216.059,550.802 218.393,550.468 220.5,549.5C 220.5,548.167 220.5,546.833 220.5,545.5C 223.167,545.5 225.833,545.5 228.5,545.5C 228.5,543.833 228.5,542.167 228.5,540.5C 231.167,540.5 233.833,540.5 236.5,540.5C 236.5,538.833 236.5,537.167 236.5,535.5C 237.833,535.5 239.167,535.5 240.5,535.5C 240.5,527.833 240.5,520.167 240.5,512.5 Z"/></g>
<g><path style="opacity:1" fill="#5d7fa8" d="M 519.5,534.5 C 521.558,536.927 523.391,539.593 525,542.5C 530.118,555.403 535.784,568.07 542,580.5C 544.214,584.884 547.714,587.55 552.5,588.5C 552.5,622.167 552.5,655.833 552.5,689.5C 559.354,689.176 566.021,689.509 572.5,690.5C 556.163,690.667 539.83,690.5 523.5,690C 521.934,689.392 520.6,688.558 519.5,687.5C 519.5,636.5 519.5,585.5 519.5,534.5 Z"/></g>
<g><path style="opacity:1" fill="#a8b9c6" d="M 141.5,514.5 C 142.486,518.97 142.819,523.637 142.5,528.5C 143.5,528.5 144.5,528.5 145.5,528.5C 145.5,531.167 145.5,533.833 145.5,536.5C 146.5,536.5 147.5,536.5 148.5,536.5C 148.5,537.833 148.5,539.167 148.5,540.5C 149.5,540.5 150.5,540.5 151.5,540.5C 152.449,542.737 153.116,545.071 153.5,547.5C 154.5,547.5 155.5,547.5 156.5,547.5C 156.5,548.5 156.5,549.5 156.5,550.5C 157.5,550.5 158.5,550.5 159.5,550.5C 159.5,551.833 159.5,553.167 159.5,554.5C 160.5,554.5 161.5,554.5 162.5,554.5C 162.884,556.929 163.551,559.263 164.5,561.5C 165.5,561.5 166.5,561.5 167.5,561.5C 167.884,563.929 168.551,566.263 169.5,568.5C 170.833,568.5 172.167,568.5 173.5,568.5C 173.5,570.167 173.5,571.833 173.5,573.5C 175.179,573.285 176.179,573.952 176.5,575.5C 177.72,577.282 178.386,579.282 178.5,581.5C 179.5,581.5 180.5,581.5 181.5,581.5C 181.928,584.564 182.594,587.564 183.5,590.5C 184.5,590.5 185.5,590.5 186.5,590.5C 186.215,592.288 186.548,593.955 187.5,595.5C 189.759,598.358 191.759,601.358 193.5,604.5C 194.429,605.689 194.762,607.022 194.5,608.5C 195.5,608.5 196.5,608.5 197.5,608.5C 197.5,610.167 197.5,611.833 197.5,613.5C 198.5,613.5 199.5,613.5 200.5,613.5C 200.5,615.167 200.5,616.833 200.5,618.5C 201.5,618.5 202.5,618.5 203.5,618.5C 203.5,620.5 203.5,622.5 203.5,624.5C 206.059,624.198 208.393,624.532 210.5,625.5C 202.633,624.597 196.967,627.597 193.5,634.5C 192.549,633.081 192.216,631.415 192.5,629.5C 191.5,629.5 190.5,629.5 189.5,629.5C 189.5,628.167 189.5,626.833 189.5,625.5C 188.5,625.5 187.5,625.5 186.5,625.5C 186.5,623.833 186.5,622.167 186.5,620.5C 185.5,620.5 184.5,620.5 183.5,620.5C 183.799,618.396 183.466,616.396 182.5,614.5C 181.571,615.689 181.238,617.022 181.5,618.5C 178.833,618.5 176.167,618.5 173.5,618.5C 173.5,620.833 173.5,623.167 173.5,625.5C 172.167,625.5 170.833,625.5 169.5,625.5C 168.594,622.564 167.928,619.564 167.5,616.5C 166.5,616.5 165.5,616.5 164.5,616.5C 164.623,612.96 162.957,610.96 159.5,610.5C 159.5,608.167 159.5,605.833 159.5,603.5C 158.5,603.5 157.5,603.5 156.5,603.5C 156.5,602.5 156.5,601.5 156.5,600.5C 155.5,600.5 154.5,600.5 153.5,600.5C 152.594,597.564 151.928,594.564 151.5,591.5C 150.5,591.5 149.5,591.5 148.5,591.5C 148.5,590.167 148.5,588.833 148.5,587.5C 147.5,587.5 146.5,587.5 145.5,587.5C 144.143,580.442 143.143,573.442 142.5,566.5C 142.344,549.162 142.011,531.829 141.5,514.5 Z"/></g>
<g><path style="opacity:1" fill="#b3bdc1" d="M 206.5,555.5 C 206.884,557.929 207.551,560.263 208.5,562.5C 209.5,562.5 210.5,562.5 211.5,562.5C 211.961,566.212 212.627,569.879 213.5,573.5C 214.5,573.5 215.5,573.5 216.5,573.5C 216.5,574.5 216.5,575.5 216.5,576.5C 217.5,576.5 218.5,576.5 219.5,576.5C 219.927,580.824 220.261,585.158 220.5,589.5C 218.167,589.5 215.833,589.5 213.5,589.5C 213.5,591.167 213.5,592.833 213.5,594.5C 211.712,594.215 210.045,594.548 208.5,595.5C 209.325,596.386 210.325,596.719 211.5,596.5C 212.373,600.121 213.039,603.788 213.5,607.5C 214.5,607.5 215.5,607.5 216.5,607.5C 216.5,609.167 216.5,610.833 216.5,612.5C 217.5,612.5 218.5,612.5 219.5,612.5C 219.5,614.167 219.5,615.833 219.5,617.5C 220.5,617.5 221.5,617.5 222.5,617.5C 222.5,618.833 222.5,620.167 222.5,621.5C 220.744,622.552 220.077,624.219 220.5,626.5C 221.833,626.5 223.167,626.5 224.5,626.5C 224.5,627.833 224.5,629.167 224.5,630.5C 220.459,627.315 215.792,625.649 210.5,625.5C 208.393,624.532 206.059,624.198 203.5,624.5C 203.5,622.5 203.5,620.5 203.5,618.5C 202.5,618.5 201.5,618.5 200.5,618.5C 200.5,616.833 200.5,615.167 200.5,613.5C 199.5,613.5 198.5,613.5 197.5,613.5C 197.5,611.833 197.5,610.167 197.5,608.5C 196.5,608.5 195.5,608.5 194.5,608.5C 194.762,607.022 194.429,605.689 193.5,604.5C 191.759,601.358 189.759,598.358 187.5,595.5C 186.548,593.955 186.215,592.288 186.5,590.5C 185.5,590.5 184.5,590.5 183.5,590.5C 182.594,587.564 181.928,584.564 181.5,581.5C 180.5,581.5 179.5,581.5 178.5,581.5C 178.386,579.282 177.72,577.282 176.5,575.5C 178.167,575.5 179.833,575.5 181.5,575.5C 181.5,573.833 181.5,572.167 181.5,570.5C 184.167,570.5 186.833,570.5 189.5,570.5C 189.077,568.219 189.744,566.552 191.5,565.5C 193.167,565.5 194.833,565.5 196.5,565.5C 196.5,563.833 196.5,562.167 196.5,560.5C 199.167,560.5 201.833,560.5 204.5,560.5C 204.077,558.219 204.744,556.552 206.5,555.5 Z"/></g>
<g><path style="opacity:1" fill="#708aa8" d="M 495.5,610.5 C 495.5,643.833 495.5,677.167 495.5,710.5C 491.002,706.17 486.335,702.003 481.5,698C 486.062,696.373 488.895,693.206 490,688.5C 490.667,671.833 490.667,655.167 490,638.5C 485.864,631.51 479.698,627.677 471.5,627C 468.518,626.502 465.518,626.335 462.5,626.5C 462.5,617.833 462.5,609.167 462.5,600.5C 461.209,600.737 460.209,600.404 459.5,599.5C 462.652,600.041 465.152,599.041 467,596.5C 468.029,591.464 469.195,586.464 470.5,581.5C 476.326,593.326 484.66,602.993 495.5,610.5 Z"/></g>
<g><path style="opacity:1" fill="#557aa7" d="M 552.5,588.5 C 565.408,592.238 576.741,598.738 586.5,608C 580.485,608.535 574.485,609.201 568.5,610C 564.427,610.907 560.761,612.574 557.5,615C 561.716,623.383 568.049,629.55 576.5,633.5C 576.5,652.167 576.5,670.833 576.5,689.5C 579.713,689.19 582.713,689.523 585.5,690.5C 581.988,689.945 578.988,690.612 576.5,692.5C 576.667,732.835 576.5,773.168 576,813.5C 574.333,814.733 572.833,816.067 571.5,817.5C 567.038,819.731 562.371,821.398 557.5,822.5C 557.5,782.167 557.5,741.833 557.5,701.5C 562.5,701.5 567.5,701.5 572.5,701.5C 572.5,697.833 572.5,694.167 572.5,690.5C 566.021,689.509 559.354,689.176 552.5,689.5C 552.5,655.833 552.5,622.167 552.5,588.5 Z"/></g>
<g><path style="opacity:1" fill="#214b87" d="M 133.5,625.5 C 137.909,626.203 141.576,628.203 144.5,631.5C 152.654,650.479 160.821,669.479 169,688.5C 177.649,670.72 185.816,652.72 193.5,634.5C 196.967,627.597 202.633,624.597 210.5,625.5C 215.792,625.649 220.459,627.315 224.5,630.5C 225.48,654.122 225.813,677.788 225.5,701.5C 221.5,701.5 217.5,701.5 213.5,701.5C 212.167,701.5 210.833,701.5 209.5,701.5C 209.667,680.497 209.5,659.497 209,638.5C 204.264,647.966 200.098,657.633 196.5,667.5C 191.261,677.646 186.261,687.98 181.5,698.5C 179.287,699.773 176.954,700.773 174.5,701.5C 167.044,703.057 160.877,701.057 156,695.5C 152.819,688.474 149.652,681.474 146.5,674.5C 141.503,663.171 136.503,651.838 131.5,640.5C 131.217,639.711 130.717,639.044 130,638.5C 129.5,659.164 129.333,679.831 129.5,700.5C 124.167,700.5 118.833,700.5 113.5,700.5C 113.178,677.425 113.511,654.425 114.5,631.5C 115.364,630.312 116.364,629.145 117.5,628C 122.595,625.823 127.928,624.99 133.5,625.5 Z"/></g>
<g><path style="opacity:0.093" fill="#000000" d="M 673.5,626.5 C 701.146,646.46 721.646,672.127 735,703.5C 749.034,745.594 743.034,784.594 717,820.5C 695.405,848.437 669.238,870.937 638.5,888C 584.308,917.304 526.641,936.304 465.5,945C 368.594,959.784 272.928,954.117 178.5,928C 125.091,913.298 77.0906,888.632 34.5,854C 28,847.5 21.5,841 15,834.5C 9.58736,827.933 4.42069,821.267 -0.5,814.5C -0.5,768.167 -0.5,721.833 -0.5,675.5C 11.7247,657.94 26.3913,642.606 43.5,629.5C 43.3333,675.168 43.5,720.835 44,766.5C 45.3329,781.672 50.4995,795.338 59.5,807.5C 64.2901,813.461 69.2901,819.294 74.5,825C 99.319,846.249 127.319,862.082 158.5,872.5C 184.892,882.933 212.226,890.267 240.5,894.5C 266.113,899.68 292.113,902.68 318.5,903.5C 342.997,904.663 367.663,904.83 392.5,904C 407.738,903.41 422.738,901.91 437.5,899.5C 473.632,895.967 508.965,888.633 543.5,877.5C 562.258,871.45 580.258,863.783 597.5,854.5C 622.577,843.269 643.41,826.602 660,804.5C 666.691,794.427 671.024,783.427 673,771.5C 673.5,723.168 673.667,674.834 673.5,626.5 Z"/></g>
<g><path style="opacity:1" fill="#f27a08" d="M 359.5,626.5 C 366.167,626.5 372.833,626.5 379.5,626.5C 385.5,626.5 391.5,626.5 397.5,626.5C 398.5,626.5 399.5,626.5 400.5,626.5C 400.5,630.167 400.5,633.833 400.5,637.5C 383.163,637.333 365.83,637.5 348.5,638C 345.08,640.153 343.747,643.319 344.5,647.5C 343.644,652.287 345.311,655.787 349.5,658C 361.215,658.112 372.881,658.779 384.5,660C 391.366,661.26 396.699,664.76 400.5,670.5C 400.666,676.176 400.499,681.843 400,687.5C 399.634,689.452 398.801,691.118 397.5,692.5C 392.284,697.108 386.284,700.108 379.5,701.5C 372.833,701.5 366.167,701.5 359.5,701.5C 352.167,701.5 344.833,701.5 337.5,701.5C 334.5,701.5 331.5,701.5 328.5,701.5C 328.5,697.833 328.5,694.167 328.5,690.5C 345.009,690.83 361.342,690.496 377.5,689.5C 379.679,689.16 381.512,688.16 383,686.5C 383.667,681.833 383.667,677.167 383,672.5C 382.167,671.667 381.333,670.833 380.5,670C 368.217,668.788 355.884,667.955 343.5,667.5C 328.726,662.093 324.226,651.76 330,636.5C 332.695,633.241 335.861,630.575 339.5,628.5C 346.046,626.868 352.713,626.201 359.5,626.5 Z"/></g>
<g><path style="opacity:1" fill="#f37904" d="M 462.5,626.5 C 465.518,626.335 468.518,626.502 471.5,627C 479.698,627.677 485.864,631.51 490,638.5C 490.667,655.167 490.667,671.833 490,688.5C 488.895,693.206 486.062,696.373 481.5,698C 486.335,702.003 491.002,706.17 495.5,710.5C 496.506,711.396 496.506,712.062 495.5,712.5C 489.833,712.5 484.167,712.5 478.5,712.5C 474.526,708.862 470.526,705.195 466.5,701.5C 457.688,701.199 448.688,701.199 439.5,701.5C 432.075,702.192 425.075,700.859 418.5,697.5C 414.713,695.203 412.213,691.869 411,687.5C 410.333,671.5 410.333,655.5 411,639.5C 412.642,635.7 415.142,632.7 418.5,630.5C 421.979,628.878 425.645,627.711 429.5,627C 440.495,626.5 451.495,626.333 462.5,626.5 Z"/></g>
<g><path style="opacity:1" fill="#ef790e" d="M 519.5,687.5 C 520.6,688.558 521.934,689.392 523.5,690C 539.83,690.5 556.163,690.667 572.5,690.5C 572.5,694.167 572.5,697.833 572.5,701.5C 567.5,701.5 562.5,701.5 557.5,701.5C 550.833,701.5 544.167,701.5 537.5,701.5C 531.464,701.64 525.464,701.307 519.5,700.5C 511.6,699.421 505.767,695.421 502,688.5C 500.547,667.887 500.047,647.22 500.5,626.5C 506.167,626.5 511.833,626.5 517.5,626.5C 517.333,646.503 517.5,666.503 518,686.5C 518.383,687.056 518.883,687.389 519.5,687.5 Z"/></g>
<g><path style="opacity:1" fill="#9cb1c0" d="M 142.5,566.5 C 143.143,573.442 144.143,580.442 145.5,587.5C 146.5,587.5 147.5,587.5 148.5,587.5C 148.5,588.833 148.5,590.167 148.5,591.5C 149.5,591.5 150.5,591.5 151.5,591.5C 151.928,594.564 152.594,597.564 153.5,600.5C 154.5,600.5 155.5,600.5 156.5,600.5C 156.5,601.5 156.5,602.5 156.5,603.5C 157.5,603.5 158.5,603.5 159.5,603.5C 159.5,605.833 159.5,608.167 159.5,610.5C 162.957,610.96 164.623,612.96 164.5,616.5C 165.5,616.5 166.5,616.5 167.5,616.5C 167.928,619.564 168.594,622.564 169.5,625.5C 170.833,625.5 172.167,625.5 173.5,625.5C 173.5,623.167 173.5,620.833 173.5,618.5C 176.167,618.5 178.833,618.5 181.5,618.5C 181.238,617.022 181.571,615.689 182.5,614.5C 183.466,616.396 183.799,618.396 183.5,620.5C 184.5,620.5 185.5,620.5 186.5,620.5C 186.5,622.167 186.5,623.833 186.5,625.5C 187.5,625.5 188.5,625.5 189.5,625.5C 189.5,626.833 189.5,628.167 189.5,629.5C 190.5,629.5 191.5,629.5 192.5,629.5C 192.216,631.415 192.549,633.081 193.5,634.5C 185.816,652.72 177.649,670.72 169,688.5C 160.821,669.479 152.654,650.479 144.5,631.5C 143.237,609.861 142.57,588.195 142.5,566.5 Z"/></g>
<g><path style="opacity:1" fill="#b1b9b7" d="M 222.5,621.5 C 225.396,624.905 227.063,628.905 227.5,633.5C 228.5,633.5 229.5,633.5 230.5,633.5C 230.5,635.833 230.5,638.167 230.5,640.5C 231.5,640.5 232.5,640.5 233.5,640.5C 233.5,709.833 233.5,779.167 233.5,848.5C 227.205,846.676 220.872,845.01 214.5,843.5C 213.505,796.239 213.172,748.905 213.5,701.5C 217.5,701.5 221.5,701.5 225.5,701.5C 225.813,677.788 225.48,654.122 224.5,630.5C 224.5,629.167 224.5,627.833 224.5,626.5C 223.167,626.5 221.833,626.5 220.5,626.5C 220.077,624.219 220.744,622.552 222.5,621.5 Z"/></g>
<g><path style="opacity:1" fill="#8fa0ae" d="M 400.5,637.5 C 400.5,648.5 400.5,659.5 400.5,670.5C 396.699,664.76 391.366,661.26 384.5,660C 372.881,658.779 361.215,658.112 349.5,658C 345.311,655.787 343.644,652.287 344.5,647.5C 343.747,643.319 345.08,640.153 348.5,638C 365.83,637.5 383.163,637.333 400.5,637.5 Z"/></g>
<g><path style="opacity:1" fill="#7b91aa" d="M 434.5,637.5 C 445.838,637.333 457.172,637.5 468.5,638C 470.519,638.45 472.352,639.283 474,640.5C 475.136,648.234 475.636,656.068 475.5,664C 475.333,671.167 475.167,678.333 475,685.5C 474.388,688.032 472.888,688.865 470.5,688C 466.868,685.37 463.535,682.37 460.5,679C 454.167,678.333 447.833,678.333 441.5,679C 445.8,682.298 449.8,685.965 453.5,690C 447.167,690.667 440.833,690.667 434.5,690C 431,689.167 428.833,687 428,683.5C 427.333,670.167 427.333,656.833 428,643.5C 429.494,640.686 431.66,638.686 434.5,637.5 Z"/></g>
<g><path style="opacity:1" fill="#92abc2" d="M 131.5,640.5 C 136.503,651.838 141.503,663.171 146.5,674.5C 145.501,721.997 145.168,769.664 145.5,817.5C 139.978,814.877 134.644,811.877 129.5,808.5C 129.5,772.833 129.5,737.167 129.5,701.5C 130.167,681.167 130.833,660.833 131.5,640.5 Z"/></g>
<g><path style="opacity:1" fill="#aab6ba" d="M 213.5,701.5 C 213.172,748.905 213.505,796.239 214.5,843.5C 208.51,841.841 202.51,840.174 196.5,838.5C 196.5,781.5 196.5,724.5 196.5,667.5C 200.098,657.633 204.264,647.966 209,638.5C 209.5,659.497 209.667,680.497 209.5,701.5C 210.833,701.5 212.167,701.5 213.5,701.5 Z"/></g>
<g><path style="opacity:1" fill="#234b87" d="M 256.5,687.5 C 257.058,688.79 258.058,689.623 259.5,690C 265.825,690.5 272.158,690.666 278.5,690.5C 285.167,690.5 291.833,690.5 298.5,690.5C 298.833,690.5 299.167,690.5 299.5,690.5C 300.496,677.01 300.829,663.344 300.5,649.5C 305.5,649.5 310.5,649.5 315.5,649.5C 315.5,669.167 315.5,688.833 315.5,708.5C 314.535,714.97 310.868,719.136 304.5,721C 301.322,721.66 298.322,722.493 295.5,723.5C 286.167,723.5 276.833,723.5 267.5,723.5C 258.167,723.5 248.833,723.5 239.5,723.5C 239.5,719.833 239.5,716.167 239.5,712.5C 257.836,712.667 276.17,712.5 294.5,712C 296.081,711.293 297.581,710.46 299,709.5C 299.498,706.518 299.665,703.518 299.5,700.5C 285.163,700.667 270.829,700.5 256.5,700C 249.564,698.623 244.064,695.123 240,689.5C 239.5,676.171 239.333,662.837 239.5,649.5C 244.833,649.5 250.167,649.5 255.5,649.5C 255.171,662.344 255.505,675.011 256.5,687.5 Z"/></g>
<g><path style="opacity:1" fill="#5a7699" d="M 315.5,708.5 C 315.5,688.833 315.5,669.167 315.5,649.5C 310.5,649.5 305.5,649.5 300.5,649.5C 300.829,663.344 300.496,677.01 299.5,690.5C 299.5,676.5 299.5,662.5 299.5,648.5C 305.167,648.5 310.833,648.5 316.5,648.5C 316.83,668.674 316.497,688.674 315.5,708.5 Z"/></g>
<g><path style="opacity:1" fill="#a5b3bc" d="M 196.5,667.5 C 196.5,724.5 196.5,781.5 196.5,838.5C 195.833,838.167 195.167,837.833 194.5,837.5C 190.121,836.322 185.788,834.988 181.5,833.5C 181.5,788.5 181.5,743.5 181.5,698.5C 186.261,687.98 191.261,677.646 196.5,667.5 Z"/></g>
<g><path style="opacity:1" fill="#94a3b0" d="M 343.5,667.5 C 355.884,667.955 368.217,668.788 380.5,670C 381.333,670.833 382.167,671.667 383,672.5C 383.667,677.167 383.667,681.833 383,686.5C 381.512,688.16 379.679,689.16 377.5,689.5C 365.833,689.5 354.167,689.5 342.5,689.5C 342.175,681.981 342.508,674.648 343.5,667.5 Z"/></g>
<g><path style="opacity:1" fill="#98aec0" d="M 146.5,674.5 C 149.652,681.474 152.819,688.474 156,695.5C 160.877,701.057 167.044,703.057 174.5,701.5C 171.375,702.479 168.042,702.813 164.5,702.5C 164.5,743.833 164.5,785.167 164.5,826.5C 161.833,825.5 159.167,824.5 156.5,823.5C 152.875,821.57 149.208,819.57 145.5,817.5C 145.168,769.664 145.501,721.997 146.5,674.5 Z"/></g>
<g><path style="opacity:1" fill="#e47918" d="M 585.5,690.5 C 585.179,692.048 584.179,692.715 582.5,692.5C 582.5,695.167 582.5,697.833 582.5,700.5C 580.902,698.143 579.902,695.477 579.5,692.5C 578.5,692.5 577.5,692.5 576.5,692.5C 578.988,690.612 581.988,689.945 585.5,690.5 Z"/></g>
<g><path style="opacity:1" fill="#ec780e" d="M 588.5,690.5 C 591.714,691.528 593.548,693.862 594,697.5C 594.931,695.541 595.764,693.541 596.5,691.5C 597.325,690.614 598.325,690.281 599.5,690.5C 599.665,693.85 599.498,697.183 599,700.5C 598.667,698.167 598.333,695.833 598,693.5C 596.961,694.244 596.461,695.244 596.5,696.5C 594.308,703.051 592.641,702.717 591.5,695.5C 591.217,694.711 590.717,694.044 590,693.5C 589.667,695.833 589.333,698.167 589,700.5C 588.502,697.183 588.335,693.85 588.5,690.5 Z"/></g>
<g><path style="opacity:1" fill="#5077a8" d="M 576.5,633.5 C 585.024,637.257 592.69,642.257 599.5,648.5C 599.185,662.579 599.518,676.579 600.5,690.5C 600.167,690.5 599.833,690.5 599.5,690.5C 598.325,690.281 597.325,690.614 596.5,691.5C 595.764,693.541 594.931,695.541 594,697.5C 593.548,693.862 591.714,691.528 588.5,690.5C 587.518,693.962 587.185,697.629 587.5,701.5C 588.5,701.5 589.5,701.5 590.5,701.5C 590.205,699.265 590.539,697.265 591.5,695.5C 592.641,702.717 594.308,703.051 596.5,696.5C 596.972,698.531 597.972,700.198 599.5,701.5C 599.248,739.863 599.748,778.197 601,816.5C 599.915,817.293 598.748,817.96 597.5,818.5C 596.679,821.447 596.179,824.447 596,827.5C 592.629,829.7 589.129,831.7 585.5,833.5C 584.571,834.689 584.238,836.022 584.5,837.5C 575.873,842.268 566.873,846.268 557.5,849.5C 558.031,847.376 559.365,845.876 561.5,845C 565.093,843.219 568.76,841.719 572.5,840.5C 572.335,837.15 572.502,833.817 573,830.5C 576.075,829.531 577.075,827.531 576,824.5C 574.247,825.627 572.413,826.627 570.5,827.5C 569.386,826.277 569.219,824.944 570,823.5C 572.447,821.838 572.947,819.838 571.5,817.5C 572.833,816.067 574.333,814.733 576,813.5C 576.5,773.168 576.667,732.835 576.5,692.5C 577.5,692.5 578.5,692.5 579.5,692.5C 579.5,695.5 579.5,698.5 579.5,701.5C 580.791,701.737 581.791,701.404 582.5,700.5C 582.5,697.833 582.5,695.167 582.5,692.5C 584.179,692.715 585.179,692.048 585.5,690.5C 582.713,689.523 579.713,689.19 576.5,689.5C 576.5,670.833 576.5,652.167 576.5,633.5 Z"/></g>
<g><path style="opacity:1" fill="#9f7856" d="M 579.5,692.5 C 579.902,695.477 580.902,698.143 582.5,700.5C 581.791,701.404 580.791,701.737 579.5,701.5C 579.5,698.5 579.5,695.5 579.5,692.5 Z"/></g>
<g><path style="opacity:1" fill="#8c9eaf" d="M 397.5,692.5 C 397.5,748.167 397.5,803.833 397.5,859.5C 391.5,859.833 385.5,860.167 379.5,860.5C 379.5,807.5 379.5,754.5 379.5,701.5C 386.284,700.108 392.284,697.108 397.5,692.5 Z"/></g>
<g><path style="opacity:1" fill="#a8774c" d="M 588.5,690.5 C 588.335,693.85 588.502,697.183 589,700.5C 589.333,698.167 589.667,695.833 590,693.5C 590.717,694.044 591.217,694.711 591.5,695.5C 590.539,697.265 590.205,699.265 590.5,701.5C 589.5,701.5 588.5,701.5 587.5,701.5C 587.185,697.629 587.518,693.962 588.5,690.5 Z"/></g>
<g><path style="opacity:1" fill="#ad7647" d="M 599.5,690.5 C 599.833,690.5 600.167,690.5 600.5,690.5C 600.815,694.371 600.482,698.038 599.5,701.5C 597.972,700.198 596.972,698.531 596.5,696.5C 596.461,695.244 596.961,694.244 598,693.5C 598.333,695.833 598.667,698.167 599,700.5C 599.498,697.183 599.665,693.85 599.5,690.5 Z"/></g>
<g><path style="opacity:1" fill="#8098af" d="M 418.5,697.5 C 425.075,700.859 432.075,702.192 439.5,701.5C 439.5,752.5 439.5,803.5 439.5,854.5C 435.089,856.13 430.422,857.13 425.5,857.5C 425.173,862.214 425.507,866.88 426.5,871.5C 428.167,869.833 429.167,870.167 429.5,872.5C 428.946,874.628 427.613,876.128 425.5,877C 430.019,877.175 434.353,877.675 438.5,878.5C 438.167,878.5 437.833,878.5 437.5,878.5C 422.19,880.013 406.857,881.346 391.5,882.5C 385.799,882.076 380.133,881.076 374.5,879.5C 373.914,879.709 373.414,880.043 373,880.5C 372.5,874.175 372.334,867.842 372.5,861.5C 373.791,861.737 374.791,861.404 375.5,860.5C 376.833,860.5 378.167,860.5 379.5,860.5C 385.5,860.167 391.5,859.833 397.5,859.5C 404.224,859.326 410.891,858.659 417.5,857.5C 417.168,803.997 417.501,750.664 418.5,697.5 Z"/></g>
<g><path style="opacity:1" fill="#9fb1be" d="M 181.5,698.5 C 181.5,743.5 181.5,788.5 181.5,833.5C 175.715,831.44 170.048,829.107 164.5,826.5C 164.5,785.167 164.5,743.833 164.5,702.5C 168.042,702.813 171.375,702.479 174.5,701.5C 176.954,700.773 179.287,699.773 181.5,698.5 Z"/></g>
<g><path style="opacity:1" fill="#6182aa" d="M 519.5,700.5 C 525.464,701.307 531.464,701.64 537.5,701.5C 537.5,744.833 537.5,788.167 537.5,831.5C 540.167,830.833 542.833,830.167 545.5,829.5C 545.335,832.85 545.502,836.183 546,839.5C 549.386,836.299 550.719,836.965 550,841.5C 546.273,843.609 544.606,846.942 545,851.5C 542.808,852.399 540.642,853.399 538.5,854.5C 537.702,854.957 537.369,855.624 537.5,856.5C 522.372,861.592 507.039,865.925 491.5,869.5C 491.953,868.542 492.619,867.708 493.5,867C 499.589,865.645 505.589,863.978 511.5,862C 512.333,860.5 513.5,859.333 515,858.5C 515.781,857.056 515.614,855.723 514.5,854.5C 512.5,855.5 510.5,856.5 508.5,857.5C 508.167,856.833 507.833,856.167 507.5,855.5C 508.447,853.6 509.947,852.267 512,851.5C 512.333,847.833 512.667,844.167 513,840.5C 515.007,839.331 517.173,838.665 519.5,838.5C 519.5,792.5 519.5,746.5 519.5,700.5 Z"/></g>
<g><path style="opacity:1" fill="#8ca9c5" d="M 129.5,701.5 C 129.5,737.167 129.5,772.833 129.5,808.5C 124.555,805.555 119.888,802.221 115.5,798.5C 114.833,797.833 114.167,797.167 113.5,796.5C 113.5,764.833 113.5,733.167 113.5,701.5C 118.833,701.5 124.167,701.5 129.5,701.5 Z"/></g>
<g><path style="opacity:1" fill="#98a7b1" d="M 337.5,701.5 C 344.833,701.5 352.167,701.5 359.5,701.5C 359.5,754.5 359.5,807.5 359.5,860.5C 352.167,860.5 344.833,860.5 337.5,860.5C 337.5,807.5 337.5,754.5 337.5,701.5 Z"/></g>
<g><path style="opacity:1" fill="#92a2b0" d="M 359.5,701.5 C 366.167,701.5 372.833,701.5 379.5,701.5C 379.5,754.5 379.5,807.5 379.5,860.5C 378.167,860.5 376.833,860.5 375.5,860.5C 370.167,860.5 364.833,860.5 359.5,860.5C 359.5,807.5 359.5,754.5 359.5,701.5 Z"/></g>
<g><path style="opacity:1" fill="#7992ac" d="M 466.5,701.5 C 464.167,701.5 461.833,701.5 459.5,701.5C 459.5,751.833 459.5,802.167 459.5,852.5C 452.859,853.386 446.192,854.053 439.5,854.5C 439.5,803.5 439.5,752.5 439.5,701.5C 448.688,701.199 457.688,701.199 466.5,701.5 Z"/></g>
<g><path style="opacity:1" fill="#748fad" d="M 466.5,701.5 C 470.526,705.195 474.526,708.862 478.5,712.5C 477.501,757.664 477.168,802.997 477.5,848.5C 475.586,849.185 473.586,849.685 471.5,850C 472.191,851.067 472.691,852.234 473,853.5C 474.085,852.707 475.252,852.04 476.5,851.5C 477.663,857.137 477.83,862.804 477,868.5C 476.25,869.126 475.416,869.626 474.5,870C 476.935,870.075 477.602,870.908 476.5,872.5C 463.813,874.408 451.146,876.408 438.5,878.5C 434.353,877.675 430.019,877.175 425.5,877C 427.613,876.128 428.946,874.628 429.5,872.5C 429.167,870.167 428.167,869.833 426.5,871.5C 425.507,866.88 425.173,862.214 425.5,857.5C 430.422,857.13 435.089,856.13 439.5,854.5C 446.192,854.053 452.859,853.386 459.5,852.5C 459.5,802.167 459.5,751.833 459.5,701.5C 461.833,701.5 464.167,701.5 466.5,701.5 Z"/></g>
<g><path style="opacity:1" fill="#5a7ea9" d="M 537.5,701.5 C 544.167,701.5 550.833,701.5 557.5,701.5C 557.5,741.833 557.5,782.167 557.5,822.5C 562.371,821.398 567.038,819.731 571.5,817.5C 572.947,819.838 572.447,821.838 570,823.5C 569.219,824.944 569.386,826.277 570.5,827.5C 572.413,826.627 574.247,825.627 576,824.5C 577.075,827.531 576.075,829.531 573,830.5C 572.502,833.817 572.335,837.15 572.5,840.5C 568.76,841.719 565.093,843.219 561.5,845C 559.365,845.876 558.031,847.376 557.5,849.5C 553.088,850.97 548.755,852.637 544.5,854.5C 542.167,855.167 539.833,855.833 537.5,856.5C 537.369,855.624 537.702,854.957 538.5,854.5C 540.642,853.399 542.808,852.399 545,851.5C 544.606,846.942 546.273,843.609 550,841.5C 550.719,836.965 549.386,836.299 546,839.5C 545.502,836.183 545.335,832.85 545.5,829.5C 542.833,830.167 540.167,830.833 537.5,831.5C 537.5,788.167 537.5,744.833 537.5,701.5 Z"/></g>
<g><path style="opacity:1" fill="#6d8aab" d="M 478.5,712.5 C 484.167,712.5 489.833,712.5 495.5,712.5C 494.842,756.552 495.508,800.385 497.5,844C 490.918,845.949 484.251,847.449 477.5,848.5C 477.168,802.997 477.501,757.664 478.5,712.5 Z"/></g>
<g><path style="opacity:1" fill="#a5afb2" d="M 318.5,395.5 C 317.502,550.097 317.168,704.763 317.5,859.5C 309.618,859.639 301.951,858.972 294.5,857.5C 295.833,857.5 297.167,857.5 298.5,857.5C 298.5,812.833 298.5,768.167 298.5,723.5C 297.5,723.5 296.5,723.5 295.5,723.5C 298.322,722.493 301.322,721.66 304.5,721C 310.868,719.136 314.535,714.97 315.5,708.5C 316.497,688.674 316.83,668.674 316.5,648.5C 310.833,648.5 305.167,648.5 299.5,648.5C 299.5,662.5 299.5,676.5 299.5,690.5C 299.167,690.5 298.833,690.5 298.5,690.5C 298.5,592.5 298.5,494.5 298.5,396.5C 305.18,396.388 311.847,396.054 318.5,395.5 Z"/></g>
<g><path style="opacity:1" fill="#abb3b3" d="M 267.5,723.5 C 276.833,723.5 286.167,723.5 295.5,723.5C 296.5,723.5 297.5,723.5 298.5,723.5C 298.5,768.167 298.5,812.833 298.5,857.5C 297.167,857.5 295.833,857.5 294.5,857.5C 291.5,857.5 288.5,857.5 285.5,857.5C 283.167,856.833 280.833,856.167 278.5,855.5C 278.5,811.833 278.5,768.167 278.5,724.5C 274.629,724.815 270.962,724.482 267.5,723.5 Z"/></g>
<g><path style="opacity:1" fill="#769eca" d="M 85.5,325.5 C 86.1667,325.5 86.5,325.833 86.5,326.5C 86.3333,469.834 86.5,613.167 87,756.5C 89.0641,767.969 94.2308,777.636 102.5,785.5C 105.833,789.5 109.5,793.167 113.5,796.5C 114.167,797.167 114.833,797.833 115.5,798.5C 115.318,800.675 114.651,802.675 113.5,804.5C 114.167,805.833 114.833,807.167 115.5,808.5C 113.804,812.317 113.137,816.317 113.5,820.5C 111.345,820.628 109.345,820.128 107.5,819C 104,816.167 100.5,813.333 97,810.5C 96.51,811.793 96.3433,813.127 96.5,814.5C 82.6907,804.522 72.8574,791.522 67,775.5C 65.5615,770.238 65.2282,764.904 66,759.5C 67.2777,769.189 70.7777,777.855 76.5,785.5C 77.1667,785.167 77.8333,784.833 78.5,784.5C 79.1667,779.833 79.8333,775.167 80.5,770.5C 82.1667,769.667 83.8333,768.833 85.5,768C 86.5536,766.612 86.7203,765.112 86,763.5C 84.2467,764.627 82.4134,765.627 80.5,766.5C 78.4321,761.385 79.7654,757.718 84.5,755.5C 85.5,664.169 85.8333,572.836 85.5,481.5C 85.5,452.167 85.5,422.833 85.5,393.5C 85.5,370.833 85.5,348.167 85.5,325.5 Z"/></g>
<g><path style="opacity:1" fill="#85a5c6" d="M 115.5,798.5 C 119.888,802.221 124.555,805.555 129.5,808.5C 134.644,811.877 139.978,814.877 145.5,817.5C 149.208,819.57 152.875,821.57 156.5,823.5C 156.665,826.85 156.498,830.183 156,833.5C 155.586,833.957 155.086,834.291 154.5,834.5C 153.833,837.833 153.167,841.167 152.5,844.5C 150.941,843.553 149.274,842.887 147.5,842.5C 146.287,842.747 145.62,843.414 145.5,844.5C 127.321,837.257 110.988,827.257 96.5,814.5C 96.3433,813.127 96.51,811.793 97,810.5C 100.5,813.333 104,816.167 107.5,819C 109.345,820.128 111.345,820.628 113.5,820.5C 113.137,816.317 113.804,812.317 115.5,808.5C 114.833,807.167 114.167,805.833 113.5,804.5C 114.651,802.675 115.318,800.675 115.5,798.5 Z"/></g>
<g><path style="opacity:1" fill="#91aac2" d="M 156.5,823.5 C 159.167,824.5 161.833,825.5 164.5,826.5C 170.048,829.107 175.715,831.44 181.5,833.5C 185.788,834.988 190.121,836.322 194.5,837.5C 195.001,844.724 194.334,851.724 192.5,858.5C 189.26,858.232 186.094,857.566 183,856.5C 181.97,856.836 181.47,857.503 181.5,858.5C 174.536,856.01 167.536,853.677 160.5,851.5C 155.658,848.989 150.658,846.656 145.5,844.5C 145.62,843.414 146.287,842.747 147.5,842.5C 149.274,842.887 150.941,843.553 152.5,844.5C 153.167,841.167 153.833,837.833 154.5,834.5C 155.086,834.291 155.586,833.957 156,833.5C 156.498,830.183 156.665,826.85 156.5,823.5 Z"/></g>
<g><path style="opacity:1" fill="#9dafbe" d="M 194.5,837.5 C 195.167,837.833 195.833,838.167 196.5,838.5C 202.51,840.174 208.51,841.841 214.5,843.5C 220.872,845.01 227.205,846.676 233.5,848.5C 234.167,848.5 234.833,848.5 235.5,848.5C 235.804,849.15 236.137,849.817 236.5,850.5C 233.671,851.825 233.004,853.825 234.5,856.5C 235.086,856.291 235.586,855.957 236,855.5C 236.167,857 236.333,858.5 236.5,860C 235.586,863.311 234.253,866.478 232.5,869.5C 226.526,868.039 220.526,866.705 214.5,865.5C 213.702,865.957 213.369,866.624 213.5,867.5C 202.717,864.906 192.051,861.906 181.5,858.5C 181.47,857.503 181.97,856.836 183,856.5C 186.094,857.566 189.26,858.232 192.5,858.5C 194.334,851.724 195.001,844.724 194.5,837.5 Z"/></g>
<g><path style="opacity:1" fill="#2d5792" d="M 598.5,830.5 C 597.533,838.414 597.199,846.414 597.5,854.5C 580.258,863.783 562.258,871.45 543.5,877.5C 543.201,869.747 543.534,862.08 544.5,854.5C 548.755,852.637 553.088,850.97 557.5,849.5C 566.873,846.268 575.873,842.268 584.5,837.5C 589.193,835.153 593.86,832.82 598.5,830.5 Z"/></g>
<g><path style="opacity:1" fill="#a3b1ba" d="M 235.5,848.5 C 249.621,852.02 263.955,854.353 278.5,855.5C 280.833,856.167 283.167,856.833 285.5,857.5C 287.517,863.478 288.517,870.478 288.5,878.5C 293.196,878.671 297.863,879.171 302.5,880C 299.854,880.497 297.187,880.664 294.5,880.5C 278.055,879.403 261.721,877.403 245.5,874.5C 234.769,872.421 224.103,870.087 213.5,867.5C 213.369,866.624 213.702,865.957 214.5,865.5C 220.526,866.705 226.526,868.039 232.5,869.5C 234.253,866.478 235.586,863.311 236.5,860C 236.333,858.5 236.167,857 236,855.5C 235.586,855.957 235.086,856.291 234.5,856.5C 233.004,853.825 233.671,851.825 236.5,850.5C 236.137,849.817 235.804,849.15 235.5,848.5 Z"/></g>
<g><path style="opacity:1" fill="#92a6b7" d="M 285.5,857.5 C 288.5,857.5 291.5,857.5 294.5,857.5C 301.951,858.972 309.618,859.639 317.5,859.5C 324.159,859.954 330.826,860.287 337.5,860.5C 344.833,860.5 352.167,860.5 359.5,860.5C 364.833,860.5 370.167,860.5 375.5,860.5C 374.791,861.404 373.791,861.737 372.5,861.5C 372.334,867.842 372.5,874.175 373,880.5C 373.414,880.043 373.914,879.709 374.5,879.5C 380.133,881.076 385.799,882.076 391.5,882.5C 375.838,883.006 360.171,883.339 344.5,883.5C 327.624,883.452 310.958,882.452 294.5,880.5C 297.187,880.664 299.854,880.497 302.5,880C 297.863,879.171 293.196,878.671 288.5,878.5C 288.517,870.478 287.517,863.478 285.5,857.5 Z"/></g>
<g><path style="opacity:1" fill="#5b87ba" d="M 160.5,851.5 C 167.536,853.677 174.536,856.01 181.5,858.5C 192.051,861.906 202.717,864.906 213.5,867.5C 224.103,870.087 234.769,872.421 245.5,874.5C 245.5,881.167 245.5,887.833 245.5,894.5C 243.833,894.5 242.167,894.5 240.5,894.5C 212.226,890.267 184.892,882.933 158.5,872.5C 159.167,865.5 159.833,858.5 160.5,851.5 Z"/></g>
<g><path style="opacity:1" fill="#39639b" d="M 544.5,854.5 C 543.534,862.08 543.201,869.747 543.5,877.5C 508.965,888.633 473.632,895.967 437.5,899.5C 437.5,892.5 437.5,885.5 437.5,878.5C 437.833,878.5 438.167,878.5 438.5,878.5C 451.146,876.408 463.813,874.408 476.5,872.5C 481.464,871.343 486.464,870.343 491.5,869.5C 507.039,865.925 522.372,861.592 537.5,856.5C 539.833,855.833 542.167,855.167 544.5,854.5 Z"/></g>
<g><path style="opacity:1" fill="#4f7bb0" d="M 245.5,874.5 C 261.721,877.403 278.055,879.403 294.5,880.5C 310.958,882.452 327.624,883.452 344.5,883.5C 344.5,890.167 344.5,896.833 344.5,903.5C 335.833,903.5 327.167,903.5 318.5,903.5C 292.113,902.68 266.113,899.68 240.5,894.5C 242.167,894.5 243.833,894.5 245.5,894.5C 245.5,887.833 245.5,881.167 245.5,874.5 Z"/></g>
<g><path style="opacity:1" fill="#4670a7" d="M 437.5,878.5 C 437.5,885.5 437.5,892.5 437.5,899.5C 422.738,901.91 407.738,903.41 392.5,904C 367.663,904.83 342.997,904.663 318.5,903.5C 327.167,903.5 335.833,903.5 344.5,903.5C 344.5,896.833 344.5,890.167 344.5,883.5C 360.171,883.339 375.838,883.006 391.5,882.5C 406.857,881.346 422.19,880.013 437.5,878.5 Z"/></g>
</svg>
