<?xml version="1.0" encoding="UTF-8"?>
<!DOCTYPE svg PUBLIC "-//W3C//DTD SVG 1.1//EN" "http://www.w3.org/Graphics/SVG/1.1/DTD/svg11.dtd">
<svg xmlns="http://www.w3.org/2000/svg" version="1.1" width="256px" height="281px" style="shape-rendering:geometricPrecision; text-rendering:geometricPrecision; image-rendering:optimizeQuality; fill-rule:evenodd; clip-rule:evenodd" xmlns:xlink="http://www.w3.org/1999/xlink">
<g><path style="opacity:0.004" fill="#fe00ff" d="M 133.5,13.5 C 134.833,14.1667 134.833,14.1667 133.5,13.5 Z"/></g>
<g><path style="opacity:0.998" fill="#fdfdfd" d="M 128.5,13.5 C 134.528,18.1835 141.194,21.8501 148.5,24.5C 149.167,24.5 149.833,24.5 150.5,24.5C 151.462,26.9856 152.295,26.9856 153,24.5C 153.903,25.7014 155.069,26.5348 156.5,27C 155.944,27.3826 155.611,27.8826 155.5,28.5C 160.846,32.4842 166.513,36.1509 172.5,39.5C 190.237,50.0336 208.237,60.0336 226.5,69.5C 226.833,69.5 227.167,69.5 227.5,69.5C 228.514,70.6737 229.847,71.3404 231.5,71.5C 231.5,72.1667 231.833,72.5 232.5,72.5C 234.478,74.6682 236.812,75.3349 239.5,74.5C 240.522,74.8555 241.189,75.5222 241.5,76.5C 240.167,76.8333 240.167,77.1667 241.5,77.5C 242.167,78.1667 242.833,78.8333 243.5,79.5C 242.883,79.6107 242.383,79.944 242,80.5C 241.667,124.833 241.333,169.167 241,213.5C 203.288,234.607 165.788,256.107 128.5,278C 126.421,278.808 124.421,278.641 122.5,277.5C 119.54,276.232 116.873,274.399 114.5,272C 113.207,271.51 111.873,271.343 110.5,271.5C 101.707,263.471 91.7074,257.471 80.5,253.5C 79.3813,251.213 77.7147,249.379 75.5,248C 57.3533,237.273 39.3533,226.606 21.5,216C 19.4817,215.495 17.4817,214.995 15.5,214.5C 14.4168,214.461 13.4168,214.127 12.5,213.5C 11.5004,194.512 11.1671,175.512 11.5,156.5C 12.8141,137.039 12.8141,117.706 11.5,98.5C 11.1694,91.1365 11.5027,83.8032 12.5,76.5C 21.896,71.1396 31.2293,65.8062 40.5,60.5C 41.4916,60.6716 42.1583,60.3382 42.5,59.5C 46.5355,57.1517 50.5355,54.8184 54.5,52.5C 55.1667,52.5 55.5,52.1667 55.5,51.5C 57.2838,51.1075 58.9505,50.4408 60.5,49.5C 77.4658,40.6842 94.1325,31.3508 110.5,21.5C 116.069,17.7123 122.069,15.0457 128.5,13.5 Z"/></g>
<g><path style="opacity:0.004" fill="#000000" d="M 93.5,16.5 C 94.9464,15.3871 96.6131,15.2204 98.5,16C 96.8659,16.4935 95.1992,16.6602 93.5,16.5 Z"/></g>
<g><path style="opacity:0.004" fill="#000000" d="M 136.5,15.5 C 137.833,16.1667 137.833,16.1667 136.5,15.5 Z"/></g>
<g><path style="opacity:0.004" fill="#000000" d="M 92.5,17.5 C 91.8333,16.1667 91.8333,16.1667 92.5,17.5 Z"/></g>
<g><path style="opacity:0.004" fill="#000000" d="M 100.5,16.5 C 101.833,17.1667 101.833,17.1667 100.5,16.5 Z"/></g>
<g><path style="opacity:0.004" fill="#000000" d="M 102.5,18.5 C 103.251,17.4265 104.251,17.2599 105.5,18C 104.552,18.4828 103.552,18.6495 102.5,18.5 Z"/></g>
<g><path style="opacity:0.004" fill="#000000" d="M 143.5,19.5 C 144.833,20.1667 144.833,20.1667 143.5,19.5 Z"/></g>
<g><path style="opacity:0.353" fill="#877188" d="M 136.5,16.5 C 138.336,18.588 140.669,19.9213 143.5,20.5C 144.462,22.9856 145.295,22.9856 146,20.5C 147.652,21.3994 149.152,22.3994 150.5,23.5C 149.508,23.3284 148.842,23.6618 148.5,24.5C 141.194,21.8501 134.528,18.1835 128.5,13.5C 129.117,13.3893 129.617,13.056 130,12.5C 131.638,14.7337 133.805,16.067 136.5,16.5 Z"/></g>
<g><path style="opacity:0.935" fill="#252e39" d="M 92.5,17.5 C 95.8806,17.4595 99.2139,17.7929 102.5,18.5C 105.081,19.4885 107.748,20.4885 110.5,21.5C 94.1325,31.3508 77.4658,40.6842 60.5,49.5C 70.8604,38.4729 81.5271,27.8063 92.5,17.5 Z"/></g>
<g><path style="opacity:0.004" fill="#fefffe" d="M 150.5,23.5 C 151.833,24.1667 151.833,24.1667 150.5,23.5 Z"/></g>
<g><path style="opacity:0.004" fill="#000000" d="M 157.5,27.5 C 158.833,28.1667 158.833,28.1667 157.5,27.5 Z"/></g>
<g><path style="opacity:0.012" fill="#786279" d="M 155.5,28.5 C 156.167,28.5 156.833,28.5 157.5,28.5C 158.462,30.9856 159.295,30.9856 160,28.5C 163.823,30.2721 166.49,32.6055 168,35.5C 169.84,34.1669 170.34,34.3335 169.5,36C 170.094,36.4643 170.761,36.631 171.5,36.5C 172.5,37.1667 173.5,37.8333 174.5,38.5C 173.508,38.3284 172.842,38.6618 172.5,39.5C 166.513,36.1509 160.846,32.4842 155.5,28.5 Z"/></g>
<g><path style="opacity:0.004" fill="#000000" d="M 171.5,36.5 C 171.897,35.475 172.563,35.3083 173.5,36C 172.906,36.4643 172.239,36.631 171.5,36.5 Z"/></g>
<g><path style="opacity:0.004" fill="#000000" d="M 176.5,38.5 C 177.601,37.4017 178.934,37.235 180.5,38C 179.207,38.49 177.873,38.6567 176.5,38.5 Z"/></g>
<g><path style="opacity:0.99" fill="#181f2c" d="M 172.5,39.5 C 172.842,38.6618 173.508,38.3284 174.5,38.5C 175.167,38.5 175.833,38.5 176.5,38.5C 179.219,39.913 182.219,40.5797 185.5,40.5C 187.665,41.9355 189.165,41.2688 190,38.5C 191.319,40.4875 193.152,41.6541 195.5,42C 193.205,42.9836 193.539,43.8169 196.5,44.5C 197.167,44.1667 197.833,43.8333 198.5,43.5C 204.22,45.1797 209.887,47.0131 215.5,49C 214.5,49.3333 213.5,49.6667 212.5,50C 215.965,50.6499 218.965,52.1499 221.5,54.5C 222.996,58.3528 224.662,62.0195 226.5,65.5C 226.5,66.8333 226.5,68.1667 226.5,69.5C 208.237,60.0336 190.237,50.0336 172.5,39.5 Z"/></g>
<g><path style="opacity:0.004" fill="#000000" d="M 185.5,40.5 C 185.897,39.475 186.563,39.3083 187.5,40C 186.906,40.4643 186.239,40.631 185.5,40.5 Z"/></g>
<g><path style="opacity:0.004" fill="#000000" d="M 181.5,39.5 C 182.251,38.4265 183.251,38.2599 184.5,39C 183.552,39.4828 182.552,39.6495 181.5,39.5 Z"/></g>
<g><path style="opacity:0.008" fill="#fefffe" d="M 55.5,51.5 C 54.8333,51.5 54.5,51.8333 54.5,52.5C 52.0248,52.2533 52.0248,51.5866 54.5,50.5C 55.1067,50.6236 55.44,50.9569 55.5,51.5 Z"/></g>
<g><path style="opacity:0.009" fill="#fefffe" d="M 42.5,59.5 C 41.5084,59.3284 40.8417,59.6618 40.5,60.5C 38.6214,60.6068 38.2881,60.1068 39.5,59C 40.7494,58.2599 41.7494,58.4265 42.5,59.5 Z"/></g>
<g><path style="opacity:0.012" fill="#fefffe" d="M 36.5,60.5 C 37.8333,61.1667 37.8333,61.1667 36.5,60.5 Z"/></g>
<g><path style="opacity:0.004" fill="#000000" d="M 226.5,65.5 C 226.351,64.448 226.517,63.448 227,62.5C 227.74,63.7494 227.573,64.7494 226.5,65.5 Z"/></g>
<g><path style="opacity:0.012" fill="#7e7e7e" d="M 227.5,69.5 C 227.459,65.7566 228.126,65.5899 229.5,69C 228.906,69.4643 228.239,69.631 227.5,69.5 Z"/></g>
<g><path style="opacity:0.006" fill="#e0caff" d="M 231.5,71.5 C 232.497,70.2875 233.497,70.4542 234.5,72C 233.906,72.4643 233.239,72.631 232.5,72.5C 231.833,72.5 231.5,72.1667 231.5,71.5 Z"/></g>
<g><path style="opacity:0.018" fill="#f3f3f3" d="M 10.5,99.5 C 10.1667,99.5 9.83333,99.5 9.5,99.5C 9.06178,99.5654 8.72845,99.3988 8.5,99C 9.31581,91.5795 9.81581,84.0795 10,76.5C 10.4997,84.1594 10.6664,91.8261 10.5,99.5 Z"/></g>
<g><path style="opacity:0.014" fill="#fefffe" d="M 241.5,77.5 C 241.5,77.1667 241.5,76.8333 241.5,76.5C 244.167,76.8333 244.167,77.1667 241.5,77.5 Z"/></g>
<g><path style="opacity:0.949" fill="#1f2634" d="M 11.5,98.5 C 12.8141,117.706 12.8141,137.039 11.5,156.5C 11.1667,156.5 10.8333,156.5 10.5,156.5C 10.7373,155.209 10.404,154.209 9.5,153.5C 9.2766,149.838 8.2766,146.505 6.5,143.5C 6.57968,140.219 5.91301,137.219 4.5,134.5C 4.12487,132.302 3.4582,130.302 2.5,128.5C 2.76781,126.901 2.43448,125.568 1.5,124.5C 1.78448,122.585 1.45115,120.919 0.5,119.5C 0.67158,118.508 0.338246,117.842 -0.5,117.5C -0.5,115.167 -0.5,112.833 -0.5,110.5C 2.80494,106.859 6.13827,103.192 9.5,99.5C 9.83333,99.5 10.1667,99.5 10.5,99.5C 11.1667,99.5 11.5,99.1667 11.5,98.5 Z"/></g>
<g><path style="opacity:0.004" fill="#000000" d="M -0.5,119.5 C -0.166667,119.5 0.166667,119.5 0.5,119.5C 0.767809,121.099 0.434475,122.432 -0.5,123.5C -0.5,122.167 -0.5,120.833 -0.5,119.5 Z"/></g>
<g><path style="opacity:0.004" fill="#000000" d="M 1.5,124.5 C 1.64945,125.552 1.48278,126.552 1,127.5C 0.259877,126.251 0.426544,125.251 1.5,124.5 Z"/></g>
<g><path style="opacity:1" fill="#2c2c2c" d="M 84.5,125.5 C 94.1896,125.168 103.856,125.502 113.5,126.5C 104.859,127.498 96.1922,127.831 87.5,127.5C 87.5,133.167 87.5,138.833 87.5,144.5C 95.8333,144.5 104.167,144.5 112.5,144.5C 112.5,145.5 112.5,146.5 112.5,147.5C 104.167,147.5 95.8333,147.5 87.5,147.5C 87.5,153.833 87.5,160.167 87.5,166.5C 96.5246,166.168 105.525,166.502 114.5,167.5C 104.522,168.499 94.5222,168.832 84.5,168.5C 84.5,154.167 84.5,139.833 84.5,125.5 Z"/></g>
<g><path style="opacity:0.004" fill="#000000" d="M 2.5,128.5 C 2.64945,129.552 2.48278,130.552 2,131.5C 1.25988,130.251 1.42654,129.251 2.5,128.5 Z"/></g>
<g><path style="opacity:1" fill="#151515" d="M 185.5,127.5 C 180.5,127.5 175.5,127.5 170.5,127.5C 170.5,141.167 170.5,154.833 170.5,168.5C 168.518,155.208 167.851,141.541 168.5,127.5C 147.313,126.804 147.479,126.137 169,125.5C 174.876,125.505 180.376,126.171 185.5,127.5 Z"/></g>
<g><path style="opacity:1" fill="#2f2f2f" d="M 47.5,125.5 C 49.7224,125.178 51.5557,125.845 53,127.5C 65.84,146.951 78.5066,166.284 91,185.5C 77.6667,166.833 64.3333,148.167 51,129.5C 50.5001,142.496 50.3334,155.496 50.5,168.5C 49.5,168.5 48.5,168.5 47.5,168.5C 47.5,154.167 47.5,139.833 47.5,125.5 Z"/></g>
<g><path style="opacity:0.004" fill="#000000" d="M 245.5,136.5 C 245.351,135.448 245.517,134.448 246,133.5C 246.74,134.749 246.573,135.749 245.5,136.5 Z"/></g>
<g><path style="opacity:0.004" fill="#000000" d="M 4.5,134.5 C 4.65668,135.873 4.49001,137.207 4,138.5C 3.23502,136.934 3.40168,135.601 4.5,134.5 Z"/></g>
<g><path style="opacity:1" fill="#c8c8c8" d="M 185.5,127.5 C 181.03,128.486 176.363,128.819 171.5,128.5C 171.829,142.01 171.496,155.344 170.5,168.5C 170.5,154.833 170.5,141.167 170.5,127.5C 175.5,127.5 180.5,127.5 185.5,127.5 Z"/></g>
<g><path style="opacity:0.004" fill="#000000" d="M 4.5,139.5 C 5.57346,140.251 5.74012,141.251 5,142.5C 4.51722,141.552 4.35055,140.552 4.5,139.5 Z"/></g>
<g><path style="opacity:0.004" fill="#000000" d="M 247.5,143.5 C 247.351,142.448 247.517,141.448 248,140.5C 248.74,141.749 248.573,142.749 247.5,143.5 Z"/></g>
<g><path style="opacity:0.004" fill="#000000" d="M 6.5,143.5 C 6.64945,144.552 6.48278,145.552 6,146.5C 5.25988,145.251 5.42654,144.251 6.5,143.5 Z"/></g>
<g><path style="opacity:1" fill="#202020" d="M 156.5,113.5 C 157.525,113.897 157.692,114.563 157,115.5C 149.459,125.421 142.292,135.587 135.5,146C 140.125,153.412 145.125,160.578 150.5,167.5C 149.5,168.833 148.5,168.833 147.5,167.5C 143.185,161.19 138.518,155.19 133.5,149.5C 128.361,155.099 123.695,161.099 119.5,167.5C 118.5,168.833 117.5,168.833 116.5,167.5C 121.875,160.578 126.875,153.412 131.5,146C 127.042,139.371 122.375,132.871 117.5,126.5C 118.5,125.167 119.5,125.167 120.5,126.5C 124.481,132.475 128.814,138.142 133.5,143.5C 141.164,133.509 148.831,123.509 156.5,113.5 Z"/></g>
<g><path style="opacity:0.004" fill="#000000" d="M 248.5,146.5 C 248.369,145.761 248.536,145.094 249,144.5C 249.692,145.437 249.525,146.103 248.5,146.5 Z"/></g>
<g><path style="opacity:0.004" fill="#000000" d="M 6.5,147.5 C 7.52502,147.897 7.69169,148.563 7,149.5C 6.53566,148.906 6.36899,148.239 6.5,147.5 Z"/></g>
<g><path style="opacity:0.004" fill="#000000" d="M 249.5,151.5 C 249.343,150.127 249.51,148.793 250,147.5C 250.765,149.066 250.598,150.399 249.5,151.5 Z"/></g>
<g><path style="opacity:0.004" fill="#000000" d="M 251.5,155.5 C 251.167,155.5 250.833,155.5 250.5,155.5C 250.833,151.5 251.167,151.5 251.5,155.5 Z"/></g>
<g><path style="opacity:0.004" fill="#000000" d="M 251.5,155.5 C 252.525,155.897 252.692,156.563 252,157.5C 251.536,156.906 251.369,156.239 251.5,155.5 Z"/></g>
<g><path style="opacity:0.019" fill="#ececec" d="M 9.5,153.5 C 9.26269,154.791 9.59603,155.791 10.5,156.5C 10.6666,175.503 10.4999,194.503 10,213.5C 9.80922,194.142 9.30922,174.809 8.5,155.5C 8.54272,154.584 8.87605,153.917 9.5,153.5 Z"/></g>
<g><path style="opacity:0.004" fill="#000000" d="M 252.5,161.5 C 252.369,160.761 252.536,160.094 253,159.5C 253.692,160.437 253.525,161.103 252.5,161.5 Z"/></g>
<g><path style="opacity:1" fill="#3e3e3e" d="M 194.5,156.5 C 195.787,157.871 196.453,159.705 196.5,162C 197.35,168.345 195.017,170.012 189.5,167C 191.107,167.019 192.774,167.185 194.5,167.5C 194.5,163.833 194.5,160.167 194.5,156.5 Z"/></g>
<g><path style="opacity:0.004" fill="#000000" d="M 253.5,166.5 C 253.343,165.127 253.51,163.793 254,162.5C 254.765,164.066 254.598,165.399 253.5,166.5 Z"/></g>
<g><path style="opacity:1" fill="#292929" d="M 201.5,156.5 C 204.022,156.128 206.022,156.961 207.5,159C 205.575,158.865 203.575,158.698 201.5,158.5C 201.5,159.5 201.5,160.5 201.5,161.5C 206.541,161.353 208.207,163.519 206.5,168C 204.231,168.758 202.064,168.591 200,167.5C 199.333,166.833 199.333,166.167 200,165.5C 202.348,167.933 204.515,167.933 206.5,165.5C 204.267,164.258 202.101,162.924 200,161.5C 199.387,159.505 199.887,157.838 201.5,156.5 Z"/></g>
<g><path style="opacity:0.004" fill="#000000" d="M 255.5,167.5 C 255.5,168.167 255.5,168.833 255.5,169.5C 254.167,168.833 254.167,168.167 255.5,167.5 Z"/></g>
<g><path style="opacity:0.893" fill="#191f2a" d="M 243.5,132.5 C 243.989,133.995 244.655,135.329 245.5,136.5C 245.41,139.152 246.076,141.485 247.5,143.5C 247.263,144.791 247.596,145.791 248.5,146.5C 248.216,148.415 248.549,150.081 249.5,151.5C 249.232,153.099 249.566,154.432 250.5,155.5C 250.595,157.786 251.262,159.786 252.5,161.5C 252.216,163.415 252.549,165.081 253.5,166.5C 253.259,168.898 253.926,170.898 255.5,172.5C 255.5,175.5 255.5,178.5 255.5,181.5C 254.5,181.833 253.833,182.5 253.5,183.5C 252.833,183.5 252.5,183.833 252.5,184.5C 251.833,184.5 251.5,184.833 251.5,185.5C 250.833,185.5 250.5,185.833 250.5,186.5C 249.833,186.5 249.5,186.833 249.5,187.5C 248.833,187.5 248.5,187.833 248.5,188.5C 247.833,188.5 247.5,188.833 247.5,189.5C 246.833,189.5 246.5,189.833 246.5,190.5C 245.833,190.5 245.5,190.833 245.5,191.5C 244.833,191.5 244.5,191.833 244.5,192.5C 244.167,192.5 243.833,192.5 243.5,192.5C 242.167,172.5 242.167,152.5 243.5,132.5 Z"/></g>
<g><path style="opacity:0.004" fill="#000000" d="M 253.5,183.5 C 254.833,184.167 254.833,184.167 253.5,183.5 Z"/></g>
<g><path style="opacity:0.004" fill="#000000" d="M 252.5,184.5 C 252.833,184.5 253.167,184.5 253.5,184.5C 253.315,185.17 252.981,185.17 252.5,184.5 Z"/></g>
<g><path style="opacity:0.004" fill="#000000" d="M 251.5,185.5 C 251.833,185.5 252.167,185.5 252.5,185.5C 252.315,186.17 251.981,186.17 251.5,185.5 Z"/></g>
<g><path style="opacity:0.004" fill="#000000" d="M 250.5,186.5 C 250.833,186.5 251.167,186.5 251.5,186.5C 251.315,187.17 250.981,187.17 250.5,186.5 Z"/></g>
<g><path style="opacity:0.004" fill="#000000" d="M 249.5,187.5 C 249.833,187.5 250.167,187.5 250.5,187.5C 250.315,188.17 249.981,188.17 249.5,187.5 Z"/></g>
<g><path style="opacity:0.004" fill="#000000" d="M 248.5,188.5 C 248.833,188.5 249.167,188.5 249.5,188.5C 249.315,189.17 248.981,189.17 248.5,188.5 Z"/></g>
<g><path style="opacity:0.004" fill="#000000" d="M 247.5,189.5 C 247.833,189.5 248.167,189.5 248.5,189.5C 248.315,190.17 247.981,190.17 247.5,189.5 Z"/></g>
<g><path style="opacity:0.004" fill="#000000" d="M 246.5,190.5 C 246.833,190.5 247.167,190.5 247.5,190.5C 247.315,191.17 246.981,191.17 246.5,190.5 Z"/></g>
<g><path style="opacity:0.004" fill="#000000" d="M 245.5,191.5 C 245.833,191.5 246.167,191.5 246.5,191.5C 246.315,192.17 245.981,192.17 245.5,191.5 Z"/></g>
<g><path style="opacity:0.02" fill="#c5c5c5" d="M 244.5,192.5 C 244.833,192.5 245.167,192.5 245.5,192.5C 245.167,223.167 244.833,223.167 244.5,192.5 Z"/></g>
<g><path style="opacity:0.012" fill="#a4a4a4" d="M 238.5,219.5 C 238.5,219.167 238.5,218.833 238.5,218.5C 241.167,218.833 241.167,219.167 238.5,219.5 Z"/></g>
<g><path style="opacity:0.008" fill="#8d8d8d" d="M 236.5,220.5 C 236.5,220.167 236.5,219.833 236.5,219.5C 237.167,219.5 237.833,219.5 238.5,219.5C 238.158,220.338 237.492,220.672 236.5,220.5 Z"/></g>
<g><path style="opacity:0.008" fill="#888888" d="M 229.5,224.5 C 229.5,224.167 229.5,223.833 229.5,223.5C 232.167,223.833 232.167,224.167 229.5,224.5 Z"/></g>
<g><path style="opacity:0.004" fill="#dbdbdb" d="M 222.5,228.5 C 222.5,228.167 222.5,227.833 222.5,227.5C 225.167,227.833 225.167,228.167 222.5,228.5 Z"/></g>
<g><path style="opacity:0.004" fill="#000000" d="M 29.5,228.5 C 29.6495,229.552 29.4828,230.552 29,231.5C 28.2599,230.251 28.4265,229.251 29.5,228.5 Z"/></g>
<g><path style="opacity:0.008" fill="#8d8d8d" d="M 220.5,229.5 C 220.5,229.167 220.5,228.833 220.5,228.5C 221.167,228.5 221.833,228.5 222.5,228.5C 222.158,229.338 221.492,229.672 220.5,229.5 Z"/></g>
<g><path style="opacity:0.012" fill="#a9aaa9" d="M 219.5,229.5 C 219.833,229.5 220.167,229.5 220.5,229.5C 220.315,230.17 219.981,230.17 219.5,229.5 Z"/></g>
<g><path style="opacity:0.86" fill="#151d2b" d="M 28.5,223.5 C 28.8333,224.833 29.1667,224.833 29.5,223.5C 44.7541,232.09 59.7541,241.09 74.5,250.5C 72.8333,250.5 71.1667,250.5 69.5,250.5C 68.4324,249.566 67.099,249.232 65.5,249.5C 62.237,247.432 58.5704,246.432 54.5,246.5C 53.4324,245.566 52.099,245.232 50.5,245.5C 47.237,243.432 43.5704,242.432 39.5,242.5C 38.3285,241.655 36.9952,240.989 35.5,240.5C 34.8333,239.167 33.8333,238.167 32.5,237.5C 31.6693,234.341 30.6693,231.341 29.5,228.5C 29.5875,225.402 29.0875,225.068 28,227.5C 27.6905,226.234 27.1905,225.067 26.5,224C 27.0944,223.536 27.7611,223.369 28.5,223.5 Z"/></g>
<g><path style="opacity:0.004" fill="#d2d2d2" d="M 217.5,231.5 C 217.5,231.167 217.5,230.833 217.5,230.5C 218.167,230.5 218.833,230.5 219.5,230.5C 219.158,231.338 218.492,231.672 217.5,231.5 Z"/></g>
<g><path style="opacity:0.012" fill="#707070" d="M 215.5,232.5 C 215.5,232.167 215.5,231.833 215.5,231.5C 216.167,231.5 216.833,231.5 217.5,231.5C 217.158,232.338 216.492,232.672 215.5,232.5 Z"/></g>
<g><path style="opacity:0.008" fill="#858585" d="M 213.5,233.5 C 213.5,233.167 213.5,232.833 213.5,232.5C 214.167,232.5 214.833,232.5 215.5,232.5C 215.158,233.338 214.492,233.672 213.5,233.5 Z"/></g>
<g><path style="opacity:0.004" fill="#000000" d="M 29.5,233.5 C 30.525,233.897 30.6917,234.563 30,235.5C 29.5357,234.906 29.369,234.239 29.5,233.5 Z"/></g>
<g><path style="opacity:0.012" fill="#a9aaa9" d="M 212.5,233.5 C 212.833,233.5 213.167,233.5 213.5,233.5C 213.315,234.17 212.981,234.17 212.5,233.5 Z"/></g>
<g><path style="opacity:0.004" fill="#373737" d="M 210.5,235.5 C 210.5,235.167 210.5,234.833 210.5,234.5C 211.167,234.5 211.833,234.5 212.5,234.5C 212.158,235.338 211.492,235.672 210.5,235.5 Z"/></g>
<g><path style="opacity:0.008" fill="#8d8d8d" d="M 208.5,236.5 C 208.5,236.167 208.5,235.833 208.5,235.5C 209.167,235.5 209.833,235.5 210.5,235.5C 210.158,236.338 209.492,236.672 208.5,236.5 Z"/></g>
<g><path style="opacity:0.004" fill="#000000" d="M 31.5,237.5 C 30.8333,236.167 30.8333,236.167 31.5,237.5 Z"/></g>
<g><path style="opacity:0.012" fill="#b0b0b0" d="M 206.5,237.5 C 206.5,237.167 206.5,236.833 206.5,236.5C 207.167,236.5 207.833,236.5 208.5,236.5C 208.158,237.338 207.492,237.672 206.5,237.5 Z"/></g>
<g><path style="opacity:0.004" fill="#000000" d="M 31.5,237.5 C 31.8333,237.5 32.1667,237.5 32.5,237.5C 32.3147,238.17 31.9813,238.17 31.5,237.5 Z"/></g>
<g><path style="opacity:0.012" fill="#9b9b9b" d="M 204.5,238.5 C 204.5,238.167 204.5,237.833 204.5,237.5C 205.167,237.5 205.833,237.5 206.5,237.5C 206.158,238.338 205.492,238.672 204.5,238.5 Z"/></g>
<g><path style="opacity:0.024" fill="#7f807f" d="M 203.5,238.5 C 203.833,238.5 204.167,238.5 204.5,238.5C 204.315,239.17 203.981,239.17 203.5,238.5 Z"/></g>
<g><path style="opacity:0.008" fill="#8d8d8d" d="M 201.5,239.5 C 202.167,239.5 202.833,239.5 203.5,239.5C 202.833,240.833 202.167,240.833 201.5,239.5 Z"/></g>
<g><path style="opacity:0.004" fill="#000000" d="M 35.5,240.5 C 34.8333,241.167 34.8333,241.167 35.5,240.5 Z"/></g>
<g><path style="opacity:0.004" fill="#000000" d="M 39.5,242.5 C 39.1034,243.525 38.4368,243.692 37.5,243C 38.0944,242.536 38.7611,242.369 39.5,242.5 Z"/></g>
<g><path style="opacity:0.016" fill="#888888" d="M 194.5,244.5 C 194.5,244.167 194.5,243.833 194.5,243.5C 197.167,243.833 197.167,244.167 194.5,244.5 Z"/></g>
<g><path style="opacity:0.004" fill="#000000" d="M 50.5,245.5 C 50.1034,246.525 49.4368,246.692 48.5,246C 49.0944,245.536 49.7611,245.369 50.5,245.5 Z"/></g>
<g><path style="opacity:0.992" fill="#c5c6c6" d="M 15.5,214.5 C 17.4817,214.995 19.4817,215.495 21.5,216C 39.3533,226.606 57.3533,237.273 75.5,248C 77.7147,249.379 79.3813,251.213 80.5,253.5C 78.1815,253.008 76.1815,252.008 74.5,250.5C 59.7541,241.09 44.7541,232.09 29.5,223.5C 29.1667,223.5 28.8333,223.5 28.5,223.5C 23.9924,220.747 19.6591,217.747 15.5,214.5 Z"/></g>
<g><path style="opacity:0.004" fill="#636363" d="M 192.5,244.5 C 193.167,244.5 193.833,244.5 194.5,244.5C 194.027,245.906 193.027,246.573 191.5,246.5C 191.5,246.167 191.5,245.833 191.5,245.5C 192.167,245.5 192.5,245.167 192.5,244.5 Z"/></g>
<g><path style="opacity:0.004" fill="#000000" d="M 54.5,246.5 C 53.7494,247.573 52.7494,247.74 51.5,247C 52.448,246.517 53.448,246.351 54.5,246.5 Z"/></g>
<g><path style="opacity:0.004" fill="#000000" d="M 190.5,246.5 C 190.833,246.5 191.167,246.5 191.5,246.5C 191.315,247.17 190.981,247.17 190.5,246.5 Z"/></g>
<g><path style="opacity:0.004" fill="#000000" d="M 188.5,248.5 C 189.833,249.167 189.833,249.167 188.5,248.5 Z"/></g>
<g><path style="opacity:0.004" fill="#000000" d="M 65.5,249.5 C 65.1034,250.525 64.4368,250.692 63.5,250C 64.0944,249.536 64.7611,249.369 65.5,249.5 Z"/></g>
<g><path style="opacity:1" fill="#b7b7b7" d="M 243.5,79.5 C 243.5,97.1667 243.5,114.833 243.5,132.5C 242.167,152.5 242.167,172.5 243.5,192.5C 243.831,200.196 243.497,207.862 242.5,215.5C 241.099,216.521 239.765,217.521 238.5,218.5C 237.508,218.328 236.842,218.662 236.5,219.5C 235.167,219.833 235.167,220.167 236.5,220.5C 235.687,221.653 234.687,221.653 233.5,220.5C 232.099,221.521 230.765,222.521 229.5,223.5C 228.167,223.833 228.167,224.167 229.5,224.5C 229.027,225.906 228.027,226.573 226.5,226.5C 227.061,223.813 226.394,223.813 224.5,226.5C 223.508,226.328 222.842,226.662 222.5,227.5C 221.508,227.328 220.842,227.662 220.5,228.5C 219.833,228.5 219.5,228.833 219.5,229.5C 218.508,229.328 217.842,229.662 217.5,230.5C 216.508,230.328 215.842,230.662 215.5,231.5C 214.508,231.328 213.842,231.662 213.5,232.5C 212.833,232.5 212.5,232.833 212.5,233.5C 211.508,233.328 210.842,233.662 210.5,234.5C 209.508,234.328 208.842,234.662 208.5,235.5C 207.508,235.328 206.842,235.662 206.5,236.5C 205.508,236.328 204.842,236.662 204.5,237.5C 203.833,237.5 203.5,237.833 203.5,238.5C 202.508,238.328 201.842,238.662 201.5,239.5C 198.669,240.079 196.336,241.412 194.5,243.5C 193.508,243.328 192.842,243.662 192.5,244.5C 192.167,244.5 191.833,244.5 191.5,244.5C 182.75,248.728 174.083,253.228 165.5,258C 159.241,262.453 152.907,266.62 146.5,270.5C 145.833,270.5 145.5,270.833 145.5,271.5C 144.508,271.328 143.842,271.662 143.5,272.5C 142.508,272.328 141.842,272.662 141.5,273.5C 140.833,273.5 140.5,273.833 140.5,274.5C 139.508,274.328 138.842,274.662 138.5,275.5C 137.508,275.328 136.842,275.662 136.5,276.5C 135.508,276.328 134.842,276.662 134.5,277.5C 133.833,277.5 133.5,277.833 133.5,278.5C 132.508,278.328 131.842,278.662 131.5,279.5C 130.508,279.328 129.842,279.662 129.5,280.5C 127.5,280.5 125.5,280.5 123.5,280.5C 123.158,279.662 122.492,279.328 121.5,279.5C 119.795,277.808 117.795,276.475 115.5,275.5C 115.158,274.662 114.492,274.328 113.5,274.5C 112.306,273.728 111.306,272.728 110.5,271.5C 111.873,271.343 113.207,271.51 114.5,272C 116.873,274.399 119.54,276.232 122.5,277.5C 124.421,278.641 126.421,278.808 128.5,278C 165.788,256.107 203.288,234.607 241,213.5C 241.333,169.167 241.667,124.833 242,80.5C 242.383,79.944 242.883,79.6107 243.5,79.5 Z M 226.5,226.5 C 225.833,226.5 225.167,226.5 224.5,226.5C 226.394,223.813 227.061,223.813 226.5,226.5 Z"/></g>
<g><path style="opacity:0.004" fill="#000000" d="M 187.5,249.5 C 187.833,249.5 188.167,249.5 188.5,249.5C 188.315,250.17 187.981,250.17 187.5,249.5 Z"/></g>
<g><path style="opacity:0.004" fill="#000000" d="M 69.5,250.5 C 68.7494,251.573 67.7494,251.74 66.5,251C 67.448,250.517 68.448,250.351 69.5,250.5 Z"/></g>
<g><path style="opacity:0.004" fill="#000000" d="M 186.5,250.5 C 186.833,250.5 187.167,250.5 187.5,250.5C 187.315,251.17 186.981,251.17 186.5,250.5 Z"/></g>
<g><path style="opacity:0.004" fill="#000000" d="M 185.5,251.5 C 185.833,251.5 186.167,251.5 186.5,251.5C 186.315,252.17 185.981,252.17 185.5,251.5 Z"/></g>
<g><path style="opacity:0.004" fill="#000000" d="M 184.5,252.5 C 184.833,252.5 185.167,252.5 185.5,252.5C 185.315,253.17 184.981,253.17 184.5,252.5 Z"/></g>
<g><path style="opacity:0.004" fill="#000000" d="M 183.5,253.5 C 183.833,253.5 184.167,253.5 184.5,253.5C 184.315,254.17 183.981,254.17 183.5,253.5 Z"/></g>
<g><path style="opacity:0.004" fill="#000000" d="M 182.5,254.5 C 182.833,254.5 183.167,254.5 183.5,254.5C 183.315,255.17 182.981,255.17 182.5,254.5 Z"/></g>
<g><path style="opacity:0.004" fill="#000000" d="M 181.5,255.5 C 181.833,255.5 182.167,255.5 182.5,255.5C 182.315,256.17 181.981,256.17 181.5,255.5 Z"/></g>
<g><path style="opacity:0.004" fill="#000000" d="M 180.5,256.5 C 180.833,256.5 181.167,256.5 181.5,256.5C 181.315,257.17 180.981,257.17 180.5,256.5 Z"/></g>
<g><path style="opacity:0.004" fill="#000000" d="M 179.5,257.5 C 179.833,257.5 180.167,257.5 180.5,257.5C 180.315,258.17 179.981,258.17 179.5,257.5 Z"/></g>
<g><path style="opacity:0.004" fill="#000000" d="M 178.5,258.5 C 178.833,258.5 179.167,258.5 179.5,258.5C 179.315,259.17 178.981,259.17 178.5,258.5 Z"/></g>
<g><path style="opacity:0.139" fill="#b8b8b8" d="M 80.5,253.5 C 91.7074,257.471 101.707,263.471 110.5,271.5C 100.161,266 90.1605,260 80.5,253.5 Z"/></g>
<g><path style="opacity:0.004" fill="#000000" d="M 177.5,259.5 C 177.833,259.5 178.167,259.5 178.5,259.5C 178.315,260.17 177.981,260.17 177.5,259.5 Z"/></g>
<g><path style="opacity:0.891" fill="#111926" d="M 191.5,244.5 C 191.5,244.833 191.5,245.167 191.5,245.5C 190.833,245.5 190.5,245.833 190.5,246.5C 189.5,246.833 188.833,247.5 188.5,248.5C 187.833,248.5 187.5,248.833 187.5,249.5C 186.833,249.5 186.5,249.833 186.5,250.5C 185.833,250.5 185.5,250.833 185.5,251.5C 184.833,251.5 184.5,251.833 184.5,252.5C 183.833,252.5 183.5,252.833 183.5,253.5C 182.833,253.5 182.5,253.833 182.5,254.5C 181.833,254.5 181.5,254.833 181.5,255.5C 180.833,255.5 180.5,255.833 180.5,256.5C 179.833,256.5 179.5,256.833 179.5,257.5C 178.833,257.5 178.5,257.833 178.5,258.5C 177.833,258.5 177.5,258.833 177.5,259.5C 176.833,259.5 176.5,259.833 176.5,260.5C 175.833,260.5 175.5,260.833 175.5,261.5C 174.833,261.5 174.5,261.833 174.5,262.5C 173.833,262.5 173.5,262.833 173.5,263.5C 172.833,263.5 172.5,263.833 172.5,264.5C 171.833,264.5 171.5,264.833 171.5,265.5C 170.833,265.5 170.5,265.833 170.5,266.5C 169.833,266.5 169.5,266.833 169.5,267.5C 168.833,267.5 168.5,267.833 168.5,268.5C 167.833,268.5 167.5,268.833 167.5,269.5C 166.833,269.5 166.5,269.833 166.5,270.5C 165.833,270.5 165.5,270.833 165.5,271.5C 164.833,271.5 164.5,271.833 164.5,272.5C 161.57,273.299 158.57,273.632 155.5,273.5C 154.791,272.596 153.791,272.263 152.5,272.5C 151.432,271.566 150.099,271.232 148.5,271.5C 148.158,270.662 147.492,270.328 146.5,270.5C 152.907,266.62 159.241,262.453 165.5,258C 174.083,253.228 182.75,248.728 191.5,244.5 Z"/></g>
<g><path style="opacity:0.004" fill="#000000" d="M 176.5,260.5 C 176.833,260.5 177.167,260.5 177.5,260.5C 177.315,261.17 176.981,261.17 176.5,260.5 Z"/></g>
<g><path style="opacity:0.004" fill="#000000" d="M 175.5,261.5 C 175.833,261.5 176.167,261.5 176.5,261.5C 176.315,262.17 175.981,262.17 175.5,261.5 Z"/></g>
<g><path style="opacity:0.004" fill="#000000" d="M 174.5,262.5 C 174.833,262.5 175.167,262.5 175.5,262.5C 175.315,263.17 174.981,263.17 174.5,262.5 Z"/></g>
<g><path style="opacity:0.004" fill="#000000" d="M 173.5,263.5 C 173.833,263.5 174.167,263.5 174.5,263.5C 174.315,264.17 173.981,264.17 173.5,263.5 Z"/></g>
<g><path style="opacity:0.004" fill="#000000" d="M 172.5,264.5 C 172.833,264.5 173.167,264.5 173.5,264.5C 173.315,265.17 172.981,265.17 172.5,264.5 Z"/></g>
<g><path style="opacity:0.004" fill="#000000" d="M 171.5,265.5 C 171.833,265.5 172.167,265.5 172.5,265.5C 172.315,266.17 171.981,266.17 171.5,265.5 Z"/></g>
<g><path style="opacity:0.004" fill="#000000" d="M 170.5,266.5 C 170.833,266.5 171.167,266.5 171.5,266.5C 171.315,267.17 170.981,267.17 170.5,266.5 Z"/></g>
<g><path style="opacity:0.004" fill="#000000" d="M 169.5,267.5 C 169.833,267.5 170.167,267.5 170.5,267.5C 170.315,268.17 169.981,268.17 169.5,267.5 Z"/></g>
<g><path style="opacity:0.004" fill="#000000" d="M 168.5,268.5 C 168.833,268.5 169.167,268.5 169.5,268.5C 169.315,269.17 168.981,269.17 168.5,268.5 Z"/></g>
<g><path style="opacity:0.004" fill="#000000" d="M 167.5,269.5 C 167.833,269.5 168.167,269.5 168.5,269.5C 168.315,270.17 167.981,270.17 167.5,269.5 Z"/></g>
<g><path style="opacity:0.004" fill="#000000" d="M 166.5,270.5 C 166.833,270.5 167.167,270.5 167.5,270.5C 167.315,271.17 166.981,271.17 166.5,270.5 Z"/></g>
<g><path style="opacity:0.012" fill="#4a4a4a" d="M 145.5,272.5 C 145.5,272.167 145.5,271.833 145.5,271.5C 146.5,271.5 147.5,271.5 148.5,271.5C 147.791,272.404 146.791,272.737 145.5,272.5 Z"/></g>
<g><path style="opacity:0.004" fill="#000000" d="M 165.5,271.5 C 165.833,271.5 166.167,271.5 166.5,271.5C 166.315,272.17 165.981,272.17 165.5,271.5 Z"/></g>
<g><path style="opacity:0.004" fill="#323232" d="M 143.5,273.5 C 143.5,273.167 143.5,272.833 143.5,272.5C 144.167,272.5 144.833,272.5 145.5,272.5C 145.158,273.338 144.492,273.672 143.5,273.5 Z"/></g>
<g><path style="opacity:0.004" fill="#000000" d="M 152.5,272.5 C 151.749,273.573 150.749,273.74 149.5,273C 150.448,272.517 151.448,272.351 152.5,272.5 Z"/></g>
<g><path style="opacity:0.004" fill="#000000" d="M 164.5,272.5 C 164.833,272.5 165.167,272.5 165.5,272.5C 165.315,273.17 164.981,273.17 164.5,272.5 Z"/></g>
<g><path style="opacity:0.016" fill="#a8a8a8" d="M 141.5,274.5 C 141.5,274.167 141.5,273.833 141.5,273.5C 142.167,273.5 142.833,273.5 143.5,273.5C 143.158,274.338 142.492,274.672 141.5,274.5 Z"/></g>
<g><path style="opacity:0.004" fill="#000000" d="M 155.5,273.5 C 155.103,274.525 154.437,274.692 153.5,274C 154.094,273.536 154.761,273.369 155.5,273.5 Z"/></g>
<g><path style="opacity:0.004" fill="#000000" d="M 164.5,273.5 C 163.833,274.167 163.833,274.167 164.5,273.5 Z"/></g>
<g><path style="opacity:0.02" fill="#989998" d="M 140.5,274.5 C 140.833,274.5 141.167,274.5 141.5,274.5C 141.315,275.17 140.981,275.17 140.5,274.5 Z"/></g>
<g><path style="opacity:0.004" fill="#000000" d="M 156.5,275.5 C 158.288,274.378 160.288,274.211 162.5,275C 160.527,275.495 158.527,275.662 156.5,275.5 Z"/></g>
<g><path style="opacity:0.016" fill="#9f9f9f" d="M 113.5,274.5 C 113.842,275.338 114.508,275.672 115.5,275.5C 114.151,276.797 112.818,276.63 111.5,275C 112.094,274.536 112.761,274.369 113.5,274.5 Z"/></g>
<g><path style="opacity:0.012" fill="#7f807f" d="M 138.5,276.5 C 138.5,276.167 138.5,275.833 138.5,275.5C 139.167,275.5 139.833,275.5 140.5,275.5C 140.158,276.338 139.492,276.672 138.5,276.5 Z"/></g>
<g><path style="opacity:0.004" fill="#2b2b2b" d="M 136.5,277.5 C 136.5,277.167 136.5,276.833 136.5,276.5C 137.167,276.5 137.833,276.5 138.5,276.5C 138.158,277.338 137.492,277.672 136.5,277.5 Z"/></g>
<g><path style="opacity:0.012" fill="#a4a4a4" d="M 134.5,278.5 C 134.5,278.167 134.5,277.833 134.5,277.5C 135.167,277.5 135.833,277.5 136.5,277.5C 136.158,278.338 135.492,278.672 134.5,278.5 Z"/></g>
<g><path style="opacity:0.016" fill="#bebfbe" d="M 133.5,278.5 C 133.833,278.5 134.167,278.5 134.5,278.5C 134.315,279.17 133.981,279.17 133.5,278.5 Z"/></g>
<g><path style="opacity:0.016" fill="#a9a9a9" d="M 119.5,280.5 C 119.842,279.662 120.508,279.328 121.5,279.5C 121.5,279.833 121.5,280.167 121.5,280.5C 120.833,280.5 120.167,280.5 119.5,280.5 Z"/></g>
<g><path style="opacity:0.008" fill="#949494" d="M 131.5,280.5 C 131.5,280.167 131.5,279.833 131.5,279.5C 132.167,279.5 132.833,279.5 133.5,279.5C 133.5,279.833 133.5,280.167 133.5,280.5C 132.833,280.5 132.167,280.5 131.5,280.5 Z"/></g>
</svg>
