<?xml version="1.0" encoding="UTF-8"?>
<!DOCTYPE svg PUBLIC "-//W3C//DTD SVG 1.1//EN" "http://www.w3.org/Graphics/SVG/1.1/DTD/svg11.dtd">
<svg xmlns="http://www.w3.org/2000/svg" version="1.1" width="374px" height="442px" style="shape-rendering:geometricPrecision; text-rendering:geometricPrecision; image-rendering:optimizeQuality; fill-rule:evenodd; clip-rule:evenodd" xmlns:xlink="http://www.w3.org/1999/xlink">
<g><path style="opacity:1" fill="#78ae64" d="M 197.5,16.5 C 197.5,87.8333 197.5,159.167 197.5,230.5C 190.167,234.833 182.833,239.167 175.5,243.5C 175.817,239.298 175.483,235.298 174.5,231.5C 180.865,227.164 187.532,223.164 194.5,219.5C 195.666,208.849 195.832,198.182 195,187.5C 188.013,183.335 181.18,179.001 174.5,174.5C 175.171,118.931 175.837,63.2643 176.5,7.5C 180.621,4.46964 185.288,3.30297 190.5,4C 193.49,7.81756 195.824,11.9842 197.5,16.5 Z"/></g>
<g><path style="opacity:1" fill="#679f5b" d="M 226.5,22.5 C 224.669,21.9478 223.003,21.9478 221.5,22.5C 256.113,68.771 290.446,115.104 324.5,161.5C 321.233,167.035 318.233,172.702 315.5,178.5C 313.77,177.974 312.436,176.974 311.5,175.5C 299.097,157.065 285.93,139.065 272,121.5C 255.278,98.0033 238.111,75.0033 220.5,52.5C 219.542,52.0472 218.708,51.3805 218,50.5C 211.895,38.605 205.062,27.2716 197.5,16.5C 195.824,11.9842 193.49,7.81756 190.5,4C 185.288,3.30297 180.621,4.46964 176.5,7.5C 175.833,7.5 175.167,7.5 174.5,7.5C 179.561,2.82364 185.561,1.32364 192.5,3C 204.353,8.75478 215.686,15.2548 226.5,22.5 Z"/></g>
<g><path style="opacity:1" fill="#79b361" d="M 174.5,7.5 C 175.167,7.5 175.833,7.5 176.5,7.5C 175.837,63.2643 175.171,118.931 174.5,174.5C 171.838,173.263 169.171,172.429 166.5,172C 158.806,176.512 151.139,181.012 143.5,185.5C 143.5,132.833 143.5,80.1667 143.5,27.5C 142.167,27.5 140.833,27.5 139.5,27.5C 151.028,20.57 162.695,13.9033 174.5,7.5 Z"/></g>
<g><path style="opacity:1" fill="#78b85e" d="M 139.5,27.5 C 140.833,27.5 142.167,27.5 143.5,27.5C 143.5,80.1667 143.5,132.833 143.5,185.5C 142.25,185.577 141.417,186.244 141,187.5C 140.333,198.167 140.333,208.833 141,219.5C 141.995,220.066 142.828,220.733 143.5,221.5C 143.513,253.806 143.513,285.806 143.5,317.5C 135.915,304.665 128.581,291.665 121.5,278.5C 123.486,261.866 124.152,244.866 123.5,227.5C 125.086,228.413 126.586,228.413 128,227.5C 128.667,214.167 128.667,200.833 128,187.5C 126.603,185.93 125.103,184.596 123.5,183.5C 123.667,134.832 123.5,86.1655 123,37.5C 122.329,38.2524 121.496,38.5858 120.5,38.5C 126.57,34.442 132.903,30.7753 139.5,27.5 Z"/></g>
<g><path style="opacity:1" fill="#6ea460" d="M 226.5,22.5 C 270.601,47.0518 314.268,72.3851 357.5,98.5C 356.237,103.032 354.403,107.365 352,111.5C 342.567,128.033 333.401,144.7 324.5,161.5C 290.446,115.104 256.113,68.771 221.5,22.5C 223.003,21.9478 224.669,21.9478 226.5,22.5 Z"/></g>
<g><path style="opacity:1" fill="#74aa63" d="M 197.5,16.5 C 205.062,27.2716 211.895,38.605 218,50.5C 218.708,51.3805 219.542,52.0472 220.5,52.5C 221.711,56.3767 223.378,60.0434 225.5,63.5C 225.5,101.167 225.5,138.833 225.5,176.5C 219.647,180.017 213.813,183.683 208,187.5C 207.333,198.167 207.333,208.833 208,219.5C 213.813,223.317 219.647,226.983 225.5,230.5C 225.5,234.833 225.5,239.167 225.5,243.5C 217.887,239.358 210.221,235.191 202.5,231C 200.866,230.506 199.199,230.34 197.5,230.5C 197.5,159.167 197.5,87.8333 197.5,16.5 Z"/></g>
<g><path style="opacity:1" fill="#74ba5a" d="M 123.5,183.5 C 118.5,181.336 113.833,178.669 109.5,175.5C 109.17,132.261 109.503,89.0944 110.5,46C 109.181,45.805 107.847,45.9717 106.5,46.5C 110.833,43.331 115.5,40.6643 120.5,38.5C 121.496,38.5858 122.329,38.2524 123,37.5C 123.5,86.1655 123.667,134.832 123.5,183.5 Z"/></g>
<g><path style="opacity:1" fill="#73ba56" d="M 109.5,175.5 C 106.368,174.433 103.368,173.1 100.5,171.5C 97.8172,172.51 95.1505,173.51 92.5,174.5C 92.5,135.167 92.5,95.8333 92.5,56.5C 91.5,56.5 90.5,56.5 89.5,56.5C 94.9942,52.9179 100.661,49.5845 106.5,46.5C 107.847,45.9717 109.181,45.805 110.5,46C 109.503,89.0944 109.17,132.261 109.5,175.5 Z"/></g>
<g><path style="opacity:1" fill="#70bc53" d="M 89.5,56.5 C 90.5,56.5 91.5,56.5 92.5,56.5C 92.5,95.8333 92.5,135.167 92.5,174.5C 88.2096,177.985 83.543,180.985 78.5,183.5C 78.6667,143.499 78.5,103.499 78,63.5C 76.951,65.1066 75.451,65.7733 73.5,65.5C 78.5016,61.9969 83.835,58.9969 89.5,56.5 Z"/></g>
<g><path style="opacity:1" fill="#6ebe4d" d="M 78.5,183.5 C 75.6061,184.256 73.6061,185.923 72.5,188.5C 62.7692,172.091 53.4359,155.424 44.5,138.5C 45.8317,129.692 46.4983,120.525 46.5,111C 46.3333,101.833 46.1667,92.6667 46,83.5C 44.0526,83.8329 41.886,84.4995 39.5,85.5C 42.4328,83.3548 45.4328,81.1882 48.5,79C 56.8873,74.4751 65.2207,69.9751 73.5,65.5C 75.451,65.7733 76.951,65.1066 78,63.5C 78.5,103.499 78.6667,143.499 78.5,183.5 Z"/></g>
<g><path style="opacity:1" fill="#6da360" d="M 225.5,63.5 C 232.445,73.7237 238.611,84.3904 244,95.5C 245.667,96.5 247,97.8333 248,99.5C 251.937,106.374 255.603,113.374 259,120.5C 259.5,127.826 259.666,135.159 259.5,142.5C 254.661,140.83 250.161,138.497 246,135.5C 245.667,135.833 245.333,136.167 245,136.5C 244.5,149.496 244.333,162.496 244.5,175.5C 241.282,174.812 238.116,173.812 235,172.5C 231.782,173.738 228.616,175.072 225.5,176.5C 225.5,138.833 225.5,101.167 225.5,63.5 Z"/></g>
<g><path style="opacity:1" fill="#6bbe47" d="M 44.5,138.5 C 36.5663,124.299 28.8996,109.965 21.5,95.5C 27.213,91.6437 33.213,88.3103 39.5,85.5C 41.886,84.4995 44.0526,83.8329 46,83.5C 46.1667,92.6667 46.3333,101.833 46.5,111C 46.4983,120.525 45.8317,129.692 44.5,138.5 Z"/></g>
<g><path style="opacity:1" fill="#639a59" d="M 220.5,52.5 C 238.111,75.0033 255.278,98.0033 272,121.5C 285.93,139.065 299.097,157.065 311.5,175.5C 308.477,174.572 305.643,173.238 303,171.5C 294.102,176.366 285.268,181.366 276.5,186.5C 275.334,197.485 275.168,208.485 276,219.5C 276.995,220.066 277.828,220.733 278.5,221.5C 277.17,265.736 277.17,310.069 278.5,354.5C 272.718,358.295 266.718,361.629 260.5,364.5C 259.167,316.833 259.167,269.167 260.5,221.5C 260.783,220.711 261.283,220.044 262,219.5C 262.667,194.5 262.667,169.5 262,144.5C 261.005,143.934 260.172,143.267 259.5,142.5C 259.666,135.159 259.5,127.826 259,120.5C 255.603,113.374 251.937,106.374 248,99.5C 247,97.8333 245.667,96.5 244,95.5C 238.611,84.3904 232.445,73.7237 225.5,63.5C 223.378,60.0434 221.711,56.3767 220.5,52.5 Z"/></g>
<g><path style="opacity:0.996" fill="#5d9755" d="M 21.5,95.5 C 28.8996,109.965 36.5663,124.299 44.5,138.5C 53.4359,155.424 62.7692,172.091 72.5,188.5C 72.5,190.167 72.5,191.833 72.5,193.5C 52.8288,183.998 33.1621,174.498 13.5,165C 12.8648,161.397 12.1982,157.897 11.5,154.5C 11.3334,138.163 11.5001,121.83 12,105.5C 14.0159,100.986 17.1826,97.6528 21.5,95.5 Z"/></g>
<g><path style="opacity:1" fill="#fcfdfc" d="M 259.5,142.5 C 260.172,143.267 261.005,143.934 262,144.5C 262.667,169.5 262.667,194.5 262,219.5C 261.283,220.044 260.783,220.711 260.5,221.5C 253.004,224.745 246.004,228.745 239.5,233.5C 237.218,234.39 234.885,234.556 232.5,234C 230.114,232.807 227.78,231.64 225.5,230.5C 219.647,226.983 213.813,223.317 208,219.5C 207.333,208.833 207.333,198.167 208,187.5C 213.813,183.683 219.647,180.017 225.5,176.5C 228.616,175.072 231.782,173.738 235,172.5C 238.116,173.812 241.282,174.812 244.5,175.5C 244.333,162.496 244.5,149.496 245,136.5C 245.333,136.167 245.667,135.833 246,135.5C 250.161,138.497 254.661,140.83 259.5,142.5 Z"/></g>
<g><path style="opacity:1" fill="#428741" d="M 357.5,98.5 C 359.86,100.713 361.694,103.379 363,106.5C 363.5,145.832 363.667,185.165 363.5,224.5C 348.74,218.286 334.407,211.286 320.5,203.5C 323.687,201.65 326.853,199.65 330,197.5C 330.825,193.789 330.659,190.122 329.5,186.5C 324.806,183.821 320.139,181.155 315.5,178.5C 318.233,172.702 321.233,167.035 324.5,161.5C 333.401,144.7 342.567,128.033 352,111.5C 354.403,107.365 356.237,103.032 357.5,98.5 Z"/></g>
<g><path style="opacity:1" fill="#fbfcfa" d="M 109.5,175.5 C 113.833,178.669 118.5,181.336 123.5,183.5C 125.103,184.596 126.603,185.93 128,187.5C 128.667,200.833 128.667,214.167 128,227.5C 126.586,228.413 125.086,228.413 123.5,227.5C 118.979,224.647 114.479,221.647 110,218.5C 109.667,211.5 109.333,204.5 109,197.5C 106.376,195.439 103.542,193.773 100.5,192.5C 97.4576,193.773 94.6243,195.439 92,197.5C 91.6667,204.5 91.3333,211.5 91,218.5C 90.2828,219.044 89.7828,219.711 89.5,220.5C 83.9693,222.937 78.636,225.437 73.5,228C 72.5223,221.59 72.189,215.09 72.5,208.5C 72.5,203.5 72.5,198.5 72.5,193.5C 72.5,191.833 72.5,190.167 72.5,188.5C 73.6061,185.923 75.6061,184.256 78.5,183.5C 83.543,180.985 88.2096,177.985 92.5,174.5C 95.1505,173.51 97.8172,172.51 100.5,171.5C 103.368,173.1 106.368,174.433 109.5,175.5 Z"/></g>
<g><path style="opacity:1" fill="#fdfefd" d="M 174.5,174.5 C 181.18,179.001 188.013,183.335 195,187.5C 195.832,198.182 195.666,208.849 194.5,219.5C 187.532,223.164 180.865,227.164 174.5,231.5C 172.177,232.778 169.677,233.778 167,234.5C 159.27,229.926 151.436,225.593 143.5,221.5C 142.828,220.733 141.995,220.066 141,219.5C 140.333,208.833 140.333,198.167 141,187.5C 141.417,186.244 142.25,185.577 143.5,185.5C 151.139,181.012 158.806,176.512 166.5,172C 169.171,172.429 171.838,173.263 174.5,174.5 Z"/></g>
<g><path style="opacity:1" fill="#fcfdfb" d="M 311.5,175.5 C 312.436,176.974 313.77,177.974 315.5,178.5C 320.139,181.155 324.806,183.821 329.5,186.5C 330.659,190.122 330.825,193.789 330,197.5C 326.853,199.65 323.687,201.65 320.5,203.5C 317.834,205.008 315.167,206.174 312.5,207C 311.712,203.924 311.212,200.758 311,197.5C 308.485,195.577 305.818,193.91 303,192.5C 300.01,194.15 297.01,195.817 294,197.5C 293.207,201.423 293.374,205.256 294.5,209C 302.5,213.667 310.5,218.333 318.5,223C 319.684,224.145 319.684,225.312 318.5,226.5C 314.665,228.25 310.999,230.25 307.5,232.5C 305.844,233.146 304.177,233.813 302.5,234.5C 300.297,233.233 297.963,232.233 295.5,231.5C 290.335,227.414 284.668,224.08 278.5,221.5C 277.828,220.733 276.995,220.066 276,219.5C 275.168,208.485 275.334,197.485 276.5,186.5C 285.268,181.366 294.102,176.366 303,171.5C 305.643,173.238 308.477,174.572 311.5,175.5 Z"/></g>
<g><path style="opacity:1" fill="#659e5a" d="M 11.5,154.5 C 12.1982,157.897 12.8648,161.397 13.5,165C 33.1621,174.498 52.8288,183.998 72.5,193.5C 72.5,198.5 72.5,203.5 72.5,208.5C 68.5,214.5 64.5,220.5 60.5,226.5C 55.5001,223.151 50.1668,219.984 44.5,217C 34.1769,212.172 23.8435,207.339 13.5,202.5C 12.8332,197.349 12.1665,192.349 11.5,187.5C 11.5,176.5 11.5,165.5 11.5,154.5 Z"/></g>
<g><path style="opacity:0.993" fill="#69a45a" d="M 11.5,187.5 C 12.1665,192.349 12.8332,197.349 13.5,202.5C 23.8435,207.339 34.1769,212.172 44.5,217C 50.1668,219.984 55.5001,223.151 60.5,226.5C 54.5886,238.663 47.922,250.33 40.5,261.5C 40.4874,258.639 39.3207,257.639 37,258.5C 29.363,253.274 21.5297,249.107 13.5,246C 12.8828,243.723 12.2161,241.556 11.5,239.5C 11.5,222.167 11.5,204.833 11.5,187.5 Z"/></g>
<g><path style="opacity:1" fill="#75bb59" d="M 123.5,227.5 C 124.152,244.866 123.486,261.866 121.5,278.5C 111.018,259.043 100.351,239.71 89.5,220.5C 89.7828,219.711 90.2828,219.044 91,218.5C 91.3333,211.5 91.6667,204.5 92,197.5C 94.6243,195.439 97.4576,193.773 100.5,192.5C 103.542,193.773 106.376,195.439 109,197.5C 109.333,204.5 109.667,211.5 110,218.5C 114.479,221.647 118.979,224.647 123.5,227.5 Z"/></g>
<g><path style="opacity:1" fill="#71a563" d="M 233.5,193.5 C 236.981,194.232 240.314,195.566 243.5,197.5C 246.578,205.988 243.911,211.321 235.5,213.5C 227.089,211.321 224.422,205.988 227.5,197.5C 229.565,196.143 231.565,194.81 233.5,193.5 Z"/></g>
<g><path style="opacity:0.992" fill="#4f8f4a" d="M 320.5,203.5 C 334.407,211.286 348.74,218.286 363.5,224.5C 363.831,250.005 363.498,275.339 362.5,300.5C 362.702,298.011 362.202,295.677 361,293.5C 347.987,271.468 334.987,249.468 322,227.5C 320.989,226.663 319.822,226.33 318.5,226.5C 319.684,225.312 319.684,224.145 318.5,223C 310.5,218.333 302.5,213.667 294.5,209C 293.374,205.256 293.207,201.423 294,197.5C 297.01,195.817 300.01,194.15 303,192.5C 305.818,193.91 308.485,195.577 311,197.5C 311.212,200.758 311.712,203.924 312.5,207C 315.167,206.174 317.834,205.008 320.5,203.5 Z"/></g>
<g><path style="opacity:1" fill="#f3f7f2" d="M 300.5,197.5 C 307.389,197.088 309.723,200.088 307.5,206.5C 299.847,210.097 296.681,207.764 298,199.5C 298.995,198.934 299.828,198.267 300.5,197.5 Z"/></g>
<g><path style="opacity:1" fill="#3e863d" d="M 72.5,208.5 C 72.189,215.09 72.5223,221.59 73.5,228C 78.636,225.437 83.9693,222.937 89.5,220.5C 100.351,239.71 111.018,259.043 121.5,278.5C 128.581,291.665 135.915,304.665 143.5,317.5C 153.406,336.738 163.74,355.738 174.5,374.5C 179.25,383.669 184.25,392.669 189.5,401.5C 189.5,402.167 189.5,402.833 189.5,403.5C 184.099,404.034 179.099,402.867 174.5,400C 140.267,379.384 105.601,359.551 70.5,340.5C 68.6644,338.412 66.3311,337.079 63.5,336.5C 49.2608,327.464 34.5941,318.964 19.5,311C 17.2101,309.223 15.5434,307.056 14.5,304.5C 18.9526,299.033 22.6192,293.033 25.5,286.5C 31.24,278.7 36.24,270.366 40.5,261.5C 47.922,250.33 54.5886,238.663 60.5,226.5C 64.5,220.5 68.5,214.5 72.5,208.5 Z"/></g>
<g><path style="opacity:1" fill="#79b461" d="M 143.5,221.5 C 151.436,225.593 159.27,229.926 167,234.5C 169.677,233.778 172.177,232.778 174.5,231.5C 175.483,235.298 175.817,239.298 175.5,243.5C 174.206,244.29 173.039,245.29 172,246.5C 171.333,256.833 171.333,267.167 172,277.5C 173.039,278.71 174.206,279.71 175.5,280.5C 175.832,312.004 175.498,343.338 174.5,374.5C 163.74,355.738 153.406,336.738 143.5,317.5C 143.513,285.806 143.513,253.806 143.5,221.5 Z"/></g>
<g><path style="opacity:1" fill="#689f5c" d="M 260.5,221.5 C 259.167,269.167 259.167,316.833 260.5,364.5C 253.703,368.736 246.703,372.736 239.5,376.5C 239.5,334.833 239.5,293.167 239.5,251.5C 240.431,249.967 241.098,248.3 241.5,246.5C 241.547,244.962 240.88,243.962 239.5,243.5C 239.5,240.167 239.5,236.833 239.5,233.5C 246.004,228.745 253.004,224.745 260.5,221.5 Z"/></g>
<g><path style="opacity:1" fill="#589450" d="M 278.5,221.5 C 284.668,224.08 290.335,227.414 295.5,231.5C 294.849,269.054 295.516,306.387 297.5,343.5C 291.366,347.404 285.032,351.071 278.5,354.5C 277.17,310.069 277.17,265.736 278.5,221.5 Z"/></g>
<g><path style="opacity:1" fill="#3f863e" d="M 318.5,226.5 C 319.822,226.33 320.989,226.663 322,227.5C 334.987,249.468 347.987,271.468 361,293.5C 362.202,295.677 362.702,298.011 362.5,300.5C 361.146,304.032 359.146,307.198 356.5,310C 341.111,318.234 326.111,327.067 311.5,336.5C 310.391,336.557 309.391,336.89 308.5,337.5C 306.171,302.649 305.838,267.649 307.5,232.5C 310.999,230.25 314.665,228.25 318.5,226.5 Z"/></g>
<g><path style="opacity:1" fill="#f3f8f1" d="M 197.5,230.5 C 199.199,230.34 200.866,230.506 202.5,231C 210.221,235.191 217.887,239.358 225.5,243.5C 226.122,244.627 226.955,245.627 228,246.5C 228.667,256.833 228.667,267.167 228,277.5C 223.521,280.647 219.021,283.647 214.5,286.5C 209.737,288.965 204.904,291.298 200,293.5C 196.381,292.038 192.881,290.371 189.5,288.5C 189.5,287.833 189.5,287.167 189.5,286.5C 190.93,286.579 192.264,286.246 193.5,285.5C 195.599,286.965 197.766,288.299 200,289.5C 208.148,285.093 216.148,280.426 224,275.5C 224.5,266.173 224.666,256.839 224.5,247.5C 216.176,243.587 208.01,239.253 200,234.5C 195.205,236.808 190.705,239.475 186.5,242.5C 183.279,243.709 180.279,245.376 177.5,247.5C 176.167,257.167 176.167,266.833 177.5,276.5C 179.884,278.051 182.384,279.385 185,280.5C 186.301,280.361 187.134,279.695 187.5,278.5C 188.494,269.014 188.827,259.348 188.5,249.5C 189.833,249.5 191.167,249.5 192.5,249.5C 192.666,259.839 192.5,270.172 192,280.5C 191.338,281.984 190.504,283.317 189.5,284.5C 186.813,284.664 184.146,284.497 181.5,284C 179.636,282.569 177.636,281.403 175.5,280.5C 174.206,279.71 173.039,278.71 172,277.5C 171.333,267.167 171.333,256.833 172,246.5C 173.039,245.29 174.206,244.29 175.5,243.5C 182.833,239.167 190.167,234.833 197.5,230.5 Z"/></g>
<g><path style="opacity:1" fill="#6fa561" d="M 225.5,230.5 C 227.78,231.64 230.114,232.807 232.5,234C 234.885,234.556 237.218,234.39 239.5,233.5C 239.5,236.833 239.5,240.167 239.5,243.5C 232.139,241.695 230.139,244.195 233.5,251C 235.473,251.495 237.473,251.662 239.5,251.5C 239.5,293.167 239.5,334.833 239.5,376.5C 231.168,382.002 222.501,387.002 213.5,391.5C 214.807,373.817 215.473,355.983 215.5,338C 215.5,320.663 215.167,303.497 214.5,286.5C 219.021,283.647 223.521,280.647 228,277.5C 228.667,267.167 228.667,256.833 228,246.5C 226.955,245.627 226.122,244.627 225.5,243.5C 225.5,239.167 225.5,234.833 225.5,230.5 Z"/></g>
<g><path style="opacity:1" fill="#4d8e48" d="M 295.5,231.5 C 297.963,232.233 300.297,233.233 302.5,234.5C 304.177,233.813 305.844,233.146 307.5,232.5C 305.838,267.649 306.171,302.649 308.5,337.5C 306.77,338.026 305.436,339.026 304.5,340.5C 302.046,341.227 299.713,342.227 297.5,343.5C 295.516,306.387 294.849,269.054 295.5,231.5 Z"/></g>
<g><path style="opacity:0.989" fill="#64aa52" d="M 11.5,239.5 C 12.2161,241.556 12.8828,243.723 13.5,246C 21.5297,249.107 29.363,253.274 37,258.5C 39.3207,257.639 40.4874,258.639 40.5,261.5C 36.24,270.366 31.24,278.7 25.5,286.5C 21.4856,284.072 17.3189,281.738 13,279.5C 12.8171,276.635 12.3171,273.969 11.5,271.5C 11.5,260.833 11.5,250.167 11.5,239.5 Z"/></g>
<g><path style="opacity:1" fill="#79b066" d="M 186.5,242.5 C 187.495,254.322 187.828,266.322 187.5,278.5C 187.134,279.695 186.301,280.361 185,280.5C 182.384,279.385 179.884,278.051 177.5,276.5C 176.167,266.833 176.167,257.167 177.5,247.5C 180.279,245.376 183.279,243.709 186.5,242.5 Z"/></g>
<g><path style="opacity:1" fill="#7caf6c" d="M 189.5,286.5 C 189.5,285.833 189.5,285.167 189.5,284.5C 190.504,283.317 191.338,281.984 192,280.5C 192.5,270.172 192.666,259.839 192.5,249.5C 191.167,249.5 189.833,249.5 188.5,249.5C 188.827,259.348 188.494,269.014 187.5,278.5C 187.828,266.322 187.495,254.322 186.5,242.5C 190.705,239.475 195.205,236.808 200,234.5C 208.01,239.253 216.176,243.587 224.5,247.5C 224.666,256.839 224.5,266.173 224,275.5C 216.148,280.426 208.148,285.093 200,289.5C 197.766,288.299 195.599,286.965 193.5,285.5C 192.264,286.246 190.93,286.579 189.5,286.5 Z"/></g>
<g><path style="opacity:1" fill="#aacba2" d="M 239.5,243.5 C 240.88,243.962 241.547,244.962 241.5,246.5C 241.098,248.3 240.431,249.967 239.5,251.5C 237.473,251.662 235.473,251.495 233.5,251C 230.139,244.195 232.139,241.695 239.5,243.5 Z"/></g>
<g><path style="opacity:1" fill="#f0f6ef" d="M 200.5,249.5 C 205.267,249.191 209.934,249.691 214.5,251C 217.024,252.883 218.358,255.383 218.5,258.5C 216.833,258.5 215.167,258.5 213.5,258.5C 213.863,256.089 212.863,254.589 210.5,254C 207.833,253.333 205.167,253.333 202.5,254C 199.833,255.667 199.833,257.333 202.5,259C 206.147,259.774 209.814,260.441 213.5,261C 215.329,261.273 216.829,262.107 218,263.5C 219.857,269.621 217.69,273.454 211.5,275C 204.631,276.948 199.131,275.115 195,269.5C 194.51,268.207 194.343,266.873 194.5,265.5C 196.167,265.5 197.833,265.5 199.5,265.5C 199.297,267.39 199.963,268.89 201.5,270C 205.167,270.667 208.833,270.667 212.5,270C 215.167,268.333 215.167,266.667 212.5,265C 208.082,264.792 203.749,264.126 199.5,263C 193.975,258 194.309,253.5 200.5,249.5 Z"/></g>
<g><path style="opacity:0.961" fill="#58ac44" d="M 11.5,271.5 C 12.3171,273.969 12.8171,276.635 13,279.5C 17.3189,281.738 21.4856,284.072 25.5,286.5C 22.6192,293.033 18.9526,299.033 14.5,304.5C 13.2101,303.942 12.3768,302.942 12,301.5C 11.5002,291.506 11.3335,281.506 11.5,271.5 Z"/></g>
<g><path style="opacity:1" fill="#78b064" d="M 175.5,280.5 C 177.636,281.403 179.636,282.569 181.5,284C 184.146,284.497 186.813,284.664 189.5,284.5C 189.5,285.167 189.5,285.833 189.5,286.5C 189.5,287.167 189.5,287.833 189.5,288.5C 189.516,326.413 189.516,364.079 189.5,401.5C 184.25,392.669 179.25,383.669 174.5,374.5C 175.498,343.338 175.832,312.004 175.5,280.5 Z"/></g>
<g><path style="opacity:1" fill="#75ab63" d="M 214.5,286.5 C 215.167,303.497 215.5,320.663 215.5,338C 215.473,355.983 214.807,373.817 213.5,391.5C 206.365,397.068 198.365,401.068 189.5,403.5C 189.5,402.833 189.5,402.167 189.5,401.5C 189.516,364.079 189.516,326.413 189.5,288.5C 192.881,290.371 196.381,292.038 200,293.5C 204.904,291.298 209.737,288.965 214.5,286.5 Z"/></g>
<g><path style="opacity:0.016" fill="#020602" d="M 63.5,336.5 C 66.3311,337.079 68.6644,338.412 70.5,340.5C 52.9925,343.503 36.3258,349.003 20.5,357C 8.42884,368.1 6.26217,380.933 14,395.5C 23.2375,404.87 34.4041,410.703 47.5,413C 76.1546,419.758 105.488,423.758 135.5,425C 190.085,428.291 244.251,426.457 298,419.5C 316.52,416.745 334.353,411.578 351.5,404C 366.402,393.324 369.568,379.824 361,363.5C 356.814,358.326 351.647,354.492 345.5,352C 332.171,346.833 318.505,343 304.5,340.5C 305.436,339.026 306.77,338.026 308.5,337.5C 309.391,336.89 310.391,336.557 311.5,336.5C 325.477,339.165 338.81,342.999 351.5,348C 371.731,359.39 376.898,376.224 367,398.5C 366.333,399.833 365.667,399.833 365,398.5C 363.228,402.611 360.895,405.611 358,407.5C 357.667,407.167 357.333,406.833 357,406.5C 355.933,407.191 354.766,407.691 353.5,408C 354.833,408.667 354.833,409.333 353.5,410C 351.846,410.608 350.179,411.108 348.5,411.5C 348.167,410.167 347.833,410.167 347.5,411.5C 346.251,412.778 344.751,413.778 343,414.5C 341.475,414.888 339.808,414.888 338,414.5C 337.683,416.301 337.016,416.634 336,415.5C 335.311,416.357 334.478,417.023 333.5,417.5C 331.622,417.377 329.789,417.377 328,417.5C 327.047,419.592 325.714,419.925 324,418.5C 321.759,421.227 319.093,421.894 316,420.5C 314.011,422.384 312.011,422.717 310,421.5C 309.667,422.167 309.333,422.833 309,423.5C 308,423.167 307,422.833 306,422.5C 305.692,423.308 305.192,423.975 304.5,424.5C 301.942,423.984 299.442,423.65 297,423.5C 296.612,424.428 295.945,425.095 295,425.5C 293.578,424.795 292.245,424.461 291,424.5C 290.333,425.167 289.667,425.833 289,426.5C 287.333,426.167 285.667,425.833 284,425.5C 283.311,426.357 282.478,427.023 281.5,427.5C 278.942,426.984 276.442,426.65 274,426.5C 273.667,427.167 273.333,427.833 273,428.5C 270.667,428.167 268.333,427.833 266,427.5C 265,428.167 264,428.833 263,429.5C 260.667,429.167 258.333,428.833 256,428.5C 255.044,429.894 253.711,430.561 252,430.5C 249.395,430.66 247.061,430.327 245,429.5C 242.959,430.752 240.625,431.419 238,431.5C 230.37,431.123 223.37,430.79 217,430.5C 215.302,431.733 213.302,432.4 211,432.5C 195.549,432.265 180.049,432.265 164.5,432.5C 162.5,432.333 160.5,432.167 158.5,432C 158,431.5 157.5,431 157,430.5C 147.257,431.182 136.09,431.182 123.5,430.5C 121.626,430.61 120.126,429.944 119,428.5C 116.667,428.833 114.333,429.167 112,429.5C 110.667,428.833 109.333,428.167 108,427.5C 106.256,428.036 104.423,428.37 102.5,428.5C 101.522,428.023 100.689,427.357 100,426.5C 97.8851,427.598 95.7184,427.598 93.5,426.5C 93.1667,425.167 92.8333,425.167 92.5,426.5C 90.1892,425.209 87.8558,425.209 85.5,426.5C 83.5979,424.849 81.5979,424.516 79.5,425.5C 76.8127,423.619 73.9794,423.285 71,424.5C 70.0546,424.095 69.3879,423.428 69,422.5C 68,422.833 67,423.167 66,423.5C 65.6667,422.833 65.3333,422.167 65,421.5C 62.9891,422.717 60.9891,422.384 59,420.5C 58.2753,421.059 57.4419,421.392 56.5,421.5C 53.617,420.078 50.9503,419.078 48.5,418.5C 48.1667,417.167 47.8333,417.167 47.5,418.5C 46.603,417.402 45.7697,417.402 45,418.5C 44.6667,417.833 44.3333,417.167 44,416.5C 43,416.833 42,417.167 41,417.5C 40.6758,415.431 39.8425,415.098 38.5,416.5C 37.5224,416.023 36.6891,415.357 36,414.5C 34.984,415.634 34.3173,415.301 34,413.5C 33.586,413.957 33.086,414.291 32.5,414.5C 28.7295,413.052 25.5629,411.386 23,409.5C 22.6667,409.833 22.3333,410.167 22,410.5C 19.7843,408.326 17.451,406.326 15,404.5C 14.6667,404.833 14.3333,405.167 14,405.5C 13.6824,403.939 12.8491,402.772 11.5,402C 11.8333,401.667 12.1667,401.333 12.5,401C 11.1763,399.128 9.67627,398.295 8,398.5C -1.50262,376.806 2.99738,360.306 21.5,349C 28.7299,345.583 35.8966,343.083 43,341.5C 49.7261,339.387 56.5594,337.72 63.5,336.5 Z"/></g>
<g><path style="opacity:0.173" fill="#000000" d="M 70.5,340.5 C 105.601,359.551 140.267,379.384 174.5,400C 179.099,402.867 184.099,404.034 189.5,403.5C 198.365,401.068 206.365,397.068 213.5,391.5C 222.501,387.002 231.168,382.002 239.5,376.5C 246.703,372.736 253.703,368.736 260.5,364.5C 266.718,361.629 272.718,358.295 278.5,354.5C 285.032,351.071 291.366,347.404 297.5,343.5C 299.713,342.227 302.046,341.227 304.5,340.5C 318.505,343 332.171,346.833 345.5,352C 351.647,354.492 356.814,358.326 361,363.5C 369.568,379.824 366.402,393.324 351.5,404C 334.353,411.578 316.52,416.745 298,419.5C 244.251,426.457 190.085,428.291 135.5,425C 105.488,423.758 76.1546,419.758 47.5,413C 34.4041,410.703 23.2375,404.87 14,395.5C 6.26217,380.933 8.42884,368.1 20.5,357C 36.3258,349.003 52.9925,343.503 70.5,340.5 Z"/></g>
<g><path style="opacity:0.016" fill="#020702" d="M 347.5,411.5 C 347.833,411.5 348.167,411.5 348.5,411.5C 348.315,412.17 347.981,412.17 347.5,411.5 Z"/></g>
<g><path style="opacity:0.016" fill="#020702" d="M 47.5,418.5 C 47.8333,418.5 48.1667,418.5 48.5,418.5C 48.3147,419.17 47.9813,419.17 47.5,418.5 Z"/></g>
<g><path style="opacity:0.016" fill="#020702" d="M 92.5,426.5 C 92.8333,426.5 93.1667,426.5 93.5,426.5C 93.3147,427.17 92.9813,427.17 92.5,426.5 Z"/></g>
</svg>
