<?xml version="1.0" encoding="UTF-8"?>
<!DOCTYPE svg PUBLIC "-//W3C//DTD SVG 1.1//EN" "http://www.w3.org/Graphics/SVG/1.1/DTD/svg11.dtd">
<svg xmlns="http://www.w3.org/2000/svg" version="1.1" width="800px" height="800px" style="shape-rendering:geometricPrecision; text-rendering:geometricPrecision; image-rendering:optimizeQuality; fill-rule:evenodd; clip-rule:evenodd" xmlns:xlink="http://www.w3.org/1999/xlink">
<g><path style="opacity:0.999" fill="#610602" d="M 407.5,21.5 C 431.82,38.9702 456.32,56.3036 481,73.5C 481.399,73.2716 481.565,72.9382 481.5,72.5C 482.871,74.936 483.871,77.6027 484.5,80.5C 485.341,82.3792 485.675,84.3792 485.5,86.5C 485.785,88.288 485.452,89.9547 484.5,91.5C 454.167,70.3333 423.833,49.1667 393.5,28C 391.561,27.0922 390.561,25.5922 390.5,23.5C 395.903,21.7949 401.57,21.1282 407.5,21.5 Z"/></g>
<g><path style="opacity:0.999" fill="#5c0601" d="M 407.5,21.5 C 416.587,20.9228 425.253,22.2561 433.5,25.5C 447.345,30.3485 459.012,38.3485 468.5,49.5C 472.561,54.8975 476.227,60.5641 479.5,66.5C 480.73,68.2972 481.396,70.2972 481.5,72.5C 481.565,72.9382 481.399,73.2716 481,73.5C 456.32,56.3036 431.82,38.9702 407.5,21.5 Z"/></g>
<g><path style="opacity:1" fill="#670703" d="M 390.5,23.5 C 390.561,25.5922 391.561,27.0922 393.5,28C 423.833,49.1667 454.167,70.3333 484.5,91.5C 485.452,89.9547 485.785,88.288 485.5,86.5C 486.461,88.2646 486.795,90.2646 486.5,92.5C 486.5,97.8333 486.5,103.167 486.5,108.5C 449.656,82.4972 412.656,56.6638 375.5,31C 374.402,30.2303 374.402,29.397 375.5,28.5C 379.948,25.4643 384.948,23.7976 390.5,23.5 Z"/></g>
<g><path style="opacity:0.999" fill="#6d0704" d="M 375.5,28.5 C 374.402,29.397 374.402,30.2303 375.5,31C 412.656,56.6638 449.656,82.4972 486.5,108.5C 486.5,113.167 486.5,117.833 486.5,122.5C 445.38,93.8863 404.38,65.053 363.5,36C 364.381,35.2917 365.047,34.4584 365.5,33.5C 368.364,30.9864 371.698,29.3197 375.5,28.5 Z"/></g>
<g><path style="opacity:0.998" fill="#730805" d="M 365.5,33.5 C 365.047,34.4584 364.381,35.2917 363.5,36C 404.38,65.053 445.38,93.8863 486.5,122.5C 486.5,126.833 486.5,131.167 486.5,135.5C 444.732,106.912 403.065,78.0791 361.5,49C 358.5,46.6667 355.5,44.3333 352.5,42C 353.056,41.6174 353.389,41.1174 353.5,40.5C 357.164,37.6654 361.164,35.332 365.5,33.5 Z"/></g>
<g><path style="opacity:0.962" fill="#f69e00" d="M 433.5,25.5 C 462.059,33.0534 490.392,41.0534 518.5,49.5C 501.833,49.5 485.167,49.5 468.5,49.5C 459.012,38.3485 447.345,30.3485 433.5,25.5 Z"/></g>
<g><path style="opacity:0.998" fill="#790906" d="M 353.5,40.5 C 353.389,41.1174 353.056,41.6174 352.5,42C 355.5,44.3333 358.5,46.6667 361.5,49C 403.065,78.0791 444.732,106.912 486.5,135.5C 486.827,140.214 486.493,144.88 485.5,149.5C 437.361,115.861 389.361,82.0278 341.5,48C 342.056,47.6174 342.389,47.1174 342.5,46.5C 345.678,43.7417 349.345,41.7417 353.5,40.5 Z"/></g>
<g><path style="opacity:0.997" fill="#810d07" d="M 342.5,46.5 C 342.389,47.1174 342.056,47.6174 341.5,48C 389.361,82.0278 437.361,115.861 485.5,149.5C 486.493,144.88 486.827,140.214 486.5,135.5C 486.5,131.167 486.5,126.833 486.5,122.5C 486.5,117.833 486.5,113.167 486.5,108.5C 486.5,103.167 486.5,97.8333 486.5,92.5C 487.338,92.8417 487.672,93.5084 487.5,94.5C 487.5,99.1667 487.5,103.833 487.5,108.5C 487.5,112.167 487.5,115.833 487.5,119.5C 487.5,122.167 487.5,124.833 487.5,127.5C 487.5,132.5 487.5,137.5 487.5,142.5C 487.819,147.363 487.486,152.03 486.5,156.5C 483.579,157.696 480.579,158.696 477.5,159.5C 427.477,124.468 377.477,89.4675 327.5,54.5C 332.368,51.5662 337.368,48.8995 342.5,46.5 Z"/></g>
<g><path style="opacity:0.982" fill="#f49800" d="M 468.5,49.5 C 485.167,49.5 501.833,49.5 518.5,49.5C 538.777,54.566 558.777,60.2326 578.5,66.5C 545.5,66.5 512.5,66.5 479.5,66.5C 476.227,60.5641 472.561,54.8975 468.5,49.5 Z"/></g>
<g><path style="opacity:0.998" fill="#860b08" d="M 327.5,54.5 C 377.477,89.4675 427.477,124.468 477.5,159.5C 473.784,161.405 469.784,162.739 465.5,163.5C 416.8,128.81 367.8,94.4766 318.5,60.5C 321.291,58.2651 324.291,56.2651 327.5,54.5 Z"/></g>
<g><path style="opacity:0.995" fill="#8d0c0a" d="M 318.5,60.5 C 367.8,94.4766 416.8,128.81 465.5,163.5C 461.734,165.539 457.734,167.205 453.5,168.5C 405.115,134.118 356.448,100.118 307.5,66.5C 310.678,63.7417 314.345,61.7417 318.5,60.5 Z"/></g>
<g><path style="opacity:0.997" fill="#920e0b" d="M 307.5,66.5 C 356.448,100.118 405.115,134.118 453.5,168.5C 449.579,170.029 445.579,171.363 441.5,172.5C 439.217,172.392 437.217,171.559 435.5,170C 389.597,137.248 343.597,104.748 297.5,72.5C 300.494,70.0002 303.827,68.0002 307.5,66.5 Z"/></g>
<g><path style="opacity:0.992" fill="#f39100" d="M 479.5,66.5 C 512.5,66.5 545.5,66.5 578.5,66.5C 594.499,70.8331 610.499,75.1664 626.5,79.5C 579.336,80.4988 532.003,80.8321 484.5,80.5C 483.871,77.6027 482.871,74.936 481.5,72.5C 481.396,70.2972 480.73,68.2972 479.5,66.5 Z"/></g>
<g><path style="opacity:0.995" fill="#990f0d" d="M 297.5,72.5 C 343.597,104.748 389.597,137.248 435.5,170C 437.217,171.559 439.217,172.392 441.5,172.5C 427.715,177.875 413.715,182.875 399.5,187.5C 356.624,156.474 313.29,125.974 269.5,96C 267.234,94.5736 265.568,92.7402 264.5,90.5C 275.367,84.2336 286.367,78.2336 297.5,72.5 Z"/></g>
<g><path style="opacity:0.995" fill="#f18c00" d="M 626.5,79.5 C 634.83,81.8866 643.163,84.3866 651.5,87C 656.223,89.0217 660.557,91.5217 664.5,94.5C 605.5,94.5 546.5,94.5 487.5,94.5C 487.672,93.5084 487.338,92.8417 486.5,92.5C 486.795,90.2646 486.461,88.2646 485.5,86.5C 485.675,84.3792 485.341,82.3792 484.5,80.5C 532.003,80.8321 579.336,80.4988 626.5,79.5 Z"/></g>
<g><path style="opacity:0.996" fill="#9f1111" d="M 264.5,90.5 C 265.568,92.7402 267.234,94.5736 269.5,96C 313.29,125.974 356.624,156.474 399.5,187.5C 386.867,192.935 373.867,197.602 360.5,201.5C 317.129,171.154 273.796,140.821 230.5,110.5C 241.798,103.848 253.131,97.1815 264.5,90.5 Z"/></g>
<g><path style="opacity:0.998" fill="#ef8600" d="M 487.5,94.5 C 546.5,94.5 605.5,94.5 664.5,94.5C 671.096,97.9745 676.762,102.641 681.5,108.5C 616.833,108.5 552.167,108.5 487.5,108.5C 487.5,103.833 487.5,99.1667 487.5,94.5 Z"/></g>
<g><path style="opacity:0.999" fill="#ee8100" d="M 487.5,108.5 C 552.167,108.5 616.833,108.5 681.5,108.5C 684.326,111.484 686.659,114.817 688.5,118.5C 621.669,119.499 554.669,119.832 487.5,119.5C 487.5,115.833 487.5,112.167 487.5,108.5 Z"/></g>
<g><path style="opacity:0.995" fill="#a51414" d="M 230.5,110.5 C 273.796,140.821 317.129,171.154 360.5,201.5C 347.127,207.071 333.46,212.071 319.5,216.5C 279.059,186.773 238.059,157.773 196.5,129.5C 207.538,122.648 218.871,116.314 230.5,110.5 Z"/></g>
<g><path style="opacity:0.998" fill="#ed7d00" d="M 688.5,118.5 C 690.341,120.849 691.674,123.515 692.5,126.5C 624.335,127.499 556.002,127.833 487.5,127.5C 487.5,124.833 487.5,122.167 487.5,119.5C 554.669,119.832 621.669,119.499 688.5,118.5 Z"/></g>
<g><path style="opacity:0.997" fill="#eb7900" d="M 692.5,126.5 C 695.558,131.695 697.558,137.362 698.5,143.5C 628.238,142.504 557.904,142.17 487.5,142.5C 487.5,137.5 487.5,132.5 487.5,127.5C 556.002,127.833 624.335,127.499 692.5,126.5 Z"/></g>
<g><path style="opacity:0.996" fill="#aa1617" d="M 196.5,129.5 C 238.059,157.773 279.059,186.773 319.5,216.5C 311.458,220.071 303.125,223.071 294.5,225.5C 253.944,198.606 213.944,170.939 174.5,142.5C 181.468,137.678 188.801,133.344 196.5,129.5 Z"/></g>
<g><path style="opacity:0.998" fill="#e97300" d="M 487.5,142.5 C 557.904,142.17 628.238,142.504 698.5,143.5C 699.329,148.453 699.663,153.453 699.5,158.5C 628.5,158.5 557.5,158.5 486.5,158.5C 486.5,157.833 486.5,157.167 486.5,156.5C 487.486,152.03 487.819,147.363 487.5,142.5 Z"/></g>
<g><path style="opacity:0.995" fill="#ae1719" d="M 174.5,142.5 C 213.944,170.939 253.944,198.606 294.5,225.5C 285.314,228.759 276.648,233.093 268.5,238.5C 267.525,236.807 266.192,235.307 264.5,234C 226.953,207.613 189.287,181.446 151.5,155.5C 158.905,150.774 166.572,146.441 174.5,142.5 Z"/></g>
<g><path style="opacity:0.995" fill="#b3191c" d="M 151.5,155.5 C 189.287,181.446 226.953,207.613 264.5,234C 266.192,235.307 267.525,236.807 268.5,238.5C 262.017,244.793 257.017,252.126 253.5,260.5C 212.713,232.22 172.046,203.72 131.5,175C 129.559,173.097 127.226,172.264 124.5,172.5C 132.649,165.586 141.649,159.92 151.5,155.5 Z"/></g>
<g><path style="opacity:1" fill="#e76d00" d="M 486.5,158.5 C 557.5,158.5 628.5,158.5 699.5,158.5C 699.5,163.5 699.5,168.5 699.5,173.5C 628.5,173.5 557.5,173.5 486.5,173.5C 486.5,168.5 486.5,163.5 486.5,158.5 Z"/></g>
<g><path style="opacity:0.996" fill="#b81b1e" d="M 124.5,172.5 C 127.226,172.264 129.559,173.097 131.5,175C 172.046,203.72 212.713,232.22 253.5,260.5C 250.257,273.265 248.923,286.265 249.5,299.5C 201.242,266.582 153.242,233.248 105.5,199.5C 109.622,188.914 115.956,179.914 124.5,172.5 Z"/></g>
<g><path style="opacity:0.997" fill="#e56701" d="M 486.5,173.5 C 557.5,173.5 628.5,173.5 699.5,173.5C 699.5,179.5 699.5,185.5 699.5,191.5C 628.833,191.5 558.167,191.5 487.5,191.5C 487.737,192.791 487.404,193.791 486.5,194.5C 486.5,187.5 486.5,180.5 486.5,173.5 Z"/></g>
<g><path style="opacity:0.998" fill="#e36001" d="M 699.5,191.5 C 699.5,196.833 699.5,202.167 699.5,207.5C 628.286,206.842 557.286,207.508 486.5,209.5C 486.5,204.5 486.5,199.5 486.5,194.5C 487.404,193.791 487.737,192.791 487.5,191.5C 558.167,191.5 628.833,191.5 699.5,191.5 Z"/></g>
<g><path style="opacity:0.999" fill="#be1d22" d="M 105.5,199.5 C 153.242,233.248 201.242,266.582 249.5,299.5C 249.5,313.833 249.5,328.167 249.5,342.5C 199.5,307.5 149.5,272.5 99.5,237.5C 98.1196,224.163 100.12,211.497 105.5,199.5 Z"/></g>
<g><path style="opacity:0.998" fill="#e15a01" d="M 699.5,207.5 C 699.5,214.167 699.5,220.833 699.5,227.5C 628.833,227.5 558.167,227.5 487.5,227.5C 487.768,229.099 487.434,230.432 486.5,231.5C 486.5,224.167 486.5,216.833 486.5,209.5C 557.286,207.508 628.286,206.842 699.5,207.5 Z"/></g>
<g><path style="opacity:0.997" fill="#df5401" d="M 699.5,227.5 C 699.5,235.167 699.5,242.833 699.5,250.5C 628.833,250.5 558.167,250.5 487.5,250.5C 487.737,251.791 487.404,252.791 486.5,253.5C 486.5,246.167 486.5,238.833 486.5,231.5C 487.434,230.432 487.768,229.099 487.5,227.5C 558.167,227.5 628.833,227.5 699.5,227.5 Z"/></g>
<g><path style="opacity:0.998" fill="#dd4d01" d="M 699.5,250.5 C 699.5,259.167 699.5,267.833 699.5,276.5C 628.5,276.5 557.5,276.5 486.5,276.5C 486.5,268.833 486.5,261.167 486.5,253.5C 487.404,252.791 487.737,251.791 487.5,250.5C 558.167,250.5 628.833,250.5 699.5,250.5 Z"/></g>
<g><path style="opacity:1" fill="#c52026" d="M 99.5,237.5 C 149.5,272.5 199.5,307.5 249.5,342.5C 249.5,358.5 249.5,374.5 249.5,390.5C 199.529,355.843 149.529,321.176 99.5,286.5C 99.5,270.167 99.5,253.833 99.5,237.5 Z"/></g>
<g><path style="opacity:0.998" fill="#db4701" d="M 486.5,276.5 C 557.5,276.5 628.5,276.5 699.5,276.5C 699.5,283.833 699.5,291.167 699.5,298.5C 628.5,298.5 557.5,298.5 486.5,298.5C 486.5,291.167 486.5,283.833 486.5,276.5 Z"/></g>
<g><path style="opacity:1" fill="#c6242e" d="M 99.5,286.5 C 149.529,321.176 199.529,355.843 249.5,390.5C 249.5,394.833 249.5,399.167 249.5,403.5C 199.529,368.843 149.529,334.176 99.5,299.5C 99.5,295.167 99.5,290.833 99.5,286.5 Z"/></g>
<g><path style="opacity:1" fill="#c52735" d="M 99.5,299.5 C 149.529,334.176 199.529,368.843 249.5,403.5C 249.5,408.5 249.5,413.5 249.5,418.5C 199.242,384.249 149.242,349.582 99.5,314.5C 99.5,309.5 99.5,304.5 99.5,299.5 Z"/></g>
<g><path style="opacity:0.998" fill="#da4101" d="M 486.5,298.5 C 557.5,298.5 628.5,298.5 699.5,298.5C 699.5,309.5 699.5,320.5 699.5,331.5C 628.5,331.5 557.5,331.5 486.5,331.5C 486.5,320.5 486.5,309.5 486.5,298.5 Z"/></g>
<g><path style="opacity:1" fill="#c42a3b" d="M 99.5,314.5 C 149.242,349.582 199.242,384.249 249.5,418.5C 249.5,422.833 249.5,427.167 249.5,431.5C 199.242,397.249 149.242,362.582 99.5,327.5C 99.5,323.167 99.5,318.833 99.5,314.5 Z"/></g>
<g><path style="opacity:1" fill="#c32d41" d="M 99.5,327.5 C 149.242,362.582 199.242,397.249 249.5,431.5C 249.5,435.833 249.5,440.167 249.5,444.5C 199.242,410.249 149.242,375.582 99.5,340.5C 99.5,336.167 99.5,331.833 99.5,327.5 Z"/></g>
<g><path style="opacity:0.998" fill="#d83b01" d="M 486.5,331.5 C 557.5,331.5 628.5,331.5 699.5,331.5C 699.667,438.501 699.5,545.501 699,652.5C 693.91,679.914 678.744,699.414 653.5,711C 581.68,732.219 509.68,752.719 437.5,772.5C 439.072,771.313 440.739,770.313 442.5,769.5C 447.368,767.618 451.701,764.952 455.5,761.5C 459.771,758.899 463.437,755.566 466.5,751.5C 478.291,738.908 484.957,723.908 486.5,706.5C 487.833,674.833 487.833,643.167 486.5,611.5C 486.5,518.167 486.5,424.833 486.5,331.5 Z"/></g>
<g><path style="opacity:1" fill="#c33047" d="M 99.5,340.5 C 149.242,375.582 199.242,410.249 249.5,444.5C 249.5,448.833 249.5,453.167 249.5,457.5C 199.242,423.249 149.242,388.582 99.5,353.5C 99.5,349.167 99.5,344.833 99.5,340.5 Z"/></g>
<g><path style="opacity:1" fill="#c2334d" d="M 99.5,353.5 C 149.242,388.582 199.242,423.249 249.5,457.5C 249.5,462.833 249.5,468.167 249.5,473.5C 199.5,438.5 149.5,403.5 99.5,368.5C 99.5,363.5 99.5,358.5 99.5,353.5 Z"/></g>
<g><path style="opacity:1" fill="#c13755" d="M 99.5,368.5 C 149.5,403.5 199.5,438.5 249.5,473.5C 249.5,478.167 249.5,482.833 249.5,487.5C 199.5,452.5 149.5,417.5 99.5,382.5C 99.5,377.833 99.5,373.167 99.5,368.5 Z"/></g>
<g><path style="opacity:1" fill="#c0395a" d="M 99.5,382.5 C 149.5,417.5 199.5,452.5 249.5,487.5C 249.5,491.833 249.5,496.167 249.5,500.5C 199.5,465.833 149.5,431.167 99.5,396.5C 99.5,391.833 99.5,387.167 99.5,382.5 Z"/></g>
<g><path style="opacity:1" fill="#c03c60" d="M 99.5,396.5 C 149.5,431.167 199.5,465.833 249.5,500.5C 249.5,505.5 249.5,510.5 249.5,515.5C 199.529,480.843 149.529,446.176 99.5,411.5C 99.5,406.5 99.5,401.5 99.5,396.5 Z"/></g>
<g><path style="opacity:0.999" fill="#bf3f67" d="M 99.5,411.5 C 149.529,446.176 199.529,480.843 249.5,515.5C 249.5,521.5 249.5,527.5 249.5,533.5C 199.5,498.5 149.5,463.5 99.5,428.5C 99.5,422.833 99.5,417.167 99.5,411.5 Z"/></g>
<g><path style="opacity:0.998" fill="#be426d" d="M 99.5,428.5 C 149.5,463.5 199.5,498.5 249.5,533.5C 248.812,537.584 247.812,541.584 246.5,545.5C 197.006,512.25 148.006,478.25 99.5,443.5C 99.5,438.5 99.5,433.5 99.5,428.5 Z"/></g>
<g><path style="opacity:0.999" fill="#bd4573" d="M 99.5,443.5 C 148.006,478.25 197.006,512.25 246.5,545.5C 244.754,549.327 242.754,552.993 240.5,556.5C 193.355,524.09 146.355,491.423 99.5,458.5C 99.5,453.5 99.5,448.5 99.5,443.5 Z"/></g>
<g><path style="opacity:0.999" fill="#bd4779" d="M 99.5,458.5 C 146.355,491.423 193.355,524.09 240.5,556.5C 238.547,560.12 235.881,563.12 232.5,565.5C 187.673,535.583 143.34,504.917 99.5,473.5C 99.5,468.5 99.5,463.5 99.5,458.5 Z"/></g>
<g><path style="opacity:0.998" fill="#bc4b81" d="M 99.5,473.5 C 143.34,504.917 187.673,535.583 232.5,565.5C 227.339,570.643 221.339,574.643 214.5,577.5C 176.167,550.833 137.833,524.167 99.5,497.5C 99.5,489.5 99.5,481.5 99.5,473.5 Z"/></g>
<g><path style="opacity:0.998" fill="#bb4e87" d="M 99.5,497.5 C 137.833,524.167 176.167,550.833 214.5,577.5C 210.361,580.072 206.027,582.405 201.5,584.5C 201.586,583.504 201.252,582.671 200.5,582C 166.804,558.49 133.138,534.99 99.5,511.5C 99.5,506.833 99.5,502.167 99.5,497.5 Z"/></g>
<g><path style="opacity:0.998" fill="#ba508c" d="M 99.5,511.5 C 133.138,534.99 166.804,558.49 200.5,582C 201.252,582.671 201.586,583.504 201.5,584.5C 196.667,587.418 191.667,590.084 186.5,592.5C 158.121,571.146 129.121,550.48 99.5,530.5C 99.5,524.167 99.5,517.833 99.5,511.5 Z"/></g>
<g><path style="opacity:0.997" fill="#b95392" d="M 99.5,530.5 C 129.121,550.48 158.121,571.146 186.5,592.5C 181.869,595.151 177.202,597.818 172.5,600.5C 148.466,583.143 124.133,566.143 99.5,549.5C 99.5,543.167 99.5,536.833 99.5,530.5 Z"/></g>
<g><path style="opacity:0.995" fill="#b95698" d="M 99.5,549.5 C 124.133,566.143 148.466,583.143 172.5,600.5C 167.395,603.601 162.062,606.267 156.5,608.5C 156.611,607.883 156.944,607.383 157.5,607C 138.312,593.244 118.979,579.744 99.5,566.5C 99.5,560.833 99.5,555.167 99.5,549.5 Z"/></g>
<g><path style="opacity:0.944" fill="#b8589c" d="M 99.5,566.5 C 118.979,579.744 138.312,593.244 157.5,607C 156.944,607.383 156.611,607.883 156.5,608.5C 129.079,617.708 110.246,608.708 100,581.5C 99.5007,576.511 99.3341,571.511 99.5,566.5 Z"/></g>
<g><path style="opacity:1" fill="#f02c44" d="M 364.5,611.5 C 364.5,611.833 364.5,612.167 364.5,612.5C 364.167,612.5 363.833,612.5 363.5,612.5C 358.833,612.5 354.167,612.5 349.5,612.5C 341.5,612.5 333.5,612.5 325.5,612.5C 317.833,612.5 310.167,612.5 302.5,612.5C 293.5,612.5 284.5,612.5 275.5,612.5C 267.833,612.5 260.167,612.5 252.5,612.5C 252.5,641.833 252.5,671.167 252.5,700.5C 238.727,694.869 226.56,686.869 216,676.5C 203.963,655.684 206.463,636.851 223.5,620C 229.252,615.958 235.585,613.291 242.5,612C 283.165,611.5 323.832,611.333 364.5,611.5 Z"/></g>
<g><path style="opacity:1" fill="#ea273d" d="M 275.5,612.5 C 275.5,646.167 275.5,679.833 275.5,713.5C 267.339,709.923 259.672,705.589 252.5,700.5C 252.5,671.167 252.5,641.833 252.5,612.5C 260.167,612.5 267.833,612.5 275.5,612.5 Z"/></g>
<g><path style="opacity:1" fill="#e42439" d="M 275.5,612.5 C 284.5,612.5 293.5,612.5 302.5,612.5C 302.173,651.573 302.506,690.573 303.5,729.5C 293.833,724.669 284.5,719.336 275.5,713.5C 275.5,679.833 275.5,646.167 275.5,612.5 Z"/></g>
<g><path style="opacity:1" fill="#dd2134" d="M 302.5,612.5 C 310.167,612.5 317.833,612.5 325.5,612.5C 325.172,655.906 325.506,699.239 326.5,742.5C 318.339,738.923 310.672,734.589 303.5,729.5C 302.506,690.573 302.173,651.573 302.5,612.5 Z"/></g>
<g><path style="opacity:1" fill="#d71e30" d="M 325.5,612.5 C 333.5,612.5 341.5,612.5 349.5,612.5C 350.525,656.918 349.192,701.251 345.5,745.5C 345.269,748.81 345.935,751.81 347.5,754.5C 340.004,751.255 333.004,747.255 326.5,742.5C 325.506,699.239 325.172,655.906 325.5,612.5 Z"/></g>
<g><path style="opacity:1" fill="#d11c2c" d="M 349.5,612.5 C 354.167,612.5 358.833,612.5 363.5,612.5C 361.158,655.486 358.991,698.486 357,741.5C 356.877,747.414 356.044,753.081 354.5,758.5C 351.669,757.921 349.336,756.588 347.5,754.5C 345.935,751.81 345.269,748.81 345.5,745.5C 349.192,701.251 350.525,656.918 349.5,612.5 Z"/></g>
<g><path style="opacity:1" fill="#ca1a29" d="M 363.5,612.5 C 363.833,612.5 364.167,612.5 364.5,612.5C 368.167,612.5 371.833,612.5 375.5,612.5C 374.341,620.413 373.507,628.413 373,636.5C 371.278,672.831 369.611,709.164 368,745.5C 367.669,752.044 366.835,758.377 365.5,764.5C 361.345,763.258 357.678,761.258 354.5,758.5C 356.044,753.081 356.877,747.414 357,741.5C 358.991,698.486 361.158,655.486 363.5,612.5 Z"/></g>
<g><path style="opacity:1" fill="#c41926" d="M 375.5,612.5 C 378.5,612.5 381.5,612.5 384.5,612.5C 382.729,645.482 381.229,678.482 380,711.5C 378.168,730.479 376.668,749.479 375.5,768.5C 374.5,768.5 373.5,768.5 372.5,768.5C 369.669,767.921 367.336,766.588 365.5,764.5C 366.835,758.377 367.669,752.044 368,745.5C 369.611,709.164 371.278,672.831 373,636.5C 373.507,628.413 374.341,620.413 375.5,612.5 Z"/></g>
<g><path style="opacity:1" fill="#be1724" d="M 384.5,612.5 C 388.167,612.5 391.833,612.5 395.5,612.5C 393.54,645.837 391.373,679.17 389,712.5C 388.918,732.549 387.918,752.549 386,772.5C 385.329,773.252 384.496,773.586 383.5,773.5C 379.407,772.618 375.74,770.951 372.5,768.5C 373.5,768.5 374.5,768.5 375.5,768.5C 376.668,749.479 378.168,730.479 380,711.5C 381.229,678.482 382.729,645.482 384.5,612.5 Z"/></g>
<g><path style="opacity:1" fill="#b81522" d="M 395.5,612.5 C 398.5,612.5 401.5,612.5 404.5,612.5C 401.342,666.82 398.342,721.153 395.5,775.5C 393.901,775.232 392.568,775.566 391.5,776.5C 388.748,775.488 386.081,774.488 383.5,773.5C 384.496,773.586 385.329,773.252 386,772.5C 387.918,752.549 388.918,732.549 389,712.5C 391.373,679.17 393.54,645.837 395.5,612.5 Z"/></g>
<g><path style="opacity:1" fill="#b1141f" d="M 404.5,612.5 C 408.167,612.5 411.833,612.5 415.5,612.5C 415.993,635.915 414.827,659.248 412,682.5C 412.161,714.228 410.994,745.895 408.5,777.5C 407.5,777.5 406.5,777.5 405.5,777.5C 400.797,777.563 396.13,777.229 391.5,776.5C 392.568,775.566 393.901,775.232 395.5,775.5C 398.342,721.153 401.342,666.82 404.5,612.5 Z"/></g>
<g><path style="opacity:1" fill="#ab121c" d="M 415.5,612.5 C 419.5,612.5 423.5,612.5 427.5,612.5C 425.729,645.482 424.229,678.482 423,711.5C 420.355,733.09 419.189,754.756 419.5,776.5C 417.901,776.232 416.568,776.566 415.5,777.5C 412.015,778.59 408.681,778.59 405.5,777.5C 406.5,777.5 407.5,777.5 408.5,777.5C 410.994,745.895 412.161,714.228 412,682.5C 414.827,659.248 415.993,635.915 415.5,612.5 Z"/></g>
<g><path style="opacity:1" fill="#a6141b" d="M 364.5,612.5 C 364.5,612.167 364.5,611.833 364.5,611.5C 405.167,611.5 445.833,611.5 486.5,611.5C 487.833,643.167 487.833,674.833 486.5,706.5C 486.5,675.167 486.5,643.833 486.5,612.5C 482.167,612.5 477.833,612.5 473.5,612.5C 469.833,612.5 466.167,612.5 462.5,612.5C 458.167,612.5 453.833,612.5 449.5,612.5C 445.833,612.5 442.167,612.5 438.5,612.5C 435.074,646.732 433.574,681.066 434,715.5C 431.778,734.775 430.611,754.108 430.5,773.5C 431.833,773.5 433.167,773.5 434.5,773.5C 428.503,775.912 422.17,777.245 415.5,777.5C 416.568,776.566 417.901,776.232 419.5,776.5C 419.189,754.756 420.355,733.09 423,711.5C 424.229,678.482 425.729,645.482 427.5,612.5C 423.5,612.5 419.5,612.5 415.5,612.5C 411.833,612.5 408.167,612.5 404.5,612.5C 401.5,612.5 398.5,612.5 395.5,612.5C 391.833,612.5 388.167,612.5 384.5,612.5C 381.5,612.5 378.5,612.5 375.5,612.5C 371.833,612.5 368.167,612.5 364.5,612.5 Z"/></g>
<g><path style="opacity:1" fill="#9f0f17" d="M 449.5,612.5 C 446.831,664.024 443.831,715.524 440.5,767C 440.684,768.376 441.351,769.209 442.5,769.5C 440.739,770.313 439.072,771.313 437.5,772.5C 436.791,773.404 435.791,773.737 434.5,773.5C 433.167,773.5 431.833,773.5 430.5,773.5C 430.611,754.108 431.778,734.775 434,715.5C 433.574,681.066 435.074,646.732 438.5,612.5C 442.167,612.5 445.833,612.5 449.5,612.5 Z"/></g>
<g><path style="opacity:1" fill="#990e15" d="M 449.5,612.5 C 453.833,612.5 458.167,612.5 462.5,612.5C 459.955,652.83 457.455,693.163 455,733.5C 454.176,743.009 454.342,752.343 455.5,761.5C 451.701,764.952 447.368,767.618 442.5,769.5C 441.351,769.209 440.684,768.376 440.5,767C 443.831,715.524 446.831,664.024 449.5,612.5 Z"/></g>
<g><path style="opacity:1" fill="#930c13" d="M 462.5,612.5 C 466.167,612.5 469.833,612.5 473.5,612.5C 471.246,642.791 469.746,673.125 469,703.5C 467.778,717.162 466.611,730.829 465.5,744.5C 465.503,747.025 465.837,749.359 466.5,751.5C 463.437,755.566 459.771,758.899 455.5,761.5C 454.342,752.343 454.176,743.009 455,733.5C 457.455,693.163 459.955,652.83 462.5,612.5 Z"/></g>
<g><path style="opacity:1" fill="#8c0b10" d="M 473.5,612.5 C 477.833,612.5 482.167,612.5 486.5,612.5C 486.5,643.833 486.5,675.167 486.5,706.5C 484.957,723.908 478.291,738.908 466.5,751.5C 465.837,749.359 465.503,747.025 465.5,744.5C 466.611,730.829 467.778,717.162 469,703.5C 469.746,673.125 471.246,642.791 473.5,612.5 Z"/></g>
</svg>
