<?xml version="1.0" encoding="UTF-8"?>
<!DOCTYPE svg PUBLIC "-//W3C//DTD SVG 1.1//EN" "http://www.w3.org/Graphics/SVG/1.1/DTD/svg11.dtd">
<svg xmlns="http://www.w3.org/2000/svg" version="1.1" width="256px" height="256px" style="shape-rendering:geometricPrecision; text-rendering:geometricPrecision; image-rendering:optimizeQuality; fill-rule:evenodd; clip-rule:evenodd" xmlns:xlink="http://www.w3.org/1999/xlink">
<g><path style="opacity:0.004" fill="#00fffe" d="M 7.5,1.5 C 87.3323,0.334376 167.332,0.167709 247.5,1C 167.501,1.5 87.5007,1.66666 7.5,1.5 Z"/></g>
<g><path style="opacity:0.087" fill="#142231" d="M 6.5,5.5 C 7.49582,19.3234 7.82915,33.3234 7.5,47.5C 7.5,89.5 7.5,131.5 7.5,173.5C 7.5,194.833 7.5,216.167 7.5,237.5C 41.5,237.5 75.5,237.5 109.5,237.5C 155.5,237.5 201.5,237.5 247.5,237.5C 247.5,198.833 247.5,160.167 247.5,121.5C 247.168,82.6631 247.501,43.9964 248.5,5.5C 249.222,5.08247 249.722,4.4158 250,3.5C 250.667,82.8333 250.667,162.167 250,241.5C 249.5,242 249,242.5 248.5,243C 167.833,243.667 87.1667,243.667 6.5,243C 6,242.5 5.5,242 5,241.5C 4.33333,162.167 4.33333,82.8333 5,3.5C 5.27842,4.4158 5.77842,5.08247 6.5,5.5 Z"/></g>
<g><path style="opacity:0.998" fill="#2ccaf9" d="M 44.5,2.5 C 111.5,2.5 178.5,2.5 245.5,2.5C 225.322,3.23657 204.989,4.0699 184.5,5C 189.5,5.33333 194.5,5.66667 199.5,6C 199.833,6.33333 200.167,6.66667 200.5,7C 199.643,7.68909 198.977,8.52242 198.5,9.5C 192.528,10.3303 186.528,10.8303 180.5,11C 183.5,11.3333 186.5,11.6667 189.5,12C 177.659,12.1693 165.993,12.6693 154.5,13.5C 129.167,13.5 103.833,13.5 78.5,13.5C 80.9686,12.6829 83.6353,12.1829 86.5,12C 77.8333,11.6667 69.1667,11.3333 60.5,11C 61.2567,9.48779 62.2567,8.15445 63.5,7C 70.1667,6.66667 76.8333,6.33333 83.5,6C 82.8333,5.66667 82.1667,5.33333 81.5,5C 66.1667,4.66667 50.8333,4.33333 35.5,4C 38.6946,3.81948 41.6946,3.31948 44.5,2.5 Z"/></g>
<g><path style="opacity:1" fill="#20cff6" d="M 44.5,2.5 C 41.6946,3.31948 38.6946,3.81948 35.5,4C 50.8333,4.33333 66.1667,4.66667 81.5,5C 82.1667,5.33333 82.8333,5.66667 83.5,6C 76.8333,6.33333 70.1667,6.66667 63.5,7C 62.2567,8.15445 61.2567,9.48779 60.5,11C 69.1667,11.3333 77.8333,11.6667 86.5,12C 83.6353,12.1829 80.9686,12.6829 78.5,13.5C 58.1667,13.5 37.8333,13.5 17.5,13.5C 16.6683,31.6621 16.1683,49.9954 16,68.5C 15.6667,54.5 15.3333,40.5 15,26.5C 14.6667,33.1667 14.3333,39.8333 14,46.5C 10.5814,49.3668 8.91474,48.3668 9,43.5C 8.78997,45.0581 8.28997,46.3915 7.5,47.5C 7.82915,33.3234 7.49582,19.3234 6.5,5.5C 6.5,4.5 6.5,3.5 6.5,2.5C 19.1667,2.5 31.8333,2.5 44.5,2.5 Z"/></g>
<g><path style="opacity:0.999" fill="#39c3f9" d="M 245.5,2.5 C 246.5,2.5 247.5,2.5 248.5,2.5C 248.5,3.5 248.5,4.5 248.5,5.5C 247.501,43.9964 247.168,82.6631 247.5,121.5C 246.671,113.343 246.171,105.01 246,96.5C 245.667,101.167 245.333,105.833 245,110.5C 241.203,117.417 239.536,116.75 240,108.5C 239.667,108.167 239.333,107.833 239,107.5C 238.79,109.058 238.29,110.391 237.5,111.5C 237.5,78.8333 237.5,46.1667 237.5,13.5C 209.833,13.5 182.167,13.5 154.5,13.5C 165.993,12.6693 177.659,12.1693 189.5,12C 186.5,11.6667 183.5,11.3333 180.5,11C 186.528,10.8303 192.528,10.3303 198.5,9.5C 198.977,8.52242 199.643,7.68909 200.5,7C 200.167,6.66667 199.833,6.33333 199.5,6C 194.5,5.66667 189.5,5.33333 184.5,5C 204.989,4.0699 225.322,3.23657 245.5,2.5 Z"/></g>
<g><path style="opacity:0.999" fill="#2cc9f7" d="M 17.5,13.5 C 17.5,66.1667 17.5,118.833 17.5,171.5C 16.6829,169.031 16.1829,166.365 16,163.5C 14.6253,165.937 14.1253,168.603 14.5,171.5C 13.0695,171.421 11.7362,171.754 10.5,172.5C 9.67169,167.868 9.17169,163.202 9,158.5C 8.82614,163.684 8.32614,168.684 7.5,173.5C 7.5,131.5 7.5,89.5 7.5,47.5C 8.28997,46.3915 8.78997,45.0581 9,43.5C 8.91474,48.3668 10.5814,49.3668 14,46.5C 14.3333,39.8333 14.6667,33.1667 15,26.5C 15.3333,40.5 15.6667,54.5 16,68.5C 16.1683,49.9954 16.6683,31.6621 17.5,13.5 Z"/></g>
<g><path style="opacity:0.999" fill="#44bffb" d="M 247.5,121.5 C 247.5,160.167 247.5,198.833 247.5,237.5C 201.5,237.5 155.5,237.5 109.5,237.5C 99.3415,236.67 89.0081,236.17 78.5,236C 84.8333,235.667 91.1667,235.333 97.5,235C 99.9962,233.92 102.33,232.586 104.5,231C 101.118,230.824 97.7848,230.324 94.5,229.5C 68.6699,228.833 43.0032,228.167 17.5,227.5C 90.8333,227.5 164.167,227.5 237.5,227.5C 237.5,188.833 237.5,150.167 237.5,111.5C 238.29,110.391 238.79,109.058 239,107.5C 239.333,107.833 239.667,108.167 240,108.5C 239.536,116.75 241.203,117.417 245,110.5C 245.333,105.833 245.667,101.167 246,96.5C 246.171,105.01 246.671,113.343 247.5,121.5 Z"/></g>
<g><path style="opacity:0.999" fill="#3ac3fa" d="M 17.5,171.5 C 17.5,190.167 17.5,208.833 17.5,227.5C 43.0032,228.167 68.6699,228.833 94.5,229.5C 97.7848,230.324 101.118,230.824 104.5,231C 102.33,232.586 99.9962,233.92 97.5,235C 91.1667,235.333 84.8333,235.667 78.5,236C 89.0081,236.17 99.3415,236.67 109.5,237.5C 75.5,237.5 41.5,237.5 7.5,237.5C 7.5,216.167 7.5,194.833 7.5,173.5C 8.32614,168.684 8.82614,163.684 9,158.5C 9.17169,163.202 9.67169,167.868 10.5,172.5C 11.7362,171.754 13.0695,171.421 14.5,171.5C 14.1253,168.603 14.6253,165.937 16,163.5C 16.1829,166.365 16.6829,169.031 17.5,171.5 Z"/></g>
<g><path style="opacity:0.937" fill="#122e41" d="M 17.5,13.5 C 37.8333,13.5 58.1667,13.5 78.5,13.5C 103.833,13.5 129.167,13.5 154.5,13.5C 182.167,13.5 209.833,13.5 237.5,13.5C 237.5,46.1667 237.5,78.8333 237.5,111.5C 237.5,150.167 237.5,188.833 237.5,227.5C 164.167,227.5 90.8333,227.5 17.5,227.5C 17.5,208.833 17.5,190.167 17.5,171.5C 17.5,118.833 17.5,66.1667 17.5,13.5 Z"/></g>
<g><path style="opacity:0.931" fill="#070003" d="M 193.5,14.5 C 207.833,14.5 222.167,14.5 236.5,14.5C 236.5,85.1667 236.5,155.833 236.5,226.5C 163.833,226.5 91.1667,226.5 18.5,226.5C 18.5,191.833 18.5,157.167 18.5,122.5C 19.4956,135.656 19.8289,148.99 19.5,162.5C 19.5,176.833 19.5,191.167 19.5,205.5C 19.5,212.167 19.5,218.833 19.5,225.5C 61.5,225.5 103.5,225.5 145.5,225.5C 175.5,225.5 205.5,225.5 235.5,225.5C 235.5,155.5 235.5,85.5 235.5,15.5C 223.5,15.5 211.5,15.5 199.5,15.5C 197.265,15.7947 195.265,15.4614 193.5,14.5 Z"/></g>
<g><path style="opacity:1" fill="#41bcf7" d="M 178.5,120.5 C 180.98,121.242 183.313,122.242 185.5,123.5C 189.608,127.114 192.775,131.447 195,136.5C 197.526,155.463 189.36,166.13 170.5,168.5C 162.075,169.41 154.075,168.076 146.5,164.5C 145.167,158.5 145.167,152.5 146.5,146.5C 155.1,152.385 164.433,153.885 174.5,151C 177.864,147.974 178.364,144.474 176,140.5C 172.932,137.917 169.765,135.584 166.5,133.5C 169.518,133.506 172.184,134.506 174.5,136.5C 178.762,133.432 181.929,129.765 184,125.5C 182.559,124.74 181.059,124.074 179.5,123.5C 178.614,122.675 178.281,121.675 178.5,120.5 Z"/></g>
<g><path style="opacity:0.897" fill="#0e0c22" d="M 66.5,58.5 C 66.8333,58.5 67.1667,58.5 67.5,58.5C 67.5,70.5 67.5,82.5 67.5,94.5C 67.5,118.5 67.5,142.5 67.5,166.5C 73.31,167.49 79.31,167.823 85.5,167.5C 85.5,154.167 85.5,140.833 85.5,127.5C 85.8333,127.5 86.1667,127.5 86.5,127.5C 86.1387,142.534 86.4721,154.2 87.5,162.5C 116.896,162.397 137.563,149.063 149.5,122.5C 154.377,127.375 160.043,131.041 166.5,133.5C 169.765,135.584 172.932,137.917 176,140.5C 178.364,144.474 177.864,147.974 174.5,151C 164.433,153.885 155.1,152.385 146.5,146.5C 145.167,152.5 145.167,158.5 146.5,164.5C 154.075,168.076 162.075,169.41 170.5,168.5C 171.952,169.302 173.618,169.802 175.5,170C 170.336,171.821 166.336,175.155 163.5,180C 134.356,204.808 101.356,211.474 64.5,200C 49.0511,194.942 34.7178,187.776 21.5,178.5C 20.8333,187.658 20.1666,196.658 19.5,205.5C 19.5,191.167 19.5,176.833 19.5,162.5C 20.3302,152.675 20.8302,142.675 21,132.5C 33.3722,143.848 47.5389,152.348 63.5,158C 64.2822,160.74 64.7822,163.574 65,166.5C 65.4999,150.17 65.6666,133.837 65.5,117.5C 66.4971,98.0071 66.8304,78.3404 66.5,58.5 Z"/></g>
<g><path style="opacity:0.965" fill="#2ea2cf" d="M 85.5,127.5 C 85.5,140.833 85.5,154.167 85.5,167.5C 79.31,167.823 73.31,167.49 67.5,166.5C 73.1667,166.5 78.8333,166.5 84.5,166.5C 84.1712,153.323 84.5045,140.323 85.5,127.5 Z"/></g>
<g><path style="opacity:0.955" fill="#090717" d="M 199.5,15.5 C 211.5,15.5 223.5,15.5 235.5,15.5C 235.5,85.5 235.5,155.5 235.5,225.5C 205.5,225.5 175.5,225.5 145.5,225.5C 159.087,224.964 172.754,224.131 186.5,223C 212.06,199.384 227.227,170.218 232,135.5C 237.1,94.697 231.6,55.3637 215.5,17.5C 210.015,16.8332 204.681,16.1665 199.5,15.5 Z"/></g>
<g><path style="opacity:0.953" fill="#2983aa" d="M 191.5,87.5 C 192.489,92.9753 192.822,98.642 192.5,104.5C 191.209,104.737 190.209,104.404 189.5,103.5C 191.446,98.6042 192.113,93.2709 191.5,87.5 Z"/></g>
<g><path style="opacity:1" fill="#37c2f6" d="M 191.5,87.5 C 192.113,93.2709 191.446,98.6042 189.5,103.5C 182.841,100.337 175.841,99.1704 168.5,100C 160.94,104.136 160.607,108.803 167.5,114C 171.23,116.193 174.897,118.36 178.5,120.5C 178.281,121.675 178.614,122.675 179.5,123.5C 181.059,124.074 182.559,124.74 184,125.5C 181.929,129.765 178.762,133.432 174.5,136.5C 172.184,134.506 169.518,133.506 166.5,133.5C 160.043,131.041 154.377,127.375 149.5,122.5C 141.725,107.619 144.725,95.6191 158.5,86.5C 167.031,84.498 175.698,83.998 184.5,85C 187.191,85.1558 189.524,85.9891 191.5,87.5 Z"/></g>
<g><path style="opacity:0.929" fill="#0b091c" d="M 123.5,14.5 C 146.833,14.5 170.167,14.5 193.5,14.5C 195.265,15.4614 197.265,15.7947 199.5,15.5C 204.681,16.1665 210.015,16.8332 215.5,17.5C 231.6,55.3637 237.1,94.697 232,135.5C 227.227,170.218 212.06,199.384 186.5,223C 172.754,224.131 159.087,224.964 145.5,225.5C 103.5,225.5 61.5,225.5 19.5,225.5C 19.5,218.833 19.5,212.167 19.5,205.5C 20.1666,196.658 20.8333,187.658 21.5,178.5C 34.7178,187.776 49.0511,194.942 64.5,200C 101.356,211.474 134.356,204.808 163.5,180C 166.336,175.155 170.336,171.821 175.5,170C 173.618,169.802 171.952,169.302 170.5,168.5C 189.36,166.13 197.526,155.463 195,136.5C 192.775,131.447 189.608,127.114 185.5,123.5C 187.91,123.921 189.743,125.254 191,127.5C 198.664,89.3088 193.831,52.6421 176.5,17.5C 171.88,16.5067 167.214,16.1734 162.5,16.5C 149.5,15.8333 136.5,15.1667 123.5,14.5 Z"/></g>
<g><path style="opacity:0.897" fill="#0e0c22" d="M 162.5,16.5 C 167.214,16.1734 171.88,16.5067 176.5,17.5C 193.831,52.6421 198.664,89.3088 191,127.5C 189.743,125.254 187.91,123.921 185.5,123.5C 183.313,122.242 180.98,121.242 178.5,120.5C 174.897,118.36 171.23,116.193 167.5,114C 160.607,108.803 160.94,104.136 168.5,100C 175.841,99.1704 182.841,100.337 189.5,103.5C 190.209,104.404 191.209,104.737 192.5,104.5C 192.822,98.642 192.489,92.9753 191.5,87.5C 189.524,85.9891 187.191,85.1558 184.5,85C 175.698,83.998 167.031,84.498 158.5,86.5C 157.154,61.6159 150.154,38.4493 137.5,17C 145.827,16.5003 154.16,16.3336 162.5,16.5 Z"/></g>
<g><path style="opacity:0.865" fill="#100d27" d="M 123.5,14.5 C 136.5,15.1667 149.5,15.8333 162.5,16.5C 154.16,16.3336 145.827,16.5003 137.5,17C 150.154,38.4493 157.154,61.6159 158.5,86.5C 144.725,95.6191 141.725,107.619 149.5,122.5C 137.563,149.063 116.896,162.397 87.5,162.5C 86.4721,154.2 86.1387,142.534 86.5,127.5C 102.812,129.742 116.645,125.075 128,113.5C 135.04,101.568 136.206,89.2348 131.5,76.5C 127.739,67.7381 121.406,61.7381 112.5,58.5C 114.604,58.7989 116.604,58.4656 118.5,57.5C 114.462,41.5819 106.462,28.0819 94.5,17C 102.5,16.6667 110.5,16.3333 118.5,16C 85.5017,15.5 52.5017,15.3334 19.5,15.5C 19.3334,46.5018 19.5,77.5018 20,108.5C 20.3333,97.8333 20.6667,87.1667 21,76.5C 30.0869,95.42 44.2535,109.087 63.5,117.5C 64.8299,94.8723 65.4966,94.8723 65.5,117.5C 65.6666,133.837 65.4999,150.17 65,166.5C 64.7822,163.574 64.2822,160.74 63.5,158C 47.5389,152.348 33.3722,143.848 21,132.5C 20.8302,142.675 20.3302,152.675 19.5,162.5C 19.8289,148.99 19.4956,135.656 18.5,122.5C 18.5,86.5 18.5,50.5 18.5,14.5C 53.5,14.5 88.5,14.5 123.5,14.5 Z"/></g>
<g><path style="opacity:0.821" fill="#110001" d="M 85.5,73.5 C 86.552,73.3505 87.552,73.5172 88.5,74C 86.8554,86.0941 85.8554,98.2608 85.5,110.5C 85.5,98.1667 85.5,85.8333 85.5,73.5 Z"/></g>
<g><path style="opacity:0.838" fill="#12102d" d="M 85.5,73.5 C 85.5,73.1667 85.5,72.8333 85.5,72.5C 93.4825,71.7822 101.149,72.9489 108.5,76C 112.8,79.1021 115.133,83.2687 115.5,88.5C 116.978,102.065 110.978,109.565 97.5,111C 93.3112,111.812 89.3112,111.645 85.5,110.5C 85.8554,98.2608 86.8554,86.0941 88.5,74C 87.552,73.5172 86.552,73.3505 85.5,73.5 Z"/></g>
<g><path style="opacity:1" fill="#30c5f6" d="M 85.5,72.5 C 85.5,72.8333 85.5,73.1667 85.5,73.5C 85.5,85.8333 85.5,98.1667 85.5,110.5C 89.3112,111.645 93.3112,111.812 97.5,111C 110.978,109.565 116.978,102.065 115.5,88.5C 116.317,90.9686 116.817,93.6353 117,96.5C 117.333,92.8333 117.667,89.1667 118,85.5C 121.667,81.8333 125.333,78.1667 129,74.5C 129.417,75.756 130.25,76.4226 131.5,76.5C 136.206,89.2348 135.04,101.568 128,113.5C 116.645,125.075 102.812,129.742 86.5,127.5C 86.1667,127.5 85.8333,127.5 85.5,127.5C 84.5045,140.323 84.1712,153.323 84.5,166.5C 78.8333,166.5 73.1667,166.5 67.5,166.5C 67.5,142.5 67.5,118.5 67.5,94.5C 68.3272,99.9851 68.8272,105.652 69,111.5C 73.5247,111.168 78.0247,109.835 82.5,107.5C 83.2811,108.729 83.7811,110.062 84,111.5C 84.169,98.3269 84.669,85.3269 85.5,72.5 Z"/></g>
<g><path style="opacity:1" fill="#25cbf4" d="M 98.5,56.5 C 103.3,56.3497 107.967,57.0164 112.5,58.5C 121.406,61.7381 127.739,67.7381 131.5,76.5C 130.25,76.4226 129.417,75.756 129,74.5C 125.333,78.1667 121.667,81.8333 118,85.5C 117.667,89.1667 117.333,92.8333 117,96.5C 116.817,93.6353 116.317,90.9686 115.5,88.5C 115.133,83.2687 112.8,79.1021 108.5,76C 101.149,72.9489 93.4825,71.7822 85.5,72.5C 84.669,85.3269 84.169,98.3269 84,111.5C 83.7811,110.062 83.2811,108.729 82.5,107.5C 78.0247,109.835 73.5247,111.168 69,111.5C 68.8272,105.652 68.3272,99.9851 67.5,94.5C 67.5,82.5 67.5,70.5 67.5,58.5C 67.6107,57.8826 67.944,57.3826 68.5,57C 78.4944,56.5002 88.4944,56.3335 98.5,56.5 Z"/></g>
<g><path style="opacity:0.839" fill="#110f2c" d="M 112.5,58.5 C 107.967,57.0164 103.3,56.3497 98.5,56.5C 98.8212,54.9519 99.8212,54.2852 101.5,54.5C 96.784,38.9418 87.1173,27.4418 72.5,20C 46.6504,12.0056 32.3171,21.5056 29.5,48.5C 30.5662,66.4654 37.8995,81.2988 51.5,93C 55.3088,96.2377 59.6421,98.4044 64.5,99.5C 64.3334,85.496 64.5001,71.496 65,57.5C 65.3826,58.056 65.8826,58.3893 66.5,58.5C 66.8304,78.3404 66.4971,98.0071 65.5,117.5C 65.4966,94.8723 64.8299,94.8723 63.5,117.5C 44.2535,109.087 30.0869,95.42 21,76.5C 20.6667,87.1667 20.3333,97.8333 20,108.5C 19.5,77.5018 19.3334,46.5018 19.5,15.5C 52.5017,15.3334 85.5017,15.5 118.5,16C 110.5,16.3333 102.5,16.6667 94.5,17C 106.462,28.0819 114.462,41.5819 118.5,57.5C 116.604,58.4656 114.604,58.7989 112.5,58.5 Z"/></g>
<g><path style="opacity:0.826" fill="#130f2f" d="M 98.5,56.5 C 88.4944,56.3335 78.4944,56.5002 68.5,57C 67.944,57.3826 67.6107,57.8826 67.5,58.5C 67.1667,58.5 66.8333,58.5 66.5,58.5C 65.8826,58.3893 65.3826,58.056 65,57.5C 64.5001,71.496 64.3334,85.496 64.5,99.5C 59.6421,98.4044 55.3088,96.2377 51.5,93C 37.8995,81.2988 30.5662,66.4654 29.5,48.5C 32.3171,21.5056 46.6504,12.0056 72.5,20C 87.1173,27.4418 96.784,38.9418 101.5,54.5C 99.8212,54.2852 98.8212,54.9519 98.5,56.5 Z"/></g>
</svg>
