<?xml version="1.0" encoding="UTF-8"?>
<!DOCTYPE svg PUBLIC "-//W3C//DTD SVG 1.1//EN" "http://www.w3.org/Graphics/SVG/1.1/DTD/svg11.dtd">
<svg xmlns="http://www.w3.org/2000/svg" version="1.1" width="441px" height="441px" style="shape-rendering:geometricPrecision; text-rendering:geometricPrecision; image-rendering:optimizeQuality; fill-rule:evenodd; clip-rule:evenodd" xmlns:xlink="http://www.w3.org/1999/xlink">
<g><path style="opacity:0.993" fill="#222222" d="M 198.5,-0.5 C 212.833,-0.5 227.167,-0.5 241.5,-0.5C 323.912,10.6131 383.746,53.2797 421,127.5C 431.273,150.6 437.773,174.6 440.5,199.5C 440.5,213.167 440.5,226.833 440.5,240.5C 430.764,318.04 392.098,376.206 324.5,415C 298.246,428.476 270.58,436.976 241.5,440.5C 227.167,440.5 212.833,440.5 198.5,440.5C 116.086,429.386 56.2529,386.72 19,312.5C 8.8879,289.352 2.3879,265.352 -0.5,240.5C -0.5,226.833 -0.5,213.167 -0.5,199.5C 12.4814,105.056 63.8147,41.5562 153.5,9C 168.432,4.84832 183.432,1.68166 198.5,-0.5 Z"/></g>
<g><path style="opacity:1" fill="#5fd6f7" d="M 143.5,67.5 C 155.694,66.1897 167.361,68.023 178.5,73C 195.267,81.3839 210.267,92.2172 223.5,105.5C 239.295,89.5438 257.628,77.3771 278.5,69C 309.006,63.1615 326.506,75.6615 331,106.5C 331.667,115.167 331.667,123.833 331,132.5C 329.537,143.272 327.871,153.939 326,164.5C 349.404,170.533 370.07,181.533 388,197.5C 400.393,211.829 401.727,227.162 392,243.5C 381.146,256.855 367.646,266.689 351.5,273C 342.981,276.34 334.315,279.173 325.5,281.5C 330.259,299.874 332.093,318.54 331,337.5C 326.036,373.727 306.203,386.227 271.5,375C 253.578,366.543 237.578,355.376 223.5,341.5C 209.97,354.86 194.637,365.693 177.5,374C 142.437,387.385 121.937,375.552 116,338.5C 114.743,319.198 116.576,300.198 121.5,281.5C 101.88,276.856 83.8801,268.689 67.5,257C 41.5189,233.155 42.1855,210.155 69.5,188C 85.4682,177.183 102.802,169.35 121.5,164.5C 119.13,153.948 117.297,143.282 116,132.5C 113.096,114.365 116.096,97.3649 125,81.5C 129.907,75.083 136.074,70.4163 143.5,67.5 Z"/></g>
<g><path style="opacity:1" fill="#222222" d="M 146.5,82.5 C 158.365,81.1767 169.365,83.6767 179.5,90C 191.536,97.5348 202.536,106.368 212.5,116.5C 201.882,127.947 192.215,140.113 183.5,153C 167.318,154.395 151.318,156.895 135.5,160.5C 133.582,149.571 132.082,138.571 131,127.5C 128.87,114.439 130.87,102.106 137,90.5C 139.772,87.2166 142.939,84.5499 146.5,82.5 Z"/></g>
<g><path style="opacity:1" fill="#222223" d="M 285.5,82.5 C 299.676,79.6682 309.176,85.0015 314,98.5C 315.906,104.515 316.739,110.682 316.5,117C 315.909,131.636 314.242,146.136 311.5,160.5C 295.666,157.059 279.666,154.559 263.5,153C 254.785,140.113 245.118,127.947 234.5,116.5C 248.767,100.881 265.767,89.5472 285.5,82.5 Z"/></g>
<g><path style="opacity:1" fill="#222424" d="M 222.5,127.5 C 224.017,127.511 225.184,128.177 226,129.5C 231.833,136.667 237.667,143.833 243.5,151C 230.167,151.667 216.833,151.667 203.5,151C 210.046,143.292 216.38,135.459 222.5,127.5 Z"/></g>
<g><path style="opacity:1" fill="#222323" d="M 204.5,166.5 C 221.528,166.184 238.528,166.684 255.5,168C 268.25,185.675 278.75,204.508 287,224.5C 277.637,243.402 267.137,261.569 255.5,279C 234.167,279.667 212.833,279.667 191.5,279C 179.863,261.569 169.363,243.402 160,224.5C 168.25,204.508 178.75,185.675 191.5,168C 196.019,167.825 200.353,167.325 204.5,166.5 Z"/></g>
<g><path style="opacity:1" fill="#232526" d="M 166.5,169.5 C 168.288,169.215 169.955,169.548 171.5,170.5C 164.833,181.833 158.167,193.167 151.5,204.5C 147.244,195.066 143.577,185.399 140.5,175.5C 149.262,173.351 157.928,171.351 166.5,169.5 Z"/></g>
<g><path style="opacity:1" fill="#232425" d="M 274.5,170.5 C 275.097,169.861 275.93,169.528 277,169.5C 286.764,171.655 296.597,173.322 306.5,174.5C 303.628,184.781 299.961,194.781 295.5,204.5C 290.333,195.5 285.167,186.5 280,177.5C 278.303,174.98 276.47,172.647 274.5,170.5 Z"/></g>
<g><path style="opacity:1" fill="#222323" d="M 121.5,179.5 C 124.238,178.965 126.072,179.965 127,182.5C 131.473,196.276 136.639,209.776 142.5,223C 136.214,237.188 130.714,251.688 126,266.5C 104.144,262.738 85.1442,253.071 69,237.5C 61.1539,226.606 61.8206,216.273 71,206.5C 85.9502,193.942 102.783,184.942 121.5,179.5 Z"/></g>
<g><path style="opacity:1" fill="#222222" d="M 320.5,179.5 C 341.47,183.569 359.97,192.569 376,206.5C 384.21,214.85 385.544,224.184 380,234.5C 372.206,244.622 362.372,252.122 350.5,257C 341.203,261.098 331.703,264.598 322,267.5C 316.568,252.542 310.735,237.709 304.5,223C 310.926,208.887 316.259,194.387 320.5,179.5 Z"/></g>
<g><path style="opacity:1" fill="#60d7f8" d="M 218.5,191.5 C 244.338,192.5 256.171,205.834 254,231.5C 247.33,248.589 234.83,256.089 216.5,254C 197.556,247.631 189.722,234.465 193,214.5C 197.615,202.379 206.115,194.712 218.5,191.5 Z"/></g>
<g><path style="opacity:1" fill="#232626" d="M 150.5,241.5 C 151.376,241.369 152.043,241.702 152.5,242.5C 158.075,253.99 164.409,264.99 171.5,275.5C 161.036,275.673 150.703,274.339 140.5,271.5C 143.274,261.291 146.608,251.291 150.5,241.5 Z"/></g>
<g><path style="opacity:1" fill="#232525" d="M 294.5,241.5 C 300.067,250.668 304.067,260.668 306.5,271.5C 296.862,273.273 287.195,274.94 277.5,276.5C 276.833,276.167 276.167,275.833 275.5,275.5C 282.871,264.758 289.205,253.425 294.5,241.5 Z"/></g>
<g><path style="opacity:1" fill="#222223" d="M 136.5,286.5 C 152.06,289.478 167.727,291.812 183.5,293.5C 191.719,305.557 200.886,316.891 211,327.5C 211.982,328.759 212.315,330.092 212,331.5C 200.623,342.212 188.123,351.378 174.5,359C 148.176,371.427 133.676,363.26 131,334.5C 129.421,318.064 131.254,302.064 136.5,286.5 Z"/></g>
<g><path style="opacity:1" fill="#222323" d="M 304.5,286.5 C 306.792,286.244 308.959,286.577 311,287.5C 316.552,305.859 317.885,324.526 315,343.5C 309.12,364.017 296.287,369.851 276.5,361C 260.999,353.497 247.165,343.663 235,331.5C 234.685,330.092 235.018,328.759 236,327.5C 245.923,316.915 255.089,305.748 263.5,294C 277.394,291.997 291.061,289.497 304.5,286.5 Z"/></g>
<g><path style="opacity:1" fill="#396571" d="M 242.5,296.5 C 229.833,295.167 217.167,295.167 204.5,296.5C 203.957,296.44 203.624,296.107 203.5,295.5C 216.833,294.167 230.167,294.167 243.5,295.5C 243.376,296.107 243.043,296.44 242.5,296.5 Z"/></g>
<g><path style="opacity:1" fill="#222424" d="M 242.5,296.5 C 236.908,304.429 230.574,311.762 223.5,318.5C 216.426,311.762 210.092,304.429 204.5,296.5C 217.167,295.167 229.833,295.167 242.5,296.5 Z"/></g>
</svg>
