<?xml version="1.0" encoding="UTF-8"?>
<!DOCTYPE svg PUBLIC "-//W3C//DTD SVG 1.1//EN" "http://www.w3.org/Graphics/SVG/1.1/DTD/svg11.dtd">
<svg xmlns="http://www.w3.org/2000/svg" version="1.1" width="1200px" height="1200px" style="shape-rendering:geometricPrecision; text-rendering:geometricPrecision; image-rendering:optimizeQuality; fill-rule:evenodd; clip-rule:evenodd" xmlns:xlink="http://www.w3.org/1999/xlink">
<g><path style="opacity:0.999" fill="#dddcd9" d="M 1087.5,944.5 C 1085.02,957.272 1080.35,969.272 1073.5,980.5C 1069.06,986.694 1063.73,992.027 1057.5,996.5C 1047.52,1004.32 1036.18,1009.15 1023.5,1011C 742.167,1011.5 460.834,1011.67 179.5,1011.5C 165.256,1010.37 152.59,1005.37 141.5,996.5C 138.997,994.167 136.331,992.001 133.5,990C 130.969,986.642 128.302,983.476 125.5,980.5C 118.447,968.998 113.78,956.665 111.5,943.5C 111.333,688.5 111.5,433.5 112,178.5C 116.628,147.202 133.795,126.035 163.5,115C 168.406,113.524 173.406,112.524 178.5,112C 459.167,111.333 739.833,111.333 1020.5,112C 1051.8,116.628 1072.97,133.795 1084,163.5C 1085.48,168.406 1086.48,173.406 1087,178.5C 1087.5,433.833 1087.67,689.166 1087.5,944.5 Z"/></g>
<g><path style="opacity:1" fill="#241f31" d="M 179.5,149.5 C 458.5,149.333 737.5,149.5 1016.5,150C 1033.35,153.178 1044.18,163.012 1049,179.5C 1049.67,433.5 1049.67,687.5 1049,941.5C 1045.5,959.667 1034.67,970.5 1016.5,974C 737.5,974.667 458.5,974.667 179.5,974C 163.012,969.18 153.178,958.346 150,941.5C 149.333,687.5 149.333,433.5 150,179.5C 154.683,164.317 164.517,154.317 179.5,149.5 Z"/></g>
<g><path style="opacity:1" fill="#272334" d="M 530.5,240.5 C 691.087,238.874 851.42,244.207 1011.5,256.5C 1012.4,483.499 1012.74,710.499 1012.5,937.5C 737.167,937.5 461.833,937.5 186.5,937.5C 186.264,710.499 186.598,483.499 187.5,256.5C 301.812,247.641 416.145,242.307 530.5,240.5 Z"/></g>
<g><path style="opacity:1" fill="#fcfcfc" d="M 263.5,455.5 C 262.504,441.01 262.171,426.343 262.5,411.5C 292.828,395.671 322.828,379.338 352.5,362.5C 322.841,347.338 292.841,332.672 262.5,318.5C 261.501,303.848 261.167,289.182 261.5,274.5C 305.635,297.486 349.468,321.153 393,345.5C 393.82,357.076 393.654,368.576 392.5,380C 349.472,405.178 306.472,430.345 263.5,455.5 Z"/></g>
<g><path style="opacity:1" fill="#908d97" d="M 262.5,411.5 C 262.171,426.343 262.504,441.01 263.5,455.5C 263.44,456.043 263.107,456.376 262.5,456.5C 261.174,441.339 261.174,426.339 262.5,411.5 Z"/></g>
<g><path style="opacity:1" fill="#8a8891" d="M 430.5,487.5 C 480.664,486.501 530.997,486.168 581.5,486.5C 581.829,499.344 581.495,512.011 580.5,524.5C 580.5,512.167 580.5,499.833 580.5,487.5C 530.5,487.5 480.5,487.5 430.5,487.5 Z"/></g>
<g><path style="opacity:1" fill="#fefefe" d="M 430.5,487.5 C 480.5,487.5 530.5,487.5 580.5,487.5C 580.5,499.833 580.5,512.167 580.5,524.5C 530.5,524.5 480.5,524.5 430.5,524.5C 430.5,512.167 430.5,499.833 430.5,487.5 Z"/></g>
<g><path style="opacity:1" fill="#2a2637" d="M 1011.5,683.5 C 875.822,654.532 738.488,640.198 599.5,640.5C 474.039,640.346 349.705,652.013 226.5,675.5C 213.531,674.537 200.531,674.204 187.5,674.5C 187.5,656.167 187.5,637.833 187.5,619.5C 424.025,580.328 661.358,574.828 899.5,603C 936.976,607.616 974.31,613.116 1011.5,619.5C 1011.5,640.833 1011.5,662.167 1011.5,683.5 Z"/></g>
<g><path style="opacity:1" fill="#2c2738" d="M 1011.5,683.5 C 1011.5,743.167 1011.5,802.833 1011.5,862.5C 999.167,862.5 986.833,862.5 974.5,862.5C 974.5,874.833 974.5,887.167 974.5,899.5C 962.167,899.5 949.833,899.5 937.5,899.5C 937.5,911.833 937.5,924.167 937.5,936.5C 924.833,936.5 912.167,936.5 899.5,936.5C 899.5,924.167 899.5,911.833 899.5,899.5C 887.167,899.5 874.833,899.5 862.5,899.5C 862.5,911.833 862.5,924.167 862.5,936.5C 849.833,936.5 837.167,936.5 824.5,936.5C 824.5,924.167 824.5,911.833 824.5,899.5C 812.167,899.5 799.833,899.5 787.5,899.5C 787.5,911.833 787.5,924.167 787.5,936.5C 774.833,936.5 762.167,936.5 749.5,936.5C 749.5,924.167 749.5,911.833 749.5,899.5C 737.167,899.5 724.833,899.5 712.5,899.5C 712.5,911.833 712.5,924.167 712.5,936.5C 699.833,936.5 687.167,936.5 674.5,936.5C 674.5,924.167 674.5,911.833 674.5,899.5C 662.167,899.5 649.833,899.5 637.5,899.5C 637.5,911.833 637.5,924.167 637.5,936.5C 624.833,936.5 612.167,936.5 599.5,936.5C 599.5,924.167 599.5,911.833 599.5,899.5C 587.167,899.5 574.833,899.5 562.5,899.5C 562.5,911.833 562.5,924.167 562.5,936.5C 549.833,936.5 537.167,936.5 524.5,936.5C 524.5,924.167 524.5,911.833 524.5,899.5C 512.167,899.5 499.833,899.5 487.5,899.5C 487.5,911.833 487.5,924.167 487.5,936.5C 474.833,936.5 462.167,936.5 449.5,936.5C 449.5,924.167 449.5,911.833 449.5,899.5C 437.167,899.5 424.833,899.5 412.5,899.5C 412.5,911.833 412.5,924.167 412.5,936.5C 399.833,936.5 387.167,936.5 374.5,936.5C 374.5,924.167 374.5,911.833 374.5,899.5C 362.167,899.5 349.833,899.5 337.5,899.5C 337.5,911.833 337.5,924.167 337.5,936.5C 324.833,936.5 312.167,936.5 299.5,936.5C 299.5,924.167 299.5,911.833 299.5,899.5C 287.167,899.5 274.833,899.5 262.5,899.5C 262.5,911.833 262.5,924.167 262.5,936.5C 249.833,936.5 237.167,936.5 224.5,936.5C 224.5,924.167 224.5,911.833 224.5,899.5C 212.167,899.5 199.833,899.5 187.5,899.5C 187.5,886.833 187.5,874.167 187.5,861.5C 199.833,861.5 212.167,861.5 224.5,861.5C 224.5,849.833 224.5,838.167 224.5,826.5C 212.167,826.5 199.833,826.5 187.5,826.5C 187.5,775.833 187.5,725.167 187.5,674.5C 200.531,674.204 213.531,674.537 226.5,675.5C 349.705,652.013 474.039,640.346 599.5,640.5C 738.488,640.198 875.822,654.532 1011.5,683.5 Z"/></g>
<g><path style="opacity:0.991" fill="#828185" d="M 111.5,943.5 C 113.78,956.665 118.447,968.998 125.5,980.5C 125.5,1005.5 125.5,1030.5 125.5,1055.5C 117.715,1045.24 113.215,1033.57 112,1020.5C 111.5,994.835 111.333,969.169 111.5,943.5 Z"/></g>
<g><path style="opacity:0.999" fill="#838286" d="M 1087.5,944.5 C 1087.67,969.836 1087.5,995.169 1087,1020.5C 1085.49,1032.88 1081.32,1044.21 1074.5,1054.5C 1073.5,1030.01 1073.17,1005.34 1073.5,980.5C 1080.35,969.272 1085.02,957.272 1087.5,944.5 Z"/></g>
<g><path style="opacity:0.998" fill="#9a999a" d="M 125.5,980.5 C 128.302,983.476 130.969,986.642 133.5,990C 136.331,992.001 138.997,994.167 141.5,996.5C 141.5,1021.83 141.5,1047.17 141.5,1072.5C 135.462,1067.46 130.129,1061.8 125.5,1055.5C 125.5,1030.5 125.5,1005.5 125.5,980.5 Z"/></g>
<g><path style="opacity:0.995" fill="#9a999a" d="M 1073.5,980.5 C 1073.17,1005.34 1073.5,1030.01 1074.5,1054.5C 1069.87,1060.8 1064.54,1066.46 1058.5,1071.5C 1057.5,1046.67 1057.17,1021.67 1057.5,996.5C 1063.73,992.027 1069.06,986.694 1073.5,980.5 Z"/></g>
<g><path style="opacity:0.997" fill="#b5b4b1" d="M 141.5,996.5 C 152.59,1005.37 165.256,1010.37 179.5,1011.5C 182.625,1012.48 185.958,1012.81 189.5,1012.5C 189.177,1037.57 189.51,1062.57 190.5,1087.5C 172.313,1088.21 155.98,1083.21 141.5,1072.5C 141.5,1047.17 141.5,1021.83 141.5,996.5 Z"/></g>
<g><path style="opacity:0.999" fill="#b6b5b3" d="M 1057.5,996.5 C 1057.17,1021.67 1057.5,1046.67 1058.5,1071.5C 1043.96,1082.98 1027.3,1088.31 1008.5,1087.5C 1009.49,1062.57 1009.82,1037.57 1009.5,1012.5C 1003.83,1012.5 998.167,1012.5 992.5,1012.5C 724.833,1012.5 457.167,1012.5 189.5,1012.5C 185.958,1012.81 182.625,1012.48 179.5,1011.5C 460.834,1011.67 742.167,1011.5 1023.5,1011C 1036.18,1009.15 1047.52,1004.32 1057.5,996.5 Z"/></g>
<g><path style="opacity:0.994" fill="#9a9996" d="M 189.5,1012.5 C 457.167,1012.5 724.833,1012.5 992.5,1012.5C 992.5,1037.5 992.5,1062.5 992.5,1087.5C 725.167,1087.5 457.833,1087.5 190.5,1087.5C 189.51,1062.57 189.177,1037.57 189.5,1012.5 Z"/></g>
<g><path style="opacity:0.998" fill="#a4a3a0" d="M 992.5,1012.5 C 998.167,1012.5 1003.83,1012.5 1009.5,1012.5C 1009.82,1037.57 1009.49,1062.57 1008.5,1087.5C 1003.17,1087.5 997.833,1087.5 992.5,1087.5C 992.5,1062.5 992.5,1037.5 992.5,1012.5 Z"/></g>
</svg>
